<svg width="280" height="819" viewBox="0 0 280 819" fill="none" xmlns="http://www.w3.org/2000/svg">
<path fill-rule="evenodd" clip-rule="evenodd" d="M-590.044 428.595C-582.033 487.133 -554.451 541.011 -520.296 590.507C-487.174 638.507 -441.984 676.268 -394.365 712.165C-344.023 750.115 -295.083 792.818 -232.138 807.731C-167.328 823.086 -95.2602 822.951 -33.7351 797.606C26.5519 772.771 62.7345 716.476 104.617 669.007C142.254 626.349 172.323 580.587 200.537 532.087C231.446 478.955 277.984 429.024 279.224 368.863C280.473 308.226 244.666 252.171 207.322 202.82C171.623 155.643 119.042 124.419 68.7298 90.6919C17.5678 56.3948 -29.6513 11.6459 -92.074 2.1157C-154.618 -7.433 -215.869 19.9776 -276.522 37.9816C-336.652 55.8303 -398.199 71.4404 -447.957 107.754C-499.388 145.289 -542.041 193.757 -566.908 249.909C-591.843 306.214 -598.272 368.474 -590.044 428.595Z" fill="#42446E"/>
</svg>
