<svg width="400" height="400" viewBox="0 0 400 400" fill="none" xmlns="http://www.w3.org/2000/svg">
<g clip-path="url(#clip0_4137_800)">
<path d="M169.507 171.154L202.249 189.266L201.017 191.576L168.566 173.12L169.507 171.154Z" fill="#E0E0E0"/>
<path d="M167.897 169.439L169.401 167.135L170.276 167.678L168.93 170.002L167.897 169.439Z" fill="#E0E0E0"/>
<path d="M198.532 186.399L200.215 187.373L194.728 222.32L192.137 222.353L198.532 186.399Z" fill="#E0E0E0"/>
<path d="M184.596 225.961C184.596 225.961 188.572 221.929 193.94 222.227C195.467 222.282 196.968 222.639 198.356 223.277C199.745 223.914 200.994 224.819 202.031 225.941L184.596 225.961Z" fill="#E0E0E0"/>
<path d="M167.923 185.274L154.962 177.793L158.706 171.319C159.698 169.602 161.333 168.348 163.25 167.834C165.167 167.32 167.211 167.588 168.931 168.578V168.578C170.649 169.571 171.902 171.205 172.415 173.12C172.928 175.035 172.659 177.076 171.667 178.793L167.923 185.274Z" fill="#E0E0E0"/>
<path d="M78.5891 225.669H120.132V223.65H78.5891V225.669Z" fill="#EBEBEB"/>
<path d="M126.566 225.669L134.359 196.495H101.922L94.8643 225.669H126.566Z" fill="#EBEBEB"/>
<path d="M96.8059 223.458H125.784L132.53 197.845H103.406L96.8059 223.458Z" fill="#E0E0E0"/>
<path d="M72.4529 231.647H70.3523V331.715H72.4529V231.647Z" fill="#F5F5F5"/>
<path d="M74.5535 231.932H72.4529V331.715H74.5535V231.932Z" fill="#EBEBEB"/>
<path d="M201.713 231.647H199.612V331.715H201.713V231.647Z" fill="#EBEBEB"/>
<path d="M203.807 231.932H201.706V331.715H203.807V231.932Z" fill="#E0E0E0"/>
<path d="M220.658 225.828H61.2936V234.037H220.658V225.828Z" fill="#E0E0E0"/>
<path d="M200.659 234.037H130.502V247.621H200.659V234.037Z" fill="#EBEBEB"/>
<path d="M168.692 239.896C168.692 240.205 168.6 240.507 168.428 240.764C168.256 241.021 168.011 241.222 167.725 241.34C167.439 241.458 167.124 241.488 166.821 241.427C166.517 241.367 166.238 241.217 166.02 240.998C165.801 240.779 165.653 240.5 165.593 240.196C165.534 239.893 165.566 239.579 165.685 239.293C165.805 239.008 166.006 238.764 166.264 238.593C166.522 238.423 166.825 238.332 167.135 238.333C167.34 238.333 167.543 238.374 167.732 238.452C167.922 238.531 168.094 238.646 168.238 238.791C168.383 238.936 168.498 239.109 168.575 239.298C168.653 239.488 168.693 239.691 168.692 239.896V239.896Z" fill="#E0E0E0"/>
<path d="M49.9885 274.644H77.5422C78.4737 274.644 79.367 274.274 80.0256 273.616C80.6843 272.958 81.0543 272.066 81.0543 271.135V262.649C81.0543 261.872 80.9013 261.104 80.6039 260.386C80.3065 259.669 79.8706 259.017 79.3211 258.468C78.7716 257.919 78.1192 257.484 77.4013 257.187C76.6833 256.89 75.9138 256.737 75.1367 256.737H49.7831L49.9885 274.644Z" fill="#EBEBEB"/>
<path d="M77.0849 279.973H22.9053C22.2023 279.973 21.5281 279.694 21.031 279.198C20.5339 278.701 20.2546 278.027 20.2546 277.325C20.2546 276.623 20.5339 275.949 21.031 275.453C21.5281 274.956 22.2023 274.677 22.9053 274.677H77.0916C77.7946 274.677 78.4688 274.956 78.9659 275.453C79.463 275.949 79.7422 276.623 79.7422 277.325C79.7422 277.673 79.6735 278.018 79.5398 278.34C79.4062 278.662 79.2104 278.954 78.9635 279.2C78.7167 279.446 78.4237 279.641 78.1013 279.773C77.779 279.906 77.4336 279.974 77.0849 279.973Z" fill="#EBEBEB"/>
<path d="M11.8586 203.572L41.6787 203.042L60.6044 274.485L20.2414 274.889L5.0133 212.257C4.76111 211.222 4.74774 210.144 4.97421 209.103C5.20067 208.063 5.66104 207.087 6.32048 206.25C6.97993 205.414 7.82119 204.738 8.78065 204.274C9.74011 203.81 10.7926 203.57 11.8586 203.572V203.572Z" fill="#E0E0E0"/>
<path d="M26.7023 279.973L17.7828 331.755H20.2281L31.9573 279.973H26.7023Z" fill="#EBEBEB"/>
<path d="M47.7354 279.973L38.2527 331.755H40.6979L52.9838 279.973H47.7354Z" fill="#E0E0E0"/>
<path d="M70.9884 279.973L81.5646 331.755H79.1193L65.7401 279.973H70.9884Z" fill="#EBEBEB"/>
<path d="M38.2527 203.042L53.0036 274.538H64.322L52.4868 211.35C52.0547 209.012 50.8167 206.899 48.9876 205.378C47.1585 203.856 44.8539 203.023 42.4739 203.022L38.2527 203.042Z" fill="#EBEBEB"/>
<path d="M339.733 223.432H298.19V225.451H339.733V223.432Z" fill="#EBEBEB"/>
<path d="M291.756 225.451L283.963 196.283H316.4L323.458 225.451H291.756Z" fill="#EBEBEB"/>
<path d="M321.51 223.246H292.531L285.785 197.627H314.916L321.51 223.246Z" fill="#E0E0E0"/>
<path d="M374.715 331.715H376.816V231.435H374.715V331.715Z" fill="#F5F5F5"/>
<path d="M372.614 331.708H374.715V231.713H372.614V331.708Z" fill="#EBEBEB"/>
<path d="M245.462 332.695H247.562V231.429H245.462V332.695Z" fill="#EBEBEB"/>
<path d="M243.361 332.695H245.462V231.72H243.361V332.695Z" fill="#E0E0E0"/>
<path d="M226.51 233.825L385.874 233.825V225.616L226.51 225.616V233.825Z" fill="#E0E0E0"/>
<path d="M246.516 247.409H316.672V233.825H246.516V247.409Z" fill="#EBEBEB"/>
<path d="M278.463 239.677C278.463 239.986 278.554 240.288 278.726 240.545C278.898 240.802 279.142 241.002 279.428 241.121C279.714 241.239 280.028 241.27 280.332 241.209C280.635 241.149 280.914 241 281.132 240.782C281.351 240.563 281.5 240.285 281.56 239.982C281.621 239.679 281.59 239.365 281.471 239.079C281.353 238.794 281.153 238.55 280.895 238.378C280.638 238.206 280.336 238.115 280.027 238.115C279.821 238.115 279.618 238.155 279.428 238.234C279.238 238.312 279.066 238.427 278.921 238.572C278.775 238.718 278.66 238.89 278.582 239.079C278.503 239.269 278.463 239.472 278.463 239.677V239.677Z" fill="#E0E0E0"/>
<path d="M336.572 274.644H309.012C308.551 274.644 308.094 274.553 307.669 274.377C307.243 274.2 306.856 273.942 306.53 273.616C306.205 273.29 305.947 272.903 305.771 272.478C305.595 272.052 305.505 271.596 305.506 271.135V262.649C305.505 261.873 305.657 261.104 305.954 260.387C306.251 259.67 306.686 259.018 307.235 258.469C307.784 257.92 308.436 257.484 309.154 257.187C309.871 256.89 310.64 256.737 311.417 256.737H336.777L336.572 274.644Z" fill="#EBEBEB"/>
<path d="M309.475 279.973H363.662C364.365 279.973 365.039 279.694 365.536 279.198C366.033 278.701 366.312 278.027 366.312 277.325C366.312 276.623 366.033 275.949 365.536 275.453C365.039 274.956 364.365 274.677 363.662 274.677H309.475C308.772 274.677 308.098 274.956 307.601 275.453C307.104 275.949 306.825 276.623 306.825 277.325C306.825 278.027 307.104 278.701 307.601 279.198C308.098 279.694 308.772 279.973 309.475 279.973Z" fill="#EBEBEB"/>
<path d="M374.702 203.572L344.882 203.042L325.969 274.485L366.332 274.889L381.574 212.257C381.825 211.22 381.837 210.14 381.608 209.098C381.38 208.056 380.917 207.079 380.255 206.243C379.593 205.406 378.749 204.73 377.787 204.268C376.825 203.805 375.77 203.567 374.702 203.572V203.572Z" fill="#E0E0E0"/>
<path d="M359.858 279.973L368.771 331.755H366.332L354.603 279.973H359.858Z" fill="#EBEBEB"/>
<path d="M338.825 279.973L348.308 331.755H345.862L333.577 279.973H338.825Z" fill="#E0E0E0"/>
<path d="M315.572 279.973L304.996 331.755H307.441L320.82 279.973H315.572Z" fill="#EBEBEB"/>
<path d="M348.308 203.042L333.557 274.538H322.239L334.067 211.35C334.501 209.012 335.74 206.898 337.57 205.377C339.4 203.856 341.706 203.023 344.087 203.022L348.308 203.042Z" fill="#EBEBEB"/>
<path d="M310.735 126.939H309.21V140.549H310.735V126.939Z" fill="#E0E0E0"/>
<path d="M360.905 126.939H359.381V140.549H360.905V126.939Z" fill="#E0E0E0"/>
<path d="M367.386 121.47H303.584V126.939H367.386V121.47Z" fill="#EBEBEB"/>
<path d="M354.782 80.5125H345.988V121.47H354.782V80.5125Z" fill="#F5F5F5"/>
<path d="M352.31 111.646C352.31 111.991 352.208 112.327 352.017 112.614C351.825 112.9 351.553 113.123 351.234 113.255C350.916 113.387 350.566 113.421 350.227 113.354C349.889 113.287 349.579 113.121 349.335 112.877C349.091 112.634 348.925 112.324 348.858 111.986C348.791 111.648 348.825 111.298 348.957 110.98C349.089 110.662 349.313 110.39 349.599 110.199C349.886 110.007 350.223 109.905 350.568 109.905C350.797 109.904 351.024 109.949 351.235 110.036C351.447 110.123 351.64 110.251 351.802 110.413C351.964 110.575 352.092 110.767 352.179 110.979C352.267 111.191 352.311 111.417 352.31 111.646V111.646Z" fill="#E0E0E0"/>
<path d="M351.833 91.3627H349.143V108.098H351.833V91.3627Z" fill="#E0E0E0"/>
<path d="M345.849 80.5125H337.056V121.47H345.849V80.5125Z" fill="#EBEBEB"/>
<path d="M343.371 111.646C343.371 111.991 343.269 112.327 343.077 112.614C342.886 112.9 342.613 113.123 342.295 113.255C341.977 113.387 341.626 113.421 341.288 113.354C340.95 113.287 340.639 113.121 340.396 112.877C340.152 112.634 339.986 112.324 339.919 111.986C339.851 111.648 339.886 111.298 340.018 110.98C340.15 110.662 340.373 110.39 340.66 110.199C340.946 110.007 341.283 109.905 341.628 109.905C341.857 109.904 342.084 109.949 342.296 110.036C342.508 110.123 342.7 110.251 342.862 110.413C343.024 110.575 343.153 110.767 343.24 110.979C343.327 111.191 343.372 111.417 343.371 111.646V111.646Z" fill="#FAFAFA"/>
<path d="M342.9 91.3627H340.21V108.098H342.9V91.3627Z" fill="#FAFAFA"/>
<path d="M337.34 80.5125H328.547V121.47H337.34V80.5125Z" fill="#E0E0E0"/>
<path d="M334.862 111.646C334.862 111.991 334.76 112.327 334.568 112.614C334.377 112.9 334.105 113.123 333.786 113.255C333.468 113.387 333.117 113.421 332.779 113.354C332.441 113.287 332.131 113.121 331.887 112.877C331.643 112.634 331.477 112.324 331.41 111.986C331.343 111.648 331.377 111.298 331.509 110.98C331.641 110.662 331.864 110.39 332.151 110.199C332.438 110.007 332.775 109.905 333.119 109.905C333.348 109.904 333.575 109.949 333.787 110.036C333.999 110.123 334.192 110.251 334.354 110.413C334.516 110.575 334.644 110.767 334.731 110.979C334.819 111.191 334.863 111.417 334.862 111.646V111.646Z" fill="#FAFAFA"/>
<path d="M334.392 91.3627H331.701V108.098H334.392V91.3627Z" fill="#FAFAFA"/>
<path d="M317.666 120.848L328.236 84.8155L324.591 83.2201L313.75 119.537L317.666 120.848Z" fill="#E0E0E0"/>
<path d="M398.896 332.43C398.896 332.529 309.489 332.602 199.221 332.602C88.9533 332.602 -0.466919 332.529 -0.466919 332.43C-0.466919 332.331 88.9202 332.238 199.221 332.238C309.522 332.238 398.896 332.337 398.896 332.43Z" fill="#263238"/>
<path d="M277.515 149.056L266.104 148.149C266.038 146.825 266.104 141.681 266.104 141.681C266.104 141.681 261.366 140.946 261.306 136.213C261.247 131.48 262.128 120.61 262.128 120.61C264.824 119.448 267.782 119.028 270.695 119.394C273.608 119.759 276.37 120.897 278.695 122.688L279.397 123.225L277.515 149.056Z" fill="#FFBE9D"/>
<path d="M263.208 128.746C263.342 128.622 263.422 128.451 263.431 128.269C263.439 128.087 263.376 127.909 263.254 127.773C263.164 127.681 263.049 127.618 262.923 127.591C262.797 127.564 262.666 127.574 262.546 127.62C262.426 127.666 262.322 127.746 262.246 127.85C262.171 127.954 262.127 128.078 262.121 128.206C262.115 128.335 262.146 128.462 262.212 128.573C262.277 128.684 262.373 128.774 262.488 128.831C262.604 128.888 262.733 128.91 262.861 128.895C262.989 128.88 263.109 128.828 263.208 128.746V128.746Z" fill="#263238"/>
<path d="M262.055 127.68C262.135 127.766 262.599 127.409 263.248 127.402C263.897 127.395 264.375 127.74 264.448 127.654C264.52 127.567 264.408 127.468 264.202 127.309C263.925 127.107 263.591 126.998 263.248 126.998C262.905 126.998 262.571 127.107 262.294 127.309C262.088 127.475 262.022 127.627 262.055 127.68Z" fill="#263238"/>
<path d="M269.576 128.229C269.47 128.301 269.386 128.403 269.336 128.521C269.286 128.64 269.271 128.77 269.294 128.897C269.317 129.023 269.377 129.141 269.465 129.234C269.554 129.327 269.668 129.393 269.793 129.423C269.918 129.453 270.05 129.445 270.171 129.402C270.292 129.358 270.398 129.28 270.475 129.177C270.553 129.075 270.599 128.952 270.608 128.823C270.616 128.695 270.587 128.567 270.524 128.455C270.479 128.375 270.418 128.305 270.345 128.25C270.272 128.195 270.189 128.156 270.1 128.135C270.011 128.114 269.918 128.111 269.828 128.127C269.738 128.144 269.652 128.178 269.576 128.229Z" fill="#263238"/>
<path d="M269.146 128.236C269.218 128.322 269.682 127.958 270.338 127.958C270.994 127.958 271.465 128.289 271.538 128.21C271.611 128.13 271.498 128.024 271.293 127.865C271.013 127.666 270.676 127.561 270.332 127.567C269.988 127.566 269.654 127.68 269.384 127.892C269.179 128.051 269.112 128.203 269.146 128.236Z" fill="#263238"/>
<path d="M266.528 133.638C266.193 133.502 265.836 133.426 265.475 133.413C265.302 133.413 265.17 133.353 265.156 133.261C265.149 133.091 265.191 132.924 265.276 132.777L265.793 131.453C266.282 130.333 266.657 129.167 266.913 127.971C266.314 129.039 265.823 130.163 265.448 131.328C265.276 131.784 265.117 132.228 264.958 132.652C264.851 132.871 264.818 133.12 264.865 133.36C264.889 133.426 264.927 133.485 264.978 133.533C265.028 133.582 265.09 133.617 265.156 133.638C265.251 133.663 265.35 133.674 265.448 133.671C265.807 133.718 266.172 133.707 266.528 133.638V133.638Z" fill="#263238"/>
<path d="M268.649 134.333C267.63 134.789 266.553 135.104 265.448 135.266C265.669 135.609 265.999 135.867 266.386 135.997C266.773 136.127 267.192 136.121 267.575 135.981C268.993 135.465 268.649 134.333 268.649 134.333Z" fill="white"/>
<path d="M266.144 141.615C268.331 141.653 270.48 141.043 272.32 139.861C272.32 139.861 270.862 143.263 266.131 142.84L266.144 141.615Z" fill="#EB996E"/>
<path d="M262.015 121.801C262.015 121.801 264.792 123.403 268.642 121.801C271.193 120.755 274.096 120.371 274.692 120.908C275.288 121.444 275.229 123.986 277.608 124.88C277.608 124.88 277.084 129.686 279.026 129.659C280.968 129.633 280.311 122.073 280.311 122.073L275.772 119.425L270.703 118.101L265.812 118.425L261.989 119.173L262.015 121.801Z" fill="#263238"/>
<path d="M278.781 128.13C278.86 128.097 282.035 127.17 281.935 130.401C281.836 133.631 278.622 132.87 278.622 132.777C278.622 132.685 278.781 128.13 278.781 128.13Z" fill="#FFBE9D"/>
<path d="M279.622 131.579C279.622 131.579 279.682 131.619 279.775 131.672C279.912 131.724 280.062 131.724 280.199 131.672C280.408 131.543 280.58 131.362 280.697 131.145C280.813 130.929 280.87 130.686 280.862 130.441C280.88 130.163 280.835 129.884 280.729 129.626C280.701 129.525 280.649 129.432 280.577 129.355C280.506 129.278 280.417 129.219 280.318 129.183C280.254 129.164 280.185 129.169 280.123 129.196C280.062 129.222 280.011 129.269 279.98 129.328C279.934 129.414 279.98 129.481 279.934 129.487C279.888 129.494 279.868 129.428 279.934 129.295C279.952 129.215 279.999 129.144 280.066 129.097C280.157 129.034 280.269 129.008 280.378 129.024C280.511 129.055 280.633 129.119 280.734 129.211C280.835 129.302 280.911 129.418 280.954 129.547C281.083 129.831 281.14 130.142 281.12 130.454C281.128 130.742 281.049 131.027 280.895 131.271C280.74 131.515 280.516 131.707 280.252 131.824C280.165 131.847 280.074 131.85 279.985 131.833C279.897 131.816 279.814 131.779 279.742 131.725C279.629 131.652 279.616 131.586 279.622 131.579Z" fill="#EB996E"/>
<path d="M265.229 126.601C265.123 126.786 264.507 126.601 263.765 126.601C263.023 126.601 262.386 126.661 262.3 126.462C262.214 126.263 262.85 125.8 263.798 125.84C264.745 125.879 265.342 126.429 265.229 126.601Z" fill="#263238"/>
<path d="M272.499 126.601C272.393 126.786 271.776 126.601 271.034 126.601C270.292 126.601 269.656 126.661 269.57 126.462C269.484 126.263 270.12 125.8 271.067 125.84C272.015 125.879 272.611 126.429 272.499 126.601Z" fill="#263238"/>
<path d="M275.905 121.596C276.436 122.402 277.068 123.136 277.787 123.781C278.516 124.423 279.466 124.757 280.437 124.714C280.919 124.677 281.377 124.489 281.745 124.176C282.112 123.863 282.372 123.442 282.485 122.973C282.523 122.739 282.51 122.499 282.447 122.269C282.384 122.04 282.272 121.827 282.12 121.645C281.967 121.463 281.777 121.316 281.562 121.214C281.347 121.112 281.113 121.057 280.875 121.053C281.034 121.079 281.198 121.066 281.351 121.015C281.505 120.965 281.644 120.878 281.757 120.762C281.87 120.646 281.953 120.505 281.999 120.35C282.046 120.196 282.055 120.032 282.025 119.873C281.995 119.715 281.927 119.566 281.827 119.438C281.727 119.311 281.598 119.21 281.451 119.144C281.304 119.077 281.143 119.047 280.981 119.055C280.82 119.064 280.663 119.111 280.524 119.193C281.352 119.147 281.61 117.869 281.034 117.273C280.71 117.011 280.324 116.836 279.913 116.767C279.502 116.697 279.08 116.735 278.688 116.876C277.909 117.166 277.107 117.388 276.289 117.538C274.964 117.651 273.758 116.956 272.724 116.161C271.759 115.284 270.686 114.534 269.53 113.93C268.014 113.375 266.357 113.337 264.818 113.824C263.52 114.139 262.328 114.792 261.366 115.718C260.887 116.182 260.519 116.748 260.29 117.374C260.06 117.999 259.975 118.669 260.041 119.332C260.127 119.992 260.419 120.607 260.876 121.091C261.333 121.575 261.931 121.902 262.585 122.027C264.477 122.395 266.438 122.115 268.152 121.232C270.802 119.762 275.845 120.656 275.845 120.656L275.905 121.596Z" fill="#263238"/>
<path d="M280.848 118.458C280.788 118.51 280.718 118.55 280.643 118.577C280.443 118.683 280.238 118.776 280.027 118.856C279.244 119.159 278.427 119.366 277.595 119.471C276.36 119.64 275.105 119.597 273.884 119.345C272.415 118.971 270.981 118.473 269.596 117.856C268.239 117.254 266.759 116.98 265.276 117.055C264.68 117.095 264.1 117.261 263.573 117.541C263.046 117.822 262.586 118.211 262.221 118.683C261.755 119.348 261.563 120.165 261.684 120.967C261.747 121.261 261.833 121.548 261.942 121.828C261.942 121.828 261.883 121.768 261.797 121.636C261.68 121.43 261.598 121.206 261.552 120.974C261.464 120.555 261.46 120.123 261.541 119.702C261.621 119.282 261.785 118.881 262.022 118.525C262.397 118.009 262.878 117.581 263.434 117.269C263.99 116.957 264.607 116.769 265.243 116.717C266.779 116.617 268.316 116.892 269.722 117.518C271.09 118.128 272.503 118.628 273.95 119.014C275.138 119.271 276.359 119.338 277.568 119.213C278.684 119.069 279.782 118.816 280.848 118.458V118.458Z" fill="#455A64"/>
<path d="M281.644 123.582C281.677 123.582 281.531 123.9 281.133 124.244C280.605 124.698 279.946 124.974 279.251 125.032C278.556 125.09 277.861 124.928 277.263 124.569C276.813 124.284 276.601 124.013 276.647 123.986C276.694 123.96 276.932 124.145 277.376 124.35C277.95 124.629 278.588 124.748 279.224 124.695C279.86 124.641 280.469 124.417 280.988 124.046C281.392 123.781 281.604 123.549 281.644 123.582Z" fill="#455A64"/>
<path d="M280.848 121.874C280.928 121.921 280.603 122.47 279.934 122.814C279.265 123.159 278.609 123.106 278.609 123.013C278.609 122.92 279.159 122.821 279.755 122.51C280.351 122.199 280.776 121.808 280.848 121.874Z" fill="#455A64"/>
<path d="M260.14 123.708C260.1 123.708 260.027 123.542 260.041 123.251C260.069 122.869 260.218 122.505 260.465 122.212C260.713 121.92 261.051 121.717 261.426 121.636C261.711 121.576 261.883 121.636 261.89 121.636C261.896 121.636 261.227 121.828 260.73 122.41C260.233 122.993 260.266 123.708 260.14 123.708Z" fill="#263238"/>
<path d="M259.106 118.928C259.425 119.512 259.788 120.069 260.193 120.597C260.68 121.053 261.203 121.469 261.757 121.841C261.401 121.807 261.055 121.7 260.743 121.525C260.43 121.351 260.157 121.114 259.941 120.828C259.681 120.584 259.473 120.29 259.33 119.963C259.186 119.637 259.11 119.285 259.106 118.928Z" fill="#455A64"/>
<path d="M216.199 177.681C216.199 177.681 230.294 195.555 237.139 192.245C243.984 188.935 256.263 177.681 256.263 177.681L249.464 170.862L235.694 182.957L218.723 173.305L216.199 177.681Z" fill="#FFBE9D"/>
<path d="M288.476 204.624L252.539 202.923C252.447 198.997 254.103 171.2 254.103 171.2L252.115 174.894L241.87 165.771L250.863 153.69C252.271 151.792 254.044 150.195 256.079 148.992C258.114 147.79 260.369 147.005 262.711 146.686C264.103 146.501 265.156 146.408 265.846 146.322C269.796 147.57 274.035 147.57 277.986 146.322V146.322C279.702 146.38 281.399 146.703 283.015 147.282C286.059 148.363 288.807 150.14 291.04 152.472V152.472L301.756 170.458L288.741 178.654L286.872 172.994L288.476 204.624Z" fill="#455A64"/>
<path d="M299.317 326.022L300.443 330.755C300.443 330.755 308.203 340.824 310.595 340.328C312.166 340.01 310.238 337.382 307.282 329.736L306.659 326.578L299.317 326.022Z" fill="#FFC42E"/>
<path d="M310.914 338.858C310.898 338.907 310.876 338.954 310.847 338.997C310.768 339.125 310.656 339.23 310.523 339.302C310.32 339.412 310.091 339.465 309.86 339.454C309.543 339.425 309.239 339.313 308.979 339.129C307.593 338.012 306.289 336.797 305.076 335.495C303.847 334.205 302.688 332.85 301.603 331.437C301.192 330.888 300.868 330.444 300.649 330.113L300.404 329.749C300.373 329.707 300.346 329.663 300.324 329.617C300.355 329.658 300.381 329.702 300.404 329.749L300.675 330.093L301.663 331.371C302.511 332.437 303.724 333.88 305.155 335.389C306.368 336.682 307.655 337.902 309.012 339.043C309.216 339.211 309.463 339.319 309.725 339.356C309.987 339.392 310.254 339.355 310.496 339.249C310.667 339.157 310.811 339.022 310.914 338.858Z" fill="#263238"/>
<path d="M309.84 335.608C309.84 335.608 309.595 335.608 309.177 335.641C308.682 335.721 308.209 335.902 307.786 336.17C307.349 336.419 306.988 336.78 306.739 337.216C306.553 337.554 306.5 337.792 306.474 337.786C306.48 337.568 306.537 337.355 306.639 337.163C306.876 336.693 307.244 336.302 307.7 336.038C308.146 335.76 308.653 335.592 309.177 335.548C309.399 335.505 309.629 335.525 309.84 335.608V335.608Z" fill="#263238"/>
<path d="M302.471 333.244C302.471 333.244 302.551 332.907 302.61 332.357C302.69 331.642 302.556 330.919 302.226 330.278C301.899 329.639 301.38 329.118 300.742 328.789C300.468 328.667 300.187 328.563 299.9 328.478C299.981 328.466 300.064 328.466 300.145 328.478C300.374 328.513 300.597 328.58 300.808 328.676C301.489 328.992 302.043 329.528 302.378 330.199C302.724 330.862 302.85 331.618 302.736 332.357C302.708 332.582 302.657 332.804 302.584 333.019C302.561 333.101 302.523 333.177 302.471 333.244V333.244Z" fill="#263238"/>
<path d="M299.814 326.823C300.031 327.292 300.175 327.792 300.238 328.306C300.384 329.146 300.536 329.808 300.503 329.822C300.286 329.351 300.147 328.848 300.092 328.332C299.946 327.498 299.774 326.836 299.814 326.823Z" fill="#263238"/>
<path d="M307.421 330.404C307.421 330.451 306.984 330.404 306.46 330.556C305.937 330.709 305.553 330.881 305.533 330.841C305.78 330.61 306.092 330.46 306.427 330.411C306.751 330.311 307.097 330.308 307.421 330.404Z" fill="#263238"/>
<path d="M307.58 331.219C307.58 331.258 307.209 331.219 306.778 331.331C306.348 331.444 306.036 331.629 306.01 331.589C306.198 331.369 306.459 331.223 306.745 331.179C307.019 331.086 307.317 331.1 307.58 331.219V331.219Z" fill="#263238"/>
<path d="M308.203 332.238C307.926 332.207 307.646 332.207 307.368 332.238C307.102 332.325 306.845 332.435 306.6 332.569C306.68 332.441 306.787 332.331 306.914 332.249C307.041 332.167 307.185 332.113 307.335 332.092C307.481 332.049 307.636 332.04 307.786 332.065C307.936 332.091 308.079 332.15 308.203 332.238V332.238Z" fill="#263238"/>
<path d="M306.891 330.067C306.804 330.068 306.717 330.057 306.633 330.034C306.407 329.99 306.186 329.928 305.97 329.848C305.635 329.737 305.311 329.595 305.003 329.425C304.83 329.325 304.651 329.219 304.473 329.094C304.365 329.031 304.274 328.945 304.206 328.842C304.139 328.738 304.096 328.621 304.082 328.498C304.091 328.432 304.115 328.369 304.151 328.314C304.187 328.258 304.235 328.211 304.291 328.176C304.347 328.141 304.41 328.118 304.476 328.11C304.541 328.101 304.608 328.107 304.671 328.127C304.882 328.194 305.07 328.318 305.215 328.484C305.467 328.732 305.706 328.993 305.93 329.266C306.116 329.497 306.262 329.689 306.354 329.828C306.447 329.967 306.494 330.053 306.48 330.06C306.467 330.067 306.242 329.775 305.818 329.332C305.619 329.113 305.374 328.855 305.089 328.59C304.961 328.444 304.796 328.334 304.612 328.273C304.439 328.226 304.214 328.319 304.207 328.504C304.201 328.69 304.373 328.855 304.532 328.968C304.698 329.087 304.871 329.198 305.049 329.299C305.347 329.476 305.659 329.627 305.983 329.749C306.527 329.967 306.898 330.04 306.891 330.067Z" fill="#263238"/>
<path d="M306.48 329.967C306.469 329.888 306.469 329.808 306.48 329.729C306.48 329.577 306.48 329.358 306.527 329.067C306.567 328.744 306.649 328.428 306.772 328.127C306.85 327.948 306.952 327.781 307.077 327.63C307.144 327.534 307.242 327.462 307.355 327.428C307.468 327.393 307.589 327.397 307.7 327.438C307.791 327.509 307.86 327.605 307.897 327.715C307.935 327.824 307.94 327.942 307.912 328.054C307.88 328.246 307.825 328.433 307.746 328.61C307.608 328.905 307.42 329.174 307.189 329.405C307.038 329.562 306.872 329.704 306.692 329.828C306.632 329.88 306.562 329.92 306.487 329.947C306.487 329.947 306.752 329.736 307.11 329.332C307.318 329.102 307.488 328.841 307.613 328.557C307.689 328.391 307.74 328.215 307.766 328.034C307.766 327.862 307.766 327.644 307.627 327.571C307.487 327.498 307.309 327.571 307.189 327.736C307.074 327.874 306.976 328.025 306.898 328.187C306.774 328.473 306.685 328.773 306.633 329.08C306.602 329.379 306.551 329.675 306.48 329.967V329.967Z" fill="#263238"/>
<g opacity="0.4">
<path opacity="0.4" d="M300.443 330.755L299.9 328.478C299.9 328.478 301.802 328.829 302.292 330.252C302.586 331.027 302.712 331.855 302.663 332.682L306.798 337.13C306.798 337.13 307.832 335.104 309.707 335.594C309.707 335.594 311.185 338.838 311.139 339.652C311.092 340.467 310.151 340.367 309.813 340.215C308.45 339.419 307.206 338.437 306.116 337.296C304.116 335.212 302.222 333.03 300.443 330.755V330.755Z" fill="black"/>
</g>
<path d="M260.756 328.412L260.723 322.096L272.572 321.951L272.717 331.219L271.988 331.278C268.715 331.497 255.356 332.172 253.162 331.536C250.717 330.801 260.756 328.412 260.756 328.412Z" fill="#FFC42E"/>
<g opacity="0.4">
<path opacity="0.4" d="M268.423 331.152C268.589 330.153 269.115 329.249 269.901 328.61C270.679 327.98 271.664 327.662 272.664 327.717L272.704 331.027L268.423 331.152Z" fill="black"/>
</g>
<path opacity="0.4" d="M255.853 329.755C255.853 329.755 252.34 330.815 252.784 331.391C253.228 331.967 266.76 331.794 272.717 331.192V330.934L256.939 331.265C256.939 331.265 256.542 329.775 255.853 329.755Z" fill="black"/>
<path d="M272.883 330.914H272.678L272.095 330.954L269.941 331.073C268.125 331.166 265.614 331.252 262.837 331.291C260.061 331.331 257.536 331.291 255.72 331.291L253.566 331.232H252.983H252.778H252.983H253.566H255.727C257.542 331.232 260.054 331.232 262.83 331.232C265.607 331.232 268.132 331.119 269.941 331.06L272.068 330.914H272.651H272.883Z" fill="#263238"/>
<path d="M256.926 331.45C256.825 331.096 256.685 330.754 256.509 330.431C256.297 330.121 256.048 329.838 255.766 329.59C256.137 329.719 256.446 329.981 256.634 330.325C256.868 330.651 256.972 331.052 256.926 331.45V331.45Z" fill="#263238"/>
<path d="M260.399 329.636C260.365 329.636 260.193 329.451 260.021 329.186C259.849 328.921 259.729 328.676 259.762 328.657C259.796 328.637 259.961 328.835 260.14 329.107C260.319 329.378 260.432 329.59 260.399 329.636Z" fill="#263238"/>
<path d="M261.353 329.113C261.353 329.146 261.141 329.021 260.929 328.842C260.716 328.663 260.577 328.491 260.604 328.458C260.63 328.425 260.816 328.551 261.028 328.736C261.24 328.921 261.379 329.087 261.353 329.113Z" fill="#263238"/>
<path d="M261.943 327.988C261.747 328.064 261.536 328.093 261.326 328.074C261.319 328.033 261.319 327.99 261.329 327.949C261.338 327.908 261.355 327.869 261.38 327.835C261.404 327.801 261.436 327.772 261.472 327.751C261.508 327.729 261.548 327.715 261.589 327.709C261.631 327.703 261.673 327.706 261.714 327.717C261.755 327.728 261.793 327.747 261.826 327.773C261.859 327.799 261.886 327.832 261.906 327.869C261.926 327.905 261.939 327.946 261.943 327.988V327.988Z" fill="#263238"/>
<path d="M262.128 327.2C261.932 327.331 261.701 327.402 261.465 327.405C261.226 327.453 260.977 327.423 260.756 327.319C260.988 327.281 261.224 327.263 261.459 327.266C261.679 327.224 261.903 327.201 262.128 327.2V327.2Z" fill="#263238"/>
<path d="M259.988 328.604C259.736 328.653 259.477 328.653 259.225 328.604C258.95 328.571 258.677 328.516 258.41 328.438C258.25 328.392 258.094 328.33 257.947 328.253C257.9 328.228 257.859 328.194 257.826 328.153C257.793 328.112 257.769 328.065 257.754 328.014C257.743 327.959 257.746 327.901 257.765 327.847C257.784 327.794 257.817 327.746 257.86 327.71C258.15 327.563 258.482 327.522 258.799 327.594C259.116 327.665 259.398 327.844 259.597 328.1C259.717 328.247 259.803 328.419 259.848 328.604C259.863 328.671 259.863 328.741 259.848 328.809C259.767 328.57 259.646 328.346 259.491 328.147C259.314 327.949 259.084 327.807 258.828 327.736C258.679 327.687 258.523 327.669 258.367 327.681C258.211 327.694 258.059 327.737 257.92 327.809C257.801 327.902 257.854 328.041 257.986 328.12C258.124 328.193 258.268 328.253 258.417 328.299C258.675 328.381 258.939 328.445 259.206 328.491C259.696 328.584 259.981 328.584 259.988 328.604Z" fill="#263238"/>
<path d="M259.789 328.643C259.789 328.643 259.663 328.465 259.696 328.12C259.714 327.919 259.782 327.726 259.895 327.558C259.957 327.444 260.048 327.348 260.158 327.28C260.269 327.212 260.395 327.173 260.524 327.167C260.601 327.183 260.668 327.228 260.712 327.292C260.757 327.356 260.775 327.434 260.763 327.511C260.745 327.634 260.702 327.751 260.637 327.856C260.538 328.023 260.42 328.178 260.286 328.319C260.047 328.557 259.862 328.65 259.848 328.63C259.835 328.61 260.001 328.498 260.206 328.253C260.328 328.111 260.433 327.956 260.518 327.789C260.624 327.63 260.69 327.339 260.518 327.306C260.345 327.273 260.14 327.485 260.021 327.637C259.919 327.787 259.849 327.956 259.815 328.134C259.792 328.302 259.783 328.473 259.789 328.643Z" fill="#263238"/>
<path d="M272.598 327.683C272.598 327.683 272.26 327.683 271.724 327.73C271.027 327.815 270.368 328.095 269.825 328.54C269.282 328.984 268.876 329.573 268.655 330.239C268.476 330.749 268.463 331.086 268.437 331.086C268.424 331.007 268.424 330.927 268.437 330.848C268.453 330.623 268.493 330.402 268.556 330.186C268.76 329.487 269.171 328.866 269.735 328.405C270.3 327.944 270.99 327.665 271.717 327.604C271.937 327.582 272.159 327.582 272.38 327.604C272.456 327.62 272.529 327.647 272.598 327.683V327.683Z" fill="#263238"/>
<path d="M271.313 322.778C271.401 323.585 271.445 324.396 271.445 325.208C271.493 326.017 271.493 326.828 271.445 327.637C271.308 326.021 271.269 324.399 271.326 322.778H271.313Z" fill="#263238"/>
<path d="M266.919 330.02C266.353 330.156 265.772 330.22 265.19 330.212C264.608 330.248 264.024 330.208 263.453 330.093C263.453 330.053 264.235 330.093 265.19 330.093C266.144 330.093 266.913 329.981 266.919 330.02Z" fill="#263238"/>
<path d="M269.238 329.987C269.238 329.987 269.179 330.153 269.099 330.331C269.02 330.51 268.98 330.662 268.94 330.662C268.9 330.662 268.881 330.477 268.94 330.272C269 330.067 269.212 329.961 269.238 329.987Z" fill="#263238"/>
<path d="M270.08 328.888C270.08 328.888 270.034 329.041 269.914 329.166C269.795 329.292 269.669 329.371 269.643 329.345C269.616 329.319 269.689 329.193 269.808 329.067C269.928 328.941 270.08 328.862 270.08 328.888Z" fill="#263238"/>
<path d="M271.346 328.372C271.346 328.412 271.18 328.412 271.008 328.478C270.835 328.544 270.71 328.637 270.676 328.61C270.643 328.584 270.743 328.418 270.961 328.345C271.18 328.273 271.359 328.339 271.346 328.372Z" fill="#263238"/>
<path d="M272.234 328.127C272.234 328.167 272.181 328.226 272.081 328.266C271.982 328.306 271.896 328.306 271.883 328.266C271.869 328.226 271.936 328.167 272.028 328.127C272.121 328.087 272.221 328.094 272.234 328.127Z" fill="#263238"/>
<path d="M252.692 202.923L258.225 325.691L276.674 326.075L273.612 223.299L294.36 326.863H311.908L288.476 202.923" fill="#263238"/>
<path d="M293.452 325.194L293.87 327.008L311.908 327.253L311.629 324.413L293.452 325.194Z" fill="#455A64"/>
<path d="M273.493 325.009C273.599 325.009 273.692 325.241 273.711 325.545C273.731 325.85 273.652 326.095 273.546 326.101C273.44 326.108 273.347 325.87 273.327 325.565C273.307 325.26 273.393 325.009 273.493 325.009Z" fill="#455A64"/>
<path d="M273.307 320.56C273.413 320.56 273.519 321.05 273.539 321.666C273.559 322.282 273.499 322.785 273.393 322.785C273.287 322.785 273.181 322.295 273.162 321.679C273.142 321.063 273.201 320.567 273.307 320.56Z" fill="#455A64"/>
<path d="M273.175 316.112C273.281 316.112 273.38 316.608 273.4 317.224C273.42 317.839 273.347 318.336 273.241 318.336C273.135 318.336 273.036 317.846 273.016 317.23C272.996 316.615 273.069 316.118 273.175 316.112Z" fill="#455A64"/>
<path d="M273.069 311.663C273.175 311.663 273.267 312.16 273.287 312.769C273.307 313.378 273.228 313.887 273.122 313.887C273.016 313.887 272.916 313.397 272.903 312.782C272.89 312.166 272.963 311.663 273.069 311.663Z" fill="#455A64"/>
<path d="M272.963 307.208C273.062 307.208 273.161 307.704 273.175 308.32C273.188 308.936 273.122 309.432 273.016 309.439C272.91 309.445 272.81 308.942 272.797 308.327C272.784 307.711 272.857 307.214 272.963 307.208Z" fill="#455A64"/>
<path d="M272.837 302.759C272.936 302.759 273.042 303.249 273.055 303.865C273.069 304.48 273.009 304.983 272.903 304.983C272.797 304.983 272.697 304.494 272.678 303.878C272.658 303.262 272.731 302.759 272.837 302.759Z" fill="#455A64"/>
<path d="M272.664 298.31C272.764 298.31 272.876 298.8 272.903 299.409C272.929 300.018 272.863 300.528 272.757 300.535C272.651 300.541 272.545 300.045 272.519 299.429C272.492 298.814 272.558 298.31 272.664 298.31Z" fill="#455A64"/>
<path d="M272.479 293.842C272.585 293.842 272.691 294.332 272.717 294.948C272.744 295.563 272.671 296.06 272.572 296.066C272.472 296.073 272.359 295.576 272.333 294.961C272.306 294.345 272.373 293.842 272.479 293.842Z" fill="#455A64"/>
<path d="M272.32 289.413C272.426 289.413 272.525 289.903 272.552 290.519C272.578 291.134 272.505 291.631 272.399 291.638C272.293 291.644 272.187 291.148 272.167 290.532C272.147 289.916 272.214 289.413 272.32 289.413Z" fill="#455A64"/>
<path d="M272.181 284.965C272.28 284.965 272.386 285.454 272.399 286.07C272.413 286.686 272.353 287.182 272.247 287.189C272.141 287.196 272.041 286.692 272.022 286.083C272.002 285.474 272.068 284.965 272.181 284.965Z" fill="#455A64"/>
<path d="M272.068 280.516C272.167 280.516 272.267 281.006 272.287 281.621C272.306 282.237 272.227 282.734 272.121 282.74C272.015 282.747 271.916 282.244 271.902 281.635C271.889 281.026 271.955 280.516 272.068 280.516Z" fill="#455A64"/>
<path d="M271.962 276.061C272.068 276.061 272.161 276.557 272.174 277.173C272.187 277.788 272.114 278.285 272.008 278.292C271.902 278.298 271.803 277.795 271.796 277.179C271.79 276.564 271.856 276.067 271.962 276.061Z" fill="#455A64"/>
<path d="M271.889 271.612C271.988 271.612 272.088 272.109 272.094 272.724C272.101 273.34 272.028 273.836 271.922 273.836C271.816 273.836 271.723 273.346 271.71 272.731C271.697 272.115 271.783 271.612 271.889 271.612Z" fill="#455A64"/>
<path d="M271.836 267.163C271.942 267.163 272.028 267.66 272.035 268.276C272.041 268.891 271.962 269.388 271.856 269.388C271.75 269.388 271.664 268.891 271.657 268.276C271.65 267.66 271.73 267.163 271.836 267.163Z" fill="#455A64"/>
<path d="M271.81 262.728C271.916 262.728 272.002 263.231 272.002 263.84C272.002 264.449 271.922 264.959 271.816 264.959C271.71 264.959 271.624 264.462 271.624 263.847C271.624 263.231 271.704 262.728 271.81 262.728Z" fill="#455A64"/>
<path d="M271.803 258.26C271.909 258.26 271.995 258.756 271.995 259.372C271.995 259.987 271.909 260.484 271.803 260.484C271.697 260.484 271.611 259.987 271.611 259.372C271.611 258.756 271.697 258.26 271.803 258.26Z" fill="#455A64"/>
<path d="M271.823 253.811C271.929 253.811 272.015 254.307 272.008 254.923C272.002 255.539 271.916 256.035 271.81 256.035C271.704 256.035 271.624 255.532 271.631 254.923C271.637 254.314 271.717 253.811 271.823 253.811Z" fill="#455A64"/>
<path d="M271.869 249.356C271.975 249.356 272.055 249.859 272.048 250.474C272.041 251.09 271.949 251.587 271.843 251.58C271.737 251.573 271.657 251.083 271.664 250.468C271.67 249.852 271.763 249.356 271.869 249.356Z" fill="#455A64"/>
<path d="M271.942 244.907C272.048 244.907 272.121 245.41 272.115 246.026C272.108 246.641 272.008 247.131 271.902 247.131C271.796 247.131 271.724 246.628 271.73 246.019C271.737 245.41 271.836 244.907 271.942 244.907Z" fill="#455A64"/>
<path d="M272.028 240.452C272.134 240.452 272.214 240.955 272.201 241.57C272.187 242.186 272.088 242.683 271.982 242.683C271.876 242.683 271.803 242.18 271.816 241.564C271.83 240.948 271.929 240.452 272.028 240.452Z" fill="#455A64"/>
<path d="M272.167 236.003C272.273 236.003 272.34 236.506 272.32 237.122C272.3 237.737 272.194 238.234 272.068 238.234C271.942 238.234 271.896 237.731 271.922 237.115C271.949 236.5 272.068 235.996 272.167 236.003Z" fill="#455A64"/>
<path d="M272.406 231.554C272.512 231.554 272.565 232.064 272.525 232.673C272.485 233.282 272.373 233.779 272.273 233.779C272.174 233.779 272.108 233.269 272.147 232.653C272.187 232.038 272.3 231.548 272.406 231.554Z" fill="#455A64"/>
<path d="M272.797 227.119C272.903 227.119 272.936 227.635 272.876 228.244C272.817 228.853 272.684 229.343 272.578 229.33C272.472 229.317 272.439 228.82 272.499 228.205C272.558 227.589 272.691 227.106 272.797 227.119Z" fill="#455A64"/>
<path d="M273.221 223.822C273.32 223.822 273.373 224.094 273.334 224.398C273.294 224.703 273.168 224.928 273.062 224.915C272.956 224.901 272.91 224.643 272.956 224.339C273.002 224.034 273.115 223.809 273.221 223.822Z" fill="#455A64"/>
<path d="M257.741 326.287L277.257 326.604L277.104 323.354L257.741 323.46V326.287Z" fill="#455A64"/>
<path d="M308.23 323.414C308.329 323.414 308.455 323.625 308.501 323.923C308.548 324.221 308.501 324.479 308.402 324.499C308.303 324.519 308.177 324.287 308.13 323.983C308.084 323.678 308.124 323.433 308.23 323.414Z" fill="#455A64"/>
<path d="M307.527 319.144C307.633 319.144 307.799 319.594 307.892 320.183C307.985 320.772 307.985 321.262 307.892 321.282C307.799 321.302 307.627 320.832 307.527 320.243C307.428 319.653 307.428 319.163 307.527 319.144Z" fill="#455A64"/>
<path d="M306.825 314.88C306.931 314.88 307.09 315.324 307.189 315.913C307.289 316.502 307.282 316.999 307.189 317.012C307.097 317.025 306.924 316.568 306.825 315.979C306.725 315.39 306.719 314.9 306.825 314.88Z" fill="#455A64"/>
<path d="M306.116 310.617C306.215 310.617 306.381 311.061 306.48 311.65C306.58 312.239 306.573 312.729 306.48 312.749C306.388 312.769 306.215 312.299 306.116 311.716C306.016 311.133 306.01 310.63 306.116 310.617Z" fill="#455A64"/>
<path d="M305.393 306.354C305.5 306.354 305.665 306.797 305.765 307.386C305.864 307.976 305.857 308.466 305.765 308.485C305.672 308.505 305.5 308.035 305.4 307.446C305.301 306.857 305.287 306.367 305.393 306.354Z" fill="#455A64"/>
<path d="M304.671 302.091C304.771 302.091 304.936 302.534 305.042 303.123C305.148 303.712 305.135 304.202 305.042 304.222C304.949 304.242 304.771 303.772 304.671 303.183C304.572 302.594 304.539 302.104 304.671 302.091Z" fill="#455A64"/>
<path d="M303.936 297.814C304.042 297.814 304.207 298.258 304.307 298.847C304.406 299.436 304.406 299.926 304.307 299.946C304.207 299.965 304.035 299.502 303.936 298.913C303.836 298.324 303.836 297.847 303.936 297.814Z" fill="#455A64"/>
<path d="M303.213 293.564C303.319 293.564 303.485 294.008 303.584 294.597C303.684 295.186 303.684 295.676 303.584 295.696C303.485 295.715 303.313 295.252 303.213 294.663C303.114 294.074 303.094 293.584 303.213 293.564Z" fill="#455A64"/>
<path d="M302.458 289.307C302.557 289.307 302.73 289.751 302.829 290.34C302.928 290.929 302.935 291.419 302.829 291.439C302.723 291.459 302.557 290.995 302.451 290.406C302.345 289.817 302.352 289.327 302.458 289.307Z" fill="#455A64"/>
<path d="M301.702 285.051C301.808 285.051 301.974 285.494 302.08 286.077C302.186 286.659 302.186 287.162 302.08 287.176C301.974 287.189 301.808 286.732 301.702 286.15C301.596 285.567 301.596 285.064 301.702 285.051Z" fill="#455A64"/>
<path d="M300.947 280.794C301.046 280.794 301.219 281.237 301.325 281.82C301.431 282.403 301.431 282.899 301.325 282.919C301.219 282.939 301.053 282.475 300.947 281.886C300.841 281.297 300.841 280.807 300.947 280.794Z" fill="#455A64"/>
<path d="M300.178 276.537C300.284 276.537 300.457 276.981 300.563 277.563C300.669 278.146 300.669 278.643 300.563 278.662C300.457 278.682 300.291 278.219 300.185 277.636C300.079 277.054 300.079 276.557 300.178 276.537Z" fill="#455A64"/>
<path d="M299.41 272.281C299.509 272.281 299.681 272.724 299.787 273.313C299.893 273.903 299.9 274.392 299.787 274.406C299.675 274.419 299.516 273.969 299.41 273.38C299.304 272.79 299.304 272.3 299.41 272.281Z" fill="#455A64"/>
<path d="M298.628 268.024C298.734 268.024 298.906 268.461 299.012 269.05C299.118 269.639 299.125 270.129 299.012 270.149C298.899 270.169 298.74 269.705 298.634 269.116C298.528 268.527 298.528 268.024 298.628 268.024Z" fill="#455A64"/>
<path d="M297.846 263.774C297.952 263.774 298.124 264.217 298.23 264.807C298.336 265.396 298.343 265.879 298.23 265.899C298.117 265.919 297.958 265.462 297.846 264.873C297.733 264.284 297.74 263.794 297.846 263.774Z" fill="#455A64"/>
<path d="M297.057 259.524C297.157 259.524 297.329 259.967 297.441 260.55C297.554 261.133 297.554 261.629 297.441 261.649C297.329 261.669 297.17 261.212 297.057 260.623C296.944 260.034 296.951 259.544 297.057 259.524Z" fill="#455A64"/>
<path d="M296.255 255.274C296.361 255.274 296.534 255.717 296.646 256.3C296.759 256.883 296.759 257.379 296.646 257.399C296.534 257.419 296.375 256.962 296.262 256.373C296.149 255.784 296.156 255.294 296.255 255.274Z" fill="#455A64"/>
<path d="M295.453 251.024C295.553 251.024 295.732 251.467 295.838 252.05C295.944 252.632 295.957 253.129 295.838 253.149C295.718 253.169 295.559 252.712 295.447 252.123C295.334 251.534 295.347 251.044 295.453 251.024Z" fill="#455A64"/>
<path d="M294.638 246.78C294.744 246.78 294.917 247.217 295.029 247.806C295.142 248.396 295.149 248.886 295.029 248.905C294.91 248.925 294.751 248.462 294.638 247.879C294.526 247.297 294.539 246.8 294.638 246.78Z" fill="#455A64"/>
<path d="M293.823 242.53C293.923 242.53 294.102 242.974 294.214 243.557C294.327 244.139 294.334 244.636 294.214 244.655C294.095 244.675 293.936 244.218 293.817 243.629C293.698 243.04 293.717 242.55 293.823 242.53Z" fill="#455A64"/>
<path d="M292.995 238.287C293.101 238.287 293.28 238.724 293.393 239.313C293.505 239.902 293.512 240.392 293.393 240.412C293.273 240.432 293.114 239.975 292.995 239.386C292.876 238.797 292.896 238.307 292.995 238.287Z" fill="#455A64"/>
<path d="M292.167 234.044C292.273 234.044 292.445 234.48 292.564 235.07C292.684 235.659 292.684 236.149 292.564 236.169C292.445 236.188 292.279 235.725 292.167 235.142C292.054 234.56 292.061 234.063 292.167 234.044Z" fill="#455A64"/>
<path d="M291.325 229.8C291.431 229.8 291.61 230.244 291.723 230.826C291.835 231.409 291.849 231.905 291.723 231.925C291.597 231.945 291.438 231.488 291.325 230.899C291.213 230.31 291.226 229.827 291.325 229.8Z" fill="#455A64"/>
<path d="M290.484 225.563C290.59 225.563 290.769 226 290.881 226.583C290.994 227.165 291.007 227.662 290.881 227.682C290.755 227.702 290.596 227.245 290.484 226.662C290.371 226.08 290.378 225.583 290.484 225.563Z" fill="#455A64"/>
<path d="M289.635 221.32C289.735 221.32 289.914 221.757 290.033 222.346C290.152 222.935 290.165 223.418 290.033 223.445C289.9 223.471 289.748 223.008 289.635 222.419C289.523 221.83 289.529 221.346 289.635 221.32Z" fill="#455A64"/>
<path d="M288.774 217.083C288.88 217.083 289.059 217.52 289.178 218.109C289.297 218.698 289.311 219.182 289.178 219.201C289.046 219.221 288.893 218.765 288.774 218.182C288.655 217.599 288.674 217.103 288.774 217.083Z" fill="#455A64"/>
<path d="M288.124 213.892C288.224 213.892 288.363 214.091 288.423 214.389C288.482 214.687 288.423 214.945 288.343 214.965C288.264 214.985 288.104 214.766 288.045 214.468C287.985 214.17 288.018 213.912 288.124 213.892Z" fill="#455A64"/>
<path d="M222.646 138.272C222.646 138.272 209.214 148.202 213.369 163.256C217.524 178.31 227.027 179.905 231.659 181.792C236.291 183.679 247.404 186.876 252.731 193.814L270.557 180.17C266.804 173.297 264.444 165.752 263.612 157.966C262.221 145.011 256.668 139 252.268 136.226C247.867 133.453 235.84 127.415 222.646 138.272Z" fill="#FFC42E"/>
<path d="M263.931 184.38L263.672 184.142L262.923 183.414L260.074 180.594C257.629 178.124 254.063 174.563 249.962 169.876C248.948 168.698 247.887 167.46 246.827 166.129C245.767 164.798 244.66 163.428 243.646 161.892C242.55 160.322 241.767 158.555 241.34 156.689C240.895 154.676 241.206 152.569 242.215 150.771C242.786 149.845 243.613 149.102 244.595 148.633C245.577 148.163 246.674 147.986 247.755 148.123C248.317 148.197 248.859 148.383 249.348 148.669C249.838 148.956 250.265 149.337 250.604 149.791C251.271 150.735 251.617 151.867 251.592 153.021C251.568 154.177 251.273 155.311 250.73 156.331C250.186 157.356 249.519 158.309 248.742 159.171C247.174 160.928 245.453 162.543 243.6 163.997C241.762 165.471 239.8 166.782 237.735 167.916C236.707 168.463 235.611 168.87 234.475 169.128C233.347 169.381 232.179 169.404 231.042 169.194C229.913 169.001 228.856 168.509 227.981 167.771C227.124 167.027 226.547 166.013 226.344 164.898C226.111 163.807 226.295 162.668 226.861 161.707C227.158 161.247 227.546 160.853 228.002 160.55C228.458 160.247 228.972 160.041 229.512 159.946C230.541 159.742 231.606 159.812 232.6 160.151C233.552 160.491 234.433 161.005 235.197 161.667C236.588 162.96 237.868 164.369 239.021 165.877L245.495 173.722L254.839 185.075C255.932 186.399 256.787 187.452 257.37 188.174L258.033 188.988C258.179 189.173 258.245 189.272 258.245 189.272C258.245 189.272 258.159 189.186 258.006 189.008L257.344 188.22L254.766 185.161L245.316 173.855L238.756 166.076C237.61 164.583 236.34 163.19 234.959 161.912C234.224 161.279 233.38 160.785 232.467 160.456C231.524 160.136 230.514 160.072 229.538 160.27C229.046 160.362 228.579 160.553 228.164 160.832C227.749 161.11 227.396 161.471 227.126 161.892C226.603 162.785 226.435 163.841 226.656 164.851C226.847 165.892 227.387 166.838 228.186 167.532C229.022 168.223 230.026 168.68 231.095 168.856C233.331 169.186 235.612 168.745 237.563 167.605C239.609 166.481 241.554 165.181 243.375 163.719C245.212 162.28 246.917 160.681 248.471 158.94C249.234 158.102 249.891 157.172 250.425 156.172C250.949 155.198 251.232 154.114 251.254 153.008C251.277 151.926 250.957 150.865 250.339 149.976C250.025 149.554 249.628 149.2 249.172 148.936C248.716 148.672 248.212 148.503 247.689 148.44C246.669 148.313 245.634 148.482 244.708 148.927C243.782 149.372 243.004 150.074 242.467 150.949C241.496 152.682 241.194 154.709 241.619 156.649C242.031 158.477 242.794 160.208 243.865 161.747C244.859 163.269 245.966 164.646 247.013 165.977C248.06 167.307 249.12 168.552 250.127 169.73C254.196 174.43 257.735 178.018 260.153 180.514L262.95 183.381L263.672 184.129C263.858 184.288 263.931 184.38 263.931 184.38Z" fill="#263238"/>
<path d="M252.539 193.542L270.305 179.68L279.079 190.875L278.575 201.043L271.909 206.544L260.796 203.989L252.539 193.542Z" fill="#E0E0E0"/>
<path d="M278.575 201.043C277.746 200.918 276.9 200.966 276.091 201.184C275.281 201.402 274.525 201.784 273.87 202.307C273.242 202.849 272.733 203.515 272.377 204.264C272.021 205.013 271.826 205.828 271.803 206.657L278.575 201.043Z" fill="#455A64"/>
<path d="M277.899 190.312C277.616 190.406 277.326 190.476 277.031 190.524C276.246 190.692 275.47 190.9 274.705 191.146C269.604 192.751 265.269 196.169 262.519 200.752C261.995 201.625 261.618 202.36 261.372 202.877C261.264 203.152 261.128 203.415 260.968 203.664C261.031 203.372 261.127 203.088 261.253 202.817C261.553 202.065 261.905 201.335 262.307 200.632C264.984 195.905 269.409 192.414 274.632 190.908C275.413 190.684 276.208 190.511 277.011 190.391C277.304 190.333 277.601 190.307 277.899 190.312V190.312Z" fill="#263238"/>
<path d="M275.839 187.538C275.557 187.636 275.266 187.707 274.97 187.75C274.185 187.918 273.409 188.126 272.645 188.372C267.54 189.976 263.204 193.397 260.458 197.984C259.935 198.852 259.557 199.586 259.312 200.103C259.203 200.378 259.067 200.642 258.907 200.891C258.97 200.6 259.066 200.318 259.192 200.05C259.492 199.296 259.844 198.564 260.246 197.859C262.921 193.131 267.347 189.641 272.572 188.14C273.352 187.912 274.147 187.737 274.951 187.617C275.243 187.56 275.541 187.533 275.839 187.538V187.538Z" fill="#263238"/>
<path d="M273.718 185.022C273.436 185.12 273.145 185.191 272.85 185.234C272.065 185.402 271.288 185.61 270.524 185.857C265.42 187.46 261.083 190.881 258.338 195.469C257.814 196.336 257.436 197.071 257.191 197.587C257.082 197.862 256.947 198.126 256.787 198.375C256.85 198.085 256.945 197.803 257.072 197.534C257.37 196.78 257.722 196.047 258.125 195.343C260.803 190.616 265.228 187.125 270.451 185.618C271.232 185.394 272.027 185.222 272.83 185.102C273.122 185.044 273.42 185.017 273.718 185.022V185.022Z" fill="#263238"/>
<g opacity="0.2">
<path opacity="0.2" d="M237.139 177.681C237.099 178.144 236.436 178.561 235.197 178.773C233.445 179 231.664 178.86 229.969 178.363C227.406 177.664 225.014 176.45 222.938 174.795C220.303 172.752 218.198 170.107 216.801 167.081C215.405 164.055 214.757 160.739 214.913 157.41C215.006 154.758 215.637 152.152 216.768 149.751C217.489 148.14 218.538 146.696 219.85 145.514C220.817 144.707 221.56 144.475 221.937 144.746C222.752 145.342 221.884 147.679 221.42 151.214C221.137 153.232 221.088 155.276 221.275 157.304C221.645 162.117 223.728 166.637 227.146 170.048C228.572 171.504 230.159 172.792 231.877 173.888C234.866 175.821 237.212 176.668 237.139 177.681Z" fill="white"/>
</g>
<g opacity="0.2">
<path opacity="0.2" d="M247.695 179.68C248.01 180.203 248.166 180.807 248.144 181.417C248.123 182.028 247.924 182.619 247.572 183.118C247.22 183.618 246.73 184.004 246.162 184.231C245.595 184.457 244.973 184.514 244.374 184.394C243.774 184.275 243.222 183.983 242.785 183.556C242.349 183.129 242.045 182.584 241.913 181.988C241.78 181.391 241.824 180.769 242.039 180.198C242.254 179.626 242.63 179.129 243.123 178.767C243.852 178.286 244.741 178.113 245.597 178.284C246.453 178.455 247.207 178.957 247.695 179.68V179.68Z" fill="white"/>
</g>
<path d="M204.324 158.728C204.324 158.82 200.798 158.9 196.445 158.9C192.091 158.9 188.572 158.794 188.572 158.728C188.572 158.662 192.097 158.556 196.451 158.556C200.805 158.556 204.324 158.628 204.324 158.728Z" fill="#263238"/>
<path d="M204.317 150.89C201.643 150.454 199.011 149.79 196.451 148.904C197.797 149.061 199.127 149.334 200.427 149.718C201.754 149.999 203.056 150.39 204.317 150.89V150.89Z" fill="#263238"/>
<path d="M211.646 143.568C211.593 143.647 208.764 141.8 205.331 139.457C201.898 137.113 199.161 135.141 199.215 135.061C199.268 134.982 202.09 136.822 205.53 139.172C208.969 141.522 211.699 143.469 211.646 143.568Z" fill="#263238"/>
<path d="M220.075 133.757C219.102 133.023 218.199 132.201 217.378 131.301C216.472 130.483 215.649 129.579 214.92 128.6C215.893 129.334 216.795 130.156 217.617 131.056C218.523 131.873 219.347 132.778 220.075 133.757V133.757Z" fill="#263238"/>
<path d="M232.54 129.699C232.447 129.739 230.95 126.171 229.187 121.755C227.424 117.34 226.066 113.692 226.152 113.659C226.238 113.626 227.742 117.187 229.505 121.603C231.268 126.018 232.626 129.666 232.54 129.699Z" fill="#263238"/>
<path d="M243.984 127.514C243.725 126.176 243.576 124.819 243.54 123.456C243.392 122.102 243.359 120.738 243.441 119.379C243.7 120.717 243.849 122.074 243.885 123.437C244.033 124.791 244.066 126.155 243.984 127.514V127.514Z" fill="#263238"/>
<path d="M255.872 115.83C255.965 115.83 254.971 119.352 253.652 123.629C252.334 127.905 251.194 131.361 251.101 131.334C251.008 131.308 252.009 127.812 253.321 123.529C254.633 119.246 255.786 115.804 255.872 115.83Z" fill="#263238"/>
<path d="M300.265 171.372L289.662 178.032L291.378 182.533L267.655 192.285L261.161 192.582L256.37 191.695C256.37 191.695 255.952 192.251 256.754 193.105C257.505 193.669 258.365 194.073 259.279 194.29L255.694 197.528L260.332 203.413L276.236 199.573C285.043 198.077 306.016 193.88 306.096 187.763C306.182 182.249 300.265 171.372 300.265 171.372Z" fill="#FFBE9D"/>
<path d="M215.158 160.548C215.403 159.827 216 159.31 216.649 159.655C216.779 159.805 216.868 159.987 216.906 160.182C216.944 160.377 216.931 160.578 216.868 160.767L214.787 167.526L216.775 162.746C217.02 162.025 217.676 161.588 218.1 161.978C218.213 162.135 218.287 162.317 218.314 162.508C218.342 162.7 218.323 162.895 218.259 163.077L216.477 168.724L217.935 165.222C218.24 164.421 218.597 164.203 219.008 164.381C219.419 164.56 219.426 165.149 219.326 165.46L218.087 169.604C218.359 170.399 219.273 172.914 218.392 174.311C218.346 174.384 218.478 174.616 218.478 174.695L218.896 175.172L216.199 177.714C214.8 176.476 213.515 171.273 213.111 169.3C212.848 168.182 212.899 167.014 213.256 165.924L215.158 160.548Z" fill="#FFBE9D"/>
<path d="M139.336 328.855V327.842L128.269 327.299L128.216 331.477L128.879 331.523C131.914 331.715 144.313 332.298 146.347 331.702C148.66 331.033 139.336 328.855 139.336 328.855Z" fill="#FFC42E"/>
<g opacity="0.5">
<path opacity="0.5" d="M132.245 331.424C132.089 330.495 131.596 329.656 130.86 329.067C130.129 328.483 129.203 328.197 128.269 328.266V331.338L132.245 331.424Z" fill="white"/>
</g>
<path opacity="0.5" d="M143.889 330.08C143.889 330.08 147.155 331.053 146.745 331.589C146.334 332.125 133.776 332.006 128.243 331.477V331.232L142.881 331.49C142.881 331.49 143.246 330.1 143.889 330.08Z" fill="white"/>
<path d="M128.09 331.219C128.154 331.225 128.219 331.225 128.283 331.219L128.826 331.252L130.814 331.358C132.504 331.437 134.83 331.51 137.408 331.536C139.985 331.563 142.318 331.536 144.034 331.49L146.022 331.424H146.566C146.627 331.432 146.69 331.432 146.751 331.424H146.022H144.034C142.344 331.424 140.012 331.424 137.441 331.424C134.87 331.424 132.53 331.338 130.814 331.285L128.826 331.219H128.09V331.219Z" fill="#263238"/>
<path d="M142.901 331.655C142.989 331.326 143.116 331.008 143.279 330.709C143.475 330.434 143.696 330.179 143.942 329.948C143.604 330.066 143.32 330.301 143.14 330.61C142.932 330.916 142.847 331.289 142.901 331.655V331.655Z" fill="#263238"/>
<path d="M139.674 329.987C139.674 329.987 139.859 329.815 140.018 329.564C140.178 329.312 140.29 329.094 140.257 329.074C140.224 329.054 140.071 329.246 139.912 329.491C139.753 329.736 139.641 329.967 139.674 329.987Z" fill="#263238"/>
<path d="M138.786 329.504C138.786 329.504 138.985 329.418 139.177 329.252C139.369 329.087 139.502 328.921 139.475 328.895C139.449 328.868 139.276 328.981 139.084 329.153C138.892 329.325 138.759 329.477 138.786 329.504Z" fill="#263238"/>
<path d="M138.209 328.465C138.394 328.532 138.59 328.559 138.786 328.544C138.98 328.571 139.178 328.551 139.362 328.484C139.177 328.421 138.981 328.397 138.786 328.412C138.592 328.384 138.395 328.402 138.209 328.465V328.465Z" fill="#263238"/>
<path d="M138.044 327.73C138.238 327.864 138.47 327.932 138.706 327.922C138.93 327.964 139.161 327.936 139.369 327.842C139.15 327.803 138.928 327.785 138.706 327.789C138.487 327.752 138.266 327.732 138.044 327.73V327.73Z" fill="#263238"/>
<path d="M140.052 329.027C140.286 329.072 140.526 329.072 140.761 329.027C141.015 328.998 141.265 328.944 141.51 328.868C141.661 328.824 141.807 328.764 141.947 328.69C141.988 328.668 142.025 328.638 142.054 328.601C142.084 328.565 142.106 328.523 142.119 328.478C142.133 328.426 142.13 328.371 142.113 328.32C142.095 328.27 142.063 328.225 142.02 328.193C141.75 328.063 141.443 328.028 141.151 328.094C140.858 328.16 140.597 328.324 140.409 328.557C140.3 328.696 140.221 328.856 140.178 329.027C140.144 329.146 140.178 329.213 140.178 329.213C140.251 328.997 140.361 328.795 140.502 328.617C140.664 328.432 140.876 328.299 141.112 328.233C141.249 328.187 141.394 328.168 141.539 328.178C141.683 328.189 141.824 328.227 141.953 328.292C142.066 328.379 142.02 328.511 141.894 328.584C141.767 328.652 141.634 328.708 141.496 328.749C141.258 328.829 141.014 328.891 140.767 328.935C140.323 329.007 140.052 329.007 140.052 329.027Z" fill="#263238"/>
<path d="M140.237 329.067C140.321 328.918 140.351 328.746 140.323 328.577C140.302 328.392 140.236 328.215 140.131 328.061C140.077 327.953 139.993 327.861 139.891 327.797C139.788 327.733 139.669 327.698 139.548 327.697C139.476 327.711 139.413 327.753 139.372 327.814C139.331 327.875 139.316 327.949 139.329 328.021C139.347 328.131 139.385 328.237 139.442 328.332C139.534 328.489 139.646 328.633 139.773 328.763C139.882 328.891 140.021 328.991 140.178 329.054C140.178 329.054 140.038 328.928 139.846 328.703C139.724 328.572 139.619 328.425 139.535 328.266C139.435 328.12 139.376 327.849 139.535 327.816C139.694 327.783 139.893 327.981 139.999 328.12C140.097 328.259 140.165 328.417 140.197 328.584C140.221 328.744 140.234 328.905 140.237 329.067V329.067Z" fill="#263238"/>
<path d="M128.342 328.22C128.342 328.22 128.66 328.22 129.157 328.253C129.803 328.334 130.413 328.593 130.92 329.001C131.421 329.414 131.799 329.957 132.013 330.57C132.094 330.829 132.16 331.092 132.212 331.358C132.212 331.358 132.212 331.278 132.212 331.139C132.192 330.938 132.154 330.738 132.1 330.543C131.902 329.898 131.52 329.325 131 328.895C130.473 328.472 129.831 328.216 129.157 328.16C128.957 328.143 128.755 328.143 128.554 328.16C128.422 328.187 128.342 328.206 128.342 328.22Z" fill="#263238"/>
<path d="M133.624 330.378C134.685 330.579 135.773 330.59 136.838 330.411C136.838 330.371 136.115 330.411 135.227 330.411C134.339 330.411 133.63 330.338 133.624 330.378Z" fill="#263238"/>
<path d="M131.47 330.338C131.47 330.338 131.53 330.49 131.596 330.656C131.662 330.821 131.709 330.967 131.748 330.967C131.788 330.967 131.808 330.795 131.748 330.603C131.689 330.411 131.497 330.312 131.47 330.338Z" fill="#263238"/>
<path d="M130.668 329.325C130.668 329.325 130.708 329.464 130.821 329.583C130.933 329.703 131.046 329.769 131.072 329.742C131.099 329.716 131.033 329.603 130.92 329.491C130.807 329.378 130.695 329.299 130.668 329.325Z" fill="#263238"/>
<path d="M129.509 328.849C129.509 328.888 129.661 328.888 129.827 328.948C129.992 329.007 130.098 329.094 130.132 329.067C130.165 329.041 130.065 328.888 129.866 328.822C129.668 328.756 129.502 328.815 129.509 328.849Z" fill="#263238"/>
<path d="M128.687 328.624C128.687 328.663 128.733 328.716 128.826 328.756C128.919 328.796 128.998 328.789 129.012 328.756C129.025 328.723 128.965 328.663 128.872 328.63C128.78 328.597 128.7 328.59 128.687 328.624Z" fill="#263238"/>
<path d="M152.516 329.338L152.55 328.326L141.523 327.525L141.37 331.702L142.033 331.761C145.055 332.033 157.44 332.9 159.488 332.351C161.781 331.741 152.516 329.338 152.516 329.338Z" fill="#FFC42E"/>
<g opacity="0.5">
<path opacity="0.5" d="M145.353 331.742C145.222 330.81 144.75 329.961 144.028 329.358C143.32 328.757 142.412 328.443 141.483 328.478L141.384 331.543L145.353 331.742Z" fill="white"/>
</g>
<path opacity="0.5" d="M157.036 330.676C157.036 330.676 160.276 331.722 159.852 332.251C159.428 332.781 146.884 332.364 141.364 331.702V331.457L155.995 332.059C155.995 332.059 156.4 330.682 157.036 330.676Z" fill="white"/>
<path d="M141.218 331.444H141.403L141.947 331.49L143.935 331.642C145.618 331.761 147.951 331.887 150.561 331.973C153.172 332.059 155.465 332.086 157.155 332.086H159.143H159.686H159.879H159.686H159.143H157.155C155.472 332.086 153.139 332.02 150.561 331.934C147.984 331.847 145.658 331.735 143.975 331.642L141.987 331.536H141.443L141.218 331.444Z" fill="#263238"/>
<path d="M156.009 332.238C156.111 331.912 156.246 331.597 156.413 331.298C156.622 331.026 156.859 330.777 157.122 330.557C156.778 330.67 156.488 330.906 156.307 331.219C156.086 331.511 155.98 331.873 156.009 332.238V332.238Z" fill="#263238"/>
<path d="M152.821 330.477C152.854 330.477 153.013 330.318 153.186 330.067C153.358 329.815 153.464 329.603 153.431 329.583C153.398 329.564 153.239 329.749 153.073 329.994C152.955 330.135 152.869 330.3 152.821 330.477Z" fill="#263238"/>
<path d="M151.946 329.981C151.946 329.981 152.152 329.895 152.344 329.736C152.536 329.577 152.675 329.418 152.656 329.385C152.636 329.352 152.45 329.471 152.258 329.63C152.066 329.789 151.927 329.954 151.946 329.981Z" fill="#263238"/>
<path d="M151.423 328.928C151.605 328.997 151.799 329.026 151.993 329.014C152.186 329.045 152.383 329.031 152.569 328.974C152.388 328.903 152.194 328.872 151.999 328.882C151.681 328.868 151.423 328.888 151.423 328.928Z" fill="#263238"/>
<path d="M151.251 328.187C151.443 328.326 151.676 328.398 151.913 328.392C152.136 328.444 152.369 328.421 152.576 328.326C152.357 328.286 152.136 328.264 151.913 328.259C151.695 328.218 151.473 328.194 151.251 328.187V328.187Z" fill="#263238"/>
<path d="M153.225 329.53C153.46 329.576 153.7 329.576 153.935 329.53C154.19 329.508 154.443 329.461 154.69 329.391C154.841 329.352 154.988 329.296 155.127 329.226C155.17 329.205 155.208 329.175 155.239 329.139C155.27 329.102 155.293 329.06 155.306 329.014C155.32 328.963 155.318 328.909 155.301 328.858C155.285 328.808 155.254 328.763 155.213 328.729C154.947 328.593 154.642 328.551 154.348 328.61C154.055 328.669 153.79 328.825 153.597 329.054C153.482 329.189 153.398 329.347 153.351 329.517C153.337 329.58 153.337 329.646 153.351 329.709C153.431 329.494 153.548 329.295 153.696 329.12C153.861 328.937 154.075 328.806 154.312 328.743C154.45 328.701 154.595 328.687 154.738 328.701C154.882 328.716 155.021 328.759 155.147 328.829C155.26 328.915 155.213 329.047 155.088 329.12C154.957 329.182 154.822 329.233 154.683 329.272C154.443 329.346 154.197 329.402 153.948 329.438C153.497 329.517 153.225 329.511 153.225 329.53Z" fill="#263238"/>
<path d="M153.411 329.59C153.499 329.443 153.532 329.269 153.504 329.1C153.492 328.914 153.433 328.734 153.331 328.577C153.275 328.471 153.192 328.381 153.092 328.315C152.991 328.249 152.875 328.209 152.755 328.2C152.683 328.213 152.618 328.253 152.575 328.312C152.532 328.371 152.513 328.445 152.523 328.518C152.539 328.63 152.577 328.738 152.636 328.835C152.721 328.995 152.828 329.142 152.954 329.272C153.061 329.403 153.197 329.507 153.351 329.577C153.351 329.577 153.212 329.444 153.027 329.213C152.918 329.079 152.823 328.935 152.742 328.782C152.649 328.63 152.596 328.359 152.775 328.332C152.954 328.306 153.126 328.504 153.225 328.643C153.322 328.784 153.385 328.945 153.411 329.113C153.423 329.272 153.423 329.431 153.411 329.59V329.59Z" fill="#263238"/>
<path d="M141.523 328.445C141.523 328.445 141.834 328.445 142.331 328.498C142.977 328.589 143.584 328.862 144.081 329.285C144.577 329.708 144.943 330.264 145.134 330.888C145.287 331.364 145.293 331.682 145.32 331.675C145.331 331.603 145.331 331.529 145.32 331.457C145.308 331.255 145.275 331.056 145.22 330.861C145.045 330.209 144.675 329.625 144.161 329.186C143.646 328.748 143.01 328.475 142.338 328.405C142.137 328.381 141.935 328.381 141.735 328.405C141.662 328.405 141.59 328.419 141.523 328.445V328.445Z" fill="#263238"/>
<path d="M146.771 330.729C147.292 330.865 147.829 330.932 148.368 330.927C148.906 330.968 149.448 330.939 149.978 330.841C149.978 330.801 149.256 330.841 148.375 330.795C147.493 330.749 146.771 330.689 146.771 330.729Z" fill="#263238"/>
<path d="M144.617 330.643C144.617 330.643 144.67 330.795 144.737 330.96C144.803 331.126 144.843 331.278 144.876 331.278C144.909 331.278 144.942 331.106 144.876 330.914C144.81 330.722 144.637 330.616 144.617 330.643Z" fill="#263238"/>
<path d="M143.835 329.59C143.835 329.59 143.875 329.736 143.988 329.855C144.101 329.974 144.207 330.047 144.233 330.02C144.26 329.994 144.193 329.881 144.087 329.762C143.981 329.643 143.862 329.59 143.835 329.59Z" fill="#263238"/>
<path d="M142.689 329.107C142.689 329.146 142.841 329.146 143 329.213C143.16 329.279 143.279 329.365 143.305 329.338C143.332 329.312 143.246 329.16 143.047 329.087C142.848 329.014 142.682 329.074 142.689 329.107Z" fill="#263238"/>
<path d="M141.874 328.862C141.874 328.895 141.92 328.955 142.006 328.994C142.093 329.034 142.185 329.034 142.199 328.994C142.212 328.955 142.152 328.902 142.059 328.862C141.967 328.822 141.887 328.829 141.874 328.862Z" fill="#263238"/>
<path d="M150.555 204.373C150.555 204.373 159.461 263.496 158.169 266.356C156.877 269.216 149.15 328.187 149.15 328.187L127.01 327.928C127.01 327.928 139.283 260.206 139.005 259.113C138.726 258.021 122.239 199.613 122.239 199.613L150.555 204.373Z" fill="#455A64"/>
<path d="M143.219 206.61L118.005 198.163L117.123 200.248C114.538 206.383 114.424 213.277 116.805 219.493L134.035 264.601C135.27 267.793 136.008 271.156 136.221 274.571L138.872 328.094L156.101 329.299C156.101 329.299 154.882 285.547 154.869 271.817C154.869 261.464 147.387 228.662 143.199 212.82" fill="#455A64"/>
<path d="M126.507 245.437C126.547 245.499 126.58 245.566 126.606 245.635C126.666 245.787 126.745 245.979 126.851 246.231C127.063 246.774 127.375 247.555 127.766 248.515C128.554 250.501 129.681 253.4 131.079 256.949C132.477 260.497 134.108 264.767 135.93 269.474C136.252 270.739 136.474 272.027 136.593 273.327C136.738 274.651 136.869 275.997 136.983 277.365C137.209 280.105 137.394 282.945 137.56 285.858C138.223 297.516 138.494 308.075 138.7 315.721C138.773 319.528 138.839 322.613 138.879 324.771C138.879 325.823 138.879 326.651 138.879 327.233C138.879 327.498 138.879 327.71 138.879 327.895C138.885 327.968 138.885 328.041 138.879 328.114C138.872 328.041 138.872 327.968 138.879 327.895V327.233C138.879 326.651 138.832 325.823 138.793 324.777C138.72 322.613 138.62 319.528 138.501 315.728C138.236 308.088 137.898 297.529 137.262 285.878C137.096 282.972 136.917 280.125 136.692 277.391C136.586 276.021 136.453 274.677 136.308 273.366C136.184 272.089 135.963 270.823 135.645 269.58C133.849 264.86 132.226 260.61 130.867 257.002C129.509 253.394 128.428 250.554 127.666 248.528L126.812 246.218C126.719 245.966 126.653 245.768 126.599 245.615C126.563 245.559 126.532 245.499 126.507 245.437V245.437Z" fill="#263238"/>
<path d="M155.068 284.574C155.062 284.508 155.062 284.442 155.068 284.375C155.068 284.223 155.068 284.031 155.068 283.793C155.068 283.257 155.068 282.509 155.034 281.555C155.034 279.569 155.034 276.789 154.981 273.333C154.981 271.592 154.981 269.692 154.981 267.653C155.019 266.607 154.968 265.56 154.829 264.522C154.63 263.45 154.431 262.351 154.219 261.212C153.378 256.697 152.457 251.739 151.489 246.529C149.587 236.116 147.858 226.669 146.605 219.837C146.002 216.434 145.512 213.681 145.167 211.741C145.002 210.801 144.882 210.066 144.79 209.536C144.75 209.298 144.723 209.113 144.703 208.96C144.695 208.895 144.695 208.828 144.703 208.762C144.726 208.824 144.744 208.889 144.756 208.954C144.79 209.099 144.829 209.291 144.876 209.523C144.982 210.046 145.128 210.781 145.313 211.714C145.684 213.647 146.214 216.401 146.864 219.791C148.143 226.642 149.905 236.063 151.847 246.469C152.808 251.679 153.722 256.638 154.551 261.159C154.756 262.285 154.955 263.39 155.154 264.469C155.286 265.523 155.33 266.586 155.286 267.647C155.286 269.686 155.286 271.586 155.286 273.327C155.286 276.782 155.24 279.583 155.227 281.549C155.227 282.502 155.227 283.25 155.227 283.786C155.227 284.025 155.227 284.217 155.227 284.369C155.185 284.445 155.131 284.514 155.068 284.574V284.574Z" fill="#263238"/>
<path d="M146.195 204.777C146.44 205.073 146.614 205.422 146.705 205.796C147.285 207.571 147.178 209.498 146.407 211.198C146.275 211.558 146.067 211.886 145.797 212.158C146.283 210.992 146.593 209.76 146.718 208.504C146.734 207.242 146.558 205.985 146.195 204.777V204.777Z" fill="#263238"/>
<path d="M132.186 203.373C132.224 203.563 132.224 203.759 132.186 203.949C132.14 204.473 132.012 204.987 131.808 205.472C131.503 206.2 131.052 206.857 130.483 207.405C129.786 208.082 128.925 208.568 127.985 208.815C127.038 209.041 126.049 209.016 125.115 208.742C124.359 208.528 123.656 208.16 123.048 207.663C122.638 207.332 122.282 206.939 121.994 206.498C121.879 206.342 121.792 206.167 121.736 205.981C122.165 206.53 122.654 207.03 123.193 207.471C123.848 207.991 124.614 208.353 125.431 208.53C126.248 208.707 127.095 208.693 127.907 208.49C128.718 208.287 129.471 207.901 130.109 207.36C130.746 206.819 131.251 206.139 131.583 205.372C131.862 204.732 132.064 204.061 132.186 203.373V203.373Z" fill="#263238"/>
<path d="M133.359 117.406C126.069 117.406 123.876 124.026 123.465 125.528C123.164 127.055 123.113 128.62 123.313 130.162C123.399 131.712 123.372 133.34 122.65 134.697C121.119 137.464 116.964 138.431 116.321 141.529C115.897 143.561 117.269 145.706 116.646 147.692C116.116 149.387 114.307 150.34 113.525 151.956C112.617 153.809 113.28 156.007 113.949 157.953C114.135 158.476 114.38 159.072 114.91 159.244C115.253 159.317 115.61 159.29 115.937 159.165L130.198 155.226" fill="#263238"/>
<path d="M186.677 182.533H189.48C192.031 182.282 193.456 182.242 194.178 181.567C195.132 180.66 193.82 179.766 193.82 179.766C193.82 179.766 195.669 179.104 195.49 178.005C195.378 177.237 194.496 177.151 194.496 177.151C194.496 177.151 196.127 176.489 196.451 175.827C196.889 174.9 195.742 174.411 195.742 174.411C197.962 173.04 197.763 171.683 197.246 171.551C196.73 171.418 195 172.213 195 172.213C193.535 172.63 189.54 173.848 191.024 171.65C192.508 169.452 192.813 167.195 192.469 166.533C192.375 166.387 192.239 166.273 192.077 166.209C191.916 166.145 191.739 166.133 191.571 166.174C191.402 166.216 191.251 166.309 191.139 166.441C191.027 166.573 190.959 166.737 190.944 166.91C190.711 167.78 190.358 168.613 189.897 169.386C189.551 170.015 189.103 170.583 188.572 171.068C187.943 171.624 187.393 172.067 186.909 172.438L184.411 174.848L186.677 182.533Z" fill="#FFBE9D"/>
<path d="M195.762 174.417C195.383 174.752 194.965 175.039 194.516 175.271C194.043 175.55 193.551 175.798 193.045 176.013C192.743 176.14 192.433 176.248 192.117 176.337C191.935 176.391 191.744 176.411 191.554 176.397C191.441 176.385 191.331 176.35 191.233 176.293C191.135 176.236 191.05 176.158 190.984 176.066C190.888 175.877 190.854 175.663 190.889 175.455C190.923 175.246 191.024 175.054 191.176 174.907C191.419 174.677 191.686 174.473 191.972 174.298L193.33 173.398C193.739 173.091 194.184 172.835 194.655 172.636C194.307 173 193.918 173.322 193.496 173.596L192.17 174.563C191.912 174.729 191.67 174.92 191.448 175.132C191.348 175.226 191.28 175.348 191.253 175.482C191.226 175.616 191.241 175.755 191.296 175.88C191.422 176.085 191.759 176.092 192.058 176.013C192.36 175.932 192.656 175.833 192.946 175.715C193.449 175.52 193.943 175.299 194.423 175.053C194.847 174.797 195.296 174.584 195.762 174.417V174.417Z" fill="#EB996E"/>
<path d="M194.861 177.019C194.57 177.253 194.246 177.443 193.9 177.582L192.806 178.111L192.144 178.416C191.882 178.548 191.585 178.595 191.296 178.548C191.21 178.527 191.13 178.489 191.06 178.437C190.989 178.385 190.93 178.319 190.885 178.244C190.807 178.093 190.786 177.919 190.825 177.754C190.909 177.498 191.06 177.269 191.262 177.092C191.553 176.8 191.873 176.538 192.217 176.311C192.516 176.074 192.865 175.909 193.237 175.827C192.959 176.068 192.665 176.29 192.356 176.489C192.049 176.734 191.761 177.002 191.494 177.29C191.341 177.432 191.225 177.609 191.156 177.807C191.142 177.847 191.137 177.89 191.142 177.933C191.146 177.975 191.16 178.016 191.182 178.053C191.204 178.09 191.234 178.121 191.27 178.145C191.306 178.169 191.346 178.184 191.388 178.191C191.766 178.277 192.276 177.946 192.674 177.8L193.787 177.343C194.126 177.179 194.488 177.07 194.861 177.019V177.019Z" fill="#EB996E"/>
<path d="M194.059 179.389C193.77 179.695 193.407 179.923 193.005 180.051C192.581 180.231 192.136 180.356 191.68 180.422C191.373 180.471 191.058 180.397 190.805 180.216C190.66 180.104 190.56 179.945 190.52 179.766C190.488 179.579 190.531 179.386 190.64 179.23C190.831 178.988 191.07 178.788 191.342 178.641C191.574 178.495 191.806 178.35 192.005 178.224C192.442 177.966 192.853 177.754 193.197 177.562C193.559 177.349 193.953 177.196 194.364 177.112C194.04 177.373 193.686 177.595 193.31 177.774C192.985 177.966 192.594 178.197 192.17 178.436L191.508 178.866C191.277 178.992 191.072 179.16 190.905 179.362C190.876 179.403 190.855 179.449 190.844 179.498C190.833 179.547 190.831 179.597 190.84 179.647C190.849 179.696 190.867 179.743 190.894 179.785C190.921 179.827 190.956 179.864 190.997 179.892C191.179 180.024 191.405 180.079 191.627 180.044C192.061 179.999 192.488 179.903 192.899 179.76C193.628 179.601 194.032 179.316 194.059 179.389Z" fill="#EB996E"/>
<path d="M191.269 182.335C191.269 182.335 191.196 182.388 191.064 182.335C190.97 182.305 190.885 182.254 190.816 182.185C190.747 182.116 190.696 182.031 190.666 181.938C190.625 181.798 190.618 181.652 190.644 181.509C190.671 181.366 190.731 181.232 190.818 181.117C191.01 180.857 191.263 180.648 191.554 180.508C192.205 180.068 192.93 179.75 193.694 179.568C193.081 180.052 192.414 180.465 191.706 180.799C191.452 180.918 191.227 181.089 191.044 181.302C190.979 181.381 190.93 181.472 190.9 181.569C190.871 181.667 190.861 181.77 190.871 181.871C190.977 182.249 191.282 182.295 191.269 182.335Z" fill="#EB996E"/>
<path d="M152.371 158.648C152.371 158.648 154.836 165.977 155.021 166.407C156.519 170.379 158.215 176.165 160.091 176.867C161.966 177.568 184.894 172.895 184.894 172.895L188.4 184.857C188.4 184.857 170.017 191.517 160.077 191.398C150.76 191.285 148.096 190.226 144.836 182.712C141.576 175.198 137.838 166.559 137.056 161.588" fill="#FFC42E"/>
<path d="M188.393 184.85C188.216 184.94 188.035 185.019 187.85 185.089C187.499 185.241 186.962 185.446 186.273 185.704C184.894 186.207 182.88 186.883 180.355 187.617C177.83 188.352 174.808 189.16 171.442 190.007C167.805 191.023 164.076 191.675 160.309 191.954C159.313 192 158.314 191.974 157.321 191.874C156.351 191.788 155.394 191.588 154.471 191.278C152.739 190.651 151.151 189.683 149.799 188.432C147.573 186.28 145.719 183.775 144.313 181.017C143.073 178.7 142.225 176.747 141.662 175.397C141.377 174.735 141.158 174.192 140.999 173.835C140.84 173.477 140.794 173.279 140.8 173.279C140.906 173.446 140.995 173.623 141.065 173.808L141.761 175.344C142.371 176.668 143.252 178.608 144.511 180.905C145.935 183.612 147.788 186.071 149.998 188.187C151.321 189.403 152.873 190.344 154.564 190.954C155.464 191.252 156.396 191.445 157.341 191.53C158.318 191.624 159.302 191.648 160.283 191.603C164.023 191.328 167.727 190.69 171.343 189.696C174.709 188.869 177.737 188.094 180.262 187.386C182.787 186.677 184.815 186.062 186.226 185.579L187.823 185.029C188.007 184.95 188.198 184.89 188.393 184.85Z" fill="#263238"/>
<path d="M162.138 183.566V183.606C162.35 183.354 162.576 183.076 162.801 182.765C163.16 182.299 163.436 181.775 163.616 181.216C163.872 180.531 164.03 179.813 164.087 179.084C164.06 178.94 164.083 178.79 164.15 178.66C164.218 178.53 164.328 178.426 164.461 178.364C164.595 178.303 164.745 178.287 164.889 178.321C165.032 178.354 165.16 178.434 165.253 178.548C165.624 179.031 165.717 180.885 164.862 182.878C164.007 184.87 167.029 183.288 168.175 182.732C169.322 182.176 172.814 180.62 173.251 180.825C173.914 181.13 173.689 181.878 172.589 182.408C171.489 182.937 168.208 184.758 168.526 185.327C168.844 185.896 174.49 182.99 174.49 182.99C174.49 182.99 175.59 182.176 175.981 182.825C176.697 183.996 170.488 186.644 169.892 186.883C169.474 187.048 169.805 187.677 170.243 187.478C170.68 187.28 175.783 184.453 176.518 185.638C177.081 186.545 171.436 187.862 170.7 189.034C169.964 190.206 174.881 187.604 175.385 188.491C175.577 188.822 175.67 189.1 172.628 190.186C170.027 190.992 167.383 191.655 164.709 192.172L162.138 183.566Z" fill="#FFBE9D"/>
<path d="M125.261 149.003L143.955 150.592C143.955 150.592 151.052 149.427 154.995 166.884L152.867 173.464L151.297 183.566L150.555 204.373L115.897 201.824C116.686 197.097 120.377 190.888 121.616 186.896C120.357 183.751 113.041 170.928 113.048 164.328C113.048 150.221 125.261 149.003 125.261 149.003" fill="#FFC42E"/>
<g opacity="0.1">
<path opacity="0.1" d="M142.245 163.428L148.673 164.428C149.353 164.568 150.048 164.617 150.741 164.573C151.441 164.523 152.095 164.203 152.563 163.68C153.318 162.753 153.086 161.369 152.603 160.27C152.119 159.171 151.41 158.139 151.277 156.96L142.245 163.428Z" fill="black"/>
</g>
<path d="M161.489 181.408L164.994 193.364C164.994 193.364 146.632 200.037 136.685 199.911C127.368 199.798 124.704 198.739 121.444 191.225C118.184 183.712 114.446 175.073 113.664 170.101C113.664 170.101 108.403 147.209 128.468 149.255L129.012 167.129C129.012 167.129 131.232 174.464 131.391 174.887C132.888 178.859 134.83 184.645 136.692 185.347C138.554 186.049 161.489 181.408 161.489 181.408Z" fill="#FFC42E"/>
<path d="M117.435 181.792C117.484 181.877 117.528 181.966 117.567 182.057C117.654 182.242 117.773 182.507 117.919 182.844C118.23 183.506 118.681 184.559 119.297 185.87C119.913 187.181 120.702 188.763 121.749 190.504C122.902 192.534 124.312 194.407 125.943 196.078C126.893 197.047 127.973 197.88 129.151 198.554C129.457 198.737 129.776 198.899 130.105 199.037C130.429 199.201 130.766 199.338 131.112 199.447C131.82 199.693 132.55 199.866 133.292 199.964C136.327 200.401 139.641 199.964 143.04 199.302C146.44 198.64 149.992 197.66 153.643 196.7C157.459 195.722 161.219 194.54 164.908 193.158L164.809 193.364C164.292 191.629 163.749 189.782 163.199 187.909L161.283 181.408L161.476 181.527C156.97 182.308 152.675 183.381 148.54 184.221C144.637 185.094 140.646 185.516 136.646 185.479H136.546L136.506 185.387C134.797 180.938 133.465 176.781 132.279 173.1C131.092 169.419 130.065 166.215 129.217 163.567C128.369 160.919 127.64 158.867 127.136 157.47L126.553 155.868C126.493 155.696 126.447 155.563 126.414 155.458C126.381 155.352 126.368 155.319 126.368 155.319C126.397 155.359 126.419 155.404 126.434 155.451L126.6 155.855C126.739 156.212 126.957 156.735 127.222 157.437C127.753 158.827 128.488 160.879 129.383 163.507C130.277 166.136 131.311 169.346 132.51 173.027C133.71 176.708 135.062 180.852 136.785 185.281L136.652 185.181C140.64 185.222 144.62 184.809 148.514 183.95C152.636 183.103 156.936 182.024 161.456 181.236H161.608L161.655 181.381C162.277 183.513 162.916 185.682 163.57 187.889C164.12 189.756 164.663 191.603 165.18 193.337L165.22 193.489L165.074 193.549C161.371 194.934 157.594 196.116 153.762 197.091C150.065 198.051 146.526 198.991 143.1 199.679C139.674 200.368 136.341 200.752 133.246 200.301C132.488 200.193 131.742 200.011 131.019 199.759C130.331 199.509 129.666 199.198 129.031 198.832C127.837 198.143 126.745 197.292 125.784 196.303C124.151 194.609 122.743 192.711 121.596 190.656C120.563 188.862 119.794 187.267 119.191 185.949C118.588 184.632 118.157 183.599 117.866 182.897L117.541 182.096L117.435 181.792Z" fill="#263238"/>
<path opacity="0.3" d="M151.854 168.062C151.854 168.062 154.286 170.783 154.326 173.126C154.392 176.834 153.457 178.74 154.617 182.792L151.304 183.593C151.304 183.593 150.8 182.606 151.231 180.488C151.662 178.369 152.503 175.794 152.874 173.49C153.203 171.617 152.84 169.688 151.854 168.062V168.062Z" fill="black"/>
<path d="M151.297 183.566C151.203 183.302 151.137 183.029 151.098 182.752C151.001 181.996 151.001 181.23 151.098 180.475C151.256 179.356 151.493 178.25 151.807 177.165C152.201 175.863 152.505 174.536 152.715 173.193C152.925 171.855 152.781 170.486 152.298 169.221C151.862 168.207 151.262 167.272 150.522 166.453C149.269 165.03 148.375 164.242 148.421 164.196C148.663 164.34 148.885 164.513 149.084 164.712C149.656 165.207 150.2 165.733 150.714 166.288C151.497 167.113 152.136 168.064 152.602 169.101C153.118 170.407 153.278 171.825 153.066 173.212C152.852 174.574 152.535 175.917 152.119 177.231C151.793 178.292 151.536 179.373 151.35 180.468C151.231 181.205 151.191 181.953 151.231 182.699C151.289 182.984 151.311 183.275 151.297 183.566V183.566Z" fill="#263238"/>
<g opacity="0.2">
<path opacity="0.2" d="M151.754 183.288L141.49 183.52C140.677 183.595 139.858 183.501 139.084 183.242C138.004 182.785 137.308 181.732 136.705 180.733C134.903 177.763 133.25 174.711 131.748 171.577C131.748 171.577 134.465 180.183 136.162 183.937C136.652 185.022 137.374 185.34 138.561 185.168C143.026 185.179 147.47 184.545 151.754 183.288Z" fill="black"/>
</g>
<path opacity="0.2" d="M120.755 189.411C120.755 189.411 124.227 202.605 133.133 202.34C142.04 202.076 150.482 198.262 150.482 198.262L150.084 197.852C150.084 197.852 134.949 201.109 130.741 199.057C122.756 195.204 120.755 189.411 120.755 189.411Z" fill="black"/>
<g opacity="0.1">
<path opacity="0.1" d="M122.676 149.427C120.119 151.055 119.164 154.491 119.721 157.477C120.278 160.462 122.047 163.064 123.975 165.421C124.191 165.733 124.486 165.982 124.83 166.142C125.341 166.26 125.876 166.192 126.341 165.95L138.481 161.316C138.135 161.157 137.826 160.927 137.575 160.641C137.324 160.354 137.136 160.018 137.023 159.655" fill="black"/>
</g>
<path d="M120.158 175.754C120.207 174.838 120.367 173.931 120.635 173.053C120.798 172.152 121.072 171.273 121.451 170.439C121.406 171.355 121.245 172.263 120.973 173.14C120.811 174.041 120.537 174.92 120.158 175.754V175.754Z" fill="#263238"/>
<path d="M126.096 182.686C125.37 182.317 124.7 181.847 124.108 181.289C123.448 180.821 122.861 180.259 122.365 179.621C123.741 180.461 124.991 181.493 126.076 182.686H126.096Z" fill="#263238"/>
<path d="M130.86 193.152C130.743 192.242 130.743 191.321 130.86 190.411C130.865 189.498 130.983 188.588 131.212 187.704C131.329 188.611 131.329 189.53 131.212 190.438C131.207 191.353 131.089 192.265 130.86 193.152Z" fill="#263238"/>
<path d="M140.727 192.443C139.709 193.689 138.517 194.784 137.189 195.694C138.203 194.444 139.396 193.349 140.727 192.443V192.443Z" fill="#263238"/>
<path d="M149.263 190.497C148.455 190.104 147.7 189.611 147.016 189.028C146.258 188.532 145.569 187.938 144.969 187.26C145.778 187.655 146.534 188.149 147.222 188.73C147.974 189.231 148.66 189.825 149.263 190.497V190.497Z" fill="#263238"/>
<path d="M158.222 188.121C157.794 189.058 157.265 189.946 156.645 190.769C156.117 191.653 155.49 192.475 154.776 193.218C155.204 192.281 155.733 191.393 156.353 190.57C156.883 189.687 157.51 188.865 158.222 188.121V188.121Z" fill="#263238"/>
<path d="M143.345 178.727C142.606 178.194 141.937 177.569 141.357 176.867C140.697 176.241 140.116 175.536 139.628 174.768C140.368 175.299 141.036 175.925 141.616 176.628C142.277 177.253 142.858 177.958 143.345 178.727V178.727Z" fill="#263238"/>
<path d="M150.276 170.147C149.602 171.345 148.733 172.424 147.705 173.338C148.38 172.14 149.249 171.062 150.276 170.147V170.147Z" fill="#263238"/>
<path d="M140.595 169.975C140.522 170.048 139.608 169.181 138.335 168.32C137.063 167.46 135.917 166.923 135.956 166.831C137.797 167.361 139.421 168.462 140.595 169.975Z" fill="#263238"/>
<path d="M117.952 162.799C117.483 162.252 117.107 161.633 116.838 160.965C116.462 160.351 116.187 159.681 116.023 158.979C116.867 160.144 117.518 161.436 117.952 162.806V162.799Z" fill="#263238"/>
<path d="M158.991 179.905C158.335 179.74 157.711 179.469 157.142 179.104C156.516 178.832 155.94 178.456 155.439 177.992C156.721 178.419 157.921 179.064 158.984 179.899L158.991 179.905Z" fill="#263238"/>
<path d="M177.764 180.905C177.131 180.493 176.566 179.986 176.087 179.402C175.525 178.898 175.042 178.311 174.656 177.661C175.289 178.073 175.854 178.58 176.333 179.164C176.896 179.668 177.378 180.255 177.764 180.905V180.905Z" fill="#263238"/>
<path d="M184.377 180.329C183.867 181.375 183.252 182.366 182.542 183.288C181.926 184.267 181.216 185.182 180.421 186.022C180.933 184.985 181.548 184.003 182.257 183.089C182.871 182.102 183.581 181.177 184.377 180.329V180.329Z" fill="#263238"/>
<path d="M122.259 199.176C121.324 197.972 120.578 196.632 120.046 195.204C120.981 196.408 121.727 197.748 122.259 199.176V199.176Z" fill="#263238"/>
<path d="M148.965 201.559C147.378 201.98 145.741 202.178 144.101 202.148C145.687 201.728 147.324 201.53 148.965 201.559V201.559Z" fill="#263238"/>
<path d="M146.738 123.384C146.458 124.71 146.478 126.081 146.797 127.398C147.115 128.716 147.725 129.945 148.58 130.997C149.674 132.321 151.231 133.486 151.423 135.194C151.688 137.405 149.508 139.424 149.958 141.595C150.33 143.376 152.231 144.309 153.451 145.647C154.303 146.622 154.832 147.836 154.965 149.124C155.098 150.411 154.828 151.708 154.193 152.836C153.172 154.57 151.218 156.073 151.489 158.066C151.678 158.819 151.949 159.55 152.298 160.244C152.466 160.594 152.535 160.984 152.495 161.371C152.455 161.758 152.309 162.126 152.072 162.435C151.659 162.768 151.151 162.963 150.621 162.991C146.797 163.56 142.909 163.56 139.084 162.991L141.145 123.37L146.738 123.384Z" fill="#263238"/>
<path d="M128.269 149.705L127.209 125.442L136.851 118.16L145.618 122.437C145.618 122.437 145.91 133.433 145.618 138.206C145.326 142.979 140.515 143.502 140.515 143.502C140.515 143.502 140.628 146.295 140.734 149.228C140.766 150.07 140.627 150.911 140.325 151.698C140.023 152.485 139.564 153.202 138.976 153.807C138.388 154.412 137.683 154.891 136.905 155.216C136.126 155.54 135.289 155.704 134.445 155.696V155.696C132.843 155.68 131.308 155.049 130.158 153.934C129.009 152.819 128.332 151.304 128.269 149.705V149.705Z" fill="#FFBE9D"/>
<path d="M144.684 130.441C144.684 130.561 144.648 130.679 144.581 130.779C144.514 130.879 144.419 130.957 144.307 131.003C144.196 131.049 144.073 131.061 143.955 131.038C143.837 131.014 143.728 130.956 143.643 130.871C143.558 130.786 143.5 130.678 143.476 130.559C143.453 130.441 143.465 130.319 143.511 130.207C143.557 130.096 143.635 130.001 143.735 129.934C143.836 129.867 143.953 129.832 144.074 129.832C144.236 129.832 144.391 129.896 144.505 130.01C144.619 130.124 144.684 130.279 144.684 130.441Z" fill="#263238"/>
<path d="M145.273 129.779C145.194 129.851 144.743 129.474 144.087 129.434C143.431 129.395 142.934 129.719 142.868 129.626C142.802 129.534 142.914 129.448 143.133 129.295C143.424 129.108 143.768 129.018 144.114 129.037C144.46 129.058 144.79 129.19 145.055 129.414C145.254 129.587 145.313 129.739 145.273 129.779Z" fill="#263238"/>
<path d="M137.606 130.441C137.608 130.563 137.572 130.683 137.505 130.785C137.438 130.887 137.342 130.967 137.229 131.015C137.116 131.062 136.992 131.075 136.871 131.051C136.751 131.028 136.641 130.969 136.554 130.882C136.468 130.796 136.409 130.686 136.385 130.566C136.362 130.446 136.375 130.321 136.422 130.208C136.469 130.096 136.549 130 136.652 129.933C136.754 129.865 136.874 129.83 136.997 129.832C137.158 129.832 137.313 129.896 137.428 130.01C137.542 130.124 137.606 130.279 137.606 130.441Z" fill="#263238"/>
<path d="M137.984 129.779C137.905 129.851 137.454 129.474 136.798 129.434C136.142 129.395 135.645 129.719 135.579 129.626C135.512 129.534 135.625 129.448 135.844 129.295C136.135 129.108 136.478 129.018 136.824 129.037C137.17 129.059 137.5 129.192 137.765 129.414C137.958 129.587 138.024 129.739 137.984 129.779Z" fill="#263238"/>
<path d="M140.535 143.469C138.267 143.371 136.074 142.63 134.214 141.33C134.214 141.33 135.797 144.905 140.582 144.707L140.535 143.469Z" fill="#EB996E"/>
<path d="M140.356 135.326C140.709 135.235 141.072 135.191 141.437 135.194C141.602 135.194 141.768 135.194 141.801 135.035C141.823 134.853 141.79 134.669 141.708 134.505C141.562 134.075 141.417 133.618 141.258 133.142C140.946 132.175 140.674 131.295 140.496 130.652C140.37 130.311 140.288 129.955 140.25 129.593C140.431 129.908 140.573 130.244 140.674 130.593C140.9 131.222 141.198 132.096 141.509 133.062C141.662 133.539 141.801 133.995 141.94 134.432C142.035 134.64 142.059 134.873 142.006 135.094C141.981 135.152 141.943 135.204 141.894 135.245C141.846 135.286 141.789 135.316 141.728 135.333C141.633 135.344 141.538 135.344 141.443 135.333C141.082 135.372 140.717 135.37 140.356 135.326Z" fill="#263238"/>
<path d="M139.873 135.882C139.622 135.954 139.394 136.089 139.21 136.273C139.116 136.362 139.05 136.476 139.021 136.602C138.992 136.728 139 136.86 139.044 136.981C139.121 137.125 139.246 137.239 139.396 137.303C139.547 137.367 139.715 137.377 139.873 137.332C140.001 137.307 140.122 137.254 140.226 137.176C140.33 137.098 140.416 136.998 140.476 136.882C140.536 136.766 140.56 136.635 140.546 136.506C140.532 136.376 140.48 136.254 140.396 136.154C140.31 136.057 140.192 135.994 140.064 135.974C139.936 135.955 139.805 135.981 139.694 136.048" fill="#EB996E"/>
<path d="M140.721 136.842C140.721 136.935 140.184 137.087 139.601 136.749C139.018 136.412 138.852 135.862 138.938 135.836C139.024 135.809 139.283 136.187 139.767 136.452C140.25 136.716 140.714 136.749 140.721 136.842Z" fill="#263238"/>
<path d="M137.659 117.386C135.893 117.049 134.071 117.14 132.346 117.651C130.622 118.162 129.045 119.078 127.747 120.322C126.45 121.567 125.469 123.103 124.888 124.804C124.307 126.504 124.141 128.319 124.406 130.096C124.671 131.811 125.327 133.559 124.877 135.233C124.28 137.464 121.881 138.868 121.305 141.112C120.596 143.866 122.908 146.554 122.855 149.407C122.855 150.936 122.113 152.366 121.749 153.862C121.308 155.806 121.45 157.836 122.157 159.7C122.865 161.563 124.105 163.178 125.725 164.342C125.948 164.521 126.216 164.636 126.5 164.673C126.774 164.667 127.043 164.594 127.282 164.461L137.812 159.661C135.824 156.715 133.789 153.465 134.088 149.936C134.247 148.109 135.035 146.269 134.552 144.501C134.167 143.105 133.074 142.052 132.113 140.966C131.152 139.881 130.251 138.563 130.403 137.127C130.575 135.492 132.086 134.174 132.067 132.493C132.067 131.334 131.271 130.341 130.88 129.249C130.604 128.314 130.532 127.331 130.669 126.366C130.806 125.4 131.149 124.476 131.676 123.655C132.736 122.022 134.028 120.553 135.512 119.292" fill="#263238"/>
<path d="M131.165 122.516C131.132 123.543 130.556 124.502 130.244 125.469C129.933 126.435 129.979 127.68 130.907 128.296C131.149 128.449 131.416 128.561 131.695 128.627C132.897 128.844 134.131 128.799 135.314 128.494L135.473 125.787C135.645 126.635 136.115 127.393 136.798 127.925C137.16 128.201 137.586 128.382 138.037 128.45C138.487 128.519 138.948 128.472 139.376 128.316C139.575 128.244 139.758 128.132 139.914 127.988C140.07 127.844 140.195 127.67 140.282 127.477C140.369 127.284 140.417 127.075 140.421 126.863C140.426 126.651 140.388 126.441 140.31 126.243C140.608 127.27 141.715 127.971 142.861 128.229C144.024 128.397 145.206 128.373 146.36 128.157C145.79 127.256 146.168 126.131 146.506 125.145C146.844 124.158 147.096 122.96 146.354 122.172C146.087 121.937 145.808 121.716 145.519 121.51C144.977 120.937 144.515 120.294 144.147 119.597C142.59 117.353 139.223 116.386 136.42 117.167C135.078 117.546 133.858 118.271 132.885 119.269C131.911 120.267 131.218 121.503 130.874 122.854" fill="#263238"/>
<path d="M86.7069 98.1019C86.5842 98.1236 86.4602 98.1368 86.3358 98.1416L85.249 98.221C84.6609 98.2589 84.0763 98.3386 83.4996 98.4593C83.1268 98.508 82.7573 98.5787 82.3929 98.6712L81.1537 99.0088C79.0435 99.6589 77.0521 100.645 75.256 101.928C72.8973 103.649 70.9246 105.843 69.4643 108.369C68.6119 109.831 67.9314 111.386 67.4365 113.003C66.9187 114.763 66.6204 116.58 66.5486 118.412C66.5069 119.377 66.5246 120.343 66.6016 121.305C66.6016 121.788 66.7341 122.278 66.7937 122.768C66.8522 123.266 66.9475 123.76 67.0787 124.244C67.5294 126.276 68.2822 128.228 69.3119 130.037C71.5031 133.962 74.9195 137.063 79.0398 138.868C81.2084 139.801 83.5321 140.322 85.8918 140.404C88.3244 140.534 90.7589 140.183 93.0552 139.371L93.7576 139.119L93.8504 139.08L93.9299 139.126L104.002 144.23L103.704 144.488C102.631 141.152 101.59 137.928 100.583 134.816V134.697L100.669 134.611C103.119 132.153 104.938 129.139 105.971 125.826C106.892 122.801 107.152 119.613 106.733 116.479C106.069 111.256 103.511 106.459 99.5427 102.994C96.9318 100.734 93.7707 99.2021 90.3781 98.552L88.8142 98.2872L87.6545 98.2078L86.9454 98.1548C86.8648 98.1538 86.7847 98.1427 86.7069 98.1217H86.9454H87.6611L88.8208 98.1747L90.4046 98.4064C91.8568 98.6805 93.276 99.1065 94.639 99.6774C96.45 100.488 98.1421 101.542 99.6686 102.809C101.522 104.399 103.091 106.293 104.307 108.409C105.738 110.878 106.674 113.6 107.064 116.426C107.504 119.614 107.248 122.859 106.315 125.939C105.279 129.313 103.439 132.387 100.954 134.896L101.001 134.684L104.135 144.349L104.294 144.839L103.837 144.607L93.7643 139.503H93.9366L93.2209 139.768C90.883 140.59 88.4068 140.948 85.9316 140.821C83.5165 140.733 81.139 140.196 78.9205 139.239C75.8694 137.871 73.1807 135.809 71.0693 133.218C68.9579 130.628 67.4824 127.579 66.7606 124.317C66.6299 123.824 66.5347 123.321 66.4757 122.814C66.416 122.311 66.31 121.821 66.2835 121.318C66.2108 120.34 66.1975 119.359 66.2437 118.379C66.326 116.518 66.6376 114.675 67.1715 112.891C67.68 111.253 68.3783 109.68 69.2522 108.204C70.7485 105.652 72.7645 103.441 75.1698 101.716C76.9862 100.436 79.0011 99.4631 81.1338 98.8367L82.3863 98.5123C82.7554 98.4259 83.1294 98.3618 83.5062 98.3203C84.0874 98.2068 84.6769 98.1404 85.2689 98.1217L86.3623 98.0886L86.7069 98.1019Z" fill="#263238"/>
<path d="M91.2594 116.724H89.7883L86.5678 112.242V109.303C86.5678 109.303 84.2816 109.164 84.5798 113.017C84.878 116.87 84.5798 115.883 84.5798 115.883C84.5798 115.883 79.7357 115.883 79.3314 116.327C79.0399 116.631 78.9073 121.437 78.8543 124.046C78.822 124.673 79 125.292 79.3601 125.807C79.7202 126.321 80.2418 126.701 80.8423 126.886C81.013 126.932 81.1889 126.957 81.3658 126.958C82.5719 126.958 88.7479 125.972 88.7479 125.972H91.2926L91.2594 116.724Z" fill="#FFC42E"/>
<path d="M95.4872 115.916L94.5794 126.005H92.048V116.121L95.4872 115.916Z" fill="#FFC42E"/>
</g>
<defs>
<clipPath id="clip0_4137_800">
<rect width="400" height="400" fill="white"/>
</clipPath>
</defs>
</svg>
