<svg width="386" height="751" viewBox="0 0 386 751" fill="none" xmlns="http://www.w3.org/2000/svg">
<path fill-rule="evenodd" clip-rule="evenodd" d="M-415.228 386.741C-411.572 332.459 -389.68 281.223 -361.486 233.597C-334.144 187.411 -295.095 149.869 -253.7 113.886C-209.94 75.8464 -167.763 33.5278 -110.997 15.8545C-52.5488 -2.34224 13.5287 -6.76766 71.5294 12.6317C128.363 31.6406 165.08 81.0723 206.467 122.036C243.658 158.847 274.107 198.989 303.028 241.762C334.711 288.62 380.521 331.552 385.447 386.741C390.413 442.366 361.118 496.122 329.991 543.815C300.235 589.408 253.997 621.411 209.998 655.57C165.255 690.307 124.785 734.396 68.1585 747.091C11.4222 759.811 -46.4571 738.497 -103.196 725.787C-159.445 713.185 -216.853 702.73 -264.757 672.512C-314.272 641.277 -356.427 599.445 -382.762 549.43C-409.169 499.279 -418.984 442.49 -415.228 386.741Z" fill="#42446F"/>
</svg>
