<svg width="48" height="47" viewBox="0 0 48 47" fill="none" xmlns="http://www.w3.org/2000/svg">
<path d="M26.1352 39.0202C24.1039 39.0202 22.198 38.644 20.4175 37.8917C18.662 37.1143 17.1197 36.0485 15.7906 34.6943C14.4866 33.315 13.4584 31.71 12.706 29.8793C11.9788 28.0486 11.6151 26.0675 11.6151 23.9359C11.6151 21.8293 11.9788 19.8733 12.706 18.0676C13.4584 16.237 14.4866 14.6445 15.7906 13.2903C17.1197 11.911 18.662 10.8327 20.4175 10.0553C22.1729 9.27785 24.0788 8.88915 26.1352 8.88915C28.0662 8.88915 29.7214 9.13992 31.1006 9.64148C32.505 10.143 33.9094 10.9706 35.3137 12.1242C35.6147 12.375 35.8153 12.6132 35.9156 12.8389C36.0159 13.0646 36.0661 13.3405 36.0661 13.6665C36.0661 14.143 35.8905 14.5442 35.5394 14.8702C35.2134 15.1712 34.8122 15.3467 34.3357 15.3969C33.8592 15.4219 33.3953 15.2589 32.9439 14.9078C32.016 14.1053 31.0505 13.4909 30.0474 13.0646C29.0693 12.6383 27.7653 12.4251 26.1352 12.4251C24.6556 12.4251 23.2638 12.7261 21.9598 13.3279C20.6557 13.9298 19.5021 14.7574 18.499 15.8106C17.521 16.8639 16.7561 18.0927 16.2044 19.4971C15.6527 20.8764 15.3768 22.356 15.3768 23.9359C15.3768 25.5409 15.6527 27.0455 16.2044 28.4499C16.7561 29.8292 17.521 31.0454 18.499 32.0987C19.5021 33.152 20.6557 33.9796 21.9598 34.5814C23.2638 35.1582 24.6556 35.4466 26.1352 35.4466C27.4142 35.4466 28.6179 35.2335 29.7464 34.8071C30.9 34.3557 32.0035 33.7413 33.0567 32.9639C33.5081 32.6379 33.947 32.5 34.3733 32.5501C34.8247 32.5752 35.2009 32.7507 35.5018 33.0768C35.8028 33.3777 35.9532 33.804 35.9532 34.3557C35.9532 34.8824 35.7526 35.3463 35.3513 35.7475C32.6429 37.9293 29.5709 39.0202 26.1352 39.0202Z" fill="#FFC42E"/>
<path d="M25.2207 37.3537C23.1894 37.3537 21.2835 36.9775 19.5029 36.2252C17.7475 35.4478 16.2052 34.382 14.8761 33.0278C13.572 31.6485 12.5438 30.0435 11.7915 28.2128C11.0642 26.3821 10.7006 24.401 10.7006 22.2694C10.7006 20.1628 11.0642 18.2067 11.7915 16.4011C12.5438 14.5705 13.572 12.978 14.8761 11.6238C16.2052 10.2445 17.7475 9.16618 19.5029 8.38876C21.2584 7.61135 23.1643 7.22264 25.2207 7.22264C27.1517 7.22264 28.8068 7.47342 30.1861 7.97498C31.5905 8.47653 32.9948 9.3041 34.3992 10.4577C34.7001 10.7085 34.9007 10.9467 35.0011 11.1724C35.1014 11.3981 35.1515 11.674 35.1515 12C35.1515 12.4765 34.976 12.8777 34.6249 13.2037C34.2989 13.5046 33.8976 13.6802 33.4211 13.7303C32.9447 13.7554 32.4807 13.5924 32.0293 13.2413C31.1014 12.4388 30.1359 11.8244 29.1328 11.3981C28.1548 10.9718 26.8507 10.7586 25.2207 10.7586C23.7411 10.7586 22.3493 11.0596 21.0452 11.6614C19.7412 12.2633 18.5876 13.0909 17.5845 14.1441C16.6064 15.1974 15.8416 16.4262 15.2898 17.8306C14.7381 19.2099 14.4623 20.6895 14.4623 22.2694C14.4623 23.8743 14.7381 25.379 15.2898 26.7834C15.8416 28.1627 16.6064 29.3789 17.5845 30.4322C18.5876 31.4855 19.7412 32.3131 21.0452 32.9149C22.3493 33.4917 23.7411 33.7801 25.2207 33.7801C26.4997 33.7801 27.7034 33.5669 28.8319 33.1406C29.9855 32.6892 31.0889 32.0748 32.1422 31.2974C32.5936 30.9714 33.0324 30.8335 33.4588 30.8836C33.9102 30.9087 34.2863 31.0842 34.5873 31.4103C34.8882 31.7112 35.0387 32.1375 35.0387 32.6892C35.0387 33.2159 34.838 33.6798 34.4368 34.081C31.7284 36.2628 28.6563 37.3537 25.2207 37.3537Z" fill="#D13C74"/>
<path d="M10.5554 41.8023C6.76865 41.8023 4.87527 39.909 4.87527 36.1222V27.2822C4.87527 25.0002 3.73422 23.8591 1.45214 23.8591C1.12612 23.8591 0.850268 23.7588 0.624567 23.5582C0.398866 23.3325 0.286016 23.0566 0.286016 22.7306C0.286016 22.3795 0.398866 22.1037 0.624567 21.903C0.850268 21.6773 1.12612 21.5645 1.45214 21.5645C3.73422 21.5645 4.87527 20.4234 4.87527 18.1414V9.30141C4.87527 5.48957 6.76865 3.58365 10.5554 3.58365C10.9065 3.58365 11.1824 3.6965 11.383 3.9222C11.6087 4.12283 11.7215 4.39868 11.7215 4.74977C11.7215 5.07579 11.6087 5.35164 11.383 5.57734C11.1824 5.77797 10.9065 5.87828 10.5554 5.87828C8.2984 5.87828 7.16989 7.01932 7.16989 9.30141V18.1414C7.16989 19.1194 7.01942 19.9846 6.71849 20.7369C6.44263 21.4893 6.02885 22.1538 5.47714 22.7306C6.60564 23.8591 7.16989 25.3763 7.16989 27.2822V36.1222C7.16989 38.3792 8.2984 39.5077 10.5554 39.5077C10.9065 39.5077 11.1824 39.6206 11.383 39.8463C11.6087 40.072 11.7215 40.3478 11.7215 40.6738C11.7215 40.9998 11.6087 41.2632 11.383 41.4638C11.1824 41.6895 10.9065 41.8023 10.5554 41.8023Z" fill="#48DBDB"/>
<path d="M37.4392 41.8023C37.1132 41.8023 36.8373 41.6895 36.6116 41.4638C36.3859 41.2632 36.2731 40.9998 36.2731 40.6738C36.2731 40.3478 36.3859 40.072 36.6116 39.8463C36.8373 39.6206 37.1132 39.5077 37.4392 39.5077C39.6962 39.5077 40.8247 38.3792 40.8247 36.1222V27.2822C40.8247 25.3763 41.3889 23.8591 42.5174 22.7306C41.9657 22.1538 41.5394 21.4893 41.2385 20.7369C40.9626 19.9846 40.8247 19.1194 40.8247 18.1414V9.30141C40.8247 7.01932 39.6962 5.87828 37.4392 5.87828C37.1132 5.87828 36.8373 5.77797 36.6116 5.57734C36.3859 5.35164 36.2731 5.07579 36.2731 4.74977C36.2731 4.39868 36.3859 4.12283 36.6116 3.9222C36.8373 3.6965 37.1132 3.58365 37.4392 3.58365C41.2259 3.58365 43.1193 5.48957 43.1193 9.30141V18.1414C43.1193 20.4234 44.2604 21.5645 46.5424 21.5645C46.8685 21.5645 47.1443 21.6773 47.37 21.903C47.5957 22.1037 47.7086 22.3795 47.7086 22.7306C47.7086 23.0566 47.5957 23.3325 47.37 23.5582C47.1443 23.7588 46.8685 23.8591 46.5424 23.8591C44.2604 23.8591 43.1193 25.0002 43.1193 27.2822V36.1222C43.1193 39.909 41.2259 41.8023 37.4392 41.8023Z" fill="#48DBDB"/>
</svg>
