<svg width="26" height="31" viewBox="0 0 26 31" fill="none" xmlns="http://www.w3.org/2000/svg">
<path d="M12.125 24.7906H14V26.6656H12.125V24.7906ZM13.0625 10.7281C13.707 10.7281 14.3125 10.8502 14.8789 11.0943C15.4453 11.3384 15.9385 11.6754 16.3584 12.105C16.7783 12.5347 17.1152 13.0328 17.3691 13.5992C17.623 14.1656 17.75 14.7711 17.75 15.4156C17.75 16.0015 17.6572 16.5142 17.4717 16.9537C17.2861 17.3931 17.0566 17.7838 16.7832 18.1255C16.5098 18.4673 16.207 18.7847 15.875 19.0777C15.543 19.3707 15.2451 19.6636 14.9814 19.9566C14.7178 20.2496 14.4834 20.5572 14.2783 20.8795C14.0732 21.2017 13.9805 21.5679 14 21.9781V22.9156H12.125V21.9781C12.125 21.3922 12.2178 20.8843 12.4033 20.4547C12.5889 20.025 12.8184 19.6343 13.0918 19.2828C13.3652 18.9312 13.668 18.6089 14 18.316C14.332 18.023 14.6299 17.7349 14.8936 17.4517C15.1572 17.1685 15.3916 16.8609 15.5967 16.5289C15.8018 16.1968 15.8945 15.8257 15.875 15.4156C15.875 15.0347 15.8018 14.6734 15.6553 14.3316C15.5088 13.9898 15.3086 13.692 15.0547 13.438C14.8008 13.1841 14.498 12.9791 14.1465 12.8228C13.7949 12.6666 13.4336 12.5933 13.0625 12.6031C12.6816 12.6031 12.3203 12.6763 11.9785 12.8228C11.6367 12.9693 11.3389 13.1695 11.085 13.4234C10.8311 13.6773 10.626 13.98 10.4697 14.3316C10.3135 14.6832 10.2402 15.0445 10.25 15.4156H8.375C8.375 14.7711 8.49707 14.1656 8.74121 13.5992C8.98535 13.0328 9.31738 12.5396 9.7373 12.1197C10.1572 11.6998 10.6553 11.3629 11.2314 11.1089C11.8076 10.855 12.418 10.7281 13.0625 10.7281ZM25.25 8.47223V30.4302H0.875V0.430237H17.2812L25.25 8.47223ZM17.8232 7.93024H22.0713L17.8232 3.65289V7.93024ZM23.375 28.5552V9.80524H15.9482V2.30524H2.75V28.5552H23.375Z" fill="#161616"/>
</svg>
