<svg width="30" height="31" viewBox="0 0 30 31" fill="none" xmlns="http://www.w3.org/2000/svg">
<path d="M20.7135 23.3047C18.1334 25.3075 14.887 26.2518 11.6353 25.9453C8.38355 25.6387 5.37082 24.1045 3.21036 21.6548C1.0499 19.2051 -0.0958904 16.0241 0.00622168 12.7593C0.108334 9.49455 1.45067 6.3914 3.75999 4.08152C6.06972 1.77205 9.17268 0.42963 12.4372 0.327511C15.7018 0.225393 18.8826 1.37125 21.3321 3.53185C23.7817 5.69245 25.3158 8.70537 25.6223 11.9573C25.9289 15.2093 24.9847 18.4558 22.982 21.0361L29.4877 27.5423C29.699 27.7385 29.8535 27.988 29.9348 28.2647C30.0162 28.5413 30.0214 28.8347 29.95 29.1141C29.8786 29.3934 29.7331 29.6483 29.529 29.8519C29.3249 30.0555 29.0696 30.2003 28.7901 30.271C28.5111 30.3426 28.2179 30.3376 27.9415 30.2566C27.6651 30.1756 27.4156 30.0217 27.2193 29.8109L20.7135 23.3047ZM22.4683 13.1602C22.4874 11.8838 22.2524 10.6164 21.7772 9.43161C21.3019 8.24685 20.5958 7.16843 19.7 6.25907C18.8041 5.34972 17.7364 4.62759 16.559 4.13468C15.3815 3.64178 14.1178 3.38795 12.8413 3.38795C11.5649 3.38795 10.3011 3.64178 9.12367 4.13468C7.9462 4.62759 6.8785 5.34972 5.98266 6.25907C5.08682 7.16843 4.38073 8.24685 3.90546 9.43161C3.4302 10.6164 3.19525 11.8838 3.21428 13.1602C3.25198 15.6888 4.28284 18.101 6.08416 19.8758C7.88548 21.6505 10.3126 22.6454 12.8413 22.6454C15.37 22.6454 17.7972 21.6505 19.5985 19.8758C21.3998 18.101 22.4307 15.6888 22.4683 13.1602Z" fill="#FFD233"/>
</svg>
