<svg width="277" height="781" viewBox="0 0 277 781" fill="none" xmlns="http://www.w3.org/2000/svg">
<path fill-rule="evenodd" clip-rule="evenodd" d="M869.66 429.425C861.649 487.963 834.067 541.841 799.912 591.338C766.79 639.337 721.6 677.098 673.981 712.996C623.639 750.945 574.699 793.648 511.754 808.561C446.944 823.916 374.876 823.781 313.351 798.436C253.064 773.601 216.881 717.306 174.999 669.837C137.362 627.18 107.293 581.417 79.0788 532.917C48.17 479.786 1.63204 429.855 0.392406 369.693C-0.857114 309.056 34.9496 253.001 72.2939 203.65C107.993 156.474 160.574 125.25 210.886 91.5223C262.048 57.2252 309.267 12.4763 371.69 2.94608C434.234 -6.60262 495.484 20.808 556.138 38.8119C616.268 56.6607 677.815 72.2707 727.573 108.585C779.004 146.12 821.657 194.587 846.524 250.739C871.459 307.044 877.888 369.304 869.66 429.425Z" fill="#42446E"/>
</svg>
