<svg width="366" height="819" viewBox="0 0 366 819" fill="none" xmlns="http://www.w3.org/2000/svg">
<path fill-rule="evenodd" clip-rule="evenodd" d="M869.66 428.595C861.649 487.133 834.067 541.011 799.912 590.507C766.79 638.507 721.6 676.268 673.981 712.165C623.639 750.115 574.699 792.818 511.754 807.731C446.944 823.086 374.876 822.951 313.351 797.606C253.064 772.771 216.881 716.476 174.999 669.007C137.362 626.349 107.293 580.587 79.0788 532.087C48.17 478.955 1.63204 429.024 0.392406 368.863C-0.857114 308.226 34.9496 252.171 72.2939 202.82C107.993 155.643 160.574 124.419 210.886 90.6919C262.048 56.3948 309.267 11.6459 371.69 2.1157C434.234 -7.433 495.484 19.9776 556.138 37.9816C616.268 55.8303 677.815 71.4404 727.573 107.754C779.004 145.289 821.657 193.757 846.524 249.909C871.459 306.214 877.888 368.474 869.66 428.595Z" fill="#F0F0F0"/>
</svg>
