<svg width="361" height="563" viewBox="0 0 361 563" fill="none" xmlns="http://www.w3.org/2000/svg">
<path fill-rule="evenodd" clip-rule="evenodd" d="M-240.353 289.914C-237.612 249.281 -221.203 210.927 -200.07 175.276C-179.575 140.703 -150.306 112.601 -119.278 85.665C-86.4768 57.1897 -54.863 25.5115 -12.3132 12.2819C31.4971 -1.33961 81.0261 -4.6523 124.501 9.86937C167.101 24.0988 194.623 61.1016 225.645 91.7656C253.522 119.321 276.345 149.37 298.023 181.389C321.771 216.465 356.109 248.602 359.801 289.914C363.523 331.554 341.565 371.793 318.233 407.495C295.93 441.624 261.272 465.58 228.291 491.151C194.754 517.153 164.419 550.157 121.974 559.66C79.4472 569.182 36.0632 553.227 -6.46582 543.712C-48.6283 534.28 -91.6589 526.453 -127.566 503.833C-164.68 480.451 -196.278 449.137 -216.018 411.698C-235.811 374.157 -243.168 331.647 -240.353 289.914Z" fill="#42446F"/>
</svg>
