<svg width="500" height="500" viewBox="0 0 500 500" fill="none" xmlns="http://www.w3.org/2000/svg">
<g clip-path="url(#clip0_4045_1100)">
<rect width="500" height="500" rx="250" fill="#42446E"/>
<path d="M65.3123 450.654C65.3123 450.654 67.7615 439.788 84.9059 443.41C102.05 447.032 104.499 450.654 104.499 450.654H65.3123Z" fill="#3F3D56"/>
<path d="M45.7174 442.67C45.7174 442.67 48.0305 431.805 64.2225 435.427C80.4144 439.049 82.7276 442.67 82.7276 442.67H45.7174Z" fill="#3F3D56"/>
<path d="M122.639 450.654C122.639 450.654 109.94 439.224 104.497 450.654H122.639Z" fill="#3F3D56"/>
<path d="M48.058 424.815C51.806 432.23 59.7607 435.413 59.7607 435.413C59.7607 435.413 61.6387 426.574 57.8906 419.16C54.1426 411.745 46.1879 408.562 46.1879 408.562C46.1879 408.562 44.3099 417.401 48.058 424.815Z" fill="#3F3D56"/>
<path d="M49.9596 422.427C57.3742 426.683 60.2298 435.137 60.2298 435.137C60.2298 435.137 51.064 436.69 43.6494 432.434C36.2348 428.178 33.3793 419.725 33.3793 419.725C33.3793 419.725 42.5451 418.172 49.9596 422.427Z" fill="#6C63FF"/>
<path d="M488.391 412.918C476.664 411.049 465.388 409.46 454.564 408.149L458.732 399.665C457.286 399.174 451.016 404.082 451.016 404.082L456.321 379.54C449.087 380.522 445.711 405.555 445.711 405.555L437.513 397.21L441.549 406.658C408.427 403.116 379.846 402.01 355.821 402.264L359.388 395.002C357.942 394.511 351.672 399.419 351.672 399.419L356.977 374.877C349.743 375.859 346.368 400.892 346.368 400.892L338.169 392.547L342.444 402.554C325.986 403.04 309.565 404.386 293.243 406.586C296.803 395.299 309.234 384.448 309.234 384.448C299.676 387.475 294.703 392.406 292.129 396.977C291.608 373.788 295.113 350.687 302.483 328.738C302.483 328.738 283.192 372.914 286.086 402.364L286.453 407.596C269.671 410.26 261.25 412.918 261.25 412.918H488.391Z" fill="#3E5C36"/>
<path d="M375.181 422.351C375.181 422.351 464.348 409.289 519.593 422.351H375.181Z" fill="#3E5C36"/>
<path d="M269.956 430.334C269.956 430.334 358.675 418.904 413.642 430.334H269.956Z" fill="#3F3D56"/>
<path d="M396.226 440.494C396.226 440.494 448.651 425.799 481.132 440.494H396.226Z" fill="#3F3D56"/>
<path d="M157.472 304.774C157.472 364.491 122.058 385.342 78.3721 385.342C34.6863 385.342 -0.728027 364.491 -0.728027 304.774C-0.728027 245.057 78.3721 169.087 78.3721 169.087C78.3721 169.087 157.472 245.056 157.472 304.774Z" fill="#F2F2F2"/>
<path d="M75.1665 376.734L75.9905 326.629L110.301 264.642L76.1199 318.769L76.4902 296.24L100.138 251.392L76.5883 290.277L77.2553 249.758L102.577 214.054L77.3598 243.386L77.7762 169.087L75.1591 267.445L75.374 263.388L49.6295 224.473L74.9615 271.177L72.5627 316.431L72.4911 315.23L42.8121 274.277L72.4013 319.473L72.1012 325.132L72.0477 325.218L72.0722 325.682L65.9862 440.495H74.1174L75.0929 381.192L104.61 336.107L75.1665 376.734Z" fill="#3F3D56"/>
<path d="M45.7174 442.67C45.7174 442.67 48.0305 431.805 64.2225 435.427C80.4144 439.049 82.7276 442.67 82.7276 442.67H45.7174Z" fill="#3F3D56"/>
<path d="M101.598 436.864C101.598 436.864 88.3902 427.067 82.7299 436.864H101.598Z" fill="#3F3D56"/>
<path d="M48.058 424.815C51.806 432.23 59.7607 435.413 59.7607 435.413C59.7607 435.413 61.6387 426.574 57.8906 419.16C54.1426 411.745 46.1879 408.562 46.1879 408.562C46.1879 408.562 44.3099 417.401 48.058 424.815Z" fill="#3F3D56"/>
<path d="M49.9596 422.427C57.3742 426.683 60.2298 435.137 60.2298 435.137C60.2298 435.137 51.064 436.69 43.6494 432.434C36.2348 428.178 33.3793 419.725 33.3793 419.725C33.3793 419.725 42.5451 418.172 49.9596 422.427Z" fill="#D13C74"/>
<path d="M157.472 304.774C157.472 364.491 122.058 385.342 78.3721 385.342C34.6863 385.342 -0.728027 364.491 -0.728027 304.774C-0.728027 245.057 78.3721 169.087 78.3721 169.087C78.3721 169.087 157.472 245.056 157.472 304.774Z" fill="#8CBD00"/>
<path d="M75.1665 376.734L75.9905 326.629L110.301 264.642L76.1199 318.769L76.4902 296.24L100.138 251.392L76.5883 290.277L77.2553 249.758L102.577 214.054L77.3598 243.386L77.7762 169.087L75.1591 267.445L75.374 263.388L49.6295 224.473L74.9615 271.177L72.5627 316.431L72.4911 315.23L42.8121 274.277L72.4013 319.473L72.1012 325.132L72.0477 325.218L72.0722 325.682L65.9862 440.495H74.1174L75.0929 381.192L104.61 336.107L75.1665 376.734Z" fill="#3F3D56"/>
<path d="M497.099 243.388C497.099 316.331 453.725 341.8 400.22 341.8C346.715 341.8 303.34 316.331 303.34 243.388C303.34 170.444 400.22 77.6489 400.22 77.6489C400.22 77.6489 497.099 170.444 497.099 243.388Z" fill="#A8BD00"/>
<path d="M396.728 330.823L397.72 269.732L439.041 194.154L397.876 260.149L398.322 232.68L426.8 178L398.44 225.411L399.243 176.007L429.738 132.475L399.369 168.238L399.871 77.6489L396.719 197.573L396.978 192.625L365.974 145.179L396.481 202.122L393.592 257.298L393.506 255.834L357.763 205.903L393.398 261.007L393.036 267.907L392.972 268.011L393.001 268.578L385.672 408.563H395.464L396.64 336.258L432.186 281.288L396.728 330.823Z" fill="#3F3D56"/>
<path d="M300.797 124.239L231.131 121.556V91.664L295.355 90.1311L300.797 124.239Z" fill="#13131C"/>
<path d="M365.384 201.524C344.097 187.494 280.188 173.077 203.555 223.295C219.036 239.502 289.912 259.942 365.384 201.524Z" fill="#6B1535" stroke="black" stroke-width="2.17707"/>
<path d="M314.948 218.215C276.632 275.4 247.701 248.331 238.025 227.649C220.028 201.234 220.609 150.605 223.149 128.593L318.214 131.495C323.439 150.363 318.214 197.17 314.948 218.215Z" fill="#E1C7B6" stroke="black" stroke-width="0.725689"/>
<path d="M364.162 201.808C276.68 257.213 222.47 239.332 205.962 223.16C205.805 223.006 205.614 222.886 205.401 222.834C198.251 221.063 200.441 245.499 202.466 258.128C207.024 279.209 201.704 282.21 198.304 281.057C198.175 281.014 198.041 280.981 197.906 280.968C186.31 279.876 181.53 280.459 180.442 280.934C180.367 280.966 180.298 281 180.222 281.029C165.321 286.638 142.918 327.969 133.175 348.761C132.94 349.263 132.446 349.562 131.897 349.633C118.863 351.33 110.028 383.371 107.112 399.939C107.062 400.222 107.113 400.499 107.153 400.783C107.566 403.728 102.266 412.171 98.9472 416.909C98.5824 417.43 97.9187 417.632 97.2985 417.492C91.0123 416.07 85.776 420.969 83.6654 423.997C83.5232 424.201 83.4445 424.441 83.4276 424.689L82.582 437.092C82.4972 438.335 80.8337 441.07 80.2801 442.186C79.5587 443.641 78.8709 445.568 78.4366 446.965C78.3941 447.102 78.3734 447.235 78.3739 447.378C78.4382 464.851 86.5406 507.816 90.6546 527.456C90.6925 527.637 90.7549 527.792 90.8627 527.942C98.3057 538.315 143.646 549.959 165.678 554.543C165.775 554.563 165.869 554.572 165.968 554.572H384.298C384.728 554.572 385.138 554.381 385.277 553.973C386.345 550.834 386.055 538.974 385.729 532.576C385.713 532.25 385.803 531.935 385.989 531.667C397.682 514.795 404.902 484.041 407.089 470.531C407.104 470.435 407.129 470.347 407.157 470.255C407.745 468.298 405.683 465.284 404.022 463.38C403.528 462.814 403.453 461.941 403.771 461.261C405.356 457.87 408.223 448.749 410.047 442.626C410.362 441.568 412.013 440.066 412.868 439.367C414.351 438.156 416.223 436.124 417.429 434.711C417.565 434.553 417.657 434.39 417.707 434.188C419.525 426.831 422.355 386.536 422.713 383.672C422.951 381.766 420.599 380.382 418.744 379.679C418.106 379.437 417.657 378.818 417.687 378.136C419.872 329 415.487 304.923 412.96 298.87C412.929 298.796 412.9 298.741 412.856 298.674C408.11 291.455 379.373 269.454 364.756 258.731C364.257 258.365 364.057 257.727 364.233 257.134C371.463 232.851 368.902 211.754 366.294 202.56C366.038 201.655 364.957 201.305 364.162 201.808Z" fill="#A5A5A5"/>
<path d="M205.962 223.16L205.2 223.937V223.937L205.962 223.16ZM364.162 201.808L364.745 202.727V202.727L364.162 201.808ZM366.294 202.56L367.342 202.263V202.263L366.294 202.56ZM364.233 257.134L365.277 257.445V257.445L364.233 257.134ZM364.756 258.731L364.112 259.609L364.112 259.609L364.756 258.731ZM412.856 298.674L411.947 299.272L411.947 299.272L412.856 298.674ZM412.96 298.87L413.964 298.45L413.964 298.45L412.96 298.87ZM417.687 378.136L418.774 378.184V378.184L417.687 378.136ZM418.744 379.679L418.359 380.697L418.744 379.679ZM422.713 383.672L423.793 383.807V383.807L422.713 383.672ZM417.707 434.188L416.651 433.927L416.651 433.927L417.707 434.188ZM417.429 434.711L416.601 434.005V434.005L417.429 434.711ZM412.868 439.367L412.179 438.524L412.179 438.524L412.868 439.367ZM410.047 442.626L409.004 442.315V442.315L410.047 442.626ZM403.771 461.261L404.757 461.722H404.757L403.771 461.261ZM404.022 463.38L404.842 462.664V462.664L404.022 463.38ZM407.157 470.255L408.2 470.568L408.2 470.568L407.157 470.255ZM407.089 470.531L408.163 470.705L408.163 470.704L407.089 470.531ZM385.989 531.667L385.095 531.047V531.047L385.989 531.667ZM385.729 532.576L384.642 532.631L385.729 532.576ZM385.277 553.973L384.247 553.622H384.247L385.277 553.973ZM165.678 554.543L165.899 553.477H165.899L165.678 554.543ZM90.8627 527.942L89.9783 528.577H89.9783L90.8627 527.942ZM90.6546 527.456L91.72 527.233L91.72 527.233L90.6546 527.456ZM78.3739 447.378L77.2854 447.382L78.3739 447.378ZM78.4366 446.965L79.4761 447.288H79.4761L78.4366 446.965ZM80.2801 442.186L79.3049 441.703L79.3049 441.703L80.2801 442.186ZM82.582 437.092L83.668 437.166L82.582 437.092ZM83.4276 424.689L84.5136 424.763L83.4276 424.689ZM83.6654 423.997L84.5584 424.62L84.5584 424.62L83.6654 423.997ZM97.2985 417.492L97.0584 418.553L97.2985 417.492ZM98.9472 416.909L98.0556 416.285L98.9472 416.909ZM107.153 400.783L108.231 400.632V400.632L107.153 400.783ZM107.112 399.939L106.04 399.75L106.04 399.75L107.112 399.939ZM131.897 349.633L131.757 348.554H131.757L131.897 349.633ZM133.175 348.761L134.161 349.223L133.175 348.761ZM180.222 281.029L179.838 280.01L179.838 280.01L180.222 281.029ZM180.442 280.934L180.876 281.932H180.877L180.442 280.934ZM197.906 280.968L198.008 279.884L197.906 280.968ZM198.304 281.057L198.653 280.027L198.653 280.027L198.304 281.057ZM202.466 258.128L201.392 258.301L201.396 258.33L201.402 258.358L202.466 258.128ZM205.401 222.834L205.139 223.89L205.401 222.834ZM205.2 223.937C222.218 240.608 277.04 258.274 364.745 202.727L363.58 200.888C276.32 256.153 222.723 238.056 206.724 222.382L205.2 223.937ZM365.247 202.857C367.804 211.872 370.355 232.757 363.19 256.823L365.277 257.445C372.57 232.945 370 211.636 367.342 202.263L365.247 202.857ZM364.112 259.609C371.412 264.964 382.236 273.134 391.825 280.864C396.619 284.729 401.096 288.477 404.664 291.703C408.265 294.958 410.848 297.6 411.947 299.272L413.766 298.076C412.492 296.139 409.703 293.324 406.124 290.088C402.512 286.823 398.001 283.047 393.191 279.169C383.57 271.413 372.717 263.221 365.4 257.853L364.112 259.609ZM411.955 299.289C413.15 302.152 414.869 309.542 416.006 322.443C417.14 335.304 417.69 353.558 416.6 378.087L418.774 378.184C419.869 353.578 419.319 335.226 418.175 322.252C417.034 309.317 415.297 301.642 413.964 298.45L411.955 299.289ZM418.359 380.697C419.227 381.026 420.151 381.494 420.808 382.054C421.479 382.624 421.686 383.117 421.633 383.537L423.793 383.807C423.979 382.322 423.128 381.169 422.219 380.395C421.296 379.611 420.116 379.035 419.13 378.661L418.359 380.697ZM421.633 383.537C421.451 384.995 420.649 395.847 419.673 407.152C419.184 412.825 418.649 418.631 418.124 423.477C417.595 428.353 417.084 432.173 416.651 433.927L418.764 434.449C419.24 432.525 419.764 428.549 420.288 423.711C420.816 418.843 421.352 413.017 421.842 407.339C422.826 395.941 423.618 385.213 423.793 383.807L421.633 383.537ZM416.601 434.005C415.404 435.407 413.584 437.378 412.179 438.524L413.556 440.211C415.118 438.935 417.042 436.841 418.257 435.418L416.601 434.005ZM409.004 442.315C407.17 448.469 404.328 457.499 402.785 460.799L404.757 461.722C406.385 458.241 409.275 449.029 411.09 442.937L409.004 442.315ZM403.202 464.095C404 465.011 404.873 466.169 405.469 467.304C406.098 468.5 406.277 469.402 406.115 469.942L408.2 470.568C408.625 469.15 408.067 467.567 407.396 466.291C406.693 464.953 405.704 463.652 404.842 462.664L403.202 464.095ZM406.014 470.357C404.928 477.066 402.587 488.083 399.063 499.518C395.534 510.971 390.845 522.75 385.095 531.047L386.884 532.287C392.826 523.712 397.594 511.678 401.144 500.159C404.7 488.621 407.062 477.506 408.163 470.705L406.014 470.357ZM384.642 532.631C384.804 535.817 384.957 540.36 384.937 544.492C384.927 546.558 384.874 548.508 384.758 550.128C384.64 551.783 384.464 552.985 384.247 553.622L386.308 554.324C386.625 553.392 386.812 551.935 386.93 550.283C387.05 548.596 387.104 546.593 387.114 544.502C387.135 540.319 386.98 535.733 386.816 532.521L384.642 532.631ZM384.298 553.484H165.968V555.661H384.298V553.484ZM165.899 553.477C154.908 551.19 138.104 547.142 123.13 542.376C115.641 539.992 108.636 537.437 103.053 534.843C100.262 533.545 97.8462 532.247 95.9114 530.967C93.9642 529.679 92.5662 528.449 91.7471 527.307L89.9783 528.577C91.02 530.028 92.667 531.431 94.7101 532.783C96.7655 534.143 99.2853 535.492 102.136 536.817C107.836 539.466 114.939 542.054 122.469 544.45C137.534 549.245 154.415 553.311 165.456 555.609L165.899 553.477ZM91.72 527.233C89.6655 517.425 86.6144 501.789 84.0695 486.426C81.5199 471.036 79.4942 456.01 79.4624 447.374L77.2854 447.382C77.3179 456.219 79.3755 471.412 81.9217 486.782C84.4726 502.181 87.5297 517.847 89.5891 527.679L91.72 527.233ZM79.4761 447.288C79.9029 445.915 80.5708 444.05 81.2554 442.67L79.3049 441.703C78.5466 443.232 77.8389 445.221 77.3972 446.642L79.4761 447.288ZM83.668 437.166L84.5136 424.763L82.3416 424.615L81.496 437.017L83.668 437.166ZM84.5584 424.62C85.5438 423.206 87.2744 421.34 89.4792 420.007C91.6739 418.681 94.2664 417.922 97.0584 418.553L97.5387 416.43C94.0444 415.639 90.8757 416.619 88.3531 418.144C85.8405 419.663 83.8976 421.76 82.7723 423.375L84.5584 424.62ZM99.8388 417.534C101.512 415.145 103.69 411.815 105.403 408.698C106.259 407.141 107.012 405.614 107.528 404.269C108.022 402.979 108.376 401.668 108.231 400.632L106.075 400.934C106.136 401.371 105.982 402.219 105.495 403.489C105.03 404.704 104.328 406.135 103.495 407.649C101.833 410.674 99.7015 413.935 98.0556 416.285L99.8388 417.534ZM108.184 400.128C109.634 391.892 112.554 379.82 116.718 369.621C118.802 364.518 121.175 359.937 123.797 356.545C126.436 353.132 129.202 351.082 132.038 350.713L131.757 348.554C128.076 349.033 124.849 351.625 122.075 355.214C119.283 358.825 116.822 363.608 114.703 368.798C110.462 379.186 107.507 391.418 106.04 399.75L108.184 400.128ZM134.161 349.223C139.019 338.856 147.033 323.369 155.682 309.786C160.008 302.993 164.477 296.701 168.775 291.769C173.103 286.804 177.148 283.349 180.605 282.047L179.838 280.01C175.845 281.513 171.502 285.328 167.134 290.339C162.736 295.384 158.202 301.776 153.846 308.616C145.133 322.299 137.075 337.874 132.19 348.299L134.161 349.223ZM180.877 281.932C181.004 281.876 181.383 281.766 182.143 281.664C182.876 281.566 183.897 281.485 185.26 281.452C187.986 281.384 192.035 281.508 197.804 282.052L198.008 279.884C192.181 279.335 188.042 279.205 185.206 279.275C183.789 279.31 182.686 279.395 181.855 279.506C181.05 279.614 180.423 279.754 180.007 279.936L180.877 281.932ZM197.954 282.088C199.018 282.449 200.296 282.504 201.513 281.901C202.733 281.296 203.731 280.111 204.392 278.304C205.69 274.756 205.817 268.474 203.53 257.898L201.402 258.358C203.674 268.863 203.42 274.622 202.347 277.557C201.822 278.992 201.137 279.657 200.547 279.95C199.952 280.245 199.289 280.242 198.653 280.027L197.954 282.088ZM203.541 257.956C202.533 251.67 201.489 242.473 201.581 235.094C201.628 231.384 201.961 228.246 202.671 226.179C203.027 225.141 203.437 224.496 203.841 224.156C204.185 223.865 204.572 223.75 205.139 223.89L205.662 221.777C204.442 221.475 203.333 221.736 202.437 222.492C201.6 223.198 201.024 224.27 200.612 225.472C199.784 227.883 199.451 231.311 199.405 235.067C199.31 242.622 200.374 251.957 201.392 258.301L203.541 257.956ZM197.804 282.052C197.832 282.054 197.882 282.064 197.954 282.088L198.653 280.027C198.469 279.964 198.249 279.907 198.008 279.884L197.804 282.052ZM180.605 282.047C180.715 282.006 180.86 281.939 180.876 281.932L180.007 279.936C179.874 279.994 179.882 279.993 179.838 280.01L180.605 282.047ZM132.038 350.713C132.875 350.604 133.737 350.128 134.161 349.223L132.19 348.299C132.144 348.397 132.017 348.52 131.757 348.554L132.038 350.713ZM108.231 400.632C108.18 400.272 108.172 400.2 108.184 400.128L106.04 399.75C105.953 400.244 106.046 400.725 106.075 400.934L108.231 400.632ZM97.0584 418.553C98.0363 418.774 99.18 418.474 99.8388 417.534L98.0556 416.285C97.9849 416.386 97.8011 416.489 97.5387 416.43L97.0584 418.553ZM84.5136 424.763C84.5182 424.695 84.5384 424.648 84.5584 424.62L82.7723 423.375C82.5081 423.754 82.3707 424.187 82.3416 424.615L84.5136 424.763ZM81.2553 442.67C81.3823 442.414 81.5772 442.057 81.8179 441.614C82.053 441.181 82.3222 440.683 82.5779 440.178C82.8326 439.675 83.0829 439.148 83.2773 438.654C83.463 438.182 83.635 437.65 83.668 437.166L81.496 437.017C81.4866 437.155 81.4188 437.431 81.2514 437.856C81.0928 438.26 80.8768 438.719 80.6357 439.195C80.3958 439.668 80.1401 440.141 79.9049 440.574C79.6754 440.997 79.4548 441.4 79.3049 441.703L81.2553 442.67ZM79.4624 447.374C79.4623 447.346 79.4652 447.323 79.4761 447.288L77.3972 446.642C77.323 446.88 77.2844 447.124 77.2854 447.382L79.4624 447.374ZM91.7471 527.307C91.7397 527.297 91.737 527.292 91.7352 527.287C91.7329 527.282 91.727 527.266 91.72 527.233L89.5891 527.679C89.6535 527.986 89.7699 528.286 89.9783 528.577L91.7471 527.307ZM165.968 553.484C165.94 553.484 165.92 553.481 165.899 553.477L165.456 555.609C165.629 555.645 165.798 555.661 165.968 555.661V553.484ZM385.095 531.047C384.773 531.511 384.613 532.062 384.642 532.631L386.816 532.521C386.812 532.437 386.833 532.36 386.884 532.287L385.095 531.047ZM406.115 469.942C406.087 470.035 406.042 470.184 406.014 470.357L408.163 470.704C408.166 470.687 408.172 470.66 408.2 470.568L406.115 469.942ZM402.785 460.799C402.308 461.82 402.39 463.165 403.202 464.095L404.842 462.664C404.667 462.463 404.598 462.061 404.757 461.722L402.785 460.799ZM412.179 438.524C411.728 438.893 411.063 439.476 410.462 440.117C409.901 440.714 409.242 441.517 409.004 442.315L411.09 442.937C411.168 442.677 411.491 442.2 412.048 441.607C412.565 441.057 413.153 440.54 413.556 440.211L412.179 438.524ZM416.651 433.927C416.648 433.939 416.645 433.944 416.643 433.949C416.639 433.955 416.629 433.972 416.601 434.005L418.257 435.418C418.481 435.156 418.666 434.844 418.764 434.449L416.651 433.927ZM416.6 378.087C416.546 379.285 417.326 380.306 418.359 380.697L419.13 378.661C418.887 378.569 418.767 378.35 418.774 378.184L416.6 378.087ZM411.947 299.272C411.95 299.277 411.951 299.279 411.952 299.28C411.952 299.28 411.951 299.28 411.951 299.278C411.95 299.277 411.95 299.277 411.951 299.278C411.951 299.279 411.953 299.283 411.955 299.289L413.964 298.45C413.909 298.317 413.848 298.201 413.766 298.076L411.947 299.272ZM363.19 256.823C362.888 257.837 363.226 258.959 364.112 259.609L365.4 257.853C365.288 257.772 365.225 257.617 365.277 257.445L363.19 256.823ZM364.745 202.727C364.852 202.659 364.975 202.651 365.077 202.685C365.171 202.718 365.225 202.777 365.247 202.857L367.342 202.263C366.864 200.579 364.918 200.041 363.58 200.888L364.745 202.727ZM384.247 553.622C384.257 553.591 384.276 553.558 384.3 553.529C384.324 553.502 384.347 553.486 384.358 553.48C384.37 553.473 384.371 553.475 384.358 553.478C384.346 553.481 384.326 553.484 384.298 553.484V555.661C384.995 555.661 385.963 555.336 386.308 554.324L384.247 553.622ZM206.724 222.382C206.457 222.121 206.1 221.885 205.662 221.777L205.139 223.89C205.133 223.889 205.136 223.888 205.148 223.895C205.16 223.902 205.178 223.916 205.2 223.937L206.724 222.382Z" fill="black"/>
<path d="M323.294 441.727C337.324 446.565 369.23 459.579 384.614 472.932C379.051 459.386 358.998 434.18 323.294 441.727Z" fill="#090A0C" fill-opacity="0.3"/>
<path d="M409.288 444.63C411.03 439.986 394.774 429.149 386.429 424.311C411.102 428.375 415.335 435.196 414.368 438.099L410.739 441.728L409.288 444.63Z" fill="#090A0C" fill-opacity="0.3"/>
<path d="M350.144 413.426C366.69 409.942 387.759 396.493 396.226 390.204C386.646 367.562 339.259 404.475 316.763 425.762C324.89 419.667 342.404 414.998 350.144 413.426Z" fill="#090A0C" fill-opacity="0.3"/>
<path d="M112.844 431.205C104.426 433.527 98.9347 423.222 97.2415 417.78C97.822 418.36 98.9347 417.538 99.4185 417.054C100.87 415.119 103.773 411.031 103.773 410.16C103.773 409.289 119.254 421.408 126.995 427.577L112.844 431.205Z" fill="#090A0C" fill-opacity="0.3"/>
<path d="M255.805 213.498C255.805 214.345 256.458 215.966 259.07 215.675" stroke="black" stroke-width="0.725689"/>
<path d="M263.424 214.949C263.061 214.345 262.844 213.208 264.876 213.498" stroke="black" stroke-width="0.725689"/>
<path d="M280.478 200.436C286.042 204.669 297.024 214.079 296.443 217.852" stroke="black" stroke-width="0.725689"/>
<path d="M251.088 187.011C247.338 192.211 240.202 204.717 241.654 213.135" stroke="black" stroke-width="0.725689"/>
<path d="M253.99 225.472C257.619 227.165 267.996 230.044 280.478 228.012" stroke="black" stroke-width="0.725689"/>
<path d="M260.522 232.729C262.094 233.455 266.327 234.688 270.681 233.818" stroke="black" stroke-width="0.725689"/>
<path d="M271.044 187.736C265.481 183.745 258.562 174.166 275.398 167.78L298.62 161.611" stroke="black" stroke-width="0.725689"/>
<path d="M254.716 189.913C256.046 184.35 256.022 171.844 245.282 166.328C243.589 165.119 238.678 162.482 232.583 161.611" stroke="black" stroke-width="0.725689"/>
<path d="M303.337 160.886C251.172 167.769 228.217 160.908 228.228 162.691C228.229 162.713 228.229 162.716 228.229 162.7C228.228 162.697 228.228 162.694 228.228 162.691C228.184 161.607 226.157 113.815 231.494 118.796C236.937 123.876 300.435 120.61 300.435 120.61C301.01 128.593 305.95 144.63 303.337 160.886Z" fill="#342F35"/>
<path d="M303.337 158.346C257.256 164.514 230.26 158.926 229.68 158.346C229.099 157.765 228.591 117.344 230.768 122.061C232.945 126.778 302.249 123.512 302.249 123.512C304.789 131.011 305.95 142.09 303.337 158.346Z" fill="#B2B2BE"/>
<path d="M274.31 176.851C278.301 179.512 288.025 182.874 294.992 175.037" stroke="black" stroke-width="1.45138"/>
<path d="M245.282 174.311C242.863 171.287 236.138 165.675 228.591 167.417" stroke="black" stroke-width="0.725689"/>
<path d="M274.31 177.576C276.487 173.827 283.889 166.256 296.08 170.319" stroke="black" stroke-width="0.725689"/>
<path d="M245.645 174.674C242.137 175.641 233.889 177.286 228.954 176.125" stroke="black" stroke-width="1.45138"/>
<path d="M371.915 314.732C358.973 330.455 352.795 344.444 340.347 363.353M340.347 363.353C328.83 380.85 316.109 390.566 310.594 407.983C308.659 413.305 305.369 424.456 307.691 426.488C309.869 431.689 310.014 439.768 293.178 430.479C281.929 426.609 267.532 428.478 253.99 420.32M340.347 363.353C336.961 358.152 332.51 339.26 341.799 305.298M253.99 420.32C247.432 416.368 245.078 412.296 238.751 407.983C227.408 400.251 207.002 394.659 198.423 391.278C196.755 390.621 191.644 390.021 190.094 390.922C181.196 396.09 169.578 407.219 169.085 421.771C168.504 426.835 167.868 433.902 167.484 441.365M253.99 420.32C238.872 410.523 223.511 414.151 283.018 507.04M180.333 510.243C176.589 500.303 172.416 485.776 170.173 477.286C166.932 471.376 166.749 455.646 167.484 441.365M180.333 510.243C182.242 515.313 184.04 519.19 185.413 520.465L180.333 510.243ZM180.333 510.243C181.059 522.963 183.453 549.565 187.227 554.209M167.484 441.365C163.154 437.333 155.972 431.554 149.128 427.973M98.6929 433.382C97.8221 436.575 122.036 429.875 134.252 426.125C137.607 423.441 143.243 424.894 149.128 427.973M149.128 427.973C139.936 420.826 120.028 406.169 113.932 404.717M364.295 258.491C357.764 269.013 339.404 282.076 332.728 284.979M204.281 275.545C204.523 279.778 207.909 289.333 216.255 295.501" stroke="black" stroke-width="2.17707" stroke-linejoin="round"/>
<path d="M236.574 99.9277C233.028 124.14 227.887 171.791 230.917 197.204C231.871 201.643 232.831 205.759 233.671 209.144C232.398 206.221 231.504 202.13 230.917 197.204C229.334 189.842 227.768 181.591 226.795 174.311C226.79 186.378 227.026 210.212 227.978 216.062C228.065 216.438 228.149 216.794 228.228 217.127C228.14 216.905 228.056 216.545 227.978 216.062C226.846 211.175 225.152 202.891 224.907 198.161C224.759 206.962 224.966 223.821 226.795 236.72C224.942 232.306 221.464 221.27 220.277 208.271C220.382 213.254 220.111 218.686 218.794 220.755C218.214 219.361 217.075 214.018 216.986 203.569C216.901 207.64 215.898 214.324 212.263 216.401C212.868 209.144 213.497 191.727 211.175 180.116C209.481 181.447 206.458 190.131 207.909 214.224C204.281 188.099 200.072 128.302 212.263 98.1134C231.615 66.3041 285.268 20.755 345.064 93.0336C349.152 128.977 352.856 199.067 335.231 193.65C335.412 195.231 334.123 203.73 328.011 229.826C326.801 229.1 324.6 227.141 325.471 225.109C326.559 222.569 322.205 225.109 321.117 229.826C318.819 229.1 314.223 227.141 314.223 225.109C314.223 222.843 309.889 226.065 309.213 228.848C309.19 229.178 309.166 229.504 309.143 229.826C309.104 229.513 309.132 229.184 309.213 228.848C311.021 203.676 313.441 156.912 309.143 163.788C310.231 175.883 310.449 205.08 302.611 225.109C302.128 187.373 299.709 111.974 293.903 112.264C294.266 138.873 294.339 193.106 291.726 197.17C291.968 159.555 291 86.6476 285.195 95.9364C279.51 98.7182 267.343 105.588 264.15 110.813C261.973 115.772 256.24 122.714 250.725 110.813C246.975 105.733 238.896 96.4444 236.574 99.9277Z" fill="#4A4A54"/>
<path d="M227.503 154.717C225.248 156.441 225.483 164.493 226.795 174.311M226.795 174.311C228.355 185.98 231.438 200.145 233.671 209.144C225.834 191.147 232.341 128.834 236.574 99.9277C238.896 96.4444 246.975 105.733 250.725 110.813C256.24 122.714 261.973 115.772 264.15 110.813C267.343 105.588 279.51 98.7182 285.195 95.9364C291 86.6476 291.968 159.555 291.726 197.17C294.339 193.106 294.266 138.873 293.903 112.264C299.709 111.974 302.128 187.373 302.611 225.109C310.449 205.08 310.231 175.883 309.143 163.788C313.497 156.822 310.957 204.911 309.143 229.826C308.78 226.923 314.223 222.569 314.223 225.109C314.223 227.141 318.819 229.1 321.117 229.826C322.205 225.109 326.559 222.569 325.471 225.109C324.6 227.141 326.801 229.1 328.011 229.826C335.558 197.605 335.751 192.211 334.905 193.542C352.902 199.928 349.177 129.197 345.064 93.0336C285.268 20.7549 231.615 66.3041 212.263 98.1134C200.072 128.302 204.281 188.099 207.909 214.224C206.458 190.131 209.481 181.447 211.175 180.116C213.497 191.727 212.868 209.144 212.263 216.401C216.327 214.079 217.101 205.999 216.98 202.25C216.98 213.571 218.19 219.304 218.794 220.755C220.826 217.562 220.367 206.362 219.883 201.161C220.173 217.127 224.612 231.519 226.795 236.72C224.778 222.497 224.733 203.459 224.963 195.719C224.382 199.492 226.898 211.563 228.228 217.127C227.067 214.224 226.789 187.373 226.795 174.311Z" stroke="black" stroke-width="0.725689"/>
<path d="M246.371 310.378C238.533 300.508 239.598 258.491 240.928 238.897L235.123 237.809C230.768 268.288 235.727 297.194 238.751 307.838C227.43 335.995 229.196 382.947 231.494 402.903L238.751 407.257C232.655 342.526 241.291 315.7 246.371 310.378Z" fill="#764852" stroke="#764852" stroke-width="0.725689"/>
<path d="M220.972 300.944C229.559 316.909 260.739 337.664 316.763 292.961C293.42 301.428 241.581 314.877 220.972 300.944Z" fill="#090A0C" fill-opacity="0.3"/>
<path d="M260.501 150.298C259.561 150.298 258.678 150.124 257.854 149.775C257.041 149.416 256.327 148.922 255.712 148.295C255.108 147.656 254.632 146.913 254.283 146.066C253.947 145.218 253.778 144.301 253.778 143.314C253.778 142.339 253.947 141.433 254.283 140.597C254.632 139.749 255.108 139.012 255.712 138.385C256.327 137.746 257.041 137.247 257.854 136.887C258.667 136.527 259.549 136.347 260.501 136.347C261.395 136.347 262.162 136.463 262.8 136.696C263.45 136.928 264.101 137.311 264.751 137.845C264.89 137.961 264.983 138.072 265.029 138.176C265.076 138.281 265.099 138.408 265.099 138.559C265.099 138.78 265.018 138.966 264.855 139.117C264.704 139.256 264.519 139.337 264.298 139.36C264.077 139.372 263.863 139.296 263.654 139.134C263.224 138.762 262.777 138.478 262.312 138.281C261.86 138.083 261.256 137.984 260.501 137.984C259.816 137.984 259.172 138.124 258.568 138.402C257.964 138.681 257.43 139.064 256.966 139.552C256.513 140.04 256.159 140.609 255.903 141.259C255.648 141.897 255.52 142.582 255.52 143.314C255.52 144.057 255.648 144.754 255.903 145.404C256.159 146.043 256.513 146.606 256.966 147.093C257.43 147.581 257.964 147.964 258.568 148.243C259.172 148.51 259.816 148.643 260.501 148.643C261.093 148.643 261.651 148.545 262.173 148.347C262.707 148.138 263.218 147.854 263.706 147.494C263.915 147.343 264.118 147.279 264.315 147.302C264.524 147.314 264.699 147.395 264.838 147.546C264.977 147.685 265.047 147.883 265.047 148.138C265.047 148.382 264.954 148.597 264.768 148.783C263.514 149.793 262.092 150.298 260.501 150.298Z" fill="#828282"/>
<path d="M260.138 149.572C259.198 149.572 258.315 149.398 257.491 149.05C256.678 148.69 255.964 148.196 255.349 147.569C254.745 146.931 254.269 146.188 253.921 145.34C253.584 144.492 253.415 143.575 253.415 142.588C253.415 141.613 253.584 140.707 253.921 139.871C254.269 139.024 254.745 138.286 255.349 137.659C255.964 137.021 256.678 136.521 257.491 136.161C258.304 135.802 259.186 135.622 260.138 135.622C261.032 135.622 261.799 135.738 262.437 135.97C263.087 136.202 263.738 136.585 264.388 137.119C264.527 137.236 264.62 137.346 264.667 137.45C264.713 137.555 264.736 137.683 264.736 137.833C264.736 138.054 264.655 138.24 264.492 138.391C264.341 138.53 264.156 138.611 263.935 138.635C263.714 138.646 263.5 138.571 263.291 138.408C262.861 138.037 262.414 137.752 261.95 137.555C261.497 137.357 260.893 137.259 260.138 137.259C259.453 137.259 258.809 137.398 258.205 137.677C257.601 137.955 257.067 138.339 256.603 138.826C256.15 139.314 255.796 139.883 255.54 140.533C255.285 141.172 255.157 141.857 255.157 142.588C255.157 143.331 255.285 144.028 255.54 144.678C255.796 145.317 256.15 145.88 256.603 146.368C257.067 146.855 257.601 147.238 258.205 147.517C258.809 147.784 259.453 147.918 260.138 147.918C260.73 147.918 261.288 147.819 261.81 147.622C262.344 147.413 262.855 147.128 263.343 146.768C263.552 146.617 263.755 146.553 263.953 146.577C264.162 146.588 264.336 146.669 264.475 146.82C264.614 146.96 264.684 147.157 264.684 147.413C264.684 147.656 264.591 147.871 264.405 148.057C263.151 149.067 261.729 149.572 260.138 149.572Z" fill="#636363"/>
<path d="M253.75 151.297C251.996 151.297 251.12 150.42 251.12 148.667V144.574C251.12 143.517 250.591 142.989 249.535 142.989C249.384 142.989 249.256 142.942 249.152 142.85C249.047 142.745 248.995 142.617 248.995 142.466C248.995 142.304 249.047 142.176 249.152 142.083C249.256 141.979 249.384 141.926 249.535 141.926C250.591 141.926 251.12 141.398 251.12 140.342V136.249C251.12 134.484 251.996 133.601 253.75 133.601C253.912 133.601 254.04 133.654 254.133 133.758C254.237 133.851 254.29 133.979 254.29 134.141C254.29 134.292 254.237 134.42 254.133 134.524C254.04 134.617 253.912 134.664 253.75 134.664C252.705 134.664 252.182 135.192 252.182 136.249V140.342C252.182 140.794 252.112 141.195 251.973 141.543C251.845 141.892 251.654 142.199 251.398 142.466C251.921 142.989 252.182 143.691 252.182 144.574V148.667C252.182 149.712 252.705 150.234 253.75 150.234C253.912 150.234 254.04 150.286 254.133 150.391C254.237 150.495 254.29 150.623 254.29 150.774C254.29 150.925 254.237 151.047 254.133 151.14C254.04 151.244 253.912 151.297 253.75 151.297Z" fill="#636363"/>
<path d="M265.819 151.297C265.668 151.297 265.541 151.244 265.436 151.14C265.332 151.047 265.279 150.925 265.279 150.774C265.279 150.623 265.332 150.495 265.436 150.391C265.541 150.286 265.668 150.234 265.819 150.234C266.864 150.234 267.387 149.712 267.387 148.667V144.574C267.387 143.691 267.648 142.989 268.171 142.466C267.915 142.199 267.718 141.892 267.578 141.543C267.451 141.195 267.387 140.794 267.387 140.342V136.249C267.387 135.192 266.864 134.664 265.819 134.664C265.668 134.664 265.541 134.617 265.436 134.524C265.332 134.42 265.279 134.292 265.279 134.141C265.279 133.979 265.332 133.851 265.436 133.758C265.541 133.654 265.668 133.601 265.819 133.601C267.573 133.601 268.449 134.484 268.449 136.249V140.342C268.449 141.398 268.978 141.926 270.034 141.926C270.185 141.926 270.313 141.979 270.417 142.083C270.522 142.176 270.574 142.304 270.574 142.466C270.574 142.617 270.522 142.745 270.417 142.85C270.313 142.942 270.185 142.989 270.034 142.989C268.978 142.989 268.449 143.517 268.449 144.574V148.667C268.449 150.42 267.573 151.297 265.819 151.297Z" fill="#636363"/>
<path d="M142.597 259.07C121.19 268.504 133.526 304.789 145.5 305.151C157.474 305.514 154.692 314.706 156.023 320.391C157.474 335.195 150.58 348.572 148.765 351.596C143.54 381.204 152.878 402.878 158.199 410.014L189.041 390.057C189.332 388.606 193.517 388.727 195.573 388.969L218.069 396.951C229.68 401.305 241.291 408.683 245.645 411.828C245.065 412.118 251.693 417.271 255.079 419.81L306.966 415.456L310.957 403.482C311.248 400.289 319.545 388.606 323.657 383.163C351.814 322.495 336.114 343.613 324.745 361.756C341.871 319.666 331.881 328.011 324.745 337.445C330.551 326.124 320.149 335.631 314.223 341.799C339.186 303.192 315.432 328.374 300.435 345.79C312.626 314.731 295.355 339.622 285.195 355.95C269.52 337.953 236.09 331.518 221.335 330.551C221.335 326.777 208.635 314.223 208.635 314.223C208.635 314.223 195.696 295.718 193.758 292.089C177.793 262.191 164.005 249.637 142.597 259.07Z" fill="white"/>
<path d="M324.745 337.445C330.551 326.124 320.149 335.631 314.223 341.799C339.186 303.192 315.432 328.374 300.435 345.79C312.626 314.731 295.355 339.622 285.195 355.95C269.52 337.953 236.09 331.518 221.335 330.551C221.335 326.777 208.635 314.223 208.635 314.223C208.635 314.223 195.696 295.718 193.758 292.089C177.793 262.191 164.005 249.637 142.597 259.07C121.19 268.504 133.526 304.789 145.5 305.151C157.474 305.514 154.692 314.706 156.023 320.391C157.474 335.195 150.58 348.572 148.765 351.596C143.54 381.204 152.878 402.878 158.199 410.014L189.041 390.057C189.332 388.606 193.517 388.727 195.573 388.969L218.069 396.951C229.68 401.305 241.291 408.683 245.645 411.828C245.065 412.118 251.693 417.271 255.079 419.81L306.966 415.456L310.957 403.482C311.248 400.289 319.545 388.606 323.657 383.163C351.814 322.495 336.114 343.613 324.745 361.756C341.871 319.666 331.881 328.011 324.745 337.445ZM324.745 337.445C322.568 340.469 320.391 343.613 320.391 346.516" stroke="black" stroke-width="1.45138"/>
<path d="M285.195 355.95C295.138 364.092 291.001 369.013 306.24 378.084C304.697 380.462 295.009 380.013 275.761 371.915C285.871 376.698 289.186 383.889 295.56 385.703C295.11 387.055 292.08 387.678 285.195 387.087M247.096 376.27C260.159 382.801 277.516 386.427 285.195 387.087M285.195 387.087C276.412 391.553 249.837 398.857 226.391 382.801M218.432 376.27C221.022 378.784 223.685 380.948 226.391 382.801M226.391 382.801C224.807 386.211 218.529 387.57 205.732 367.963C204.912 366.708 204.066 365.366 203.192 363.933" stroke="black" stroke-width="1.45138"/>
<path d="M160.376 374.093C166.182 370.9 182.147 382.075 190.855 389.332C190.855 389.332 174.122 400.567 170.173 411.828C168.462 416.709 167.996 424.891 167.996 424.891L166.545 439.042L148.04 426.342C146.951 421.625 148.645 421.988 146.226 417.271C142.162 414.659 142.839 410.135 143.686 408.2C145.427 405.878 143.444 404.088 142.234 403.483C138.17 400 140.541 396.468 142.234 395.138C146.879 393.106 144.169 391.146 142.234 390.421C136.719 386.937 140.904 381.229 143.686 378.81C150.652 375.326 150.701 379.293 148.766 381.712C147.314 383.454 150.822 384.615 153.845 384.978C160.014 384.615 155.408 380.987 154.208 380.624C149.007 379.051 145.282 376.125 160.376 374.093Z" fill="#E1C7B6" stroke="black" stroke-width="0.725689"/>
<path d="M291.363 395.863C281.494 394.121 262.336 410.861 253.99 419.448L255.805 420.537L261.247 423.076L266.327 424.528L272.858 425.979L279.389 427.068L286.646 428.156L292.815 429.608L296.806 431.422L300.797 433.236L305.151 433.962L306.966 433.599L307.691 432.51L308.054 431.059L307.691 428.519L306.24 424.891V421.262L306.966 417.271L309.506 408.926C309.747 408.442 310.376 406.966 310.957 404.934C311.538 402.902 303.942 404.813 300.072 406.023C289.912 407.764 294.629 404.571 298.257 402.757C300.58 402.467 305.756 399.492 308.054 398.04C311.538 388.461 305.393 391.146 301.886 393.686C300.434 396.299 294.266 396.226 291.363 395.863Z" fill="#E1C7B6" stroke="black" stroke-width="0.725689"/>
<path d="M144.779 293.369C154.217 283.793 139.779 279.99 131.38 279.286C129.556 281.857 107.864 289.976 97.2453 293.714C111.53 304.255 127.509 297.33 132.437 293.369C128.559 298.549 125.963 304.003 126.425 305.263C126.334 306.825 138.623 297.984 144.779 293.369Z" fill="#EDA101" stroke="black" stroke-width="1.45138"/>
<path d="M142.078 273.205C142.534 271.668 144.15 270.792 145.686 271.248C147.223 271.704 148.1 273.319 147.644 274.856C147.187 276.393 145.585 276.943 144.048 276.487C142.512 276.031 141.622 274.742 142.078 273.205Z" fill="black"/>
<ellipse cx="129.655" cy="285.052" rx="0.725689" ry="1.08853" transform="rotate(33.8031 129.655 285.052)" fill="black"/>
</g>
<defs>
<clipPath id="clip0_4045_1100">
<rect width="500" height="500" rx="250" fill="white"/>
</clipPath>
</defs>
</svg>
