<svg width="600" height="400" viewBox="0 0 600 400" fill="none" xmlns="http://www.w3.org/2000/svg">
<path d="M262.584 164.536L302.112 186.424L300.624 189.216L261.448 166.912L262.584 164.536Z" fill="#E0E0E0"/>
<path d="M260.64 162.464L262.456 159.68L263.512 160.336L261.888 163.144L260.64 162.464Z" fill="#E0E0E0"/>
<path d="M297.624 182.96L299.656 184.136L293.032 226.368L289.904 226.408L297.624 182.96Z" fill="#E0E0E0"/>
<path d="M280.8 230.768C280.8 230.768 285.6 225.896 292.08 226.256C293.924 226.323 295.736 226.754 297.412 227.525C299.089 228.295 300.596 229.389 301.848 230.744L280.8 230.768Z" fill="#E0E0E0"/>
<path d="M260.672 181.6L245.024 172.56L249.544 164.736C250.742 162.66 252.716 161.146 255.03 160.525C257.345 159.904 259.812 160.227 261.888 161.424C263.962 162.624 265.475 164.598 266.095 166.912C266.714 169.227 266.39 171.693 265.192 173.768L260.672 181.6Z" fill="#E0E0E0"/>
<path d="M152.824 230.416H202.976V227.976H152.824V230.416Z" fill="#EBEBEB"/>
<path d="M210.744 230.416L220.152 195.16H180.992L172.472 230.416H210.744Z" fill="#EBEBEB"/>
<path d="M174.816 227.744H209.8L217.944 196.792H182.784L174.816 227.744Z" fill="#E0E0E0"/>
<path d="M145.416 237.64H142.88V358.568H145.416V237.64Z" fill="#F5F5F5"/>
<path d="M147.952 237.984H145.416V358.568H147.952V237.984Z" fill="#EBEBEB"/>
<path d="M301.464 237.64H298.928V358.568H301.464V237.64Z" fill="#EBEBEB"/>
<path d="M303.992 237.984H301.456V358.568H303.992V237.984Z" fill="#E0E0E0"/>
<path d="M324.336 230.608H131.944V240.528H324.336V230.608Z" fill="#E0E0E0"/>
<path d="M300.192 240.528H215.496V256.944H300.192V240.528Z" fill="#EBEBEB"/>
<path d="M261.6 247.608C261.6 247.982 261.489 248.347 261.281 248.658C261.073 248.968 260.778 249.21 260.433 249.353C260.087 249.496 259.707 249.533 259.341 249.459C258.974 249.386 258.638 249.205 258.374 248.94C258.11 248.675 257.931 248.338 257.859 247.971C257.787 247.605 257.826 247.225 257.97 246.88C258.114 246.535 258.357 246.241 258.669 246.034C258.98 245.828 259.346 245.718 259.72 245.72C259.968 245.72 260.213 245.769 260.441 245.864C260.67 245.959 260.878 246.098 261.052 246.273C261.227 246.449 261.365 246.657 261.459 246.886C261.553 247.115 261.601 247.36 261.6 247.608Z" fill="#E0E0E0"/>
<path d="M118.296 289.6H151.56C152.684 289.6 153.763 289.153 154.558 288.358C155.353 287.563 155.8 286.484 155.8 285.36V275.104C155.8 274.166 155.615 273.237 155.256 272.37C154.897 271.503 154.371 270.716 153.708 270.052C153.044 269.389 152.257 268.863 151.39 268.504C150.523 268.145 149.594 267.96 148.656 267.96H118.048L118.296 289.6Z" fill="#EBEBEB"/>
<path d="M151.008 296.04H85.5999C84.7512 296.04 83.9373 295.703 83.3372 295.103C82.737 294.503 82.3999 293.689 82.3999 292.84C82.3999 291.991 82.737 291.177 83.3372 290.577C83.9373 289.977 84.7512 289.64 85.5999 289.64H151.016C151.865 289.64 152.679 289.977 153.279 290.577C153.879 291.177 154.216 291.991 154.216 292.84C154.216 293.261 154.133 293.678 153.972 294.066C153.81 294.455 153.574 294.808 153.276 295.106C152.978 295.403 152.624 295.638 152.235 295.799C151.846 295.959 151.429 296.041 151.008 296.04Z" fill="#EBEBEB"/>
<path d="M72.264 203.712L108.264 203.072L131.112 289.408L82.384 289.896L64 214.208C63.6955 212.958 63.6794 211.654 63.9528 210.397C64.2262 209.139 64.7819 207.96 65.5781 206.949C66.3742 205.938 67.3898 205.121 68.5481 204.56C69.7064 204 70.977 203.709 72.264 203.712Z" fill="#E0E0E0"/>
<path d="M90.1839 296.04L79.4159 358.616H82.3679L96.5279 296.04H90.1839Z" fill="#EBEBEB"/>
<path d="M115.576 296.04L104.128 358.616H107.08L121.912 296.04H115.576Z" fill="#E0E0E0"/>
<path d="M143.648 296.04L156.416 358.616H153.464L137.312 296.04H143.648Z" fill="#EBEBEB"/>
<path d="M104.128 203.072L121.936 289.472H135.6L121.312 213.112C120.79 210.286 119.296 207.733 117.088 205.894C114.879 204.056 112.097 203.049 109.224 203.048L104.128 203.072Z" fill="#EBEBEB"/>
<path d="M468.088 227.712H417.936V230.152H468.088V227.712Z" fill="#EBEBEB"/>
<path d="M410.168 230.152L400.76 194.904H439.92L448.44 230.152H410.168Z" fill="#EBEBEB"/>
<path d="M446.088 227.488H411.104L402.96 196.528H438.128L446.088 227.488Z" fill="#E0E0E0"/>
<path d="M510.32 358.568H512.856V237.384H510.32V358.568Z" fill="#F5F5F5"/>
<path d="M507.784 358.56H510.32V237.72H507.784V358.56Z" fill="#EBEBEB"/>
<path d="M354.28 359.752H356.816V237.376H354.28V359.752Z" fill="#EBEBEB"/>
<path d="M351.744 359.752H354.28V237.728H351.744V359.752Z" fill="#E0E0E0"/>
<path d="M331.4 240.272L523.792 240.272V230.352L331.4 230.352V240.272Z" fill="#E0E0E0"/>
<path d="M355.552 256.688H440.248V240.272H355.552V256.688Z" fill="#EBEBEB"/>
<path d="M394.12 247.344C394.12 247.717 394.231 248.082 394.438 248.393C394.646 248.703 394.94 248.945 395.285 249.088C395.63 249.231 396.01 249.269 396.376 249.196C396.742 249.123 397.079 248.943 397.343 248.679C397.607 248.415 397.787 248.079 397.86 247.712C397.932 247.346 397.895 246.966 397.752 246.621C397.609 246.276 397.367 245.982 397.057 245.774C396.746 245.567 396.381 245.456 396.008 245.456C395.76 245.456 395.514 245.505 395.285 245.6C395.056 245.695 394.848 245.834 394.673 246.009C394.498 246.184 394.358 246.392 394.264 246.621C394.169 246.851 394.12 247.096 394.12 247.344Z" fill="#E0E0E0"/>
<path d="M464.272 289.6H431C430.444 289.6 429.893 289.49 429.379 289.277C428.865 289.064 428.398 288.751 428.005 288.358C427.612 287.964 427.3 287.496 427.088 286.982C426.876 286.468 426.767 285.916 426.768 285.36V275.104C426.767 274.166 426.951 273.237 427.309 272.371C427.667 271.504 428.193 270.716 428.855 270.053C429.518 269.389 430.305 268.863 431.171 268.504C432.038 268.145 432.966 267.96 433.904 267.96H464.52L464.272 289.6Z" fill="#EBEBEB"/>
<path d="M431.56 296.04H496.976C497.825 296.04 498.638 295.703 499.239 295.103C499.839 294.503 500.176 293.689 500.176 292.84C500.176 291.991 499.839 291.177 499.239 290.577C498.638 289.977 497.825 289.64 496.976 289.64H431.56C430.711 289.64 429.897 289.977 429.297 290.577C428.697 291.177 428.36 291.991 428.36 292.84C428.36 293.689 428.697 294.503 429.297 295.103C429.897 295.703 430.711 296.04 431.56 296.04Z" fill="#EBEBEB"/>
<path d="M510.304 203.712L474.304 203.072L451.472 289.408L500.2 289.896L518.6 214.208C518.903 212.955 518.918 211.65 518.642 210.39C518.366 209.131 517.807 207.951 517.008 206.94C516.209 205.928 515.19 205.112 514.028 204.553C512.867 203.994 511.593 203.706 510.304 203.712Z" fill="#E0E0E0"/>
<path d="M492.384 296.04L503.144 358.616H500.2L486.04 296.04H492.384Z" fill="#EBEBEB"/>
<path d="M466.992 296.04L478.44 358.616H475.488L460.656 296.04H466.992Z" fill="#E0E0E0"/>
<path d="M438.92 296.04L426.152 358.616H429.104L445.256 296.04H438.92Z" fill="#EBEBEB"/>
<path d="M478.44 203.072L460.632 289.472H446.968L461.248 213.112C461.771 210.286 463.267 207.732 465.477 205.894C467.686 204.055 470.47 203.049 473.344 203.048L478.44 203.072Z" fill="#EBEBEB"/>
<path d="M433.08 111.104H431.24V127.552H433.08V111.104Z" fill="#E0E0E0"/>
<path d="M493.648 111.104H491.808V127.552H493.648V111.104Z" fill="#E0E0E0"/>
<path d="M501.472 104.496H424.448V111.104H501.472V104.496Z" fill="#EBEBEB"/>
<path d="M486.256 55H475.64V104.496H486.256V55Z" fill="#F5F5F5"/>
<path d="M483.272 92.624C483.272 93.0401 483.149 93.4469 482.917 93.7929C482.686 94.1389 482.358 94.4086 481.973 94.5678C481.589 94.7271 481.166 94.7688 480.757 94.6876C480.349 94.6064 479.974 94.406 479.68 94.1118C479.386 93.8175 479.186 93.4426 479.104 93.0345C479.023 92.6263 479.065 92.2033 479.224 91.8188C479.383 91.4344 479.653 91.1058 479.999 90.8746C480.345 90.6434 480.752 90.52 481.168 90.52C481.445 90.5189 481.719 90.5726 481.974 90.678C482.23 90.7834 482.462 90.9383 482.658 91.1339C482.854 91.3295 483.009 91.5618 483.114 91.8176C483.219 92.0733 483.273 92.3474 483.272 92.624Z" fill="#E0E0E0"/>
<path d="M482.696 68.112H479.448V88.336H482.696V68.112Z" fill="#E0E0E0"/>
<path d="M475.472 55H464.856V104.496H475.472V55Z" fill="#EBEBEB"/>
<path d="M472.48 92.624C472.48 93.0401 472.357 93.4469 472.125 93.7929C471.894 94.1389 471.566 94.4086 471.181 94.5678C470.797 94.7271 470.374 94.7688 469.965 94.6876C469.557 94.6064 469.182 94.406 468.888 94.1118C468.594 93.8175 468.394 93.4426 468.312 93.0345C468.231 92.6263 468.273 92.2033 468.432 91.8188C468.591 91.4344 468.861 91.1058 469.207 90.8746C469.553 90.6434 469.96 90.52 470.376 90.52C470.653 90.5189 470.927 90.5726 471.182 90.678C471.438 90.7834 471.671 90.9383 471.866 91.1339C472.062 91.3295 472.217 91.5618 472.322 91.8176C472.427 92.0733 472.481 92.3474 472.48 92.624Z" fill="#FAFAFA"/>
<path d="M471.912 68.112H468.664V88.336H471.912V68.112Z" fill="#FAFAFA"/>
<path d="M465.2 55H454.584V104.496H465.2V55Z" fill="#E0E0E0"/>
<path d="M462.208 92.624C462.208 93.0401 462.085 93.4469 461.853 93.7929C461.622 94.1389 461.294 94.4086 460.909 94.5678C460.525 94.7271 460.102 94.7688 459.694 94.6876C459.285 94.6064 458.911 94.406 458.616 94.1118C458.322 93.8175 458.122 93.4426 458.04 93.0345C457.959 92.6263 458.001 92.2033 458.16 91.8188C458.319 91.4344 458.589 91.1058 458.935 90.8746C459.281 90.6434 459.688 90.52 460.104 90.52C460.381 90.5189 460.655 90.5726 460.91 90.678C461.166 90.7834 461.399 90.9383 461.594 91.1339C461.79 91.3295 461.945 91.5618 462.05 91.8176C462.155 92.0733 462.209 92.3474 462.208 92.624Z" fill="#FAFAFA"/>
<path d="M461.64 68.112H458.392V88.336H461.64V68.112Z" fill="#FAFAFA"/>
<path d="M441.448 103.744L454.208 60.2L449.808 58.272L436.72 102.16L441.448 103.744Z" fill="#E0E0E0"/>
<path d="M539.512 359.432C539.512 359.552 431.576 359.64 298.456 359.64C165.336 359.64 57.384 359.552 57.384 359.432C57.384 359.312 165.296 359.2 298.456 359.2C431.616 359.2 539.512 359.32 539.512 359.432Z" fill="#263238"/>
<path d="M392.976 137.832L379.2 136.736C379.12 135.136 379.2 128.92 379.2 128.92C379.2 128.92 373.48 128.032 373.408 122.312C373.336 116.592 374.4 103.456 374.4 103.456C377.655 102.052 381.226 101.545 384.742 101.987C388.259 102.428 391.594 103.803 394.4 105.968L395.248 106.616L392.976 137.832Z" fill="#FFBE9D"/>
<path d="M375.704 113.288C375.866 113.138 375.962 112.931 375.972 112.711C375.983 112.491 375.907 112.276 375.76 112.112C375.651 112.001 375.512 111.925 375.36 111.892C375.208 111.859 375.05 111.872 374.905 111.927C374.76 111.983 374.634 112.079 374.543 112.205C374.452 112.331 374.399 112.481 374.392 112.636C374.384 112.791 374.422 112.945 374.501 113.079C374.58 113.213 374.696 113.322 374.835 113.391C374.974 113.46 375.13 113.487 375.285 113.469C375.439 113.45 375.585 113.388 375.704 113.288Z" fill="#263238"/>
<path d="M374.312 112C374.408 112.104 374.968 111.672 375.752 111.664C376.536 111.656 377.112 112.072 377.2 111.968C377.288 111.864 377.152 111.744 376.904 111.552C376.57 111.308 376.166 111.176 375.752 111.176C375.338 111.176 374.934 111.308 374.6 111.552C374.352 111.752 374.272 111.936 374.312 112Z" fill="#263238"/>
<path d="M383.392 112.664C383.263 112.751 383.162 112.873 383.102 113.017C383.041 113.16 383.024 113.318 383.051 113.471C383.079 113.624 383.151 113.765 383.258 113.878C383.365 113.991 383.502 114.07 383.654 114.106C383.805 114.142 383.963 114.133 384.11 114.08C384.256 114.028 384.384 113.934 384.477 113.81C384.571 113.685 384.626 113.537 384.637 113.382C384.647 113.226 384.612 113.072 384.536 112.936C384.482 112.84 384.408 112.756 384.32 112.689C384.232 112.623 384.131 112.575 384.024 112.549C383.916 112.524 383.805 112.521 383.696 112.541C383.587 112.56 383.484 112.602 383.392 112.664Z" fill="#263238"/>
<path d="M382.872 112.672C382.96 112.776 383.52 112.336 384.312 112.336C385.104 112.336 385.672 112.736 385.76 112.64C385.848 112.544 385.712 112.416 385.464 112.224C385.126 111.983 384.719 111.856 384.304 111.864C383.889 111.862 383.486 112 383.16 112.256C382.912 112.448 382.832 112.632 382.872 112.672Z" fill="#263238"/>
<path d="M379.712 119.2C379.307 119.036 378.877 118.944 378.44 118.928C378.232 118.928 378.072 118.856 378.056 118.744C378.047 118.54 378.097 118.337 378.2 118.16L378.824 116.56C379.415 115.206 379.868 113.796 380.176 112.352C379.453 113.642 378.861 115 378.408 116.408C378.2 116.96 378.008 117.496 377.816 118.008C377.687 118.274 377.647 118.574 377.704 118.864C377.732 118.943 377.779 119.015 377.84 119.074C377.901 119.132 377.975 119.175 378.056 119.2C378.171 119.231 378.289 119.244 378.408 119.24C378.842 119.297 379.282 119.284 379.712 119.2Z" fill="#263238"/>
<path d="M382.272 120.04C381.042 120.592 379.742 120.971 378.408 121.168C378.674 121.582 379.074 121.894 379.54 122.051C380.007 122.208 380.513 122.201 380.976 122.032C382.688 121.408 382.272 120.04 382.272 120.04Z" fill="white"/>
<path d="M379.248 128.84C381.888 128.886 384.483 128.148 386.704 126.72C386.704 126.72 384.944 130.832 379.232 130.32L379.248 128.84Z" fill="#EB996E"/>
<path d="M374.264 104.896C374.264 104.896 377.616 106.832 382.264 104.896C385.344 103.632 388.848 103.168 389.568 103.816C390.288 104.464 390.216 107.536 393.088 108.616C393.088 108.616 392.456 114.424 394.8 114.392C397.144 114.36 396.352 105.224 396.352 105.224L390.872 102.024L384.752 100.424L378.848 100.816L374.232 101.72L374.264 104.896Z" fill="#263238"/>
<path d="M394.504 112.544C394.6 112.504 398.432 111.384 398.312 115.288C398.192 119.192 394.312 118.272 394.312 118.16C394.312 118.048 394.504 112.544 394.504 112.544Z" fill="#FFBE9D"/>
<path d="M395.52 116.712C395.52 116.712 395.592 116.76 395.704 116.824C395.869 116.887 396.051 116.887 396.216 116.824C396.469 116.669 396.676 116.449 396.817 116.188C396.957 115.926 397.026 115.633 397.016 115.336C397.039 115 396.984 114.663 396.856 114.352C396.822 114.23 396.759 114.117 396.673 114.024C396.586 113.931 396.479 113.86 396.36 113.816C396.282 113.794 396.199 113.799 396.125 113.831C396.05 113.864 395.989 113.92 395.952 113.992C395.896 114.096 395.952 114.176 395.896 114.184C395.84 114.192 395.816 114.112 395.896 113.952C395.918 113.855 395.975 113.769 396.056 113.712C396.166 113.636 396.3 113.605 396.432 113.624C396.592 113.662 396.74 113.739 396.862 113.85C396.984 113.96 397.075 114.1 397.128 114.256C397.283 114.6 397.352 114.976 397.328 115.352C397.337 115.701 397.242 116.044 397.056 116.339C396.869 116.634 396.599 116.867 396.28 117.008C396.175 117.036 396.065 117.039 395.958 117.019C395.852 116.998 395.751 116.953 395.664 116.888C395.528 116.8 395.512 116.72 395.52 116.712Z" fill="#EB996E"/>
<path d="M378.144 110.696C378.016 110.92 377.272 110.696 376.376 110.696C375.48 110.696 374.712 110.768 374.608 110.528C374.504 110.288 375.272 109.728 376.416 109.776C377.56 109.824 378.28 110.488 378.144 110.696Z" fill="#263238"/>
<path d="M386.92 110.696C386.792 110.92 386.048 110.696 385.152 110.696C384.256 110.696 383.488 110.768 383.384 110.528C383.28 110.288 384.048 109.728 385.192 109.776C386.336 109.824 387.056 110.488 386.92 110.696Z" fill="#263238"/>
<path d="M391.032 104.648C391.673 105.622 392.437 106.509 393.304 107.288C394.185 108.064 395.332 108.468 396.504 108.416C397.085 108.371 397.638 108.144 398.082 107.766C398.526 107.388 398.839 106.879 398.976 106.312C399.022 106.029 399.006 105.738 398.93 105.462C398.854 105.185 398.719 104.927 398.535 104.707C398.35 104.487 398.121 104.309 397.861 104.186C397.602 104.062 397.319 103.996 397.032 103.992C397.225 104.023 397.422 104.007 397.607 103.946C397.793 103.885 397.961 103.78 398.097 103.64C398.233 103.5 398.333 103.329 398.39 103.143C398.446 102.956 398.457 102.758 398.42 102.566C398.384 102.374 398.302 102.194 398.182 102.04C398.061 101.887 397.906 101.765 397.728 101.684C397.55 101.603 397.355 101.567 397.161 101.577C396.966 101.588 396.776 101.645 396.608 101.744C397.608 101.688 397.92 100.144 397.224 99.424C396.833 99.1067 396.367 98.8958 395.871 98.8117C395.375 98.7276 394.865 98.7732 394.392 98.944C393.452 99.2949 392.483 99.5625 391.496 99.744C389.896 99.88 388.44 99.04 387.192 98.08C386.027 97.02 384.731 96.1139 383.336 95.384C381.506 94.7127 379.506 94.6677 377.648 95.256C376.08 95.636 374.642 96.4256 373.48 97.544C372.902 98.1047 372.458 98.7888 372.181 99.5451C371.904 100.301 371.801 101.11 371.88 101.912C371.984 102.709 372.337 103.453 372.888 104.038C373.44 104.622 374.162 105.018 374.952 105.168C377.236 105.613 379.604 105.275 381.672 104.208C384.872 102.432 390.96 103.512 390.96 103.512L391.032 104.648Z" fill="#263238"/>
<path d="M397 100.856C396.927 100.919 396.843 100.967 396.752 101C396.511 101.127 396.263 101.239 396.008 101.336C395.063 101.703 394.077 101.953 393.072 102.08C391.581 102.284 390.066 102.232 388.592 101.928C386.819 101.476 385.087 100.874 383.416 100.128C381.777 99.4011 379.99 99.0695 378.2 99.16C377.481 99.2081 376.78 99.4085 376.145 99.7478C375.509 100.087 374.952 100.558 374.512 101.128C373.95 101.931 373.718 102.919 373.864 103.888C373.94 104.242 374.044 104.59 374.176 104.928C374.176 104.928 374.104 104.856 374 104.696C373.86 104.447 373.76 104.177 373.704 103.896C373.598 103.39 373.593 102.867 373.691 102.359C373.788 101.851 373.986 101.367 374.272 100.936C374.724 100.313 375.306 99.7954 375.977 99.4184C376.648 99.0414 377.393 98.8141 378.16 98.752C380.014 98.6306 381.871 98.9628 383.568 99.72C385.219 100.456 386.926 101.061 388.672 101.528C390.106 101.838 391.58 101.919 393.04 101.768C394.387 101.594 395.713 101.289 397 100.856Z" fill="#455A64"/>
<path d="M397.96 107.048C398 107.048 397.824 107.432 397.344 107.848C396.705 108.397 395.91 108.73 395.071 108.8C394.233 108.871 393.393 108.675 392.672 108.24C392.128 107.896 391.872 107.568 391.928 107.536C391.984 107.504 392.272 107.728 392.808 107.976C393.5 108.313 394.271 108.457 395.039 108.393C395.806 108.328 396.542 108.057 397.168 107.608C397.656 107.288 397.912 107.008 397.96 107.048Z" fill="#455A64"/>
<path d="M397 104.984C397.096 105.04 396.704 105.704 395.896 106.12C395.088 106.536 394.296 106.472 394.296 106.36C394.296 106.248 394.96 106.128 395.68 105.752C396.4 105.376 396.912 104.904 397 104.984Z" fill="#455A64"/>
<path d="M372 107.2C371.952 107.2 371.864 107 371.88 106.648C371.915 106.186 372.094 105.747 372.392 105.392C372.692 105.039 373.099 104.795 373.552 104.696C373.896 104.624 374.104 104.696 374.112 104.696C374.12 104.696 373.312 104.928 372.712 105.632C372.112 106.336 372.152 107.2 372 107.2Z" fill="#263238"/>
<path d="M370.752 101.424C371.137 102.129 371.575 102.803 372.064 103.44C372.652 103.992 373.283 104.495 373.952 104.944C373.522 104.903 373.105 104.773 372.727 104.562C372.35 104.351 372.021 104.065 371.76 103.72C371.446 103.425 371.195 103.069 371.022 102.675C370.848 102.28 370.757 101.855 370.752 101.424Z" fill="#455A64"/>
<path d="M318.952 172.424C318.952 172.424 335.968 194.024 344.232 190.024C352.496 186.024 367.32 172.424 367.32 172.424L359.112 164.184L342.488 178.8L322 167.136L318.952 172.424Z" fill="#FFBE9D"/>
<path d="M406.208 204.984L362.824 202.928C362.712 198.184 364.712 164.592 364.712 164.592L362.312 169.056L349.944 158.032L360.8 143.432C362.5 141.139 364.641 139.209 367.097 137.755C369.554 136.302 372.276 135.354 375.104 134.968C376.784 134.744 378.056 134.632 378.888 134.528C383.657 136.036 388.775 136.036 393.544 134.528C395.616 134.598 397.664 134.989 399.616 135.688C403.29 136.994 406.608 139.142 409.304 141.96L422.24 163.696L406.528 173.6L404.272 166.76L406.208 204.984Z" fill="#455A64"/>
<path d="M419.296 351.688L420.656 357.408C420.656 357.408 430.024 369.576 432.912 368.976C434.808 368.592 432.48 365.416 428.912 356.176L428.16 352.36L419.296 351.688Z" fill="#FFC42E"/>
<path d="M433.296 367.2C433.277 367.259 433.25 367.316 433.216 367.368C433.12 367.523 432.985 367.65 432.824 367.736C432.579 367.87 432.302 367.934 432.024 367.92C431.641 367.886 431.274 367.75 430.96 367.528C429.287 366.177 427.713 364.71 426.248 363.136C424.765 361.577 423.365 359.94 422.056 358.232C421.56 357.568 421.168 357.032 420.904 356.632L420.608 356.192C420.571 356.142 420.539 356.088 420.512 356.032C420.549 356.082 420.581 356.136 420.608 356.192L420.936 356.608L422.128 358.152C423.152 359.44 424.616 361.184 426.344 363.008C427.808 364.57 429.363 366.045 431 367.424C431.247 367.627 431.545 367.757 431.861 367.801C432.177 367.845 432.499 367.8 432.792 367.672C432.998 367.561 433.172 367.398 433.296 367.2Z" fill="#263238"/>
<path d="M432 363.272C432 363.272 431.704 363.272 431.2 363.312C430.603 363.41 430.031 363.627 429.52 363.952C428.993 364.252 428.556 364.689 428.256 365.216C428.032 365.624 427.968 365.912 427.936 365.904C427.944 365.641 428.012 365.384 428.136 365.152C428.422 364.584 428.866 364.111 429.416 363.792C429.955 363.456 430.567 363.253 431.2 363.2C431.468 363.148 431.746 363.173 432 363.272Z" fill="#263238"/>
<path d="M423.104 360.416C423.104 360.416 423.2 360.008 423.272 359.344C423.368 358.479 423.206 357.605 422.808 356.832C422.413 356.06 421.787 355.43 421.016 355.032C420.686 354.885 420.346 354.759 420 354.656C420.098 354.642 420.198 354.642 420.296 354.656C420.572 354.699 420.842 354.779 421.096 354.896C421.918 355.277 422.587 355.926 422.992 356.736C423.41 357.537 423.561 358.451 423.424 359.344C423.39 359.616 423.328 359.884 423.24 360.144C423.213 360.242 423.166 360.335 423.104 360.416Z" fill="#263238"/>
<path d="M419.896 352.656C420.159 353.223 420.331 353.828 420.408 354.448C420.584 355.464 420.768 356.264 420.728 356.28C420.466 355.711 420.298 355.103 420.232 354.48C420.056 353.472 419.848 352.672 419.896 352.656Z" fill="#263238"/>
<path d="M429.08 356.984C429.08 357.04 428.552 356.984 427.92 357.168C427.288 357.352 426.824 357.56 426.8 357.512C427.099 357.233 427.475 357.051 427.88 356.992C428.27 356.871 428.688 356.868 429.08 356.984Z" fill="#263238"/>
<path d="M429.272 357.968C429.272 358.016 428.824 357.968 428.304 358.104C427.784 358.24 427.408 358.464 427.376 358.416C427.603 358.149 427.918 357.973 428.264 357.92C428.594 357.808 428.954 357.825 429.272 357.968Z" fill="#263238"/>
<path d="M430.024 359.2C429.689 359.163 429.351 359.163 429.016 359.2C428.695 359.305 428.384 359.438 428.088 359.6C428.185 359.445 428.314 359.313 428.468 359.213C428.621 359.114 428.795 359.049 428.976 359.024C429.152 358.972 429.339 358.961 429.52 358.991C429.702 359.022 429.874 359.093 430.024 359.2Z" fill="#263238"/>
<path d="M428.44 356.576C428.334 356.578 428.229 356.564 428.128 356.536C427.856 356.483 427.588 356.408 427.328 356.312C426.924 356.177 426.533 356.006 426.16 355.8C425.952 355.68 425.736 355.552 425.52 355.4C425.391 355.325 425.281 355.221 425.199 355.096C425.117 354.971 425.065 354.828 425.048 354.68C425.059 354.601 425.088 354.525 425.131 354.458C425.175 354.391 425.233 354.334 425.3 354.291C425.368 354.249 425.444 354.221 425.524 354.211C425.603 354.201 425.684 354.208 425.76 354.232C426.014 354.313 426.241 354.462 426.416 354.664C426.72 354.963 427.009 355.278 427.28 355.608C427.504 355.888 427.68 356.12 427.792 356.288C427.904 356.456 427.96 356.56 427.944 356.568C427.928 356.576 427.656 356.224 427.144 355.688C426.904 355.424 426.608 355.112 426.264 354.792C426.11 354.615 425.911 354.482 425.688 354.408C425.48 354.352 425.208 354.464 425.2 354.688C425.192 354.912 425.4 355.112 425.592 355.248C425.792 355.393 426.001 355.526 426.216 355.648C426.575 355.862 426.953 356.044 427.344 356.192C428 356.456 428.448 356.544 428.44 356.576Z" fill="#263238"/>
<path d="M427.944 356.456C427.93 356.36 427.93 356.263 427.944 356.168C427.944 355.984 427.944 355.72 428 355.368C428.049 354.978 428.148 354.596 428.296 354.232C428.39 354.016 428.514 353.814 428.664 353.632C428.745 353.515 428.864 353.429 429 353.387C429.136 353.345 429.283 353.349 429.416 353.4C429.526 353.486 429.609 353.602 429.655 353.734C429.7 353.866 429.706 354.009 429.672 354.144C429.634 354.376 429.567 354.601 429.472 354.816C429.305 355.173 429.078 355.498 428.8 355.776C428.617 355.966 428.416 356.138 428.2 356.288C428.127 356.351 428.043 356.399 427.952 356.432C427.952 356.432 428.272 356.176 428.704 355.688C428.955 355.41 429.161 355.094 429.312 354.752C429.403 354.551 429.465 354.338 429.496 354.12C429.496 353.912 429.496 353.648 429.328 353.56C429.16 353.472 428.944 353.56 428.8 353.76C428.661 353.926 428.542 354.109 428.448 354.304C428.299 354.65 428.191 355.013 428.128 355.384C428.09 355.745 428.029 356.103 427.944 356.456Z" fill="#263238"/>
<g opacity="0.4">
<path opacity="0.4" d="M420.656 357.408L420 354.656C420 354.656 422.296 355.08 422.888 356.8C423.243 357.736 423.395 358.737 423.336 359.736L428.328 365.112C428.328 365.112 429.576 362.664 431.84 363.256C431.84 363.256 433.624 367.176 433.568 368.16C433.512 369.144 432.376 369.024 431.968 368.84C430.322 367.879 428.82 366.691 427.504 365.312C425.089 362.795 422.804 360.157 420.656 357.408Z" fill="black"/>
</g>
<path d="M372.744 354.576L372.704 346.944L387.008 346.768L387.184 357.968L386.304 358.04C382.352 358.304 366.224 359.12 363.576 358.352C360.624 357.464 372.744 354.576 372.744 354.576Z" fill="#FFC42E"/>
<g opacity="0.4">
<path opacity="0.4" d="M382 357.888C382.2 356.681 382.835 355.588 383.784 354.816C384.723 354.054 385.912 353.67 387.12 353.736L387.168 357.736L382 357.888Z" fill="black"/>
</g>
<path opacity="0.4" d="M366.824 356.2C366.824 356.2 362.584 357.48 363.12 358.176C363.656 358.872 379.992 358.664 387.184 357.936V357.624L368.136 358.024C368.136 358.024 367.656 356.224 366.824 356.2Z" fill="black"/>
<path d="M387.384 357.6H387.136L386.432 357.648L383.832 357.792C381.64 357.904 378.608 358.008 375.256 358.056C371.904 358.104 368.856 358.056 366.664 358.056L364.064 357.984H363.36H363.112H363.36H364.064H366.672C368.864 357.984 371.896 357.984 375.248 357.984C378.6 357.984 381.648 357.848 383.832 357.776L386.4 357.6H387.104H387.384Z" fill="#263238"/>
<path d="M368.12 358.248C367.998 357.82 367.829 357.407 367.616 357.016C367.361 356.641 367.06 356.3 366.72 356C367.167 356.156 367.541 356.472 367.768 356.888C368.05 357.282 368.175 357.767 368.12 358.248Z" fill="#263238"/>
<path d="M372.312 356.056C372.272 356.056 372.064 355.832 371.856 355.512C371.648 355.192 371.504 354.896 371.544 354.872C371.584 354.848 371.784 355.088 372 355.416C372.216 355.744 372.352 356 372.312 356.056Z" fill="#263238"/>
<path d="M373.464 355.424C373.464 355.464 373.208 355.312 372.952 355.096C372.696 354.88 372.528 354.672 372.56 354.632C372.592 354.592 372.816 354.744 373.072 354.968C373.328 355.192 373.496 355.392 373.464 355.424Z" fill="#263238"/>
<path d="M374.176 354.064C373.939 354.156 373.685 354.191 373.432 354.168C373.423 354.118 373.424 354.067 373.435 354.017C373.446 353.968 373.467 353.921 373.496 353.88C373.526 353.838 373.564 353.804 373.607 353.777C373.651 353.751 373.699 353.734 373.749 353.727C373.8 353.72 373.851 353.723 373.9 353.736C373.949 353.75 373.995 353.773 374.035 353.804C374.075 353.836 374.108 353.875 374.132 353.92C374.156 353.964 374.171 354.013 374.176 354.064Z" fill="#263238"/>
<path d="M374.4 353.112C374.163 353.27 373.885 353.356 373.6 353.36C373.311 353.418 373.011 353.381 372.744 353.256C373.024 353.21 373.308 353.188 373.592 353.192C373.858 353.14 374.129 353.114 374.4 353.112Z" fill="#263238"/>
<path d="M371.816 354.808C371.512 354.867 371.2 354.867 370.896 354.808C370.563 354.769 370.234 354.702 369.912 354.608C369.718 354.553 369.531 354.478 369.352 354.384C369.296 354.354 369.247 354.313 369.207 354.264C369.167 354.214 369.137 354.157 369.12 354.096C369.106 354.029 369.11 353.959 369.133 353.894C369.155 353.829 369.195 353.772 369.248 353.728C369.598 353.551 369.998 353.501 370.381 353.588C370.763 353.674 371.104 353.89 371.344 354.2C371.49 354.377 371.594 354.585 371.648 354.808C371.666 354.89 371.666 354.974 371.648 355.056C371.55 354.767 371.404 354.497 371.216 354.256C371.003 354.017 370.725 353.845 370.416 353.76C370.237 353.701 370.047 353.678 369.859 353.693C369.671 353.708 369.488 353.761 369.32 353.848C369.176 353.96 369.24 354.128 369.4 354.224C369.566 354.312 369.74 354.385 369.92 354.44C370.232 354.539 370.55 354.617 370.872 354.672C371.464 354.784 371.808 354.784 371.816 354.808Z" fill="#263238"/>
<path d="M371.576 354.856C371.576 354.856 371.424 354.64 371.464 354.224C371.486 353.981 371.568 353.747 371.704 353.544C371.779 353.407 371.889 353.291 372.022 353.208C372.155 353.126 372.307 353.079 372.464 353.072C372.556 353.091 372.637 353.145 372.691 353.223C372.744 353.3 372.766 353.395 372.752 353.488C372.731 353.636 372.679 353.777 372.6 353.904C372.48 354.106 372.338 354.294 372.176 354.464C371.888 354.752 371.664 354.864 371.648 354.84C371.632 354.816 371.832 354.68 372.08 354.384C372.227 354.213 372.353 354.025 372.456 353.824C372.584 353.632 372.664 353.28 372.456 353.24C372.248 353.2 372 353.456 371.856 353.64C371.733 353.821 371.649 354.025 371.608 354.24C371.58 354.444 371.569 354.65 371.576 354.856Z" fill="#263238"/>
<path d="M387.04 353.696C387.04 353.696 386.632 353.696 385.984 353.752C385.143 353.854 384.348 354.194 383.692 354.731C383.036 355.268 382.547 355.98 382.28 356.784C382.064 357.4 382.048 357.808 382.016 357.808C382.001 357.713 382.001 357.615 382.016 357.52C382.035 357.249 382.084 356.981 382.16 356.72C382.406 355.875 382.903 355.125 383.584 354.568C384.265 354.011 385.099 353.673 385.976 353.6C386.242 353.573 386.51 353.573 386.776 353.6C386.868 353.62 386.957 353.652 387.04 353.696Z" fill="#263238"/>
<path d="M385.488 347.768C385.595 348.743 385.648 349.723 385.648 350.704C385.707 351.682 385.707 352.662 385.648 353.64C385.483 351.687 385.435 349.726 385.504 347.768H385.488Z" fill="#263238"/>
<path d="M380.184 356.52C379.5 356.684 378.799 356.762 378.096 356.752C377.394 356.795 376.689 356.747 376 356.608C376 356.56 376.944 356.608 378.096 356.608C379.248 356.608 380.176 356.472 380.184 356.52Z" fill="#263238"/>
<path d="M382.984 356.48C382.984 356.48 382.912 356.68 382.816 356.896C382.72 357.112 382.672 357.296 382.624 357.296C382.576 357.296 382.552 357.072 382.624 356.824C382.696 356.576 382.952 356.448 382.984 356.48Z" fill="#263238"/>
<path d="M384 355.152C384 355.152 383.944 355.336 383.8 355.488C383.656 355.64 383.504 355.736 383.472 355.704C383.44 355.672 383.528 355.52 383.672 355.368C383.816 355.216 384 355.12 384 355.152Z" fill="#263238"/>
<path d="M385.528 354.528C385.528 354.576 385.328 354.576 385.12 354.656C384.912 354.736 384.76 354.848 384.72 354.816C384.68 354.784 384.8 354.584 385.064 354.496C385.328 354.408 385.544 354.488 385.528 354.528Z" fill="#263238"/>
<path d="M386.6 354.232C386.6 354.28 386.536 354.352 386.416 354.4C386.296 354.448 386.192 354.448 386.176 354.4C386.16 354.352 386.24 354.28 386.352 354.232C386.464 354.184 386.584 354.192 386.6 354.232Z" fill="#263238"/>
<path d="M363.008 202.928L369.688 351.288L391.96 351.752L388.264 227.552L413.312 352.704H434.496L406.208 202.928" fill="#263238"/>
<path d="M412.216 350.688L412.72 352.88L434.496 353.176L434.16 349.744L412.216 350.688Z" fill="#455A64"/>
<path d="M388.12 350.464C388.248 350.464 388.36 350.744 388.384 351.112C388.408 351.48 388.312 351.776 388.184 351.784C388.056 351.792 387.944 351.504 387.92 351.136C387.896 350.768 388 350.464 388.12 350.464Z" fill="#455A64"/>
<path d="M387.896 345.088C388.024 345.088 388.152 345.68 388.176 346.424C388.2 347.168 388.128 347.776 388 347.776C387.872 347.776 387.744 347.184 387.72 346.44C387.696 345.696 387.768 345.096 387.896 345.088Z" fill="#455A64"/>
<path d="M387.736 339.712C387.864 339.712 387.984 340.312 388.008 341.056C388.032 341.8 387.944 342.4 387.816 342.4C387.688 342.4 387.568 341.808 387.544 341.064C387.52 340.32 387.608 339.72 387.736 339.712Z" fill="#455A64"/>
<path d="M387.608 334.336C387.736 334.336 387.848 334.936 387.872 335.672C387.896 336.408 387.8 337.024 387.672 337.024C387.544 337.024 387.424 336.432 387.408 335.688C387.392 334.944 387.48 334.336 387.608 334.336Z" fill="#455A64"/>
<path d="M387.48 328.952C387.6 328.952 387.72 329.552 387.736 330.296C387.752 331.04 387.672 331.64 387.544 331.648C387.416 331.656 387.296 331.048 387.28 330.304C387.264 329.56 387.352 328.96 387.48 328.952Z" fill="#455A64"/>
<path d="M387.328 323.576C387.448 323.576 387.576 324.168 387.592 324.912C387.608 325.656 387.536 326.264 387.408 326.264C387.28 326.264 387.16 325.672 387.136 324.928C387.112 324.184 387.2 323.576 387.328 323.576Z" fill="#455A64"/>
<path d="M387.12 318.2C387.24 318.2 387.376 318.792 387.408 319.528C387.44 320.264 387.36 320.88 387.232 320.888C387.104 320.896 386.976 320.296 386.944 319.552C386.912 318.808 386.992 318.2 387.12 318.2Z" fill="#455A64"/>
<path d="M386.896 312.8C387.024 312.8 387.152 313.392 387.184 314.136C387.216 314.88 387.128 315.48 387.008 315.488C386.888 315.496 386.752 314.896 386.72 314.152C386.688 313.408 386.768 312.8 386.896 312.8Z" fill="#455A64"/>
<path d="M386.704 307.448C386.832 307.448 386.952 308.04 386.984 308.784C387.016 309.528 386.928 310.128 386.8 310.136C386.672 310.144 386.544 309.544 386.52 308.8C386.496 308.056 386.576 307.448 386.704 307.448Z" fill="#455A64"/>
<path d="M386.536 302.072C386.656 302.072 386.784 302.664 386.8 303.408C386.816 304.152 386.744 304.752 386.616 304.76C386.488 304.768 386.368 304.16 386.344 303.424C386.32 302.688 386.4 302.072 386.536 302.072Z" fill="#455A64"/>
<path d="M386.4 296.696C386.52 296.696 386.64 297.288 386.664 298.032C386.688 298.776 386.592 299.376 386.464 299.384C386.336 299.392 386.216 298.784 386.2 298.048C386.184 297.312 386.264 296.696 386.4 296.696Z" fill="#455A64"/>
<path d="M386.272 291.312C386.4 291.312 386.512 291.912 386.528 292.656C386.544 293.4 386.456 294 386.328 294.008C386.2 294.016 386.08 293.408 386.072 292.664C386.064 291.92 386.144 291.32 386.272 291.312Z" fill="#455A64"/>
<path d="M386.184 285.936C386.304 285.936 386.424 286.536 386.432 287.28C386.44 288.024 386.352 288.624 386.224 288.624C386.096 288.624 385.984 288.032 385.968 287.288C385.952 286.544 386.056 285.936 386.184 285.936Z" fill="#455A64"/>
<path d="M386.12 280.56C386.248 280.56 386.352 281.16 386.36 281.904C386.368 282.648 386.272 283.248 386.144 283.248C386.016 283.248 385.912 282.648 385.904 281.904C385.896 281.16 385.992 280.56 386.12 280.56Z" fill="#455A64"/>
<path d="M386.088 275.2C386.216 275.2 386.32 275.808 386.32 276.544C386.32 277.28 386.224 277.896 386.096 277.896C385.968 277.896 385.864 277.296 385.864 276.552C385.864 275.808 385.96 275.2 386.088 275.2Z" fill="#455A64"/>
<path d="M386.08 269.8C386.208 269.8 386.312 270.4 386.312 271.144C386.312 271.888 386.208 272.488 386.08 272.488C385.952 272.488 385.848 271.888 385.848 271.144C385.848 270.4 385.952 269.8 386.08 269.8Z" fill="#455A64"/>
<path d="M386.104 264.424C386.232 264.424 386.336 265.024 386.328 265.768C386.32 266.512 386.216 267.112 386.088 267.112C385.96 267.112 385.864 266.504 385.872 265.768C385.88 265.032 385.976 264.424 386.104 264.424Z" fill="#455A64"/>
<path d="M386.16 259.04C386.288 259.04 386.384 259.648 386.376 260.392C386.368 261.136 386.256 261.736 386.128 261.728C386 261.72 385.904 261.128 385.912 260.384C385.92 259.64 386.032 259.04 386.16 259.04Z" fill="#455A64"/>
<path d="M386.248 253.664C386.376 253.664 386.464 254.272 386.456 255.016C386.448 255.76 386.328 256.352 386.2 256.352C386.072 256.352 385.984 255.744 385.992 255.008C386 254.272 386.12 253.664 386.248 253.664Z" fill="#455A64"/>
<path d="M386.352 248.28C386.48 248.28 386.576 248.888 386.56 249.632C386.544 250.376 386.424 250.976 386.296 250.976C386.168 250.976 386.08 250.368 386.096 249.624C386.112 248.88 386.232 248.28 386.352 248.28Z" fill="#455A64"/>
<path d="M386.52 242.904C386.648 242.904 386.728 243.512 386.704 244.256C386.68 245 386.552 245.6 386.4 245.6C386.248 245.6 386.192 244.992 386.224 244.248C386.256 243.504 386.4 242.896 386.52 242.904Z" fill="#455A64"/>
<path d="M386.808 237.528C386.936 237.528 387 238.144 386.952 238.88C386.904 239.616 386.768 240.216 386.648 240.216C386.528 240.216 386.448 239.6 386.496 238.856C386.544 238.112 386.68 237.52 386.808 237.528Z" fill="#455A64"/>
<path d="M387.28 232.168C387.408 232.168 387.448 232.792 387.376 233.528C387.304 234.264 387.144 234.856 387.016 234.84C386.888 234.824 386.848 234.224 386.92 233.48C386.992 232.736 387.152 232.152 387.28 232.168Z" fill="#455A64"/>
<path d="M387.792 228.184C387.912 228.184 387.976 228.512 387.928 228.88C387.88 229.248 387.728 229.52 387.6 229.504C387.472 229.488 387.416 229.176 387.472 228.808C387.528 228.44 387.664 228.168 387.792 228.184Z" fill="#455A64"/>
<path d="M369.104 352.008L392.664 352.392L392.48 348.464L369.104 348.592V352.008Z" fill="#455A64"/>
<path d="M430.056 348.536C430.176 348.536 430.328 348.792 430.384 349.152C430.44 349.512 430.384 349.824 430.264 349.848C430.144 349.872 429.992 349.592 429.936 349.224C429.88 348.856 429.928 348.56 430.056 348.536Z" fill="#455A64"/>
<path d="M429.208 343.376C429.336 343.376 429.536 343.92 429.648 344.632C429.76 345.344 429.76 345.936 429.648 345.96C429.536 345.984 429.328 345.416 429.208 344.704C429.088 343.992 429.088 343.4 429.208 343.376Z" fill="#455A64"/>
<path d="M428.36 338.224C428.488 338.224 428.68 338.76 428.8 339.472C428.92 340.184 428.912 340.784 428.8 340.8C428.688 340.816 428.48 340.264 428.36 339.552C428.24 338.84 428.232 338.248 428.36 338.224Z" fill="#455A64"/>
<path d="M427.504 333.072C427.624 333.072 427.824 333.608 427.944 334.32C428.064 335.032 428.056 335.624 427.944 335.648C427.832 335.672 427.624 335.104 427.504 334.4C427.384 333.696 427.376 333.088 427.504 333.072Z" fill="#455A64"/>
<path d="M426.632 327.92C426.76 327.92 426.96 328.456 427.08 329.168C427.2 329.88 427.192 330.472 427.08 330.496C426.968 330.52 426.76 329.952 426.64 329.24C426.52 328.528 426.504 327.936 426.632 327.92Z" fill="#455A64"/>
<path d="M425.76 322.768C425.88 322.768 426.08 323.304 426.208 324.016C426.336 324.728 426.32 325.32 426.208 325.344C426.096 325.368 425.88 324.8 425.76 324.088C425.64 323.376 425.6 322.784 425.76 322.768Z" fill="#455A64"/>
<path d="M424.872 317.6C425 317.6 425.2 318.136 425.32 318.848C425.44 319.56 425.44 320.152 425.32 320.176C425.2 320.2 424.992 319.64 424.872 318.928C424.752 318.216 424.752 317.64 424.872 317.6Z" fill="#455A64"/>
<path d="M424 312.464C424.128 312.464 424.328 313 424.448 313.712C424.568 314.424 424.568 315.016 424.448 315.04C424.328 315.064 424.12 314.504 424 313.792C423.88 313.08 423.856 312.488 424 312.464Z" fill="#455A64"/>
<path d="M423.088 307.32C423.208 307.32 423.416 307.856 423.536 308.568C423.656 309.28 423.664 309.872 423.536 309.896C423.408 309.92 423.208 309.36 423.08 308.648C422.952 307.936 422.96 307.344 423.088 307.32Z" fill="#455A64"/>
<path d="M422.176 302.176C422.304 302.176 422.504 302.712 422.632 303.416C422.76 304.12 422.76 304.728 422.632 304.744C422.504 304.76 422.304 304.208 422.176 303.504C422.048 302.8 422.048 302.192 422.176 302.176Z" fill="#455A64"/>
<path d="M421.264 297.032C421.384 297.032 421.592 297.568 421.72 298.272C421.848 298.976 421.848 299.576 421.72 299.6C421.592 299.624 421.392 299.064 421.264 298.352C421.136 297.64 421.136 297.048 421.264 297.032Z" fill="#455A64"/>
<path d="M420.336 291.888C420.464 291.888 420.672 292.424 420.8 293.128C420.928 293.832 420.928 294.432 420.8 294.456C420.672 294.48 420.472 293.92 420.344 293.216C420.216 292.512 420.216 291.912 420.336 291.888Z" fill="#455A64"/>
<path d="M419.408 286.744C419.528 286.744 419.736 287.28 419.864 287.992C419.992 288.704 420 289.296 419.864 289.312C419.728 289.328 419.536 288.784 419.408 288.072C419.28 287.36 419.28 286.768 419.408 286.744Z" fill="#455A64"/>
<path d="M418.464 281.6C418.592 281.6 418.8 282.128 418.928 282.84C419.056 283.552 419.064 284.144 418.928 284.168C418.792 284.192 418.6 283.632 418.472 282.92C418.344 282.208 418.344 281.6 418.464 281.6Z" fill="#455A64"/>
<path d="M417.52 276.464C417.648 276.464 417.856 277 417.984 277.712C418.112 278.424 418.12 279.008 417.984 279.032C417.848 279.056 417.656 278.504 417.52 277.792C417.384 277.08 417.392 276.488 417.52 276.464Z" fill="#455A64"/>
<path d="M416.568 271.328C416.688 271.328 416.896 271.864 417.032 272.568C417.168 273.272 417.168 273.872 417.032 273.896C416.896 273.92 416.704 273.368 416.568 272.656C416.432 271.944 416.44 271.352 416.568 271.328Z" fill="#455A64"/>
<path d="M415.6 266.192C415.728 266.192 415.936 266.728 416.072 267.432C416.208 268.136 416.208 268.736 416.072 268.76C415.936 268.784 415.744 268.232 415.608 267.52C415.472 266.808 415.48 266.216 415.6 266.192Z" fill="#455A64"/>
<path d="M414.632 261.056C414.752 261.056 414.968 261.592 415.096 262.296C415.224 263 415.24 263.6 415.096 263.624C414.952 263.648 414.76 263.096 414.624 262.384C414.488 261.672 414.504 261.08 414.632 261.056Z" fill="#455A64"/>
<path d="M413.648 255.928C413.776 255.928 413.984 256.456 414.12 257.168C414.256 257.88 414.264 258.472 414.12 258.496C413.976 258.52 413.784 257.96 413.648 257.256C413.512 256.552 413.528 255.952 413.648 255.928Z" fill="#455A64"/>
<path d="M412.664 250.792C412.784 250.792 413 251.328 413.136 252.032C413.272 252.736 413.28 253.336 413.136 253.36C412.992 253.384 412.8 252.832 412.656 252.12C412.512 251.408 412.536 250.816 412.664 250.792Z" fill="#455A64"/>
<path d="M411.664 245.664C411.792 245.664 412.008 246.192 412.144 246.904C412.28 247.616 412.288 248.208 412.144 248.232C412 248.256 411.808 247.704 411.664 246.992C411.52 246.28 411.544 245.688 411.664 245.664Z" fill="#455A64"/>
<path d="M410.664 240.536C410.792 240.536 411 241.064 411.144 241.776C411.288 242.488 411.288 243.08 411.144 243.104C411 243.128 410.8 242.568 410.664 241.864C410.528 241.16 410.536 240.56 410.664 240.536Z" fill="#455A64"/>
<path d="M409.648 235.408C409.776 235.408 409.992 235.944 410.128 236.648C410.264 237.352 410.28 237.952 410.128 237.976C409.976 238 409.784 237.448 409.648 236.736C409.512 236.024 409.528 235.44 409.648 235.408Z" fill="#455A64"/>
<path d="M408.632 230.288C408.76 230.288 408.976 230.816 409.112 231.52C409.248 232.224 409.264 232.824 409.112 232.848C408.96 232.872 408.768 232.32 408.632 231.616C408.496 230.912 408.504 230.312 408.632 230.288Z" fill="#455A64"/>
<path d="M407.608 225.16C407.728 225.16 407.944 225.688 408.088 226.4C408.232 227.112 408.248 227.696 408.088 227.728C407.928 227.76 407.744 227.2 407.608 226.488C407.472 225.776 407.48 225.192 407.608 225.16Z" fill="#455A64"/>
<path d="M406.568 220.04C406.696 220.04 406.912 220.568 407.056 221.28C407.2 221.992 407.216 222.576 407.056 222.6C406.896 222.624 406.712 222.072 406.568 221.368C406.424 220.664 406.448 220.064 406.568 220.04Z" fill="#455A64"/>
<path d="M405.784 216.184C405.904 216.184 406.072 216.424 406.144 216.784C406.216 217.144 406.144 217.456 406.048 217.48C405.952 217.504 405.76 217.24 405.688 216.88C405.616 216.52 405.656 216.208 405.784 216.184Z" fill="#455A64"/>
<path d="M326.736 124.8C326.736 124.8 310.52 136.8 315.536 154.992C320.552 173.184 332.024 175.112 337.616 177.392C343.208 179.672 356.624 183.536 363.056 191.92L384.576 175.432C380.046 167.126 377.197 158.008 376.192 148.6C374.512 132.944 367.808 125.68 362.496 122.328C357.184 118.976 342.664 111.68 326.736 124.8Z" fill="#FFC42E"/>
<path d="M376.576 180.52L376.264 180.232L375.36 179.352L371.92 175.944C368.968 172.96 364.664 168.656 359.712 162.992C358.488 161.568 357.208 160.072 355.928 158.464C354.648 156.856 353.312 155.2 352.088 153.344C350.764 151.447 349.819 149.312 349.304 147.056C348.766 144.623 349.142 142.078 350.36 139.904C351.05 138.785 352.048 137.888 353.233 137.321C354.419 136.753 355.744 136.539 357.048 136.704C357.727 136.794 358.381 137.018 358.972 137.365C359.562 137.711 360.078 138.172 360.488 138.72C361.292 139.86 361.71 141.229 361.68 142.624C361.652 144.02 361.295 145.391 360.64 146.624C359.983 147.862 359.177 149.014 358.24 150.056C356.346 152.179 354.269 154.131 352.032 155.888C349.813 157.668 347.444 159.253 344.952 160.624C343.711 161.284 342.387 161.776 341.016 162.088C339.654 162.394 338.245 162.421 336.872 162.168C335.509 161.934 334.233 161.34 333.176 160.448C332.142 159.549 331.445 158.324 331.2 156.976C330.919 155.658 331.141 154.282 331.824 153.12C332.182 152.564 332.651 152.088 333.202 151.722C333.752 151.356 334.373 151.107 335.024 150.992C336.267 150.745 337.553 150.831 338.752 151.24C339.902 151.651 340.965 152.272 341.888 153.072C343.568 154.635 345.112 156.337 346.504 158.16L354.32 167.64L365.6 181.36C366.92 182.96 367.952 184.232 368.656 185.104L369.456 186.088C369.632 186.312 369.712 186.432 369.712 186.432C369.712 186.432 369.608 186.328 369.424 186.112L368.624 185.16L365.512 181.464L354.104 167.8L346.184 158.4C344.801 156.596 343.267 154.913 341.6 153.368C340.713 152.603 339.694 152.006 338.592 151.608C337.454 151.222 336.234 151.145 335.056 151.384C334.462 151.494 333.898 151.725 333.397 152.062C332.896 152.399 332.47 152.836 332.144 153.344C331.513 154.423 331.31 155.699 331.576 156.92C331.807 158.178 332.459 159.32 333.424 160.16C334.433 160.995 335.644 161.547 336.936 161.76C339.635 162.158 342.389 161.625 344.744 160.248C347.215 158.889 349.562 157.318 351.76 155.552C353.978 153.813 356.037 151.88 357.912 149.776C358.834 148.763 359.627 147.64 360.272 146.432C360.904 145.255 361.246 143.944 361.272 142.608C361.3 141.301 360.914 140.018 360.168 138.944C359.788 138.434 359.309 138.006 358.759 137.687C358.209 137.368 357.599 137.164 356.968 137.088C355.737 136.934 354.488 137.139 353.37 137.676C352.252 138.214 351.312 139.062 350.664 140.12C349.492 142.213 349.127 144.664 349.64 147.008C350.138 149.217 351.059 151.309 352.352 153.168C353.552 155.008 354.888 156.672 356.152 158.28C357.416 159.888 358.696 161.392 359.912 162.816C364.824 168.496 369.096 172.832 372.016 175.848L375.392 179.312L376.264 180.216C376.488 180.408 376.576 180.52 376.576 180.52Z" fill="#263238"/>
<path d="M362.824 191.592L384.272 174.84L394.864 188.368L394.256 200.656L386.208 207.304L372.792 204.216L362.824 191.592Z" fill="#E0E0E0"/>
<path d="M394.256 200.656C393.255 200.506 392.234 200.564 391.256 200.826C390.279 201.089 389.366 201.552 388.576 202.184C387.817 202.838 387.203 203.644 386.773 204.549C386.344 205.454 386.108 206.438 386.08 207.44L394.256 200.656Z" fill="#455A64"/>
<path d="M393.44 187.688C393.098 187.801 392.748 187.887 392.392 187.944C391.444 188.147 390.507 188.398 389.584 188.696C383.425 190.636 378.191 194.766 374.872 200.304C374.24 201.36 373.784 202.248 373.488 202.872C373.356 203.204 373.193 203.523 373 203.824C373.076 203.471 373.192 203.127 373.344 202.8C373.706 201.892 374.131 201.009 374.616 200.16C377.848 194.448 383.19 190.229 389.496 188.408C390.439 188.137 391.398 187.929 392.368 187.784C392.721 187.714 393.08 187.682 393.44 187.688Z" fill="#263238"/>
<path d="M390.952 184.336C390.611 184.454 390.261 184.54 389.904 184.592C388.956 184.795 388.019 185.046 387.096 185.344C380.934 187.282 375.699 191.416 372.384 196.96C371.752 198.008 371.296 198.896 371 199.52C370.868 199.852 370.705 200.171 370.512 200.472C370.588 200.121 370.703 199.781 370.856 199.456C371.218 198.545 371.643 197.66 372.128 196.808C375.357 191.095 380.701 186.877 387.008 185.064C387.95 184.788 388.909 184.577 389.88 184.432C390.233 184.362 390.592 184.33 390.952 184.336Z" fill="#263238"/>
<path d="M388.392 181.296C388.051 181.414 387.701 181.5 387.344 181.552C386.396 181.755 385.459 182.006 384.536 182.304C378.374 184.242 373.138 188.376 369.824 193.92C369.192 194.968 368.736 195.856 368.44 196.48C368.308 196.812 368.145 197.131 367.952 197.432C368.028 197.081 368.143 196.741 368.296 196.416C368.656 195.504 369.081 194.619 369.568 193.768C372.8 188.056 378.142 183.837 384.448 182.016C385.391 181.746 386.35 181.537 387.32 181.392C387.673 181.322 388.032 181.29 388.392 181.296Z" fill="#263238"/>
<g opacity="0.2">
<path opacity="0.2" d="M344.232 172.424C344.184 172.984 343.384 173.488 341.888 173.744C339.772 174.018 337.623 173.849 335.576 173.248C332.483 172.403 329.594 170.936 327.088 168.936C323.907 166.468 321.366 163.271 319.68 159.614C317.994 155.958 317.212 151.95 317.4 147.928C317.512 144.723 318.274 141.574 319.64 138.672C320.509 136.725 321.776 134.981 323.36 133.552C324.528 132.576 325.424 132.296 325.88 132.624C326.864 133.344 325.816 136.168 325.256 140.44C324.914 142.878 324.855 145.348 325.08 147.8C325.528 153.615 328.042 159.078 332.168 163.2C333.889 164.959 335.806 166.516 337.88 167.84C341.488 170.176 344.32 171.2 344.232 172.424Z" fill="white"/>
</g>
<g opacity="0.2">
<path opacity="0.2" d="M356.976 174.84C357.356 175.472 357.545 176.202 357.518 176.94C357.492 177.677 357.252 178.391 356.827 178.995C356.402 179.598 355.811 180.066 355.126 180.339C354.44 180.613 353.69 180.682 352.966 180.537C352.242 180.392 351.576 180.04 351.049 179.524C350.521 179.008 350.155 178.349 349.995 177.629C349.835 176.908 349.888 176.156 350.148 175.465C350.407 174.774 350.861 174.173 351.456 173.736C352.336 173.156 353.409 172.946 354.443 173.153C355.477 173.359 356.387 173.966 356.976 174.84Z" fill="white"/>
</g>
<path d="M304.616 149.52C304.616 149.632 300.36 149.728 295.104 149.728C289.848 149.728 285.6 149.6 285.6 149.52C285.6 149.44 289.856 149.312 295.112 149.312C300.368 149.312 304.616 149.4 304.616 149.52Z" fill="#263238"/>
<path d="M304.608 140.048C301.38 139.522 298.203 138.719 295.112 137.648C296.737 137.839 298.343 138.168 299.912 138.632C301.514 138.971 303.085 139.445 304.608 140.048Z" fill="#263238"/>
<path d="M313.456 131.2C313.392 131.296 309.976 129.064 305.832 126.232C301.688 123.4 298.384 121.016 298.448 120.92C298.512 120.824 301.92 123.048 306.072 125.888C310.224 128.728 313.52 131.08 313.456 131.2Z" fill="#263238"/>
<path d="M323.632 119.344C322.457 118.457 321.367 117.464 320.376 116.376C319.282 115.388 318.288 114.294 317.408 113.112C318.582 113.999 319.672 114.992 320.664 116.08C321.758 117.068 322.752 118.161 323.632 119.344Z" fill="#263238"/>
<path d="M338.68 114.44C338.568 114.488 336.76 110.176 334.632 104.84C332.504 99.504 330.864 95.096 330.968 95.056C331.072 95.016 332.888 99.32 335.016 104.656C337.144 109.992 338.784 114.4 338.68 114.44Z" fill="#263238"/>
<path d="M352.496 111.8C352.183 110.183 352.004 108.543 351.96 106.896C351.781 105.26 351.741 103.611 351.84 101.968C352.153 103.585 352.332 105.225 352.376 106.872C352.554 108.508 352.594 110.157 352.496 111.8Z" fill="#263238"/>
<path d="M366.848 97.68C366.96 97.68 365.76 101.936 364.168 107.104C362.576 112.272 361.2 116.448 361.088 116.416C360.976 116.384 362.184 112.16 363.768 106.984C365.352 101.808 366.744 97.648 366.848 97.68Z" fill="#263238"/>
<path d="M420.44 164.8L407.64 172.848L409.712 178.288L381.072 190.072L373.232 190.432L367.448 189.36C367.448 189.36 366.944 190.032 367.912 191.064C368.819 191.745 369.856 192.233 370.96 192.496L366.632 196.408L372.232 203.52L391.432 198.88C402.064 197.072 427.384 192 427.48 184.608C427.584 177.944 420.44 164.8 420.44 164.8Z" fill="#FFBE9D"/>
<path d="M317.696 151.72C317.992 150.848 318.712 150.224 319.496 150.64C319.653 150.822 319.76 151.041 319.806 151.277C319.852 151.513 319.836 151.756 319.76 151.984L317.248 160.152L319.648 154.376C319.944 153.504 320.736 152.976 321.248 153.448C321.384 153.638 321.473 153.857 321.506 154.089C321.539 154.32 321.517 154.555 321.44 154.776L319.288 161.6L321.048 157.368C321.416 156.4 321.848 156.136 322.344 156.352C322.84 156.568 322.848 157.28 322.728 157.656L321.232 162.664C321.56 163.624 322.664 166.664 321.6 168.352C321.544 168.44 321.704 168.72 321.704 168.816L322.208 169.392L318.952 172.464C317.264 170.968 315.712 164.68 315.224 162.296C314.907 160.946 314.968 159.534 315.4 158.216L317.696 151.72Z" fill="#FFBE9D"/>
<path d="M226.16 355.112V353.888L212.8 353.232L212.736 358.28L213.536 358.336C217.2 358.568 232.168 359.272 234.624 358.552C237.416 357.744 226.16 355.112 226.16 355.112Z" fill="#FFC42E"/>
<g opacity="0.5">
<path opacity="0.5" d="M217.6 358.216C217.412 357.093 216.816 356.08 215.928 355.368C215.045 354.662 213.928 354.316 212.8 354.4V358.112L217.6 358.216Z" fill="white"/>
</g>
<path opacity="0.5" d="M231.656 356.592C231.656 356.592 235.6 357.768 235.104 358.416C234.608 359.064 219.448 358.92 212.768 358.28V357.984L230.44 358.296C230.44 358.296 230.88 356.616 231.656 356.592Z" fill="white"/>
<path d="M212.584 357.968C212.661 357.976 212.739 357.976 212.816 357.968L213.472 358.008L215.872 358.136C217.912 358.232 220.72 358.32 223.832 358.352C226.944 358.384 229.76 358.352 231.832 358.296L234.232 358.216H234.888C234.962 358.227 235.038 358.227 235.112 358.216H234.232H231.832C229.792 358.216 226.976 358.216 223.872 358.216C220.768 358.216 217.944 358.112 215.872 358.048L213.472 357.968H212.584Z" fill="#263238"/>
<path d="M230.464 358.496C230.571 358.098 230.724 357.714 230.92 357.352C231.156 357.02 231.424 356.712 231.72 356.432C231.313 356.576 230.97 356.859 230.752 357.232C230.501 357.602 230.398 358.053 230.464 358.496Z" fill="#263238"/>
<path d="M226.568 356.48C226.568 356.48 226.792 356.272 226.984 355.968C227.176 355.664 227.312 355.4 227.272 355.376C227.232 355.352 227.048 355.584 226.856 355.88C226.664 356.176 226.528 356.456 226.568 356.48Z" fill="#263238"/>
<path d="M225.496 355.896C225.496 355.896 225.736 355.792 225.968 355.592C226.2 355.392 226.36 355.192 226.328 355.16C226.296 355.128 226.088 355.264 225.856 355.472C225.624 355.68 225.464 355.864 225.496 355.896Z" fill="#263238"/>
<path d="M224.8 354.64C225.023 354.721 225.26 354.754 225.496 354.736C225.73 354.769 225.969 354.744 226.192 354.664C225.968 354.588 225.732 354.558 225.496 354.576C225.262 354.543 225.024 354.565 224.8 354.64Z" fill="#263238"/>
<path d="M224.6 353.752C224.834 353.915 225.115 353.996 225.4 353.984C225.67 354.035 225.949 354.001 226.2 353.888C225.936 353.84 225.668 353.818 225.4 353.824C225.136 353.779 224.868 353.755 224.6 353.752Z" fill="#263238"/>
<path d="M227.024 355.32C227.307 355.374 227.597 355.374 227.88 355.32C228.187 355.284 228.489 355.22 228.784 355.128C228.967 355.074 229.144 355.002 229.312 354.912C229.362 354.885 229.406 354.849 229.442 354.805C229.478 354.761 229.504 354.71 229.52 354.656C229.536 354.593 229.534 354.527 229.512 354.466C229.491 354.405 229.452 354.351 229.4 354.312C229.074 354.155 228.704 354.112 228.351 354.192C227.998 354.272 227.683 354.47 227.456 354.752C227.324 354.92 227.229 355.113 227.176 355.32C227.136 355.464 227.176 355.544 227.176 355.544C227.264 355.283 227.397 355.04 227.568 354.824C227.763 354.601 228.019 354.44 228.304 354.36C228.47 354.304 228.645 354.282 228.819 354.294C228.994 354.306 229.164 354.353 229.32 354.432C229.456 354.536 229.4 354.696 229.248 354.784C229.095 354.867 228.934 354.934 228.768 354.984C228.481 355.08 228.186 355.155 227.888 355.208C227.352 355.296 227.024 355.296 227.024 355.32Z" fill="#263238"/>
<path d="M227.248 355.368C227.349 355.188 227.386 354.979 227.352 354.776C227.326 354.552 227.246 354.338 227.12 354.152C227.054 354.021 226.954 353.911 226.83 353.834C226.705 353.756 226.562 353.714 226.416 353.712C226.329 353.729 226.253 353.78 226.203 353.854C226.154 353.927 226.136 354.017 226.152 354.104C226.173 354.237 226.219 354.365 226.288 354.48C226.399 354.669 226.534 354.844 226.688 355C226.82 355.155 226.987 355.276 227.176 355.352C227.176 355.352 227.008 355.2 226.776 354.928C226.628 354.769 226.501 354.592 226.4 354.4C226.28 354.224 226.208 353.896 226.4 353.856C226.592 353.816 226.832 354.056 226.96 354.224C227.079 354.392 227.161 354.582 227.2 354.784C227.228 354.977 227.244 355.173 227.248 355.368Z" fill="#263238"/>
<path d="M212.888 354.344C212.888 354.344 213.272 354.344 213.872 354.384C214.651 354.482 215.388 354.795 216 355.288C216.605 355.788 217.061 356.443 217.32 357.184C217.417 357.497 217.497 357.815 217.56 358.136C217.56 358.136 217.56 358.04 217.56 357.872C217.535 357.629 217.49 357.388 217.424 357.152C217.186 356.372 216.724 355.68 216.096 355.16C215.46 354.649 214.685 354.34 213.872 354.272C213.63 354.251 213.386 354.251 213.144 354.272C212.984 354.304 212.888 354.328 212.888 354.344Z" fill="#263238"/>
<path d="M219.264 356.952C220.545 357.195 221.859 357.208 223.144 356.992C223.144 356.944 222.272 356.992 221.2 356.992C220.128 356.992 219.272 356.904 219.264 356.952Z" fill="#263238"/>
<path d="M216.664 356.904C216.664 356.904 216.736 357.088 216.816 357.288C216.896 357.488 216.952 357.664 217 357.664C217.048 357.664 217.072 357.456 217 357.224C216.928 356.992 216.696 356.872 216.664 356.904Z" fill="#263238"/>
<path d="M215.696 355.68C215.696 355.68 215.744 355.848 215.88 355.992C216.016 356.136 216.152 356.216 216.184 356.184C216.216 356.152 216.136 356.016 216 355.88C215.864 355.744 215.728 355.648 215.696 355.68Z" fill="#263238"/>
<path d="M214.296 355.104C214.296 355.152 214.48 355.152 214.68 355.224C214.88 355.296 215.008 355.4 215.048 355.368C215.088 355.336 214.968 355.152 214.728 355.072C214.488 354.992 214.288 355.064 214.296 355.104Z" fill="#263238"/>
<path d="M213.304 354.832C213.304 354.88 213.36 354.944 213.472 354.992C213.584 355.04 213.68 355.032 213.696 354.992C213.712 354.952 213.64 354.88 213.528 354.84C213.416 354.8 213.32 354.792 213.304 354.832Z" fill="#263238"/>
<path d="M242.072 355.696L242.112 354.472L228.8 353.504L228.616 358.552L229.416 358.624C233.064 358.952 248.016 360 250.488 359.336C253.256 358.6 242.072 355.696 242.072 355.696Z" fill="#FFC42E"/>
<g opacity="0.5">
<path opacity="0.5" d="M233.424 358.6C233.266 357.475 232.696 356.449 231.824 355.72C230.969 354.993 229.873 354.613 228.752 354.656L228.632 358.36L233.424 358.6Z" fill="white"/>
</g>
<path opacity="0.5" d="M247.528 357.312C247.528 357.312 251.44 358.576 250.928 359.216C250.416 359.856 235.272 359.352 228.608 358.552V358.256L246.272 358.984C246.272 358.984 246.76 357.32 247.528 357.312Z" fill="white"/>
<path d="M228.432 358.24H228.656L229.312 358.296L231.712 358.48C233.744 358.624 236.56 358.776 239.712 358.88C242.864 358.984 245.632 359.016 247.672 359.016H250.072H250.728H250.96H250.728H250.072H247.672C245.64 359.016 242.824 358.936 239.712 358.832C236.6 358.728 233.792 358.592 231.76 358.48L229.36 358.352H228.704L228.432 358.24Z" fill="#263238"/>
<path d="M246.288 359.2C246.411 358.806 246.575 358.425 246.776 358.064C247.028 357.735 247.315 357.435 247.632 357.168C247.217 357.305 246.867 357.59 246.648 357.968C246.382 358.321 246.254 358.759 246.288 359.2Z" fill="#263238"/>
<path d="M242.44 357.072C242.48 357.072 242.672 356.88 242.88 356.576C243.088 356.272 243.216 356.016 243.176 355.992C243.136 355.968 242.944 356.192 242.744 356.488C242.602 356.658 242.498 356.858 242.44 357.072Z" fill="#263238"/>
<path d="M241.384 356.472C241.384 356.472 241.632 356.368 241.864 356.176C242.096 355.984 242.264 355.792 242.24 355.752C242.216 355.712 241.992 355.856 241.76 356.048C241.528 356.24 241.36 356.44 241.384 356.472Z" fill="#263238"/>
<path d="M240.752 355.2C240.971 355.283 241.206 355.319 241.44 355.304C241.673 355.341 241.911 355.325 242.136 355.256C241.917 355.17 241.683 355.132 241.448 355.144C241.064 355.128 240.752 355.152 240.752 355.2Z" fill="#263238"/>
<path d="M240.544 354.304C240.776 354.472 241.057 354.56 241.344 354.552C241.612 354.615 241.894 354.587 242.144 354.472C241.88 354.424 241.612 354.398 241.344 354.392C241.08 354.342 240.813 354.313 240.544 354.304Z" fill="#263238"/>
<path d="M242.928 355.928C243.211 355.983 243.501 355.983 243.784 355.928C244.093 355.901 244.398 355.844 244.696 355.76C244.878 355.712 245.055 355.645 245.224 355.56C245.276 355.535 245.322 355.499 245.359 355.455C245.396 355.411 245.424 355.359 245.44 355.304C245.456 355.242 245.454 355.177 245.434 355.116C245.414 355.055 245.378 355.001 245.328 354.96C245.006 354.795 244.638 354.744 244.284 354.815C243.929 354.887 243.609 355.076 243.376 355.352C243.238 355.515 243.137 355.706 243.08 355.912C243.062 355.988 243.062 356.068 243.08 356.144C243.177 355.884 243.317 355.644 243.496 355.432C243.695 355.211 243.953 355.053 244.24 354.976C244.406 354.925 244.581 354.908 244.755 354.926C244.928 354.944 245.095 354.996 245.248 355.08C245.384 355.184 245.328 355.344 245.176 355.432C245.019 355.506 244.855 355.568 244.688 355.616C244.398 355.705 244.101 355.772 243.8 355.816C243.256 355.912 242.928 355.904 242.928 355.928Z" fill="#263238"/>
<path d="M243.152 356C243.259 355.822 243.298 355.612 243.264 355.408C243.25 355.183 243.179 354.965 243.056 354.776C242.988 354.648 242.888 354.538 242.767 354.459C242.645 354.379 242.505 354.331 242.36 354.32C242.273 354.336 242.195 354.384 242.143 354.456C242.091 354.527 242.068 354.616 242.08 354.704C242.1 354.84 242.146 354.97 242.216 355.088C242.319 355.281 242.449 355.458 242.6 355.616C242.73 355.774 242.894 355.9 243.08 355.984C243.08 355.984 242.912 355.824 242.688 355.544C242.557 355.382 242.442 355.208 242.344 355.024C242.232 354.84 242.168 354.512 242.384 354.48C242.6 354.448 242.808 354.688 242.928 354.856C243.044 355.026 243.121 355.22 243.152 355.424C243.167 355.616 243.167 355.808 243.152 356Z" fill="#263238"/>
<path d="M228.8 354.616C228.8 354.616 229.176 354.616 229.776 354.68C230.556 354.79 231.289 355.12 231.888 355.631C232.488 356.143 232.929 356.815 233.16 357.568C233.344 358.144 233.352 358.528 233.384 358.52C233.398 358.433 233.398 358.343 233.384 358.256C233.37 358.012 233.33 357.771 233.264 357.536C233.052 356.748 232.606 356.042 231.985 355.512C231.363 354.982 230.596 354.653 229.784 354.568C229.542 354.539 229.298 354.539 229.056 354.568C228.969 354.568 228.882 354.585 228.8 354.616Z" fill="#263238"/>
<path d="M235.136 357.376C235.765 357.541 236.414 357.622 237.064 357.616C237.714 357.665 238.367 357.63 239.008 357.512C239.008 357.464 238.136 357.512 237.072 357.456C236.008 357.4 235.136 357.328 235.136 357.376Z" fill="#263238"/>
<path d="M232.536 357.272C232.536 357.272 232.6 357.456 232.68 357.656C232.76 357.856 232.808 358.04 232.848 358.04C232.888 358.04 232.928 357.832 232.848 357.6C232.768 357.368 232.56 357.24 232.536 357.272Z" fill="#263238"/>
<path d="M231.592 356C231.592 356 231.64 356.176 231.776 356.32C231.912 356.464 232.04 356.552 232.072 356.52C232.104 356.488 232.024 356.352 231.896 356.208C231.768 356.064 231.624 356 231.592 356Z" fill="#263238"/>
<path d="M230.208 355.416C230.208 355.464 230.392 355.464 230.584 355.544C230.776 355.624 230.92 355.728 230.952 355.696C230.984 355.664 230.88 355.48 230.64 355.392C230.4 355.304 230.2 355.376 230.208 355.416Z" fill="#263238"/>
<path d="M229.224 355.12C229.224 355.16 229.28 355.232 229.384 355.28C229.488 355.328 229.6 355.328 229.616 355.28C229.632 355.232 229.56 355.168 229.448 355.12C229.336 355.072 229.24 355.08 229.224 355.12Z" fill="#263238"/>
<path d="M239.704 204.68C239.704 204.68 250.456 276.128 248.896 279.584C247.336 283.04 238.008 354.304 238.008 354.304L211.28 353.992C211.28 353.992 226.096 272.152 225.76 270.832C225.424 269.512 205.52 198.928 205.52 198.928L239.704 204.68Z" fill="#455A64"/>
<path d="M230.848 207.384L200.408 197.176L199.344 199.696C196.223 207.109 196.086 215.44 198.96 222.952L219.76 277.464C221.252 281.321 222.142 285.385 222.4 289.512L225.6 354.192L246.4 355.648C246.4 355.648 244.928 302.776 244.912 286.184C244.912 273.672 235.88 234.032 230.824 214.888" fill="#455A64"/>
<path d="M210.672 254.304C210.72 254.38 210.761 254.46 210.792 254.544C210.864 254.728 210.96 254.96 211.088 255.264C211.344 255.92 211.72 256.864 212.192 258.024C213.144 260.424 214.504 263.928 216.192 268.216C217.88 272.504 219.848 277.664 222.048 283.352C222.437 284.88 222.705 286.437 222.848 288.008C223.024 289.608 223.181 291.235 223.32 292.888C223.592 296.2 223.816 299.632 224.016 303.152C224.816 317.24 225.144 330 225.392 339.24C225.48 343.84 225.56 347.568 225.608 350.176C225.608 351.448 225.608 352.448 225.608 353.152C225.608 353.472 225.608 353.728 225.608 353.952C225.615 354.04 225.615 354.128 225.608 354.216C225.599 354.128 225.599 354.04 225.608 353.952V353.152C225.608 352.448 225.552 351.448 225.504 350.184C225.416 347.568 225.296 343.84 225.152 339.248C224.832 330.016 224.424 317.256 223.656 303.176C223.456 299.664 223.24 296.224 222.968 292.92C222.84 291.264 222.68 289.64 222.504 288.056C222.356 286.512 222.088 284.983 221.704 283.48C219.536 277.776 217.576 272.64 215.936 268.28C214.296 263.92 212.992 260.488 212.072 258.04L211.04 255.248C210.928 254.944 210.848 254.704 210.784 254.52C210.741 254.451 210.703 254.379 210.672 254.304Z" fill="#263238"/>
<path d="M245.152 301.6C245.146 301.52 245.146 301.44 245.152 301.36C245.152 301.176 245.152 300.944 245.152 300.656C245.152 300.008 245.152 299.104 245.112 297.952C245.112 295.552 245.112 292.192 245.048 288.016C245.048 285.912 245.048 283.616 245.048 281.152C245.094 279.888 245.032 278.622 244.864 277.368C244.624 276.072 244.384 274.744 244.128 273.368C243.112 267.912 242 261.92 240.832 255.624C238.536 243.04 236.448 231.624 234.936 223.368C234.208 219.256 233.616 215.928 233.2 213.584C233 212.448 232.856 211.56 232.744 210.92C232.696 210.632 232.664 210.408 232.64 210.224C232.629 210.144 232.629 210.064 232.64 209.984C232.667 210.06 232.689 210.137 232.704 210.216C232.744 210.392 232.792 210.624 232.848 210.904C232.976 211.536 233.152 212.424 233.376 213.552C233.824 215.888 234.464 219.216 235.248 223.312C236.792 231.592 238.92 242.976 241.264 255.552C242.424 261.848 243.528 267.84 244.528 273.304C244.776 274.664 245.016 276 245.256 277.304C245.415 278.577 245.469 279.862 245.416 281.144C245.416 283.608 245.416 285.904 245.416 288.008C245.416 292.184 245.36 295.568 245.344 297.944C245.344 299.096 245.344 300 245.344 300.648C245.344 300.936 245.344 301.168 245.344 301.352C245.293 301.444 245.229 301.528 245.152 301.6Z" fill="#263238"/>
<path d="M234.44 205.168C234.736 205.527 234.947 205.948 235.056 206.4C235.756 208.544 235.628 210.873 234.696 212.928C234.538 213.363 234.287 213.759 233.96 214.088C234.546 212.679 234.921 211.191 235.072 209.672C235.092 208.147 234.879 206.628 234.44 205.168Z" fill="#263238"/>
<path d="M217.528 203.472C217.574 203.702 217.574 203.938 217.528 204.168C217.472 204.801 217.319 205.422 217.072 206.008C216.704 206.888 216.159 207.683 215.472 208.344C214.631 209.163 213.592 209.75 212.456 210.048C211.314 210.322 210.119 210.291 208.992 209.96C208.08 209.701 207.23 209.257 206.496 208.656C206.001 208.256 205.572 207.781 205.224 207.248C205.085 207.059 204.98 206.848 204.912 206.624C205.431 207.287 206.021 207.891 206.672 208.424C207.462 209.052 208.387 209.49 209.373 209.704C210.36 209.917 211.383 209.901 212.362 209.656C213.341 209.411 214.251 208.943 215.021 208.29C215.79 207.636 216.399 206.815 216.8 205.888C217.137 205.114 217.381 204.303 217.528 203.472Z" fill="#263238"/>
<path d="M218.944 99.584C210.144 99.584 207.496 107.584 207 109.4C206.637 111.244 206.575 113.136 206.816 115C206.92 116.872 206.888 118.84 206.016 120.48C204.168 123.824 199.152 124.992 198.376 128.736C197.864 131.192 199.52 133.784 198.768 136.184C198.128 138.232 195.944 139.384 195 141.336C193.904 143.576 194.704 146.232 195.512 148.584C195.736 149.216 196.032 149.936 196.672 150.144C197.086 150.232 197.517 150.199 197.912 150.048L215.128 145.288" fill="#263238"/>
<path d="M283.312 178.288H286.696C289.776 177.984 291.496 177.936 292.368 177.12C293.52 176.024 291.936 174.944 291.936 174.944C291.936 174.944 294.168 174.144 293.952 172.816C293.816 171.888 292.752 171.784 292.752 171.784C292.752 171.784 294.72 170.984 295.112 170.184C295.64 169.064 294.256 168.472 294.256 168.472C296.936 166.816 296.696 165.176 296.072 165.016C295.448 164.856 293.36 165.816 293.36 165.816C291.592 166.32 286.768 167.792 288.56 165.136C290.352 162.48 290.72 159.752 290.304 158.952C290.192 158.775 290.026 158.639 289.832 158.561C289.637 158.483 289.423 158.468 289.22 158.519C289.017 158.569 288.835 158.682 288.699 158.842C288.563 159.001 288.481 159.199 288.464 159.408C288.182 160.459 287.757 161.465 287.2 162.4C286.782 163.161 286.241 163.847 285.6 164.432C284.84 165.104 284.176 165.64 283.592 166.088L280.576 169L283.312 178.288Z" fill="#FFBE9D"/>
<path d="M294.28 168.48C293.823 168.884 293.318 169.231 292.776 169.512C292.204 169.849 291.611 170.148 291 170.408C290.635 170.562 290.261 170.693 289.88 170.8C289.66 170.866 289.429 170.89 289.2 170.872C289.063 170.858 288.931 170.816 288.813 170.747C288.694 170.678 288.591 170.584 288.512 170.472C288.396 170.245 288.355 169.986 288.397 169.734C288.439 169.482 288.56 169.25 288.744 169.072C289.038 168.794 289.359 168.547 289.704 168.336L291.344 167.248C291.838 166.877 292.375 166.568 292.944 166.328C292.524 166.768 292.054 167.157 291.544 167.488L289.944 168.656C289.632 168.857 289.34 169.087 289.072 169.344C288.952 169.457 288.87 169.605 288.837 169.767C288.804 169.929 288.822 170.097 288.888 170.248C289.04 170.496 289.448 170.504 289.808 170.408C290.173 170.311 290.531 170.191 290.88 170.048C291.488 169.813 292.084 169.546 292.664 169.248C293.176 168.939 293.717 168.681 294.28 168.48Z" fill="#EB996E"/>
<path d="M293.192 171.624C292.841 171.907 292.45 172.136 292.032 172.304L290.712 172.944L289.912 173.312C289.596 173.472 289.238 173.528 288.888 173.472C288.785 173.447 288.688 173.401 288.603 173.338C288.518 173.275 288.446 173.195 288.392 173.104C288.299 172.921 288.273 172.712 288.32 172.512C288.421 172.203 288.604 171.927 288.848 171.712C289.199 171.359 289.585 171.043 290 170.768C290.361 170.482 290.782 170.283 291.232 170.184C290.897 170.475 290.541 170.743 290.168 170.984C289.797 171.279 289.449 171.603 289.128 171.952C288.943 172.123 288.802 172.338 288.72 172.576C288.703 172.625 288.697 172.677 288.702 172.728C288.708 172.78 288.724 172.829 288.751 172.874C288.778 172.918 288.814 172.956 288.857 172.985C288.9 173.013 288.949 173.032 289 173.04C289.456 173.144 290.072 172.744 290.552 172.568L291.896 172.016C292.305 171.818 292.742 171.685 293.192 171.624Z" fill="#EB996E"/>
<path d="M292.224 174.488C291.875 174.859 291.437 175.134 290.952 175.288C290.44 175.506 289.902 175.656 289.352 175.736C288.981 175.796 288.602 175.707 288.296 175.488C288.121 175.353 287.999 175.16 287.952 174.944C287.913 174.717 287.964 174.485 288.096 174.296C288.328 174.004 288.616 173.762 288.944 173.584C289.224 173.408 289.504 173.232 289.744 173.08C290.272 172.768 290.768 172.512 291.184 172.28C291.62 172.022 292.096 171.839 292.592 171.736C292.201 172.052 291.774 172.32 291.32 172.536C290.928 172.768 290.456 173.048 289.944 173.336L289.144 173.856C288.865 174.008 288.618 174.212 288.416 174.456C288.381 174.505 288.356 174.561 288.343 174.62C288.329 174.679 288.328 174.74 288.338 174.799C288.349 174.859 288.371 174.916 288.403 174.967C288.436 175.018 288.478 175.062 288.528 175.096C288.747 175.255 289.02 175.322 289.288 175.28C289.812 175.225 290.327 175.109 290.824 174.936C291.704 174.744 292.192 174.4 292.224 174.488Z" fill="#EB996E"/>
<path d="M288.856 178.048C288.856 178.048 288.768 178.112 288.608 178.048C288.495 178.012 288.393 177.95 288.309 177.867C288.226 177.783 288.164 177.681 288.128 177.568C288.079 177.4 288.07 177.222 288.102 177.05C288.134 176.878 288.206 176.715 288.312 176.576C288.544 176.262 288.849 176.01 289.2 175.84C289.986 175.309 290.861 174.924 291.784 174.704C291.043 175.289 290.238 175.789 289.384 176.192C289.077 176.336 288.805 176.543 288.584 176.8C288.505 176.895 288.446 177.005 288.411 177.123C288.375 177.241 288.363 177.365 288.376 177.488C288.504 177.944 288.872 178 288.856 178.048Z" fill="#EB996E"/>
<path d="M241.896 149.424C241.896 149.424 244.872 158.28 245.096 158.8C246.904 163.6 248.952 170.592 251.216 171.44C253.48 172.288 281.16 166.64 281.16 166.64L285.392 181.096C285.392 181.096 263.2 189.144 251.2 189C239.952 188.864 236.736 187.584 232.8 178.504C228.864 169.424 224.352 158.984 223.408 152.976" fill="#FFC42E"/>
<path d="M285.384 181.088C285.171 181.196 284.952 181.292 284.728 181.376C284.304 181.56 283.656 181.808 282.824 182.12C281.16 182.728 278.728 183.544 275.68 184.432C272.632 185.32 268.984 186.296 264.92 187.32C260.529 188.548 256.027 189.336 251.48 189.672C250.277 189.728 249.071 189.696 247.872 189.576C246.701 189.472 245.546 189.23 244.432 188.856C242.341 188.098 240.423 186.928 238.792 185.416C236.104 182.816 233.866 179.788 232.168 176.456C230.672 173.656 229.648 171.296 228.968 169.664C228.624 168.864 228.36 168.208 228.168 167.776C227.976 167.344 227.92 167.104 227.928 167.104C228.055 167.306 228.163 167.521 228.248 167.744L229.088 169.6C229.824 171.2 230.888 173.544 232.408 176.32C234.127 179.591 236.364 182.563 239.032 185.12C240.629 186.59 242.503 187.727 244.544 188.464C245.631 188.824 246.756 189.057 247.896 189.16C249.076 189.274 250.263 189.303 251.448 189.248C255.963 188.917 260.435 188.145 264.8 186.944C268.864 185.944 272.52 185.008 275.568 184.152C278.616 183.296 281.064 182.552 282.768 181.968L284.696 181.304C284.917 181.209 285.148 181.136 285.384 181.088Z" fill="#263238"/>
<path d="M253.688 179.536V179.584C253.944 179.28 254.216 178.944 254.488 178.568C254.921 178.005 255.254 177.372 255.472 176.696C255.781 175.868 255.972 175.001 256.04 174.12C256.008 173.945 256.035 173.765 256.117 173.607C256.199 173.45 256.331 173.324 256.493 173.25C256.654 173.175 256.835 173.157 257.008 173.197C257.181 173.237 257.336 173.334 257.448 173.472C257.896 174.056 258.008 176.296 256.976 178.704C255.944 181.112 259.592 179.2 260.976 178.528C262.36 177.856 266.576 175.976 267.104 176.224C267.904 176.592 267.632 177.496 266.304 178.136C264.976 178.776 261.016 180.976 261.4 181.664C261.784 182.352 268.6 178.84 268.6 178.84C268.6 178.84 269.928 177.856 270.4 178.64C271.264 180.056 263.768 183.256 263.048 183.544C262.544 183.744 262.944 184.504 263.472 184.264C264 184.024 270.16 180.608 271.048 182.04C271.728 183.136 264.912 184.728 264.024 186.144C263.136 187.56 269.072 184.416 269.68 185.488C269.912 185.888 270.024 186.224 266.352 187.536C263.211 188.51 260.02 189.311 256.792 189.936L253.688 179.536Z" fill="#FFBE9D"/>
<path d="M209.168 137.768L231.736 139.688C231.736 139.688 240.304 138.28 245.064 159.376L242.496 167.328L240.6 179.536L239.704 204.68L197.864 201.6C198.816 195.888 203.272 188.384 204.768 183.56C203.248 179.76 194.416 164.264 194.424 156.288C194.424 139.24 209.168 137.768 209.168 137.768Z" fill="#FFC42E"/>
<g opacity="0.1">
<path opacity="0.1" d="M229.672 155.2L237.432 156.408C238.252 156.578 239.092 156.637 239.928 156.584C240.774 156.523 241.563 156.136 242.128 155.504C243.04 154.384 242.76 152.712 242.176 151.384C241.592 150.056 240.736 148.808 240.576 147.384L229.672 155.2Z" fill="black"/>
</g>
<path d="M252.904 176.928L257.136 191.376C257.136 191.376 234.968 199.44 222.96 199.288C211.712 199.152 208.496 197.872 204.56 188.792C200.624 179.712 196.112 169.272 195.168 163.264C195.168 163.264 188.816 135.6 213.04 138.072L213.696 159.672C213.696 159.672 216.376 168.536 216.568 169.048C218.376 173.848 220.72 180.84 222.968 181.688C225.216 182.536 252.904 176.928 252.904 176.928Z" fill="#FFC42E"/>
<path d="M199.72 177.392C199.78 177.495 199.833 177.602 199.88 177.712C199.984 177.936 200.128 178.256 200.304 178.664C200.68 179.464 201.224 180.736 201.968 182.32C202.712 183.904 203.664 185.816 204.928 187.92C206.321 190.373 208.023 192.637 209.992 194.656C211.139 195.827 212.442 196.834 213.864 197.648C214.234 197.87 214.619 198.065 215.016 198.232C215.407 198.43 215.814 198.596 216.232 198.728C217.086 199.025 217.968 199.234 218.864 199.352C222.528 199.88 226.528 199.352 230.632 198.552C234.736 197.752 239.024 196.568 243.432 195.408C248.039 194.226 252.579 192.797 257.032 191.128L256.912 191.376C256.288 189.28 255.632 187.048 254.968 184.784L252.656 176.928L252.888 177.072C247.448 178.016 242.264 179.312 237.272 180.328C232.559 181.383 227.741 181.893 222.912 181.848H222.792L222.744 181.736C220.68 176.36 219.072 171.336 217.64 166.888C216.208 162.44 214.968 158.568 213.944 155.368C212.92 152.168 212.04 149.688 211.432 148L210.728 146.064C210.656 145.856 210.6 145.696 210.56 145.568C210.52 145.44 210.504 145.4 210.504 145.4C210.539 145.449 210.566 145.503 210.584 145.56L210.784 146.048C210.952 146.48 211.216 147.112 211.536 147.96C212.176 149.64 213.064 152.12 214.144 155.296C215.224 158.472 216.472 162.352 217.92 166.8C219.368 171.248 221 176.256 223.08 181.608L222.92 181.488C227.734 181.537 232.539 181.038 237.24 180C242.216 178.976 247.408 177.672 252.864 176.72H253.048L253.104 176.896C253.856 179.472 254.627 182.093 255.416 184.76C256.08 187.016 256.736 189.248 257.36 191.344L257.408 191.528L257.232 191.6C252.761 193.274 248.202 194.702 243.576 195.88C239.112 197.04 234.84 198.176 230.704 199.008C226.568 199.84 222.544 200.304 218.808 199.76C217.893 199.629 216.993 199.409 216.12 199.104C215.289 198.802 214.485 198.427 213.72 197.984C212.278 197.151 210.959 196.123 209.8 194.928C207.828 192.881 206.128 190.587 204.744 188.104C203.496 185.936 202.568 184.008 201.84 182.416C201.112 180.824 200.592 179.576 200.24 178.728L199.848 177.76L199.72 177.392Z" fill="#263238"/>
<path opacity="0.3" d="M241.272 160.8C241.272 160.8 244.208 164.088 244.256 166.92C244.336 171.4 243.208 173.704 244.608 178.6L240.608 179.568C240.608 179.568 240 178.376 240.52 175.816C241.04 173.256 242.056 170.144 242.504 167.36C242.901 165.096 242.463 162.766 241.272 160.8Z" fill="black"/>
<path d="M240.6 179.536C240.487 179.217 240.407 178.887 240.36 178.552C240.242 177.638 240.242 176.714 240.36 175.8C240.55 174.448 240.836 173.111 241.216 171.8C241.692 170.227 242.058 168.623 242.312 167C242.565 165.383 242.391 163.729 241.808 162.2C241.282 160.975 240.558 159.845 239.664 158.856C238.152 157.136 237.072 156.184 237.128 156.128C237.42 156.302 237.689 156.511 237.928 156.752C238.619 157.35 239.276 157.985 239.896 158.656C240.842 159.653 241.613 160.802 242.176 162.056C242.798 163.633 242.991 165.348 242.736 167.024C242.477 168.669 242.095 170.292 241.592 171.88C241.199 173.163 240.889 174.469 240.664 175.792C240.52 176.683 240.472 177.587 240.52 178.488C240.59 178.833 240.617 179.185 240.6 179.536Z" fill="#263238"/>
<g opacity="0.2">
<path opacity="0.2" d="M241.152 179.2L228.76 179.48C227.779 179.571 226.79 179.457 225.856 179.144C224.552 178.592 223.712 177.32 222.984 176.112C220.808 172.523 218.813 168.835 217 165.048C217 165.048 220.28 175.448 222.328 179.984C222.92 181.296 223.792 181.68 225.224 181.472C230.615 181.485 235.98 180.72 241.152 179.2Z" fill="black"/>
</g>
<path opacity="0.2" d="M203.728 186.6C203.728 186.6 207.92 202.544 218.672 202.224C229.424 201.904 239.616 197.296 239.616 197.296L239.136 196.8C239.136 196.8 220.864 200.736 215.784 198.256C206.144 193.6 203.728 186.6 203.728 186.6Z" fill="black"/>
<g opacity="0.1">
<path opacity="0.1" d="M206.048 138.28C202.96 140.248 201.808 144.4 202.48 148.008C203.152 151.616 205.288 154.76 207.616 157.608C207.877 157.985 208.233 158.286 208.648 158.48C209.264 158.622 209.911 158.54 210.472 158.248L225.128 152.648C224.71 152.456 224.337 152.178 224.034 151.832C223.731 151.486 223.504 151.08 223.368 150.64" fill="black"/>
</g>
<path d="M203.008 170.096C203.067 168.989 203.26 167.893 203.584 166.832C203.781 165.742 204.111 164.681 204.568 163.672C204.514 164.78 204.32 165.876 203.992 166.936C203.796 168.026 203.465 169.087 203.008 170.096Z" fill="#263238"/>
<path d="M210.176 178.472C209.3 178.027 208.491 177.458 207.776 176.784C206.98 176.219 206.271 175.539 205.672 174.768C207.334 175.784 208.842 177.031 210.152 178.472H210.176Z" fill="#263238"/>
<path d="M215.928 191.12C215.786 190.021 215.786 188.907 215.928 187.808C215.934 186.704 216.076 185.605 216.352 184.536C216.494 185.633 216.494 186.743 216.352 187.84C216.346 188.947 216.204 190.048 215.928 191.12Z" fill="#263238"/>
<path d="M227.84 190.264C226.61 191.77 225.171 193.092 223.568 194.192C224.793 192.681 226.232 191.358 227.84 190.264Z" fill="#263238"/>
<path d="M238.144 187.912C237.168 187.437 236.257 186.841 235.432 186.136C234.516 185.538 233.685 184.819 232.96 184C233.937 184.477 234.85 185.074 235.68 185.776C236.588 186.381 237.416 187.099 238.144 187.912Z" fill="#263238"/>
<path d="M248.96 185.04C248.443 186.173 247.805 187.246 247.056 188.24C246.419 189.309 245.662 190.302 244.8 191.2C245.317 190.067 245.955 188.994 246.704 188C247.344 186.933 248.1 185.94 248.96 185.04Z" fill="#263238"/>
<path d="M231 173.688C230.107 173.044 229.301 172.289 228.6 171.44C227.803 170.684 227.101 169.832 226.512 168.904C227.406 169.546 228.213 170.302 228.912 171.152C229.711 171.907 230.412 172.759 231 173.688Z" fill="#263238"/>
<path d="M239.368 163.32C238.553 164.768 237.504 166.071 236.264 167.176C237.079 165.728 238.128 164.425 239.368 163.32Z" fill="#263238"/>
<path d="M227.68 163.112C227.592 163.2 226.488 162.152 224.952 161.112C223.416 160.072 222.032 159.424 222.08 159.312C224.302 159.953 226.263 161.284 227.68 163.112Z" fill="#263238"/>
<path d="M200.344 154.44C199.779 153.779 199.325 153.031 199 152.224C198.546 151.482 198.213 150.672 198.016 149.824C199.034 151.231 199.82 152.792 200.344 154.448V154.44Z" fill="#263238"/>
<path d="M249.888 175.112C249.097 174.912 248.343 174.585 247.656 174.144C246.9 173.815 246.205 173.36 245.6 172.8C247.148 173.316 248.596 174.096 249.88 175.104L249.888 175.112Z" fill="#263238"/>
<path d="M272.552 176.32C271.788 175.822 271.106 175.21 270.528 174.504C269.848 173.895 269.266 173.185 268.8 172.4C269.564 172.898 270.247 173.51 270.824 174.216C271.504 174.825 272.086 175.535 272.552 176.32Z" fill="#263238"/>
<path d="M280.536 175.624C279.92 176.888 279.178 178.086 278.32 179.2C277.577 180.383 276.72 181.489 275.76 182.504C276.378 181.251 277.12 180.064 277.976 178.96C278.717 177.766 279.575 176.649 280.536 175.624Z" fill="#263238"/>
<path d="M205.544 198.4C204.415 196.945 203.514 195.326 202.872 193.6C204.001 195.055 204.902 196.674 205.544 198.4Z" fill="#263238"/>
<path d="M237.784 201.28C235.869 201.788 233.893 202.028 231.912 201.992C233.827 201.484 235.803 201.244 237.784 201.28Z" fill="#263238"/>
<path d="M235.096 106.808C234.758 108.41 234.782 110.068 235.167 111.66C235.552 113.251 236.287 114.737 237.32 116.008C238.64 117.608 240.52 119.016 240.752 121.08C241.072 123.752 238.44 126.192 238.984 128.816C239.432 130.968 241.728 132.096 243.2 133.712C244.229 134.89 244.867 136.358 245.028 137.914C245.188 139.47 244.863 141.037 244.096 142.4C242.864 144.496 240.504 146.312 240.832 148.72C241.059 149.631 241.387 150.513 241.808 151.352C242.012 151.775 242.094 152.247 242.046 152.714C241.998 153.182 241.821 153.627 241.536 154C241.037 154.403 240.424 154.638 239.784 154.672C235.167 155.36 230.473 155.36 225.856 154.672L228.344 106.792L235.096 106.808Z" fill="#263238"/>
<path d="M212.8 138.616L211.52 109.296L223.16 100.496L233.744 105.664C233.744 105.664 234.096 118.952 233.744 124.72C233.392 130.488 227.584 131.12 227.584 131.12C227.584 131.12 227.72 134.496 227.848 138.04C227.887 139.058 227.719 140.073 227.354 141.024C226.989 141.976 226.435 142.843 225.725 143.573C225.016 144.304 224.165 144.883 223.225 145.276C222.285 145.668 221.275 145.865 220.256 145.856C218.321 145.837 216.468 145.075 215.08 143.727C213.692 142.379 212.876 140.549 212.8 138.616Z" fill="#FFBE9D"/>
<path d="M232.616 115.336C232.616 115.482 232.573 115.624 232.492 115.745C232.411 115.866 232.296 115.96 232.162 116.016C232.027 116.072 231.879 116.086 231.736 116.058C231.594 116.029 231.463 115.959 231.36 115.856C231.257 115.754 231.187 115.622 231.158 115.48C231.13 115.337 231.144 115.189 231.2 115.054C231.256 114.92 231.35 114.805 231.471 114.724C231.592 114.643 231.734 114.6 231.88 114.6C232.075 114.6 232.262 114.678 232.401 114.816C232.539 114.954 232.616 115.141 232.616 115.336Z" fill="#263238"/>
<path d="M233.328 114.536C233.232 114.624 232.688 114.168 231.896 114.12C231.104 114.072 230.504 114.464 230.424 114.352C230.344 114.24 230.48 114.136 230.744 113.952C231.096 113.726 231.51 113.617 231.928 113.64C232.346 113.665 232.745 113.825 233.064 114.096C233.304 114.304 233.376 114.488 233.328 114.536Z" fill="#263238"/>
<path d="M224.072 115.336C224.074 115.484 224.031 115.629 223.95 115.752C223.869 115.876 223.753 115.973 223.616 116.03C223.48 116.087 223.33 116.103 223.185 116.074C223.04 116.046 222.907 115.975 222.802 115.87C222.697 115.766 222.626 115.632 222.598 115.487C222.57 115.342 222.585 115.192 222.642 115.056C222.7 114.919 222.796 114.803 222.92 114.722C223.043 114.641 223.188 114.598 223.336 114.6C223.531 114.6 223.718 114.678 223.856 114.816C223.995 114.954 224.072 115.141 224.072 115.336Z" fill="#263238"/>
<path d="M224.528 114.536C224.432 114.624 223.888 114.168 223.096 114.12C222.304 114.072 221.704 114.464 221.624 114.352C221.544 114.24 221.68 114.136 221.944 113.952C222.296 113.726 222.71 113.617 223.128 113.64C223.546 113.667 223.944 113.827 224.264 114.096C224.496 114.304 224.576 114.488 224.528 114.536Z" fill="#263238"/>
<path d="M227.608 131.08C224.87 130.962 222.222 130.066 219.976 128.496C219.976 128.496 221.888 132.816 227.664 132.576L227.608 131.08Z" fill="#EB996E"/>
<path d="M227.392 121.24C227.818 121.13 228.256 121.076 228.696 121.08C228.896 121.08 229.096 121.08 229.136 120.888C229.162 120.668 229.123 120.446 229.024 120.248C228.848 119.728 228.672 119.176 228.48 118.6C228.104 117.432 227.776 116.368 227.56 115.592C227.409 115.179 227.309 114.749 227.264 114.312C227.482 114.693 227.654 115.098 227.776 115.52C228.048 116.28 228.408 117.336 228.784 118.504C228.968 119.08 229.136 119.632 229.304 120.16C229.419 120.41 229.447 120.692 229.384 120.96C229.353 121.03 229.307 121.092 229.249 121.142C229.191 121.192 229.122 121.228 229.048 121.248C228.934 121.262 228.818 121.262 228.704 121.248C228.268 121.295 227.828 121.293 227.392 121.24Z" fill="#263238"/>
<path d="M226.808 121.912C226.506 121.999 226.23 122.161 226.008 122.384C225.895 122.492 225.815 122.63 225.78 122.782C225.744 122.934 225.754 123.093 225.808 123.24C225.901 123.414 226.051 123.552 226.233 123.629C226.415 123.706 226.618 123.718 226.808 123.664C226.963 123.634 227.108 123.57 227.235 123.476C227.361 123.381 227.464 123.26 227.536 123.12C227.608 122.98 227.638 122.822 227.621 122.666C227.604 122.509 227.541 122.361 227.44 122.24C227.336 122.123 227.194 122.047 227.039 122.023C226.884 122 226.726 122.031 226.592 122.112" fill="#EB996E"/>
<path d="M227.832 123.072C227.832 123.184 227.184 123.368 226.48 122.96C225.776 122.552 225.576 121.888 225.68 121.856C225.784 121.824 226.096 122.28 226.68 122.6C227.264 122.92 227.824 122.96 227.832 123.072Z" fill="#263238"/>
<path d="M224.136 99.56C222.003 99.1532 219.804 99.263 217.722 99.8803C215.64 100.498 213.736 101.605 212.17 103.108C210.603 104.612 209.42 106.469 208.718 108.524C208.016 110.579 207.817 112.772 208.136 114.92C208.456 116.992 209.248 119.104 208.704 121.128C207.984 123.824 205.088 125.52 204.392 128.232C203.536 131.56 206.328 134.808 206.264 138.256C206.264 140.104 205.368 141.832 204.928 143.64C204.396 145.989 204.568 148.443 205.421 150.695C206.275 152.947 207.773 154.898 209.728 156.304C209.997 156.521 210.321 156.659 210.664 156.704C210.995 156.697 211.319 156.61 211.608 156.448L224.32 150.648C221.92 147.088 219.464 143.16 219.824 138.896C220.016 136.688 220.968 134.464 220.384 132.328C219.92 130.64 218.6 129.368 217.44 128.056C216.28 126.744 215.192 125.152 215.376 123.416C215.584 121.44 217.408 119.848 217.384 117.816C217.384 116.416 216.424 115.216 215.952 113.896C215.618 112.766 215.531 111.578 215.697 110.412C215.862 109.245 216.277 108.128 216.912 107.136C218.192 105.163 219.752 103.387 221.544 101.864" fill="#263238"/>
<path d="M216.296 105.76C216.256 107 215.56 108.16 215.184 109.328C214.808 110.496 214.864 112 215.984 112.744C216.277 112.929 216.599 113.064 216.936 113.144C218.387 113.406 219.877 113.352 221.304 112.984L221.496 109.712C221.704 110.737 222.272 111.653 223.096 112.296C223.533 112.63 224.048 112.848 224.592 112.931C225.135 113.013 225.691 112.957 226.208 112.768C226.449 112.681 226.67 112.547 226.858 112.372C227.046 112.198 227.197 111.988 227.302 111.755C227.407 111.521 227.465 111.269 227.47 111.013C227.476 110.757 227.431 110.502 227.336 110.264C227.696 111.504 229.032 112.352 230.416 112.664C231.819 112.867 233.246 112.837 234.64 112.576C233.952 111.488 234.408 110.128 234.816 108.936C235.224 107.744 235.528 106.296 234.632 105.344C234.31 105.06 233.974 104.793 233.624 104.544C232.97 103.852 232.413 103.074 231.968 102.232C230.088 99.52 226.024 98.352 222.64 99.296C221.019 99.7535 219.547 100.629 218.372 101.835C217.197 103.042 216.359 104.536 215.944 106.168" fill="#263238"/>
<path d="M162.624 76.256C162.476 76.2822 162.326 76.2982 162.176 76.304L160.864 76.4C160.154 76.4458 159.448 76.542 158.752 76.688C158.302 76.7468 157.856 76.8323 157.416 76.944L155.92 77.352C153.372 78.1377 150.968 79.3289 148.8 80.88C145.952 82.9592 143.571 85.6105 141.808 88.664C140.779 90.4301 139.957 92.3092 139.36 94.264C138.735 96.3902 138.375 98.5855 138.288 100.8C138.238 101.966 138.259 103.133 138.352 104.296C138.352 104.88 138.512 105.472 138.584 106.064C138.655 106.666 138.77 107.263 138.928 107.848C139.472 110.303 140.381 112.662 141.624 114.848C144.269 119.591 148.394 123.339 153.368 125.52C155.986 126.647 158.791 127.277 161.64 127.376C164.577 127.534 167.516 127.11 170.288 126.128L171.136 125.824L171.248 125.776L171.344 125.832L183.504 132L183.144 132.312C181.848 128.28 180.592 124.384 179.376 120.624V120.48L179.48 120.376C182.438 117.405 184.633 113.763 185.88 109.76C186.992 106.104 187.306 102.252 186.8 98.464C185.998 92.1528 182.91 86.3547 178.12 82.168C174.968 79.4371 171.152 77.5856 167.056 76.8L165.168 76.48L163.768 76.384L162.912 76.32C162.815 76.3188 162.718 76.3053 162.624 76.28H162.912H163.776L165.176 76.344L167.088 76.624C168.841 76.9553 170.555 77.4701 172.2 78.16C174.386 79.1399 176.429 80.413 178.272 81.944C180.51 83.8655 182.403 86.1543 183.872 88.712C185.599 91.6949 186.729 94.9854 187.2 98.4C187.731 102.252 187.423 106.174 186.296 109.896C185.045 113.974 182.824 117.688 179.824 120.72L179.88 120.464L183.664 132.144L183.856 132.736L183.304 132.456L171.144 126.288H171.352L170.488 126.608C167.666 127.602 164.676 128.034 161.688 127.88C158.772 127.773 155.902 127.125 153.224 125.968C149.54 124.315 146.295 121.824 143.746 118.693C141.197 115.562 139.415 111.878 138.544 107.936C138.386 107.34 138.271 106.733 138.2 106.12C138.128 105.512 138 104.92 137.968 104.312C137.88 103.13 137.864 101.944 137.92 100.76C138.019 98.5117 138.395 96.2842 139.04 94.128C139.654 92.1486 140.497 90.2477 141.552 88.464C143.358 85.3795 145.792 82.7085 148.696 80.624C150.889 79.0767 153.321 77.9009 155.896 77.144L157.408 76.752C157.854 76.6476 158.305 76.5701 158.76 76.52C159.462 76.3828 160.173 76.3025 160.888 76.28L162.208 76.24L162.624 76.256Z" fill="#263238"/>
<path d="M168.12 98.76H166.344L162.456 93.344V89.792C162.456 89.792 159.696 89.624 160.056 94.28C160.416 98.936 160.056 97.744 160.056 97.744C160.056 97.744 154.208 97.744 153.72 98.28C153.368 98.648 153.208 104.456 153.144 107.608C153.105 108.366 153.32 109.114 153.755 109.736C154.189 110.358 154.819 110.817 155.544 111.04C155.75 111.096 155.962 111.126 156.176 111.128C157.632 111.128 165.088 109.936 165.088 109.936H168.16L168.12 98.76Z" fill="#FFC42E"/>
<path d="M173.224 97.784L172.128 109.976H169.072V98.032L173.224 97.784Z" fill="#FFC42E"/>
</svg>
