<svg width="59" height="59" viewBox="0 0 59 59" fill="none" xmlns="http://www.w3.org/2000/svg">
<path d="M24.8855 56.9981C35.8189 57.1467 41.2155 48.5176 42.5472 44.1845C46.1218 36.0134 53.0598 35.4563 55.3726 35.0849C57.2229 34.7878 57.1248 33.2278 56.8444 32.485C53.8167 27.2853 48.4341 28.3995 46.5418 29.8852L42.5469 33.2278C42.0563 33.6612 40.6546 34.3792 38.9725 33.785C37.2905 33.1907 37.1503 31.1851 37.2905 30.2566L39.393 9.45758C39.4631 8.28145 38.9305 5.89205 36.2392 5.74348C33.5479 5.59492 32.4545 7.41483 32.2443 8.34335L30.3519 25.6139L32.2443 5.55778C32.3144 4.50545 31.7396 2.3265 28.8801 2.02937C26.0206 1.73224 24.8852 3.76262 24.675 4.81495L22.5724 26.7282C22.5023 27.2853 21.9837 28.3995 20.4698 28.3995C18.956 28.3995 18.2972 27.2853 18.157 26.7282L13.7416 9.27189C13.3211 8.03386 11.7652 5.74349 8.90565 6.48631C6.04615 7.22914 5.89196 9.6433 6.1723 10.7575L11.4287 29.5138L8.48514 19.6714C8.13483 18.7428 6.80344 17.0715 4.28035 17.8143C1.75726 18.5571 1.82734 20.5999 2.17777 21.5284L4.28035 27.6567C5.75215 31.1851 6.38282 36.7562 6.17256 40.0989C6.00436 42.7731 6.66316 45.1749 7.01359 46.0415C8.41531 49.6318 13.9521 56.8495 24.8855 56.9981Z" stroke="#FFC42E" stroke-width="3"/>
</svg>
