<svg width="400" height="400" viewBox="0 0 400 400" fill="none" xmlns="http://www.w3.org/2000/svg">
<path d="M248.688 200.168L154.192 199.256L125.6 199.12H117.808H115.784C115.555 199.106 115.325 199.106 115.096 199.12C115.323 199.157 115.554 199.173 115.784 199.168L117.808 199.216L125.592 199.312L154.232 199.472L248.728 199.528C285.616 199.528 319.016 199.576 343.192 199.752C355.28 199.84 365.064 199.952 371.824 200.088C375.208 200.152 377.832 200.216 379.608 200.288C380.519 200.268 381.43 200.338 382.328 200.496C381.429 200.641 380.518 200.699 379.608 200.672C377.832 200.72 375.2 200.768 371.824 200.792C365.056 200.856 355.272 200.872 343.184 200.792C318.968 200.84 285.6 200.552 248.688 200.168Z" fill="#EBEBEB"/>
<path d="M247.952 208.496L154.752 192.904L126.48 188.32L118.784 187.128L116.784 186.848C116.557 186.803 116.327 186.779 116.096 186.776C116.315 186.846 116.54 186.897 116.768 186.928L118.76 187.296L126.432 188.6L154.696 193.208L248.04 207.944C284.48 213.664 317.464 218.904 341.32 222.832C353.248 224.8 362.92 226.432 369.552 227.632C372.888 228.224 375.464 228.696 377.216 229.04C378.116 229.169 379.002 229.381 379.864 229.672C378.954 229.678 378.046 229.598 377.152 229.432C375.384 229.2 372.784 228.84 369.44 228.344C362.752 227.352 353.08 225.848 341.144 223.936C317.272 220.088 284.328 214.608 247.952 208.496Z" fill="#EBEBEB"/>
<path d="M245.92 216.6L156.32 186.528L129.12 177.544L121.712 175.144L119.776 174.544C119.556 174.471 119.331 174.413 119.104 174.368C119.309 174.475 119.523 174.563 119.744 174.632L121.656 175.304L129.032 177.808L156.232 186.808L246.088 216.056C281.168 227.44 312.92 237.808 335.864 245.448C347.328 249.264 356.6 252.4 362.992 254.616C366.192 255.72 368.656 256.6 370.328 257.216C371.2 257.481 372.043 257.829 372.848 258.256C371.949 258.119 371.065 257.896 370.208 257.592C368.496 257.088 365.984 256.32 362.76 255.304C356.312 253.272 347 250.264 335.512 246.504C312.544 238.976 280.88 228.368 245.92 216.6Z" fill="#EBEBEB"/>
<path d="M242.64 224.28L158.904 180.488L133.464 167.344L126.52 163.816L124.704 162.928C124.503 162.815 124.291 162.721 124.072 162.648C124.261 162.778 124.459 162.896 124.664 163L126.44 163.968L133.328 167.592L158.76 180.8L242.896 223.832C275.744 240.632 305.472 255.832 326.896 266.984C337.624 272.584 346.288 277.112 352.248 280.304C355.232 281.904 357.536 283.16 359.088 284.032C359.904 284.431 360.68 284.905 361.408 285.448C360.544 285.171 359.708 284.812 358.912 284.376C357.312 283.576 354.912 282.456 351.92 280.944C345.872 277.92 337.144 273.488 326.4 267.952C304.92 256.856 275.312 241.4 242.64 224.28Z" fill="#EBEBEB"/>
<path d="M238.2 231.352L162.336 175.008L139.256 158.048L132.952 153.48L131.296 152.312C131.111 152.176 130.919 152.05 130.72 151.936C130.88 152.103 131.057 152.253 131.248 152.384L132.848 153.616L139.088 158.272L162.144 175.256L238.52 230.904C268.344 252.6 295.32 272.296 314.768 286.664C324.488 293.864 332.368 299.704 337.72 303.784C340.416 305.824 342.52 307.432 343.896 308.536C344.644 309.051 345.339 309.641 345.968 310.296C345.156 309.888 344.384 309.403 343.664 308.848C342.2 307.84 340.048 306.328 337.264 304.36C331.76 300.432 323.84 294.688 314.064 287.56C294.616 273.264 267.792 253.368 238.2 231.352Z" fill="#EBEBEB"/>
<path d="M232.704 237.648L166.528 170.192L146.4 149.848L140.88 144.352L139.424 142.944C139.266 142.776 139.095 142.621 138.912 142.48C139.048 142.666 139.201 142.84 139.368 143L140.76 144.464L146.2 150.064L166.312 170.4C183.424 187.52 207.024 211.152 233.104 237.256C259.184 263.36 282.776 286.976 299.744 304.192C308.232 312.808 315.072 319.8 319.744 324.68C322.088 327.08 323.896 329.016 325.104 330.328C325.761 330.958 326.355 331.649 326.88 332.392C326.14 331.863 325.454 331.263 324.832 330.6C323.536 329.376 321.632 327.552 319.232 325.176C314.432 320.44 307.472 313.536 298.952 304.96C281.92 287.816 258.512 264 232.704 237.648Z" fill="#EBEBEB"/>
<path d="M226.304 243.008L171.424 166.072L154.68 142.872L150.08 136.584L148.864 134.984C148.735 134.791 148.588 134.612 148.424 134.448C148.537 134.651 148.662 134.846 148.8 135.032L149.952 136.696L154.448 143.048L171.2 166.256L226.784 242.68C248.496 272.496 268.12 299.48 282.2 319.176C289.248 329 294.912 336.976 298.784 342.52C300.728 345.288 302.216 347.456 303.208 348.92C303.754 349.644 304.231 350.418 304.632 351.232C303.984 350.595 303.399 349.896 302.888 349.144C301.8 347.736 300.224 345.64 298.208 342.92C294.208 337.488 288.4 329.592 281.32 319.792C267.12 300.224 247.704 273.048 226.304 243.008Z" fill="#EBEBEB"/>
<path d="M219.144 247.304C202.68 214.28 187.776 184.4 176.968 162.736L164.064 137.176L160.504 130.248L159.552 128.456C159.452 128.25 159.337 128.053 159.208 127.864C159.279 128.083 159.37 128.294 159.48 128.496L160.352 130.328C161.152 131.928 162.32 134.328 163.808 137.304L176.696 162.904L219.64 247.088C236.44 279.928 251.584 309.688 262.424 331.304C267.848 342.104 272.2 350.872 275.152 356.952C276.632 359.992 277.768 362.36 278.512 363.976C278.947 364.775 279.298 365.617 279.56 366.488C279.025 365.754 278.559 364.972 278.168 364.152C277.312 362.592 276.08 360.272 274.512 357.272C271.384 351.28 266.912 342.576 261.448 331.792C250.512 310.2 235.576 280.32 219.144 247.304Z" fill="#EBEBEB"/>
<path d="M211.4 250.4C200.328 215.2 190.32 183.344 183.056 160.248C179.376 148.752 176.4 139.448 174.328 132.976C173.28 129.776 172.464 127.296 171.928 125.576C171.648 124.776 171.432 124.12 171.272 123.664C171.206 123.442 171.123 123.225 171.024 123.016C171.058 123.245 171.114 123.47 171.192 123.688L171.768 125.632L174.08 133.064L182.784 160.344L211.952 250.232C223.368 285.304 233.648 317.08 240.96 340.128C244.608 351.648 247.528 360.992 249.488 367.464C250.472 370.664 251.216 373.216 251.704 374.928C252 375.789 252.214 376.675 252.344 377.576C251.922 376.769 251.582 375.922 251.328 375.048C250.728 373.376 249.88 370.888 248.8 367.68C246.656 361.28 243.616 351.968 239.912 340.48C232.48 317.472 222.4 285.6 211.4 250.4Z" fill="#EBEBEB"/>
<path d="M203.256 252.288L189.448 158.8C187.624 146.864 186.152 137.2 185.128 130.496C184.592 127.176 184.176 124.592 183.896 122.808L183.552 120.808C183.521 120.58 183.47 120.355 183.4 120.136C183.407 120.366 183.429 120.596 183.464 120.824C183.528 121.296 183.616 121.968 183.728 122.832C183.992 124.616 184.36 127.208 184.84 130.536C185.864 137.248 187.328 146.912 189.144 158.848C192.904 182.76 198.08 215.752 203.808 252.2C209.536 288.648 214.712 321.6 218.304 345.544C220.096 357.496 221.504 367.184 222.432 373.88C222.888 377.232 223.232 379.832 223.44 381.6C223.598 382.498 223.67 383.409 223.656 384.32C223.373 383.456 223.172 382.566 223.056 381.664C222.728 379.912 222.256 377.328 221.72 373.992C220.608 367.32 219.064 357.656 217.224 345.712C213.52 321.816 208.616 288.8 203.256 252.288Z" fill="#EBEBEB"/>
<path d="M194.92 252.856C195.256 215.952 195.552 182.56 195.776 158.36C195.824 146.28 195.864 136.512 195.896 129.72C195.896 126.36 195.896 123.744 195.896 121.936C195.896 121.064 195.896 120.392 195.896 119.912C195.905 119.679 195.892 119.446 195.856 119.216C195.831 119.447 195.817 119.679 195.816 119.912C195.816 120.392 195.816 121.064 195.768 121.936C195.768 123.744 195.712 126.36 195.672 129.72C195.672 136.504 195.592 146.28 195.536 158.36V252.856C195.536 289.736 195.536 323.136 195.368 347.312C195.288 359.408 195.184 369.192 195.056 375.952C194.992 379.328 194.928 381.952 194.856 383.736C194.875 384.644 194.808 385.552 194.656 386.448C194.506 385.552 194.444 384.644 194.472 383.736C194.424 381.952 194.376 379.328 194.344 375.944C194.28 369.184 194.264 359.4 194.288 347.312C194.288 323.128 194.56 289.736 194.92 252.856Z" fill="#EBEBEB"/>
<path d="M186.592 252.12C192.656 215.72 198.144 182.784 202.128 158.912C204.048 146.992 205.608 137.312 206.696 130.64C207.208 127.312 207.6 124.728 207.88 122.944C208 122.08 208.096 121.416 208.16 120.936C208.206 120.709 208.23 120.479 208.232 120.248C208.158 120.466 208.107 120.691 208.08 120.92L207.712 122.92C207.416 124.696 206.976 127.28 206.408 130.592C205.32 137.296 203.76 146.944 201.824 158.856C198.064 182.768 192.88 215.76 187.144 252.216C181.408 288.672 176.232 321.64 172.312 345.504C170.352 357.432 168.728 367.104 167.552 373.736C166.96 377.064 166.488 379.648 166.144 381.4C166.019 382.3 165.81 383.187 165.52 384.048C165.508 383.138 165.589 382.23 165.76 381.336C165.984 379.568 166.344 376.968 166.84 373.624C167.824 366.936 169.32 357.264 171.232 345.328C175.04 321.448 180.504 288.496 186.592 252.12Z" fill="#EBEBEB"/>
<path d="M178.488 250.096L208.504 160.496C212.288 149.024 215.344 139.744 217.464 133.296C218.496 130.096 219.296 127.6 219.864 125.88L220.464 123.944C220.541 123.729 220.598 123.506 220.632 123.28C220.533 123.488 220.447 123.701 220.376 123.92L219.704 125.832C219.128 127.544 218.288 130.016 217.208 133.2C215.08 139.648 212.016 148.928 208.224 160.4L179.016 250.272C167.656 285.36 157.312 317.12 149.68 340.064C145.872 351.536 142.744 360.808 140.528 367.2C139.424 370.4 138.552 372.872 137.936 374.536C137.673 375.408 137.325 376.252 136.896 377.056C137.045 376.15 137.281 375.261 137.6 374.4C138.096 372.688 138.864 370.176 139.88 366.952C141.904 360.504 144.912 351.192 148.68 339.696C156.152 316.736 166.744 285.056 178.488 250.096Z" fill="#EBEBEB"/>
<path d="M170.8 246.824C187.88 214.112 203.344 184.512 214.544 163.056L227.672 137.6L231.192 130.648L232.088 128.832C232.194 128.627 232.287 128.416 232.368 128.2C232.231 128.387 232.111 128.585 232.008 128.792L231.048 130.576C230.208 132.176 228.984 134.488 227.424 137.464L214.272 162.904L171.296 247.064C154.544 279.928 139.296 309.664 128.192 331.12C122.592 341.848 118.072 350.512 114.888 356.48C113.288 359.464 112.04 361.768 111.168 363.32C110.768 364.137 110.294 364.917 109.752 365.648C110.026 364.78 110.385 363.941 110.824 363.144C111.624 361.544 112.744 359.144 114.248 356.152C117.272 350.096 121.704 341.376 127.224 330.624C138.272 309.12 153.704 279.504 170.8 246.824Z" fill="#EBEBEB"/>
<path d="M163.728 242.4L220 166.48L236.952 143.4C238.92 140.672 240.448 138.552 241.512 137.088L242.68 135.432C242.816 135.247 242.942 135.055 243.056 134.856C242.889 135.016 242.739 135.193 242.608 135.384C242.32 135.768 241.912 136.296 241.376 136.984L236.72 143.224L219.76 166.296C205.512 185.864 185.864 212.864 164.152 242.704C142.44 272.544 122.8 299.504 108.44 318.984C101.24 328.712 95.416 336.584 91.336 341.952C89.296 344.648 87.696 346.752 86.592 348.128C86.0706 348.872 85.4814 349.565 84.832 350.2C85.2361 349.385 85.7212 348.613 86.28 347.896C87.288 346.432 88.792 344.28 90.76 341.496C94.68 335.992 100.424 328.064 107.56 318.296C121.856 298.832 141.736 272 163.728 242.4Z" fill="#EBEBEB"/>
<path d="M157.432 236.896L224.848 170.672L245.184 150.504L250.672 144.984L252.08 143.528C252.248 143.372 252.4 143.201 252.536 143.016C252.354 143.155 252.183 143.307 252.024 143.472L250.552 144.872L244.952 150.304L224.608 170.464L157.792 237.288C131.736 263.392 108.104 286.992 90.896 303.976C82.288 312.472 75.296 319.312 70.424 323.976C68.024 326.328 66.088 328.136 64.776 329.344C64.1464 330.001 63.4553 330.595 62.712 331.12C63.2441 330.383 63.8441 329.697 64.504 329.072C65.728 327.776 67.552 325.872 69.92 323.472C74.656 318.672 81.56 311.712 90.128 303.176C107.296 286.144 131.104 262.72 157.432 236.896Z" fill="#EBEBEB"/>
<path d="M152.072 230.496L228.968 175.568L252.168 158.768L258.448 154.168L260.048 152.952C260.235 152.819 260.412 152.672 260.576 152.512C260.371 152.618 260.176 152.741 259.992 152.88L258.4 154.072L252 158.576L228.8 175.32L152.408 230.944C122.608 252.68 95.608 272.32 75.952 286.416C66.136 293.472 58.16 299.144 52.616 303.016C49.848 304.952 47.688 306.448 46.216 307.44C45.4912 307.992 44.7142 308.471 43.896 308.872C44.533 308.223 45.2324 307.639 45.984 307.128C47.392 306.032 49.496 304.456 52.208 302.432C57.632 298.432 65.536 292.624 75.32 285.536C94.88 271.344 122.04 251.912 152.072 230.496Z" fill="#EBEBEB"/>
<path d="M147.768 223.336L232.304 181.112L257.864 168.192L264.784 164.624L266.576 163.672C266.782 163.572 266.979 163.457 267.168 163.328C266.95 163.4 266.739 163.491 266.536 163.6L264.712 164.48L257.736 167.936L232.136 180.84L148 223.84C115.2 240.64 85.4161 255.84 63.8161 266.672C53.0161 272.104 44.2481 276.456 38.1681 279.416C35.1281 280.904 32.7601 282.032 31.1441 282.784C30.3431 283.215 29.5017 283.566 28.6321 283.832C29.3722 283.286 30.1593 282.807 30.9841 282.4C32.5841 281.544 34.8641 280.312 37.8641 278.744C43.8561 275.608 52.5601 271.136 63.3361 265.664C84.8961 254.744 114.76 239.792 147.768 223.336Z" fill="#EBEBEB"/>
<path d="M144.64 215.592L234.776 187.2L262.04 178.464L269.44 176.064L271.352 175.408C271.575 175.342 271.792 175.257 272 175.152C271.773 175.197 271.548 175.255 271.328 175.328L269.392 175.904L261.952 178.216L234.68 186.936L144.8 216.128C109.736 227.56 77.968 237.864 54.928 245.184C43.4 248.848 34.064 251.768 27.592 253.736C24.392 254.72 21.84 255.472 20.128 255.952C19.2706 256.259 18.3829 256.473 17.48 256.592C18.2874 256.18 19.1309 255.842 20 255.584C21.68 254.984 24.16 254.128 27.368 253.048C33.768 250.896 43.072 247.848 54.568 244.136C77.6 236.712 109.456 226.656 144.64 215.592Z" fill="#EBEBEB"/>
<path d="M142.776 207.456L236.248 193.6L264.56 189.256L272.24 188.016L274.24 187.672C274.467 187.64 274.692 187.592 274.912 187.528C274.681 187.524 274.451 187.542 274.224 187.584L272.216 187.856L264.512 188.968L236.208 193.296L142.856 208C106.4 213.776 73.4321 218.952 49.5281 222.56C37.5761 224.36 27.9281 225.76 21.1921 226.704C17.8401 227.168 15.2401 227.504 13.4721 227.72C12.5743 227.878 11.6635 227.951 10.7521 227.936C11.617 227.654 12.5061 227.453 13.4081 227.336C15.1601 227.008 17.7441 226.536 21.0801 225.992C27.7521 224.872 37.4161 223.328 49.3601 221.48C73.2561 217.768 106.288 212.84 142.776 207.456Z" fill="#EBEBEB"/>
<path d="M142.2 199.12L236.696 199.92L265.336 200.024H273.12H275.144C275.376 200.041 275.608 200.041 275.84 200.024C275.61 199.987 275.377 199.971 275.144 199.976L273.12 199.936L265.336 199.848L236.696 199.728L142.2 199.784C105.32 199.832 71.92 199.824 47.744 199.672C35.648 199.6 25.864 199.504 19.104 199.376C15.728 199.32 13.096 199.256 11.32 199.184C10.4117 199.204 9.50363 199.137 8.60803 198.984C9.50439 198.839 10.4123 198.777 11.32 198.8C13.104 198.752 15.728 198.704 19.112 198.672C25.872 198.6 35.656 198.576 47.744 198.592C71.92 198.528 105.32 198.784 142.2 199.12Z" fill="#EBEBEB"/>
<path d="M142.928 190.792L236.152 206.264L264.424 210.816L272.12 211.992L274.128 212.28C274.355 212.321 274.585 212.343 274.816 212.344C274.594 212.276 274.366 212.225 274.136 212.192L272.144 211.832L264.472 210.528L236.2 205.96L142.84 191.344C106.392 185.664 73.4001 180.472 49.5441 176.568C37.6081 174.624 27.9441 173 21.2961 171.824C17.9681 171.24 15.3841 170.768 13.6401 170.424C12.7393 170.302 11.8525 170.093 10.9921 169.8C11.9018 169.788 12.8105 169.869 13.7041 170.04C15.4721 170.264 18.0721 170.624 21.4161 171.112C28.1041 172.096 37.7761 173.592 49.7121 175.488C73.6001 179.288 106.544 184.728 142.928 190.792Z" fill="#EBEBEB"/>
<path d="M144.952 182.68L234.552 212.648L261.752 221.592L269.168 223.992L271.104 224.584C271.32 224.661 271.542 224.72 271.768 224.76C271.564 224.652 271.35 224.566 271.128 224.504L269.216 223.832L261.84 221.336L234.64 212.368L144.8 183.2C109.704 171.856 77.936 161.536 54.992 153.92C43.512 150.12 34.24 146.992 27.848 144.784C24.648 143.68 22.176 142.808 20.504 142.192C19.6338 141.927 18.7902 141.581 17.984 141.16C18.8837 141.29 19.7681 141.51 20.624 141.816C22.336 142.32 24.848 143.088 28.072 144.096C34.528 146.12 43.84 149.112 55.336 152.896C78.296 160.392 109.976 170.96 144.952 182.68Z" fill="#EBEBEB"/>
<path d="M148.216 175L232 218.688L257.456 231.8L264.4 235.312L266.224 236.208C266.429 236.314 266.64 236.407 266.856 236.488C266.666 236.353 266.465 236.233 266.256 236.128L264.48 235.168L257.6 231.544L232.152 218.4L148 175.488C115.128 158.76 85.3841 143.568 63.9201 132.44C53.1841 126.84 44.5121 122.336 38.5521 119.152C35.5681 117.552 33.2561 116.304 31.7041 115.44C30.8881 115.037 30.1091 114.563 29.3761 114.024C30.2459 114.293 31.0851 114.652 31.8801 115.096C33.4801 115.856 35.8801 117.008 38.8801 118.52C44.9281 121.528 53.6561 125.952 64.4161 131.472C85.8961 142.504 115.528 157.92 148.216 175Z" fill="#EBEBEB"/>
<path d="M152.656 167.92L228.592 224.168L251.68 241.104L258 245.656L259.648 246.824C259.832 246.965 260.027 247.091 260.232 247.2C260.068 247.04 259.891 246.893 259.704 246.76L258.104 245.528L251.856 240.872L228.8 223.928L152.36 168.368C122.504 146.712 95.504 127.056 76.04 112.704C66.304 105.504 58.44 99.696 53.064 95.616C50.368 93.576 48.264 91.976 46.88 90.872C46.1318 90.3567 45.4376 89.767 44.808 89.112C45.6204 89.5201 46.3919 90.005 47.112 90.56C48.584 91.568 50.736 93.072 53.512 95.04C59.016 98.96 66.944 104.696 76.712 111.84C96.176 126.088 123.032 145.944 152.656 167.92Z" fill="#EBEBEB"/>
<path d="M158.136 161.6L224.4 228.968L244.576 249.288L250.104 254.776L251.56 256.184C251.72 256.353 251.894 256.509 252.08 256.648C251.946 256.46 251.793 256.286 251.624 256.128L250.224 254.664L244.776 249.064L224.616 228.8L157.744 162.032C131.624 136 108 112.36 91.0161 95.2C82.5121 86.6 75.6721 79.608 71.0161 74.736C68.6641 72.336 66.8561 70.4 65.6481 69.096C64.9885 68.4691 64.3935 67.7777 63.8721 67.032C64.5942 67.5584 65.2664 68.1503 65.8801 68.8C67.1761 70.024 69.0801 71.848 71.4801 74.208C76.2801 78.944 83.2481 85.84 91.7841 94.408C108.856 111.512 132.296 135.304 158.136 161.6Z" fill="#EBEBEB"/>
<path d="M164.536 156.256L219.512 233.112L236.312 256.312L240.92 262.584L242.136 264.184C242.268 264.374 242.415 264.554 242.576 264.72C242.473 264.514 242.349 264.318 242.208 264.136L241.056 262.472L236.544 256.128L219.784 232.928C205.528 213.368 185.856 186.384 164.112 156.568C142.368 126.752 122.704 99.768 108.592 80.152C101.504 70.344 95.832 62.4 91.952 56.8C90.008 54.032 88.512 51.872 87.52 50.4C86.9755 49.673 86.4963 48.8993 86.088 48.088C86.7381 48.7258 87.3248 49.4251 87.84 50.176C88.928 51.576 90.512 53.672 92.528 56.392C96.528 61.816 102.344 69.704 109.448 79.496C123.648 99.088 143.096 126.24 164.536 156.256Z" fill="#EBEBEB"/>
<path d="M171.688 151.944C188.2 184.952 203.136 214.816 213.968 236.456L226.904 262.008L230.48 268.928L231.424 270.712C231.526 270.921 231.643 271.121 231.776 271.312C231.705 271.093 231.614 270.882 231.504 270.68C231.296 270.24 231 269.64 230.624 268.848L227.2 261.88C224.144 255.816 219.728 247.096 214.28 236.28L171.2 152.2C154.4 119.4 139.2 89.632 128.304 68.04C122.872 57.24 118.512 48.48 115.504 42.44C114.024 39.4 112.888 37.032 112.136 35.416C111.704 34.6186 111.352 33.7797 111.088 32.912C111.635 33.6288 112.114 34.3948 112.52 35.2C113.376 36.8 114.608 39.08 116.176 42.08C119.32 48.064 123.792 56.768 129.28 67.544C140.24 89.088 155.2 118.952 171.688 151.944Z" fill="#EBEBEB"/>
<path d="M179.424 148.8C190.544 184 200.6 215.832 207.888 238.912C211.576 250.408 214.568 259.712 216.648 266.176C217.696 269.376 218.52 271.856 219.048 273.576C219.336 274.376 219.552 275.032 219.704 275.488C219.766 275.71 219.852 275.924 219.96 276.128C219.92 275.903 219.863 275.681 219.792 275.464C219.648 275 219.456 274.36 219.208 273.52L216.888 266.088C214.816 259.624 211.832 250.32 208.152 238.816C200.648 215.808 190.304 184.056 178.864 148.968C167.424 113.88 157.08 82.152 149.752 59.112C146.08 47.592 143.152 38.256 141.176 31.784C140.192 28.584 139.44 26.032 138.96 24.32C138.66 23.4627 138.443 22.5787 138.312 21.68C138.733 22.4842 139.074 23.3284 139.328 24.2C139.936 25.88 140.784 28.36 141.864 31.568C144.024 37.968 147.08 47.272 150.792 58.768C158.264 81.8 168.352 113.64 179.424 148.8Z" fill="#EBEBEB"/>
<path d="M187.568 146.944C193.008 183.44 197.928 216.472 201.496 240.408C203.328 252.344 204.824 262.008 205.856 268.712L207.096 276.4C207.248 277.264 207.36 277.92 207.44 278.4C207.472 278.628 207.523 278.853 207.592 279.072C207.585 278.842 207.563 278.612 207.528 278.384C207.464 277.904 207.376 277.24 207.256 276.376C207 274.584 206.624 272 206.136 268.672C205.104 261.96 203.624 252.296 201.8 240.368C198.008 216.456 192.792 183.472 187.016 147.032C181.24 110.592 176 77.6 172.408 53.704C170.592 41.752 169.208 32.104 168.24 25.376C167.776 22.024 167.44 19.424 167.224 17.648C167.061 16.7534 166.986 15.8451 167 14.936C167.289 15.7994 167.492 16.6889 167.608 17.592C167.936 19.344 168.408 21.928 168.952 25.264C170.072 31.936 171.624 41.592 173.488 53.536C177.216 77.432 182.16 110.456 187.568 146.944Z" fill="#EBEBEB"/>
<path d="M195.904 146.4C195.616 183.296 195.36 216.688 195.168 240.896C195.168 252.968 195.104 262.744 195.088 269.536C195.088 272.896 195.088 275.512 195.088 277.32C195.088 278.192 195.088 278.864 195.088 279.344C195.074 279.573 195.074 279.803 195.088 280.032C195.125 279.805 195.141 279.574 195.136 279.344C195.136 278.864 195.136 278.192 195.176 277.32C195.176 275.512 195.224 272.896 195.264 269.536C195.264 262.744 195.32 252.968 195.368 240.896C195.368 216.688 195.296 183.296 195.248 146.4C195.2 109.504 195.16 76.112 195.296 51.936C195.36 39.848 195.456 30.064 195.576 23.304C195.632 19.92 195.696 17.296 195.76 15.512C195.741 14.6037 195.808 13.6957 195.96 12.8C196.111 13.6984 196.172 14.6095 196.144 15.52C196.2 17.296 196.248 19.92 196.28 23.304C196.352 30.064 196.392 39.848 196.376 51.944C196.448 76.088 196.216 109.488 195.904 146.4Z" fill="#EBEBEB"/>
<path d="M204.232 147.088C198.208 183.496 192.8 216.44 188.8 240.32C186.888 252.24 185.344 261.92 184.272 268.6C183.76 271.92 183.368 274.504 183.096 276.296C182.976 277.16 182.88 277.824 182.816 278.296C182.776 278.523 182.752 278.753 182.744 278.984C182.819 278.766 182.87 278.541 182.896 278.312C182.987 277.843 183.107 277.179 183.256 276.32C183.56 274.536 183.992 271.96 184.552 268.64C185.632 261.944 187.184 252.288 189.104 240.368C192.832 216.456 197.976 183.456 203.664 147C209.352 110.544 214.504 77.552 218.4 53.688C220.344 41.76 221.96 32.088 223.128 25.448C223.712 22.12 224.184 19.536 224.52 17.784C224.645 16.8838 224.854 15.9973 225.144 15.136C225.157 16.0454 225.079 16.9539 224.912 17.848C224.688 19.616 224.328 22.216 223.84 25.56C222.864 32.256 221.376 41.92 219.48 53.864C215.696 77.744 210.272 110.704 204.232 147.088Z" fill="#EBEBEB"/>
<path d="M212.344 149.104C200.664 184.104 190.096 215.784 182.44 238.744C178.672 250.216 175.624 259.504 173.512 265.944C172.488 269.144 171.688 271.64 171.112 273.36C170.856 274.2 170.664 274.84 170.52 275.296C170.447 275.516 170.389 275.741 170.344 275.968C170.45 275.764 170.536 275.549 170.6 275.328L171.272 273.416L173.76 266.04L182.712 238.84L211.784 148.928C223.104 113.824 233.384 82.056 241.008 59.096C244.8 47.624 247.92 38.344 250.12 31.952C251.224 28.752 252.096 26.28 252.712 24.608C252.97 23.7355 253.316 22.8912 253.744 22.088C253.612 22.9881 253.389 23.8725 253.08 24.728C252.584 26.44 251.824 28.952 250.808 32.176C248.792 38.632 245.808 47.952 242.056 59.448C234.584 82.4 224.04 114.128 212.344 149.104Z" fill="#EBEBEB"/>
<path d="M220 152.368L176.392 236.192L163.296 261.656L159.784 268.608L158.896 270.4C158.788 270.604 158.694 270.815 158.616 271.032C158.754 270.848 158.872 270.649 158.968 270.44L159.936 268.656C160.736 267.056 161.984 264.736 163.552 261.76L176.664 236.304C187.648 214.704 202.792 184.976 219.536 152.088C236.28 119.2 251.416 89.48 262.528 68C268.088 57.264 272.624 48.592 275.8 42.624C277.4 39.64 278.648 37.328 279.512 35.776C279.906 34.9551 280.38 34.1753 280.928 33.448C280.652 34.3308 280.294 35.1853 279.856 36C279.096 37.6 277.944 40 276.44 43C273.432 49.056 269.008 57.784 263.496 68.544C252.48 90.024 237.08 119.664 220 152.368Z" fill="#EBEBEB"/>
<path d="M227.112 156.8L170.904 232.8L153.992 255.904L149.44 262.224L148.272 263.88C148.136 264.065 148.01 264.257 147.896 264.456C148.062 264.297 148.209 264.12 148.336 263.928L149.568 262.328L154.216 256.08C158.216 250.608 164.016 242.728 171.152 232.984L226.656 156.512C248.296 126.64 267.936 99.624 282.272 80.16C289.472 70.416 295.272 62.56 299.352 57.168C301.384 54.472 302.984 52.368 304.088 50.984C304.603 50.2358 305.193 49.5416 305.848 48.912C305.439 49.7189 304.954 50.485 304.4 51.2C303.392 52.672 301.888 54.824 299.928 57.6C296.008 63.112 290.28 71.04 283.128 80.8C268.904 100.296 249.064 127.2 227.112 156.8Z" fill="#EBEBEB"/>
<path d="M233.408 162.28L166.08 228.584L145.768 248.8C143.368 251.2 141.56 253.048 140.288 254.328C139.688 254.96 139.216 255.44 138.88 255.784C138.714 255.944 138.561 256.118 138.424 256.304C138.608 256.164 138.782 256.012 138.944 255.848L140.408 254.448L146.008 249L166.288 228.8L233.016 161.88C259.04 135.744 282.616 112.112 299.832 95.112C308.424 86.608 315.408 79.752 320.28 75.056C322.68 72.712 324.608 70.896 325.88 69.688C326.527 69.0278 327.237 68.4329 328 67.912C327.471 68.6516 326.871 69.3376 326.208 69.96C324.992 71.256 323.168 73.16 320.808 75.56C316.072 80.36 309.184 87.336 300.624 95.872C283.488 112.968 259.712 136.416 233.408 162.28Z" fill="#EBEBEB"/>
<path d="M238.784 168.672L161.984 223.696L138.784 240.496L132.504 245.112L130.904 246.328C130.713 246.459 130.534 246.607 130.368 246.768C130.572 246.661 130.767 246.538 130.952 246.4L132.616 245.24L138.96 240.728L162.16 223.928C181.704 209.648 208.68 189.96 238.48 168.2C268.28 146.44 295.24 126.76 314.864 112.632C324.656 105.6 332.624 99.904 338.16 96C340.928 94.056 343.088 92.56 344.56 91.568C345.285 91.0161 346.062 90.5365 346.88 90.136C346.243 90.7845 345.544 91.3687 344.792 91.88C343.384 92.976 341.288 94.56 338.576 96.576C333.152 100.576 325.264 106.408 315.48 113.512C295.92 127.744 268.8 147.2 238.784 168.672Z" fill="#EBEBEB"/>
<path d="M243.096 175.824L158.608 218.152L133.072 231.112L126.152 234.688L124.368 235.64C124.16 235.739 123.959 235.854 123.768 235.984C123.987 235.913 124.198 235.822 124.4 235.712L126.224 234.832L133.2 231.368L158.744 218.4L242.84 175.288C275.64 158.44 305.384 143.232 326.976 132.344C337.768 126.904 346.528 122.536 352.576 119.544C355.616 118.056 357.984 116.92 359.6 116.168C360.401 115.737 361.242 115.386 362.112 115.12C361.376 115.654 360.594 116.122 359.776 116.52C358.216 117.376 355.896 118.616 352.904 120.184C346.92 123.328 338.216 127.816 327.448 133.296C305.928 144.336 276.08 159.32 243.096 175.824Z" fill="#EBEBEB"/>
<path d="M246.232 183.56L156.136 212.072L128.88 220.872L121.48 223.312L119.568 223.968C119.346 224.03 119.132 224.116 118.928 224.224C119.152 224.177 119.374 224.119 119.592 224.048L121.536 223.472L128.968 221.144L156.232 212.344L246.056 183.008C281.112 171.528 312.864 161.184 335.904 153.832C347.416 150.152 356.752 147.224 363.216 145.24C366.456 144.256 368.968 143.504 370.68 143.016C371.537 142.709 372.425 142.495 373.328 142.376C372.518 142.792 371.672 143.132 370.8 143.392C369.128 143.992 366.64 144.848 363.44 145.928C357.04 148.096 347.736 151.152 336.24 154.88C313.232 162.352 281.4 172.456 246.232 183.56Z" fill="#EBEBEB"/>
<path d="M248.104 191.696L154.648 205.688L126.352 210.064L118.664 211.312L116.664 211.656C116.436 211.688 116.212 211.739 115.992 211.808C116.222 211.801 116.452 211.779 116.68 211.744L118.688 211.472L126.392 210.344L154.696 205.984L248 191.144C284.416 185.328 317.408 180.112 341.312 176.472C353.264 174.656 362.912 173.232 369.64 172.296C372.992 171.824 375.592 171.496 377.36 171.272C378.255 171.11 379.163 171.035 380.072 171.048C379.21 171.333 378.324 171.536 377.424 171.656C375.672 171.984 373.088 172.456 369.752 173.008C363.08 174.128 353.424 175.688 341.48 177.56C317.6 181.296 284.584 186.272 248.104 191.696Z" fill="#EBEBEB"/>
<path d="M285.96 57.888L286.8 59.28C287.741 60.8473 289.113 62.1109 290.752 62.92L292.216 63.64L290.816 64.44C289.257 65.4021 288.004 66.7863 287.2 68.432L286.48 69.896L285.6 68.496C284.659 66.9333 283.291 65.6729 281.656 64.864L280.192 64.136L281.584 63.336C283.151 62.398 284.414 61.0288 285.224 59.392L285.96 57.888Z" fill="#E0E0E0"/>
<path d="M284.224 221.512L284.736 222.368C285.308 223.323 286.14 224.094 287.136 224.592L288.032 225.032L287.176 225.552C286.219 226.122 285.447 226.955 284.952 227.952L284.512 228.84L284 228C283.429 227.043 282.596 226.268 281.6 225.768L280.712 225.328L281.56 224.816C282.517 224.245 283.291 223.412 283.792 222.416L284.224 221.512Z" fill="#E0E0E0"/>
<path d="M367.536 311.696L368.048 312.544C368.617 313.501 369.451 314.273 370.448 314.768L371.336 315.216L370.488 315.728C369.533 316.3 368.762 317.132 368.264 318.128L367.816 319.024L367.304 318.168C366.732 317.213 365.9 316.441 364.904 315.944L364.016 315.496L364.864 314.984C365.819 314.412 366.591 313.58 367.088 312.584L367.536 311.696Z" fill="#E0E0E0"/>
<path d="M44.84 268L45.352 268.848C45.9237 269.803 46.7564 270.575 47.752 271.072L48.64 271.52L47.792 272.032C46.8351 272.601 46.0629 273.435 45.568 274.432L45.12 275.32L44.608 274.472C44.0363 273.517 43.2036 272.746 42.208 272.248L41.312 271.8L42.168 271.288C43.1229 270.716 43.8945 269.884 44.392 268.888L44.84 268Z" fill="#E0E0E0"/>
<path d="M145.312 29.528L145.824 30.384C146.398 31.3372 147.23 32.1083 148.224 32.608L149.112 33.048L148.264 33.56C147.309 34.1318 146.537 34.9644 146.04 35.96L145.6 36.872L145.096 36C144.522 35.0468 143.69 34.2757 142.696 33.776L141.808 33.336L142.656 32.824C143.611 32.2523 144.382 31.4196 144.88 30.424L145.312 29.528Z" fill="#E0E0E0"/>
<path d="M63.2001 37.912L63.7121 38.768C64.2838 39.7229 65.1165 40.4945 66.1121 40.992L67.0081 41.44L66.1521 41.952C65.1989 42.5258 64.4278 43.3579 63.9281 44.352L63.4881 45.24L62.9761 44.392C62.4068 43.4351 61.5734 42.6629 60.5761 42.168L59.6801 41.72L60.5361 41.208C61.4909 40.6363 62.2626 39.8036 62.7601 38.808L63.2001 37.912Z" fill="#E0E0E0"/>
<path d="M101.504 121.248L102.016 122.096C102.587 123.053 103.42 123.828 104.416 124.328L105.312 124.768L104.456 125.28C103.501 125.852 102.73 126.684 102.232 127.68L101.784 128.576L101.272 127.72C100.7 126.765 99.8676 125.993 98.872 125.496L97.984 125.056L98.832 124.536C99.7886 123.966 100.561 123.133 101.056 122.136L101.504 121.248Z" fill="#E0E0E0"/>
<path d="M291.664 144.544L292.184 145.392C292.753 146.351 293.586 147.126 294.584 147.624L295.472 148.064L294.624 148.576C293.667 149.147 292.892 149.98 292.392 150.976L291.952 151.872L291.44 151.016C290.868 150.061 290.036 149.289 289.04 148.792L288.144 148.352L289 147.832C289.957 147.262 290.729 146.429 291.224 145.432L291.664 144.544Z" fill="#E0E0E0"/>
<path d="M284.224 313.752L284.736 314.608C285.308 315.563 286.141 316.335 287.136 316.832L288.032 317.272L287.176 317.792C286.22 318.362 285.447 319.195 284.952 320.192L284.512 321.08L283.992 320.232C283.421 319.275 282.588 318.5 281.592 318L280.704 317.56L281.552 317.048C282.509 316.477 283.284 315.644 283.784 314.648L284.224 313.752Z" fill="#E0E0E0"/>
<path d="M136.312 64.32L137.344 66.04C138.508 67.9719 140.202 69.5295 142.224 70.528L144 71.424L142.28 72.456C140.344 73.6154 138.786 75.3102 137.792 77.336L136.896 79.136L135.864 77.408C134.698 75.4778 133.005 73.9207 130.984 72.92L129.208 72L130.928 70.96C132.864 69.8018 134.425 68.1103 135.424 66.088L136.312 64.32Z" fill="#E0E0E0"/>
<path d="M360 55.752L361.032 57.472C362.193 59.4057 363.883 60.9661 365.904 61.968L367.712 62.856L365.984 63.888C364.054 65.0541 362.497 66.7471 361.496 68.768L360.608 70.568L359.568 68.848C358.411 66.9129 356.719 65.3541 354.696 64.36L352.896 63.464L354.592 62.4C356.524 61.236 358.082 59.5424 359.08 57.52L360 55.752Z" fill="#E0E0E0"/>
<path d="M265.024 28.904L265.624 29.896C266.295 31.0217 267.279 31.9279 268.456 32.504L269.504 33.024L268.504 33.624C267.378 34.2949 266.472 35.2789 265.896 36.456L265.376 37.504L264.8 36.504C264.129 35.3782 263.145 34.4721 261.968 33.896L260.928 33.376L261.92 32.776C263.046 32.1051 263.952 31.1211 264.528 29.944L265.024 28.904Z" fill="#E0E0E0"/>
<path d="M60 232.224L60.904 233.728C61.9212 235.42 63.4043 236.784 65.176 237.656L66.776 238.456L65.264 239.36C63.5733 240.379 62.2101 241.862 61.336 243.632L60.536 245.232L59.632 243.72C58.6148 242.028 57.1317 240.664 55.36 239.792L53.76 238.992L55.272 238.08C56.9647 237.06 58.3283 235.574 59.2 233.8L60 232.224Z" fill="#E0E0E0"/>
<path d="M323.336 319.632L324.24 321.144C325.257 322.836 326.74 324.2 328.512 325.072L330.112 325.872L328.6 326.776C326.907 327.793 325.544 329.276 324.672 331.048L323.872 332.648L322.968 331.136C321.951 329.444 320.468 328.08 318.696 327.208L317.096 326.408L318.608 325.504C320.3 324.487 321.664 323.004 322.536 321.232L323.336 319.632Z" fill="#E0E0E0"/>
<path d="M382.048 382.576C382.048 382.688 300.536 382.784 200.008 382.784C99.48 382.784 17.952 382.688 17.952 382.576C17.952 382.464 99.448 382.4 200 382.4C300.552 382.4 382.048 382.456 382.048 382.576Z" fill="#263238"/>
<path d="M260.104 348.64L259.144 347.184L142.592 343.216L127.688 382.536L267.2 382.368L260.104 348.64Z" fill="#FFC42E"/>
<path opacity="0.3" d="M260.104 348.64L259.144 347.184L142.592 343.216L127.688 382.536L267.2 382.368L260.104 348.64Z" fill="black"/>
<path d="M316 241.144C315.945 240.3 315.689 239.482 315.253 238.757C314.817 238.032 314.215 237.421 313.496 236.976C291.184 222.216 274.376 189.496 272.696 161.776C272.653 160.176 272.605 158.576 272.552 156.976C271.264 117.376 265.432 69.344 260.192 56.536C250.52 32.888 217.792 30.664 217.792 30.664C174.312 27.552 166.592 60.968 162.16 91.4C159.432 110.32 148.912 177.92 148.912 177.92L156.912 181.008C166.328 208.912 187.528 231.472 215.088 241.808C223.088 244.832 229.888 246.04 233.072 243.448C245.787 256.353 261.508 265.898 278.824 271.224C285.848 273.36 293.224 274.784 300.52 274.104C305.264 273.656 310.264 272.088 313.096 268.256C314.321 266.592 315.049 264.614 315.195 262.553C315.34 260.492 314.897 258.431 313.917 256.612C312.938 254.793 311.461 253.289 309.66 252.275C307.859 251.262 305.808 250.781 303.744 250.888C305.352 245.6 316.192 247.2 316 241.144Z" fill="#FFC42E"/>
<g opacity="0.3">
<path opacity="0.3" d="M316 241.144C315.945 240.3 315.689 239.482 315.253 238.757C314.817 238.032 314.215 237.421 313.496 236.976C291.184 222.216 274.376 189.496 272.696 161.776C272.653 160.176 272.605 158.576 272.552 156.976C271.264 117.376 265.432 69.344 260.192 56.536C250.52 32.888 217.792 30.664 217.792 30.664C174.312 27.552 166.592 60.968 162.16 91.4C159.432 110.32 148.912 177.92 148.912 177.92L156.912 181.008C166.328 208.912 187.528 231.472 215.088 241.808C223.088 244.832 229.888 246.04 233.072 243.448C245.787 256.353 261.508 265.898 278.824 271.224C285.848 273.36 293.224 274.784 300.52 274.104C305.264 273.656 310.264 272.088 313.096 268.256C314.321 266.592 315.049 264.614 315.195 262.553C315.34 260.492 314.897 258.431 313.917 256.612C312.938 254.793 311.461 253.289 309.66 252.275C307.859 251.262 305.808 250.781 303.744 250.888C305.352 245.6 316.192 247.2 316 241.144Z" fill="black"/>
</g>
<path d="M223.552 42.976L220.8 40.376L191.432 52.224C189.381 52.339 187.447 53.2185 186.012 54.689C184.577 56.1595 183.745 58.1143 183.68 60.168L183.944 155.952C183.904 162.448 185.208 168.072 189.128 173.248L193.256 178.696C202.672 191.128 222.056 190.104 229.488 176.408C229.939 175.632 230.288 174.801 230.528 173.936C230.71 173.229 230.854 172.514 230.96 171.792C231.84 164.088 231.888 157.392 231.888 157.392C232.408 148.936 232.584 145.464 232.584 145.544C232.584 145.624 250.592 143.472 255.456 120.36C257.856 108.864 257.424 93.056 256.744 77.496C255.8 56 240.864 42.952 223.552 42.976Z" fill="#FFC42E"/>
<g opacity="0.3">
<path opacity="0.3" d="M217.52 90.4C217.491 91.1802 217.157 91.9179 216.59 92.4548C216.023 92.9917 215.269 93.2851 214.488 93.272C214.106 93.2838 213.726 93.2189 213.37 93.0811C213.014 92.9434 212.689 92.7356 212.414 92.4701C212.14 92.2045 211.921 91.8866 211.772 91.5352C211.622 91.1838 211.545 90.8059 211.544 90.424C211.577 89.6452 211.912 88.9099 212.478 88.3738C213.044 87.8377 213.797 87.543 214.576 87.552C214.958 87.5414 215.337 87.607 215.693 87.7452C216.049 87.8833 216.373 88.0911 216.647 88.3565C216.922 88.6218 217.14 88.9392 217.29 89.2902C217.44 89.6411 217.518 90.0184 217.52 90.4Z" fill="black"/>
</g>
<g opacity="0.3">
<path opacity="0.3" d="M247.912 91.2C247.879 91.9781 247.543 92.7126 246.977 93.2474C246.411 93.7822 245.659 94.0751 244.88 94.064C244.498 94.0758 244.118 94.0109 243.762 93.8731C243.406 93.7354 243.081 93.5276 242.806 93.2621C242.532 92.9965 242.313 92.6786 242.164 92.3272C242.014 91.9758 241.937 91.5979 241.936 91.216C241.965 90.4372 242.298 89.7007 242.863 89.164C243.428 88.6273 244.181 88.333 244.96 88.344C245.343 88.3333 245.723 88.3992 246.08 88.5378C246.437 88.6763 246.762 88.8847 247.037 89.1508C247.312 89.4169 247.531 89.7352 247.681 90.0871C247.832 90.439 247.91 90.8174 247.912 91.2Z" fill="black"/>
</g>
<g opacity="0.3">
<path opacity="0.3" d="M253.664 83.656C253.28 84.024 251.096 82.24 247.88 82.056C244.664 81.872 242.232 83.392 241.904 82.976C241.736 82.8 242.152 82.112 243.216 81.376C244.652 80.4839 246.328 80.0565 248.016 80.152C249.69 80.2297 251.295 80.8377 252.6 81.888C253.6 82.768 253.856 83.488 253.664 83.656Z" fill="black"/>
</g>
<g opacity="0.3">
<path opacity="0.3" d="M221.04 84C220.616 84.328 218.64 82.32 215.44 81.84C212.24 81.36 209.68 82.592 209.392 82.144C209.248 81.952 209.728 81.344 210.864 80.728C212.387 79.9835 214.103 79.7291 215.776 80C217.431 80.2525 218.962 81.0227 220.152 82.2C221.016 83.096 221.248 83.848 221.04 84Z" fill="black"/>
</g>
<g opacity="0.3">
<path opacity="0.3" d="M232.272 107.392C232.272 107.208 234.28 106.968 237.544 106.712C238.344 106.712 239.144 106.544 239.32 105.992C239.496 105.44 239.24 104.504 238.888 103.528L236.776 97.128C233.848 88.056 231.776 80.616 232.144 80.504C232.512 80.392 235.176 87.648 238.104 96.712C238.808 98.952 239.48 101.08 240.112 103.112C240.376 104.056 240.864 105.144 240.376 106.352C240.244 106.636 240.049 106.887 239.804 107.084C239.56 107.281 239.274 107.419 238.968 107.488C238.509 107.59 238.038 107.631 237.568 107.608C234.296 107.664 232.272 107.576 232.272 107.392Z" fill="black"/>
</g>
<g opacity="0.2">
<path opacity="0.2" d="M232.584 145.552C221.605 145.168 210.949 141.745 201.8 135.664C201.8 135.664 208.84 152.184 232.264 151.176L232.584 145.552Z" fill="black"/>
</g>
<path d="M230.52 115.072C229.947 114.273 229.18 113.634 228.291 113.214C227.402 112.794 226.421 112.607 225.44 112.672C224.727 112.699 224.027 112.871 223.382 113.176C222.737 113.481 222.161 113.914 221.688 114.448C221.232 114.962 220.945 115.603 220.865 116.286C220.785 116.968 220.916 117.658 221.24 118.264C222.04 119.528 223.848 119.904 225.4 119.544C226.946 119.083 228.385 118.319 229.632 117.296C230.006 117.055 230.334 116.749 230.6 116.392C230.725 116.219 230.797 116.014 230.807 115.8C230.817 115.587 230.765 115.376 230.656 115.192" fill="#FFC42E"/>
<g opacity="0.2">
<path opacity="0.2" d="M230.52 115.072C229.947 114.273 229.18 113.634 228.291 113.214C227.402 112.794 226.421 112.607 225.44 112.672C224.727 112.699 224.027 112.871 223.382 113.176C222.737 113.481 222.161 113.914 221.688 114.448C221.232 114.962 220.945 115.603 220.865 116.286C220.785 116.968 220.916 117.658 221.24 118.264C222.04 119.528 223.848 119.904 225.4 119.544C226.946 119.083 228.385 118.319 229.632 117.296C230.006 117.055 230.334 116.749 230.6 116.392C230.725 116.219 230.797 116.014 230.807 115.8C230.817 115.587 230.765 115.376 230.656 115.192" fill="black"/>
</g>
<g opacity="0.3">
<path opacity="0.3" d="M223.56 72.368C222.928 73.056 220.128 71.424 216.472 70.376C212.816 69.328 209.6 69.088 209.448 68.168C209.384 67.736 210.192 67.184 211.656 66.88C213.575 66.5607 215.541 66.683 217.406 67.2375C219.27 67.792 220.984 68.7641 222.416 70.08C223.472 71.136 223.848 72.04 223.56 72.368Z" fill="black"/>
</g>
<g opacity="0.3">
<path opacity="0.3" d="M251.56 76C251.056 76.8 248.784 76.192 246.12 76.368C243.456 76.544 241.248 77.24 240.672 76.52C240.416 76.168 240.712 75.416 241.64 74.648C242.897 73.7076 244.406 73.1641 245.974 73.0872C247.542 73.0102 249.097 73.4033 250.44 74.216C251.416 74.888 251.784 75.616 251.56 76Z" fill="black"/>
</g>
<path d="M184.272 101.048C184.272 101.048 200.736 106.168 210.056 65.528C213.256 51.632 226.128 40.376 226.128 40.376L220.896 38.776C220.896 38.776 188.424 47.928 187.88 48.376C187.336 48.824 179.688 65.176 179.688 65.176L184.272 101.048Z" fill="#FFC42E"/>
<path d="M188.328 99.536C188.408 97.8 186.608 93.608 184.912 93.256C180.368 92.312 172.112 92.264 171.448 103.88C170.544 119.76 186.648 117.392 186.728 116.936C186.808 116.48 188.04 105.528 188.328 99.536Z" fill="#FFC42E"/>
<g opacity="0.3">
<path opacity="0.3" d="M182.216 110.648C182.152 110.592 181.928 110.824 181.416 111.008C180.745 111.255 180.004 111.23 179.352 110.936C177.704 110.224 176.448 107.48 176.528 104.616C176.565 103.251 176.907 101.912 177.528 100.696C177.706 100.209 177.998 99.7733 178.382 99.425C178.765 99.0766 179.227 98.8265 179.728 98.696C180.052 98.6266 180.39 98.6736 180.682 98.8287C180.975 98.9838 181.204 99.237 181.328 99.544C181.512 100 181.392 100.344 181.48 100.344C181.568 100.344 181.832 100.096 181.744 99.432C181.676 99.0338 181.476 98.6702 181.176 98.4C180.758 98.0465 180.218 97.8712 179.672 97.912C178.44 97.912 177.272 98.992 176.64 100.208C175.882 101.545 175.467 103.048 175.432 104.584C175.352 107.784 176.816 110.872 179.072 111.664C179.492 111.813 179.94 111.866 180.383 111.819C180.826 111.772 181.253 111.626 181.632 111.392C182.168 111.024 182.272 110.672 182.216 110.648Z" fill="black"/>
</g>
<g opacity="0.3">
<path opacity="0.3" d="M184.272 101.048C184.272 101.048 200.736 106.168 210.056 65.528C213.256 51.632 226.128 40.376 226.128 40.376L220.896 38.776C220.896 38.776 188.424 47.928 187.88 48.376C187.336 48.824 179.688 65.176 179.688 65.176L184.272 101.048Z" fill="black"/>
</g>
<path d="M222.696 109.144C223.224 109.144 223.056 112.632 225.896 115.256C228.736 117.88 232.488 117.656 232.496 118.176C232.496 118.392 231.632 118.808 230.096 118.776C228.05 118.703 226.095 117.909 224.576 116.536C223.121 115.216 222.235 113.384 222.104 111.424C222.032 109.952 222.464 109.112 222.696 109.144Z" fill="#FFC42E"/>
<g opacity="0.3">
<path opacity="0.3" d="M222.696 109.144C223.224 109.144 223.056 112.632 225.896 115.256C228.736 117.88 232.488 117.656 232.496 118.176C232.496 118.392 231.632 118.808 230.096 118.776C228.05 118.703 226.095 117.909 224.576 116.536C223.121 115.216 222.235 113.384 222.104 111.424C222.032 109.952 222.464 109.112 222.696 109.144Z" fill="black"/>
</g>
<path d="M347.432 110.168C347.432 110.168 368.656 152.872 372.232 161.848C375.352 169.616 392.6 206.008 387.264 216.104C381.928 226.2 377.2 225.704 369.768 226.08C362.336 226.456 313.992 224.48 301.456 223.976C285.512 223.312 267.968 218.784 267.968 218.784L276.192 175.032L340.104 186.92L329.304 117.488L347.432 110.168Z" fill="#FFC42E"/>
<path d="M347.552 110.488C347.552 110.488 343.872 103.944 341.592 102.376C339.312 100.808 320.792 84.568 320.792 84.568C320.792 84.568 313.528 76.872 311.528 77.304C309.528 77.736 290.576 90.4 290.4 92.408C290.224 94.416 291.256 95.536 292.4 95.824C293.544 96.112 291.824 97.424 294.8 100.384C294.8 100.384 291.952 100.24 292.096 102.952C292.24 105.664 292.096 109.352 293.952 109.504C295.808 109.656 301.64 111.36 301.952 108.224L302.52 106.936C305.518 109.051 308.718 110.865 312.072 112.352C316.632 114.208 323.896 114.064 323.896 114.064C325.182 115.872 327.127 117.102 329.312 117.488C332.752 117.912 347.552 110.488 347.552 110.488Z" fill="#FFC42E"/>
<g opacity="0.3">
<path opacity="0.3" d="M319.152 98.784C319.088 98.736 318.464 99.456 318.16 100.928C317.832 102.837 318.13 104.801 319.008 106.528C319.882 108.22 321.037 109.751 322.424 111.056C323.456 112.056 324.152 112.608 324.224 112.536C324.296 112.464 323.728 111.784 322.8 110.704C321.575 109.341 320.524 107.831 319.672 106.208C318.862 104.593 318.515 102.784 318.672 100.984C318.824 99.624 319.264 98.84 319.152 98.784Z" fill="black"/>
</g>
<g opacity="0.3">
<path opacity="0.3" d="M310.4 102.544C310.36 102.544 310.4 102.704 310.552 102.856C310.805 103.044 311.119 103.13 311.432 103.096C311.908 103.035 312.367 102.878 312.78 102.633C313.192 102.388 313.551 102.061 313.832 101.672C314.419 100.922 314.729 99.9923 314.712 99.04C314.672 98.32 314.432 97.92 314.352 97.952C314.272 97.984 314.28 98.392 314.192 99.016C314.065 99.8187 313.741 100.577 313.248 101.224C312.771 101.865 312.105 102.341 311.344 102.584C310.816 102.744 310.512 102.488 310.4 102.544Z" fill="black"/>
</g>
<g opacity="0.3">
<path opacity="0.3" d="M317.536 84.416C317.242 84.3035 316.926 84.2581 316.612 84.283C316.298 84.3079 315.993 84.4025 315.72 84.56C315.056 84.8737 314.475 85.3396 314.024 85.92C313.48 86.576 313.008 87.392 312.424 88.248C311.096 90.2707 309.659 92.2203 308.12 94.088C307.256 95.144 306.312 96.224 305.296 97.288C304.711 97.8436 304.234 98.5027 303.888 99.232C303.727 99.6496 303.667 100.1 303.714 100.545C303.762 100.99 303.915 101.418 304.16 101.792C304.604 102.475 305.143 103.092 305.76 103.624C306.336 104.144 306.912 104.648 307.496 105.12C308.616 106.056 309.809 106.902 311.064 107.648C311.695 108.01 312.408 108.206 313.136 108.216C313.823 108.194 314.492 107.996 315.08 107.64C316.111 107.047 316.968 106.195 317.568 105.168C317.823 104.732 317.975 104.245 318.014 103.742C318.053 103.239 317.977 102.733 317.792 102.264C317.652 101.905 317.419 101.591 317.117 101.353C316.814 101.115 316.454 100.963 316.072 100.912C315.6 100.84 315.118 100.955 314.728 101.232C314.472 101.432 314.408 101.592 314.416 101.6C314.637 101.419 314.894 101.289 315.171 101.218C315.447 101.148 315.736 101.139 316.016 101.192C316.335 101.257 316.631 101.406 316.874 101.622C317.117 101.838 317.298 102.115 317.4 102.424C317.538 102.835 317.583 103.271 317.532 103.701C317.481 104.132 317.334 104.545 317.104 104.912C316.519 105.828 315.713 106.581 314.76 107.104C314.261 107.401 313.693 107.561 313.112 107.568C312.497 107.545 311.898 107.369 311.368 107.056C310.162 106.312 309.015 105.478 307.936 104.56C307.368 104.096 306.8 103.6 306.232 103.08C305.683 102.6 305.201 102.049 304.8 101.44C304.611 101.161 304.493 100.842 304.454 100.507C304.415 100.173 304.457 99.8345 304.576 99.52C304.889 98.8764 305.314 98.2938 305.832 97.8C306.845 96.696 307.787 95.6027 308.656 94.52C310.186 92.6134 311.594 90.6121 312.872 88.528C313.424 87.64 313.864 86.816 314.344 86.176C314.739 85.6199 315.249 85.156 315.84 84.816C316.367 84.5525 316.947 84.4156 317.536 84.416Z" fill="black"/>
</g>
<g opacity="0.3">
<path opacity="0.3" d="M314.184 98.032C314.096 98.08 314.184 98.416 314.496 98.832C314.933 99.4006 315.525 99.8311 316.2 100.072C316.873 100.321 317.603 100.374 318.304 100.224C318.84 100.088 319.104 99.872 319.104 99.792C319.104 99.712 317.832 99.896 316.48 99.384C315.128 98.872 314.4 97.92 314.184 98.032Z" fill="black"/>
</g>
<g opacity="0.3">
<path opacity="0.3" d="M310.072 81.848C309.666 82.1797 309.301 82.5583 308.984 82.976C308.32 83.728 307.384 84.832 306.232 86.176L302.232 91.04L299.88 93.928C298.98 94.947 298.176 96.0477 297.48 97.216C297.094 97.8321 296.865 98.5337 296.813 99.2591C296.762 99.9844 296.889 100.711 297.184 101.376C297.866 102.481 298.787 103.419 299.88 104.12C301.792 105.544 303.4 106.912 304.984 107.888C305.708 108.344 306.531 108.619 307.384 108.688C308.031 108.712 308.673 108.56 309.24 108.248C310.168 107.696 310.28 107.016 310.248 107.032C309.94 107.431 309.55 107.758 309.104 107.992C308.574 108.235 307.989 108.335 307.408 108.28C306.641 108.184 305.906 107.91 305.264 107.48C303.816 106.512 302.184 105.08 300.312 103.624C299.319 102.965 298.477 102.103 297.84 101.096C297.602 100.532 297.507 99.9186 297.561 99.3091C297.615 98.6997 297.818 98.1128 298.152 97.6C298.822 96.4682 299.591 95.3975 300.448 94.4L302.768 91.488L306.656 86.52C307.76 85.104 308.64 83.944 309.232 83.136C309.566 82.7443 309.848 82.3115 310.072 81.848Z" fill="black"/>
</g>
<g opacity="0.3">
<path opacity="0.3" d="M303.896 83.312C303.712 83.184 301.384 86.776 297.496 90.224C296.538 91.0303 295.647 91.9133 294.832 92.864C294.161 93.6731 293.665 94.613 293.376 95.624C292.912 97.408 293.512 98.504 293.576 98.448C293.52 97.5464 293.623 96.642 293.88 95.776C294.207 94.8609 294.71 94.0185 295.36 93.296C296.179 92.3972 297.059 91.5553 297.992 90.776C299.683 89.2712 301.201 87.5835 302.52 85.744C303.112 85.0165 303.578 84.1943 303.896 83.312Z" fill="black"/>
</g>
<g opacity="0.3">
<path opacity="0.3" d="M294.944 103.624C294.944 103.88 297.04 103.624 299.288 104.384C300.239 104.722 301.089 105.294 301.76 106.048C302.272 106.632 302.472 107.104 302.56 107.064C302.648 107.024 302.624 106.488 302.168 105.736C301.537 104.784 300.609 104.067 299.528 103.696C298.478 103.333 297.362 103.199 296.256 103.304C295.432 103.376 294.936 103.528 294.944 103.624Z" fill="black"/>
</g>
<path opacity="0.3" d="M340.304 186.48C340.486 187.345 340.819 188.171 341.288 188.92C342.268 190.797 343.448 192.562 344.808 194.184C346.168 195.811 347.696 197.288 349.368 198.592C350.024 199.182 350.776 199.656 351.592 199.992C351.728 199.808 348.488 197.464 345.376 193.712C342.264 189.96 340.504 186.4 340.304 186.48Z" fill="black"/>
<path opacity="0.2" d="M293.288 223.336L300.528 179.552L305.48 180.472L299.768 223.888L293.288 223.336Z" fill="black"/>
<path d="M50.9601 93.12C50.9601 93.12 29.7361 135.832 26.1601 144.8C23.0401 152.568 5.79207 188.96 11.1281 199.056C16.4641 209.152 21.2001 208.656 28.6241 209.032C36.0481 209.408 84.4001 207.432 96.9361 206.928C112.888 206.264 130.424 201.736 130.424 201.736L122.2 157.984L58.2641 169.872L69.0561 100.44L50.9601 93.12Z" fill="#FFC42E"/>
<path d="M50.8401 93.44C50.8401 93.44 54.5281 86.904 56.8081 85.336C59.0881 83.768 77.6001 67.52 77.6001 67.52C77.6001 67.52 84.8641 59.824 86.8641 60.256C88.8641 60.688 107.816 73.36 108 75.36C108.184 77.36 107.144 78.496 106.008 78.776C104.872 79.056 106.576 80.376 103.608 83.336C103.608 83.336 105.616 83.28 106.312 85.904C107.008 88.528 107.112 90.96 104.464 92.456C102.448 93.592 97.6481 94.728 95.9681 90.056L95.9121 89.936C92.916 92.0476 89.7192 93.859 86.3681 95.344C81.8081 97.2 74.5361 97.056 74.5361 97.056C73.2504 98.8643 71.305 100.094 69.1201 100.48C65.6401 100.864 50.8401 93.44 50.8401 93.44Z" fill="#FFC42E"/>
<g opacity="0.3">
<path opacity="0.3" d="M79.2401 81.736C79.3041 81.688 79.9361 82.408 80.2401 83.88C80.561 85.7902 80.261 87.7529 79.3841 89.48C78.5222 91.1782 77.3779 92.7174 76.0001 94.032C75.488 94.6256 74.8794 95.1287 74.2001 95.52C74.1281 95.44 74.6961 94.72 75.6241 93.68C76.8494 92.3171 77.9002 90.8068 78.7521 89.184C79.5491 87.5792 79.8843 85.7843 79.7201 84C79.5761 82.576 79.1281 81.792 79.2401 81.736Z" fill="black"/>
</g>
<g opacity="0.3">
<path opacity="0.3" d="M88 85.496C88 85.496 88 85.656 87.84 85.808C87.5869 85.9955 87.2738 86.0837 86.96 86.056C86.4847 85.9925 86.0271 85.8337 85.6147 85.589C85.2023 85.3443 84.8435 85.0188 84.56 84.632C83.9689 83.8805 83.6552 82.948 83.672 81.992C83.72 81.272 83.952 80.88 84.04 80.904C84.128 80.928 84.104 81.344 84.192 81.968C84.3192 82.7708 84.6435 83.5294 85.136 84.176C85.6126 84.8175 86.2786 85.2932 87.04 85.536C87.576 85.704 87.88 85.44 88 85.496Z" fill="black"/>
</g>
<g opacity="0.3">
<path opacity="0.3" d="M80.8641 67.368C81.157 67.255 81.4716 67.2094 81.7845 67.2343C82.0974 67.2592 82.4008 67.3541 82.6721 67.512C83.3378 67.8235 83.9193 68.2899 84.3681 68.872C84.9121 69.528 85.3921 70.352 85.9681 71.208C87.3005 73.228 88.7371 75.1773 90.2721 77.048C91.1361 78.104 92.0881 79.176 93.0961 80.248C93.6839 80.8014 94.1616 81.461 94.5041 82.192C94.6656 82.6109 94.7252 83.0623 94.6779 83.5088C94.6306 83.9553 94.4778 84.3841 94.2321 84.76C93.7881 85.4409 93.2494 86.055 92.6321 86.584C92.0561 87.104 91.4721 87.608 90.8881 88.08C89.768 89.0163 88.5749 89.8616 87.3201 90.608C86.6913 90.9691 85.9811 91.1645 85.2561 91.176C84.5694 91.1541 83.8999 90.9557 83.3121 90.6C82.2775 90.0094 81.4166 89.1568 80.8161 88.128C80.5618 87.6938 80.4094 87.2075 80.3706 86.7058C80.3318 86.2041 80.4075 85.7001 80.5921 85.232C80.7313 84.8724 80.9643 84.5566 81.2667 84.3175C81.5692 84.0783 81.9301 83.9245 82.3121 83.872C82.7847 83.8 83.2667 83.9148 83.6561 84.192C83.9121 84.392 83.9841 84.552 83.9681 84.56C83.7457 84.3825 83.4877 84.2549 83.2117 84.1858C82.9356 84.1168 82.6479 84.108 82.3681 84.16C82.049 84.2215 81.7523 84.3675 81.5088 84.5828C81.2654 84.7981 81.0842 85.0748 80.9841 85.384C80.8423 85.7941 80.7952 86.231 80.8465 86.662C80.8978 87.0929 81.046 87.5066 81.2801 87.872C81.8579 88.7909 82.6623 89.5458 83.6161 90.064C84.1164 90.3588 84.6836 90.5213 85.2641 90.536C85.8791 90.5071 86.4777 90.3286 87.0081 90.016C88.212 89.2725 89.3591 88.4409 90.4401 87.528C91.0055 87.0533 91.5735 86.5573 92.1441 86.04C92.7021 85.5624 93.192 85.0106 93.6001 84.4C93.7908 84.1208 93.9108 83.7994 93.9498 83.4636C93.9888 83.1277 93.9457 82.7875 93.8241 82.472C93.5114 81.8283 93.086 81.2458 92.5681 80.752C91.5548 79.648 90.6135 78.5546 89.7441 77.472C88.2214 75.5626 86.8136 73.5644 85.5281 71.488C84.9761 70.592 84.5361 69.768 84.0561 69.088C83.6655 68.5284 83.1543 68.0636 82.5601 67.728C82.0303 67.4783 81.4497 67.3551 80.8641 67.368Z" fill="black"/>
</g>
<g opacity="0.3">
<path opacity="0.3" d="M84.2161 80.984C84.2961 81.032 84.2161 81.368 83.9041 81.784C83.4584 82.3453 82.8657 82.7718 82.192 83.0161C81.5183 83.2605 80.7899 83.3131 80.0881 83.168C79.5521 83.032 79.2881 82.824 79.2881 82.736C79.2881 82.648 80.5681 82.84 81.9121 82.328C83.2561 81.816 84.0001 80.88 84.2161 80.984Z" fill="black"/>
</g>
<g opacity="0.3">
<path opacity="0.3" d="M88.3201 64.8C88.7284 65.1291 89.0939 65.5081 89.4081 65.928C90.0721 66.68 91.0081 67.792 92.1681 69.128L96.1681 73.992L98.5201 76.88C99.4187 77.9005 100.222 79.0011 100.92 80.168C101.306 80.7841 101.535 81.4857 101.587 82.2111C101.639 82.9364 101.511 83.6634 101.216 84.328C100.534 85.4329 99.6129 86.3707 98.5201 87.072C96.6081 88.496 95.0001 89.864 93.4161 90.84C92.6923 91.2963 91.8689 91.5708 91.0161 91.64C90.3713 91.6671 89.7315 91.5148 89.1681 91.2C88.2321 90.648 88.1201 89.976 88.1521 89.992C88.4625 90.3881 88.8521 90.7151 89.2961 90.952C89.8282 91.1887 90.4121 91.2851 90.9921 91.232C91.7594 91.1364 92.4937 90.8624 93.1361 90.432C94.5841 89.472 96.2161 88.032 98.0881 86.584C99.0814 85.9221 99.9238 85.0579 100.56 84.048C100.799 83.4848 100.896 82.8716 100.843 82.2622C100.79 81.6527 100.589 81.0655 100.256 80.552C99.5826 79.4204 98.8117 78.3496 97.9521 77.352L95.6321 74.432L91.7441 69.472C90.6401 68.048 89.7601 66.888 89.1681 66.08C88.8351 65.6889 88.5504 65.2591 88.3201 64.8Z" fill="black"/>
</g>
<g opacity="0.3">
<path opacity="0.3" d="M94.4961 66.264C94.6801 66.136 97.0081 69.728 100.896 73.176C101.852 73.9845 102.743 74.8672 103.56 75.816C104.234 76.6231 104.731 77.5637 105.016 78.576C105.48 80.36 104.88 81.456 104.824 81.4C104.87 80.4987 104.767 79.596 104.52 78.728C104.188 77.8176 103.686 76.9787 103.04 76.256C102.219 75.3565 101.34 74.512 100.408 73.728C98.713 72.2252 97.1915 70.5374 95.8721 68.696C95.2782 67.9697 94.8128 67.1472 94.4961 66.264Z" fill="black"/>
</g>
<g opacity="0.3">
<path opacity="0.3" d="M103.864 86.864C103.864 87.128 101.776 86.864 99.5201 87.664C98.5709 88.0012 97.7211 88.5705 97.0481 89.32C96.5361 89.904 96.3441 90.376 96.2481 90.344C96.1521 90.312 96.1841 89.76 96.6481 89.016C97.2806 88.0631 98.2079 87.3437 99.2881 86.968C100.34 86.6116 101.454 86.4781 102.56 86.576C103.376 86.616 103.872 86.768 103.864 86.864Z" fill="black"/>
</g>
<path opacity="0.3" d="M58.096 169.432C57.9101 170.296 57.5772 171.121 57.112 171.872C55.1322 175.633 52.3752 178.93 49.024 181.544C48.3681 182.134 47.6159 182.608 46.8 182.944C46.664 182.76 49.904 180.424 53.016 176.664C56.128 172.904 57.888 169.336 58.096 169.432Z" fill="black"/>
<path opacity="0.2" d="M110.048 205.776L101.776 161.776L97.056 162.656L102.704 206.536L110.048 205.776Z" fill="black"/>
<path d="M140.752 317.24C140.752 317.24 130.352 246.68 130.392 236.44C130.392 232.44 128.248 205.912 128.248 205.912L110.352 207.512L101.28 159.32C101.28 159.32 136.848 152.92 146.408 152.432C155.968 151.944 188.136 156.856 188.136 156.856L245.36 165.888C245.36 165.888 261.208 168.424 261.048 168.288L300.696 178.544L293.232 223.672L269.6 222.744L269.752 251.28C269.44 253.44 271.296 264.232 257.104 281.504L254.704 311.56L265.344 366.24H133.992L140.752 317.24Z" fill="#FFC42E"/>
<g opacity="0.3">
<path opacity="0.3" d="M231.952 163.776C232.072 163.848 231.76 164.664 230.816 165.896C229.451 167.611 227.81 169.088 225.96 170.264C223.213 172.034 220.153 173.264 216.944 173.888C216.04 174.024 215.112 174.216 214.16 174.32C213.208 174.424 212.224 174.496 211.232 174.528C210.24 174.56 209.224 174.528 208.192 174.528L205.072 174.216C201.093 173.657 197.276 172.264 193.872 170.128C191.122 168.372 188.717 166.127 186.776 163.504C185.463 161.763 184.387 159.856 183.576 157.832C183.024 156.392 182.904 155.536 183.04 155.496C183.176 155.456 183.552 156.192 184.312 157.48C185.355 159.289 186.56 161 187.912 162.592C189.895 164.926 192.246 166.92 194.872 168.496C198.092 170.389 201.653 171.632 205.352 172.152C209.069 172.69 212.847 172.65 216.552 172.032C219.573 171.531 222.487 170.519 225.168 169.04C226.983 168.031 228.668 166.803 230.184 165.384C231.296 164.336 231.832 163.704 231.952 163.776Z" fill="black"/>
</g>
<g opacity="0.3">
<path opacity="0.3" d="M231.936 238.968C232.16 238.896 233.256 241.648 233.496 246.376C233.624 249.144 233.407 251.918 232.848 254.632C231.502 261.36 228.156 267.525 223.248 272.32C221.274 274.269 219.065 275.965 216.672 277.368C212.576 279.768 209.672 280.312 209.608 280.088C209.544 279.864 212.152 278.712 215.88 276.128C220.739 272.813 224.737 268.387 227.54 263.216C230.344 258.046 231.873 252.28 232 246.4C232.168 241.848 231.6 239.032 231.936 238.968Z" fill="black"/>
</g>
<path d="M60.8001 305.496C60.8489 304.767 61.071 304.06 61.4481 303.433C61.8252 302.807 62.3463 302.28 62.9681 301.896C82.2161 289.16 96.7201 260.92 98.1681 237.016C98.1681 235.656 98.2481 234.272 98.2961 232.88C99.4081 198.704 104.44 157.248 108.96 146.2C117.312 125.776 145.6 123.856 145.6 123.856C183.128 121.176 189.824 150.008 193.6 176.272C195.952 192.6 205.032 250.936 205.032 250.936L198.12 253.6C190 277.672 171.72 297.144 147.92 306.104C141.008 308.704 135.12 309.752 132.4 307.512C121.429 318.66 107.86 326.907 92.9121 331.512C86.8561 333.36 80.5041 334.592 74.1921 334C70.1041 333.616 65.7841 332.264 63.3361 328.952C62.276 327.517 61.6459 325.81 61.5193 324.03C61.3927 322.25 61.7748 320.471 62.621 318.901C63.4672 317.33 64.7426 316.032 66.2985 315.159C67.8543 314.285 69.6264 313.872 71.4081 313.968C69.9921 309.336 60.6321 310.688 60.8001 305.496Z" fill="#263238"/>
<path d="M140.584 134.472L142.936 132.232L168.304 142.456C170.074 142.557 171.742 143.317 172.979 144.585C174.217 145.854 174.935 147.54 174.992 149.312L174.768 232C174.768 237.6 173.672 242.464 170.288 246.928L166.728 251.632C158.6 262.36 141.928 261.48 135.464 249.656C135.068 248.989 134.766 248.27 134.568 247.52C134.405 246.912 134.277 246.295 134.184 245.672C133.432 239.024 133.384 233.256 133.384 233.256C132.928 225.952 132.776 222.96 132.776 223.024C132.776 223.088 117.24 221.24 113.04 201.296C110.952 191.376 111.344 177.728 111.936 164.304C112.752 145.68 125.648 134.456 140.584 134.472Z" fill="#FFBF9D"/>
<path d="M145.784 175.408C145.811 176.08 146.1 176.715 146.589 177.177C147.078 177.639 147.728 177.891 148.4 177.88C148.73 177.891 149.058 177.835 149.366 177.717C149.673 177.598 149.954 177.419 150.191 177.19C150.429 176.961 150.618 176.687 150.747 176.383C150.876 176.08 150.943 175.754 150.944 175.424C150.917 174.751 150.629 174.116 150.14 173.653C149.651 173.189 149.001 172.935 148.328 172.944C147.998 172.935 147.67 172.993 147.363 173.113C147.056 173.232 146.776 173.412 146.539 173.642C146.302 173.871 146.113 174.146 145.983 174.449C145.854 174.752 145.786 175.078 145.784 175.408Z" fill="#263238"/>
<path d="M119.56 176.112C119.587 176.784 119.876 177.419 120.365 177.881C120.854 178.343 121.504 178.595 122.176 178.584C122.506 178.595 122.834 178.539 123.142 178.421C123.449 178.302 123.73 178.123 123.967 177.894C124.205 177.665 124.394 177.391 124.523 177.087C124.652 176.784 124.719 176.458 124.72 176.128C124.691 175.456 124.402 174.822 123.914 174.359C123.426 173.896 122.777 173.641 122.104 173.648C121.774 173.639 121.446 173.697 121.139 173.817C120.832 173.936 120.552 174.116 120.315 174.346C120.078 174.575 119.889 174.85 119.759 175.153C119.63 175.456 119.562 175.782 119.56 176.112Z" fill="#263238"/>
<path d="M114.592 169.6C114.928 169.92 116.808 168.376 119.584 168.24C122.36 168.104 124.464 169.4 124.744 169.04C124.888 168.88 124.528 168.296 123.616 167.688C122.372 166.922 120.923 166.556 119.464 166.64C118.005 166.698 116.603 167.222 115.464 168.136C114.688 168.8 114.4 169.44 114.592 169.6Z" fill="#263238"/>
<path d="M142.752 169.872C143.12 170.152 144.832 168.424 147.552 168.008C150.272 167.592 152.528 168.656 152.768 168.272C152.896 168.104 152.48 167.552 151.504 167.048C150.189 166.406 148.708 166.188 147.264 166.424C145.836 166.64 144.514 167.304 143.488 168.32C142.768 169.096 142.576 169.744 142.752 169.872Z" fill="#263238"/>
<path d="M133.056 190.064C133.056 189.912 131.32 189.696 128.512 189.48C127.8 189.48 127.12 189.336 126.976 188.856C126.879 188.128 127.007 187.388 127.344 186.736C127.928 184.984 128.528 183.152 129.168 181.232C131.696 173.408 133.48 166.984 133.168 166.888C132.856 166.792 130.544 173.048 128.024 180.88C127.416 182.805 126.837 184.648 126.288 186.408C125.888 187.286 125.808 188.277 126.064 189.208C126.179 189.452 126.348 189.667 126.559 189.837C126.77 190.006 127.016 190.125 127.28 190.184C127.677 190.27 128.083 190.305 128.488 190.288C131.312 190.296 133.056 190.224 133.056 190.064Z" fill="#263238"/>
<path d="M132.8 222.992C142.275 222.664 151.472 219.712 159.368 214.464C159.368 214.464 153.296 228.72 133.08 227.848L132.8 222.992Z" fill="#FF9A6C"/>
<path d="M134.568 196.696C135.061 196.005 135.723 195.45 136.49 195.086C137.257 194.722 138.105 194.56 138.952 194.616C139.567 194.638 140.172 194.785 140.729 195.047C141.286 195.31 141.784 195.683 142.192 196.144C142.586 196.588 142.834 197.142 142.903 197.732C142.972 198.321 142.857 198.917 142.576 199.44C141.88 200.536 140.328 200.856 138.984 200.544C137.653 200.145 136.413 199.487 135.336 198.608C135.025 198.39 134.754 198.119 134.536 197.808C134.428 197.66 134.365 197.483 134.357 197.299C134.348 197.116 134.394 196.934 134.488 196.776" fill="#FF9A6C"/>
<path d="M141.32 191.576C140.864 191.576 141.008 194.584 138.544 196.848C136.08 199.112 132.848 198.944 132.848 199.368C132.848 199.56 133.592 199.92 134.944 199.888C136.721 199.832 138.422 199.149 139.744 197.96C141 196.82 141.766 195.237 141.88 193.544C141.896 192.28 141.52 191.552 141.32 191.576Z" fill="#263238"/>
<path d="M140.096 159.056C140.48 159.76 143.168 158.984 146.448 158.88C149.728 158.776 152.472 159.248 152.792 158.52C152.936 158.168 152.376 157.536 151.192 156.968C149.653 156.296 147.981 155.984 146.304 156.056C144.626 156.129 142.987 156.583 141.512 157.384C140.432 158.04 139.92 158.72 140.096 159.056Z" fill="#263238"/>
<path d="M114.992 157.664C115.512 158.264 117.392 157.52 119.688 157.368C121.984 157.216 123.952 157.584 124.368 156.896C124.552 156.568 124.208 155.952 123.328 155.4C122.15 154.743 120.803 154.451 119.458 154.56C118.114 154.67 116.832 155.177 115.776 156.016C114.992 156.704 114.76 157.36 114.992 157.664Z" fill="#263238"/>
<path d="M174.48 184.592C174.48 184.592 160.272 189.016 152.232 153.936C149.48 141.936 138.36 132.232 138.36 132.232L142.872 130.88C142.872 130.88 170.872 138.776 171.368 139.128C171.864 139.48 178.4 153.6 178.4 153.6L174.48 184.592Z" fill="#263238"/>
<path d="M170.976 183.28C170.912 181.784 172.464 178.168 173.928 177.864C177.848 177.064 184.976 177.008 185.552 187.032C186.352 200.736 172.408 198.696 172.36 198.304C172.312 197.912 171.2 188.456 170.976 183.28Z" fill="#FFBF9D"/>
<path d="M176.256 192.872C176.312 192.824 176.504 193.024 176.912 193.184C177.495 193.395 178.137 193.372 178.704 193.12C180.12 192.512 181.208 190.144 181.104 187.672C181.069 186.494 180.774 185.339 180.24 184.288C180.093 183.874 179.85 183.501 179.53 183.201C179.21 182.9 178.822 182.68 178.4 182.56C178.122 182.501 177.832 182.542 177.58 182.675C177.329 182.808 177.132 183.025 177.024 183.288C176.864 183.688 176.968 183.952 176.896 183.984C176.824 184.016 176.584 183.768 176.664 183.184C176.721 182.839 176.893 182.523 177.152 182.288C177.517 181.985 177.983 181.834 178.456 181.864C179.025 181.946 179.563 182.17 180.021 182.518C180.478 182.865 180.84 183.322 181.072 183.848C181.718 185.004 182.075 186.3 182.112 187.624C182.184 190.392 180.92 193.056 178.968 193.736C178.606 193.866 178.219 193.912 177.836 193.871C177.454 193.829 177.086 193.701 176.76 193.496C176.296 193.2 176.208 192.896 176.256 192.872Z" fill="#FF9A6C"/>
<path d="M164.84 177.88C164.15 177.781 163.466 177.642 162.792 177.464C160.968 176.91 159.298 175.941 157.912 174.632C156.95 173.743 156.096 172.744 155.368 171.656C154.546 170.395 153.852 169.055 153.296 167.656C152.11 164.397 151.124 161.068 150.344 157.688C149.384 154.12 148.336 150.744 147.192 147.744C146.198 145.076 145.003 142.487 143.616 140C142.685 138.328 141.637 136.724 140.48 135.2C140.08 134.656 139.728 134.264 139.496 133.984C139.389 133.839 139.269 133.705 139.136 133.584C139.225 133.741 139.327 133.891 139.44 134.032C139.648 134.32 139.984 134.728 140.368 135.288C141.474 136.84 142.484 138.46 143.392 140.136C144.733 142.631 145.898 145.216 146.88 147.872C148 150.872 149.032 154.232 149.992 157.8C150.776 161.194 151.775 164.534 152.984 167.8C153.558 169.216 154.271 170.572 155.112 171.848C155.865 172.948 156.746 173.955 157.736 174.848C159.164 176.16 160.883 177.115 162.752 177.632C163.433 177.814 164.136 177.897 164.84 177.88Z" fill="#263238"/>
<path d="M183.576 236.352C183.639 236.134 183.687 235.912 183.72 235.688C183.808 235.208 183.92 234.56 184.064 233.744C184.36 231.984 184.776 229.48 185.296 226.304L184.968 226.256C184.896 226.752 184.824 227.304 184.744 227.856V227.808C184.656 227.992 184.552 228.2 184.456 228.424L184.8 228.544C186.889 221.33 188.359 213.952 189.192 206.488C189.724 201.749 190.004 196.985 190.032 192.216C189.984 187.208 190.032 181.888 188.68 176.576C188.131 174.399 187.291 172.305 186.184 170.352C185.095 168.475 183.825 166.71 182.392 165.08C179.608 161.88 176.608 159.088 173.864 156.344L159.2 141.88L149.208 132.16L146.48 129.544L145.76 128.872C145.685 128.788 145.599 128.715 145.504 128.656C145.564 128.753 145.637 128.842 145.72 128.92L146.392 129.632C147.032 130.28 147.92 131.184 149.04 132.336L158.856 142.2C163.032 146.352 167.976 151.288 173.472 156.768C176.208 159.528 179.2 162.312 181.944 165.488C184.865 168.693 186.972 172.554 188.088 176.744C189.4 181.944 189.384 187.24 189.44 192.232C189.421 196.979 189.154 201.721 188.64 206.44C187.841 213.883 186.439 221.248 184.448 228.464L184.792 228.592C184.888 228.368 184.984 228.16 185.064 227.968C185.136 227.4 185.208 226.848 185.264 226.368L184.936 226.32C184.48 229.52 184.136 232.024 183.856 233.784C183.752 234.584 183.664 235.264 183.6 235.744C183.574 235.946 183.566 236.149 183.576 236.352Z" fill="#455A64"/>
<path d="M194.4 173C194.348 172.795 194.267 172.598 194.16 172.416C193.944 171.992 193.68 171.456 193.36 170.816C192.664 169.424 191.568 167.448 190.16 165.056C188.752 162.664 186.896 159.88 184.736 156.888C182.576 153.896 180.024 150.736 177.184 147.56C174.344 144.384 171.432 141.544 168.704 139.056C165.976 136.568 163.392 134.472 161.16 132.792C158.928 131.112 157.088 129.808 155.776 128.976L154.256 128.008C154.087 127.882 153.901 127.779 153.704 127.704C153.846 127.86 154.007 127.997 154.184 128.112C154.576 128.4 155.056 128.744 155.632 129.176C156.904 130.072 158.704 131.424 160.888 133.176C163.072 134.928 165.6 137.032 168.312 139.512C171.024 141.992 173.808 144.8 176.656 148C179.504 151.2 182.008 154.312 184.208 157.256C186.408 160.2 188.248 162.952 189.72 165.312C191.192 167.672 192.352 169.6 193.104 170.96L194.008 172.512C194.12 172.689 194.251 172.853 194.4 173Z" fill="#455A64"/>
<path d="M176.096 283.456C176.454 283.032 176.77 282.573 177.04 282.088C177.616 281.192 178.44 279.888 179.496 278.304C182.213 274.168 185.151 270.181 188.296 266.36C191.409 262.519 194.934 259.031 198.808 255.96C200.467 254.757 202.19 253.643 203.968 252.624C203.434 252.78 202.917 252.989 202.424 253.248C201.833 253.521 201.261 253.833 200.712 254.184C199.966 254.615 199.245 255.088 198.552 255.6C194.559 258.611 190.953 262.104 187.816 266C184.638 269.834 181.722 273.878 179.088 278.104C178.08 279.704 177.312 281.064 176.8 282C176.521 282.463 176.285 282.95 176.096 283.456Z" fill="#263238"/>
<path d="M187.448 351.488L210.16 250.352L186.96 237.96C186.48 237.264 174.744 231.968 174.744 231.968C171.642 236.969 167.56 241.291 162.744 244.672C148.696 253.152 134.6 246.224 133.4 233.224L120.536 236.84L95.736 241.12C95.736 241.12 75.504 293.84 78.184 314.464C80.864 335.088 77.128 370.776 77.128 370.776L75.04 382.576L96.152 383.008H99.624L146.712 382.744L187.808 382.576C182.944 368.64 187.448 351.488 187.448 351.488Z" fill="#455A64"/>
<path d="M61.072 360.048C57.0686 360.24 53.0897 359.324 49.5736 357.4C46.0574 355.476 43.1405 352.619 41.144 349.144C39.8096 346.85 39.0853 344.253 39.04 341.6C39.04 330.616 45.88 314.864 48.152 309.192C51.424 301.016 82.616 244.392 86.368 245.192C90.12 245.992 92.16 246.288 92.16 246.288L74.4 326.848L130.888 336.112L124.688 357.712L61.072 360.048Z" fill="#FFBF9D"/>
<path d="M59.608 274.792L88.312 289.992L97.8 241.088C97.8 241.088 85.64 242.184 81.624 247.288C77.608 252.392 59.608 274.792 59.608 274.792Z" fill="#455A64"/>
<path d="M94.4 330.128L86.664 313.328L83.288 300.912L73.008 292.912C73.008 292.912 69.6 293.312 70.656 295.96C71.712 298.608 76.88 303.368 76.88 303.368L79.92 311.856L74.976 303.232L67.776 299.664L60.632 300.192C60.632 300.192 59.312 303.392 62.624 303.496H66.192L71.616 307.864L75.008 316.064L69.896 308.128L62.352 305.448L57.552 306.672C57.552 306.672 56.232 308.792 58.608 309.072C60.984 309.352 62.608 309.336 62.608 309.336L66.968 311.872L70.808 319.92L64.056 314.4L55.328 313.36C55.328 313.36 53.872 315.464 56.128 316.256C58.4319 317.207 60.6855 318.275 62.88 319.456L67.736 326.168L94.4 330.128Z" fill="#FFBF9D"/>
<path d="M94.4 330.128L67.696 326.256H67.64V326.208L62.76 319.504L62.816 319.544C61.288 318.744 59.696 317.944 58.016 317.192C57.592 317.008 57.168 316.816 56.736 316.648C56.2762 316.498 55.8337 316.3 55.416 316.056C55.1955 315.907 55.0156 315.705 54.8927 315.469C54.7697 315.233 54.7076 314.97 54.712 314.704C54.7383 314.183 54.9071 313.679 55.2 313.248L55.248 313.168H55.36L64.088 314.2H64.144L70.896 319.752L70.608 319.976L66.76 311.976L66.84 312.056L62.472 309.52H62.576C61.416 309.52 60.224 309.424 59 309.296C58.6618 309.315 58.3235 309.259 58.0095 309.131C57.6956 309.004 57.4137 308.809 57.184 308.56C56.9899 308.247 56.9267 307.871 57.008 307.512C57.0798 307.18 57.204 306.861 57.376 306.568V306.496H57.456L62.256 305.264H62.32H62.376L69.952 308H70.016V308.056L75.2 316L74.84 316.192L73.016 311.8C72.496 310.52 71.968 309.256 71.416 307.992L71.48 308.072L66.056 303.704L66.184 303.752H64.072C63.3672 303.783 62.661 303.759 61.96 303.68C61.5782 303.635 61.2166 303.484 60.9167 303.244C60.6167 303.003 60.3906 302.683 60.264 302.32C60.0853 301.601 60.1443 300.843 60.432 300.16V300.048H60.568L67.712 299.52H67.768H67.816L75.016 303.096H75.064V303.152L80.008 311.776L79.656 311.936L76.72 303.456L76.768 303.536C74.956 301.865 73.2813 300.051 71.76 298.112C71.398 297.634 71.0692 297.131 70.776 296.608C70.4555 296.075 70.2971 295.461 70.32 294.84C70.3601 294.528 70.4739 294.231 70.652 293.972C70.8301 293.713 71.0673 293.501 71.344 293.352C71.8556 293.054 72.4212 292.861 73.008 292.784H73.072H73.128L83.392 300.784H83.432V300.832L86.784 313.256L94.4 330.128L86.56 313.384L83.2 300.952L83.256 301.032L72.968 293.08H73.088C72.5503 293.155 72.0317 293.331 71.56 293.6C71.3275 293.723 71.1278 293.899 70.9775 294.115C70.8272 294.331 70.7307 294.579 70.696 294.84C70.64 295.912 71.416 296.936 72.08 297.872C73.593 299.789 75.257 301.581 77.056 303.232V303.272L80.104 311.76L79.76 311.92L74.808 303.304L74.896 303.376L67.696 299.808H67.8L60.656 300.336L60.832 300.216C60.5839 300.808 60.5307 301.464 60.68 302.088C60.7798 302.382 60.963 302.641 61.2074 302.833C61.4517 303.024 61.7466 303.141 62.056 303.168C62.7363 303.238 63.4207 303.26 64.104 303.232H66.272L66.328 303.28L71.752 307.648H71.8V307.696L73.4 311.504C74.016 313.008 74.64 314.504 75.216 315.896L74.848 316.088L69.736 308.152L69.84 308.232L62.304 305.552H62.4L57.6 306.776L57.728 306.688C57.556 306.913 57.4469 307.18 57.4117 307.461C57.3766 307.742 57.4167 308.027 57.528 308.288C57.6845 308.503 57.9156 308.651 58.176 308.704C58.4616 308.779 58.7535 308.827 59.048 308.848C60.256 308.968 61.448 309.048 62.584 309.064H62.632H62.68L67.04 311.6H67.096V311.656L70.928 319.704L71.288 320.464L70.64 319.928L63.896 314.328H63.992L55.264 313.28L55.416 313.208C55.1654 313.585 55.0166 314.02 54.984 314.472C54.9761 314.686 55.0234 314.899 55.1215 315.089C55.2196 315.28 55.3651 315.442 55.544 315.56C55.945 315.782 56.3654 315.967 56.8 316.112C57.24 316.288 57.664 316.48 58.088 316.664C59.768 317.464 61.368 318.264 62.888 319.064L67.736 325.784L67.648 325.728L94.4 330.128Z" fill="#FF9A6C"/>
<g opacity="0.3">
<path opacity="0.3" d="M187.912 357.872C187.912 357.872 181.352 371.616 172.832 375.64C164.92 379.376 159.896 380.184 150.48 379.496C145.88 379.168 130.888 376.256 125.464 374.696L88.928 359.016L165.728 371.12L187.912 357.872Z" fill="black"/>
</g>
<path d="M206.656 255.368C206.656 255.368 220.4 250.496 220.664 281.304C220.928 312.112 184.8 363.816 178.608 368.904C172.416 373.992 165.408 377.416 146.84 374.664C123.552 371.216 90.1121 359.024 90.1121 359.024L110.568 340L152.088 338.128L185.84 268.744C185.84 268.744 195.136 254.024 206.656 255.368Z" fill="#FFBF9D"/>
<path d="M124.688 357.696C124.688 357.696 134.984 364.176 146.608 363.84C158.232 363.504 168.52 367.264 170.016 366.24C171.512 365.216 171.68 363.368 170.016 362.536C168.352 361.704 161.32 360.712 161.32 360.712L155.24 358.216C155.24 358.216 176 360 177.656 359.2C179.312 358.4 180.976 357.208 180.312 355.384C180.156 354.879 179.849 354.433 179.433 354.105C179.018 353.778 178.512 353.585 177.984 353.552C177.984 353.552 182.472 353.72 182.304 351.896C182.173 351.122 181.885 350.383 181.457 349.726C181.029 349.068 180.471 348.505 179.816 348.072C179.152 347.744 170.44 344.2 170.44 344.2L159.24 341.976L169.992 341.544L179.384 344.168C179.384 344.168 183.136 344.592 182.304 341.432C181.472 338.272 170.008 334.792 170.008 334.792L155.4 333.784C155.4 333.784 166.688 332.136 167.848 328.648C169.008 325.16 167.048 323.168 167.048 323.168C167.048 323.168 159.048 326.328 155.256 326.992C151.464 327.656 146.792 329.144 140.648 331.64C137.321 332.955 134.068 334.451 130.904 336.12" fill="#FFBF9D"/>
<path d="M130.888 336.112L131.48 335.776C131.872 335.56 132.464 335.248 133.248 334.856C134.848 334.056 137.152 332.976 140.224 331.704C143.95 330.127 147.768 328.775 151.656 327.656C152.792 327.352 153.992 327.072 155.24 326.856C156.51 326.605 157.763 326.276 158.992 325.872C161.544 325.072 164.208 324.112 166.992 323.032H167.088L167.152 323.104C167.655 323.709 168.02 324.415 168.223 325.175C168.426 325.934 168.462 326.729 168.328 327.504L168.208 328.096L168.048 328.68C167.911 329.08 167.69 329.445 167.4 329.752C166.809 330.341 166.122 330.825 165.368 331.184C163.832 331.923 162.223 332.502 160.568 332.912C158.871 333.365 157.151 333.728 155.416 334V333.648L170.032 334.64H170.072C173.089 335.556 176.02 336.734 178.832 338.16C179.551 338.541 180.24 338.975 180.896 339.456C181.232 339.708 181.545 339.989 181.832 340.296C182.139 340.61 182.369 340.99 182.504 341.408C182.623 341.832 182.651 342.277 182.584 342.712C182.551 342.94 182.473 343.159 182.355 343.357C182.237 343.555 182.081 343.727 181.896 343.864C181.141 344.322 180.252 344.511 179.376 344.4L169.976 341.784H170.04L159.288 342.216V341.808L167.288 343.408L170.488 344.04H170.528L179.864 347.904C180.606 348.351 181.229 348.972 181.68 349.712C182.179 350.415 182.457 351.25 182.48 352.112C182.444 352.348 182.347 352.57 182.2 352.758C182.053 352.945 181.86 353.092 181.64 353.184C181.259 353.374 180.852 353.506 180.432 353.576C179.62 353.727 178.794 353.792 177.968 353.768V353.36C178.339 353.379 178.701 353.473 179.034 353.636C179.367 353.8 179.663 354.03 179.904 354.312C180.387 354.862 180.649 355.572 180.64 356.304C180.604 356.664 180.498 357.014 180.326 357.332C180.154 357.651 179.921 357.932 179.64 358.16C179.124 358.607 178.551 358.983 177.936 359.28C177.778 359.376 177.605 359.443 177.424 359.48C177.256 359.519 177.084 359.543 176.912 359.552C176.576 359.592 176.24 359.6 175.912 359.608C175.248 359.608 174.592 359.608 173.936 359.608C172.624 359.608 171.328 359.528 170.048 359.464C164.928 359.2 160 358.792 155.2 358.4L155.288 358.04L161.36 360.536C163.6 360.872 165.776 361.232 167.896 361.712C168.424 361.84 168.952 361.968 169.496 362.144C170.04 362.29 170.535 362.58 170.928 362.984C171.12 363.199 171.261 363.454 171.342 363.731C171.422 364.008 171.439 364.3 171.392 364.584C171.286 365.135 171.005 365.637 170.592 366.016C170.497 366.11 170.395 366.199 170.288 366.28C170.175 366.374 170.048 366.449 169.912 366.504C169.652 366.577 169.382 366.61 169.112 366.6C168.6 366.592 168.089 366.546 167.584 366.464C166.584 366.328 165.616 366.136 164.656 365.96C162.744 365.6 160.88 365.248 159.056 364.96C155.686 364.397 152.28 364.074 148.864 363.992C148.064 363.992 147.264 363.992 146.536 363.992C145.808 363.992 145.024 363.992 144.296 363.992C143.568 363.992 142.856 363.896 142.16 363.824L140.152 363.544C136.127 362.826 132.215 361.575 128.52 359.824C127.24 359.216 126.288 358.704 125.656 358.344C125.024 357.984 124.712 357.76 124.712 357.76C124.797 357.801 124.88 357.846 124.96 357.896L125.68 358.288C126.328 358.632 127.28 359.136 128.568 359.72C132.266 361.425 136.171 362.641 140.184 363.336L142.184 363.6C142.872 363.672 143.584 363.704 144.304 363.76C145.024 363.816 145.768 363.76 146.528 363.76C147.288 363.76 148.072 363.76 148.864 363.76C152.295 363.825 155.718 364.138 159.104 364.696C160.92 364.976 162.784 365.32 164.704 365.68C165.664 365.856 166.632 366.04 167.616 366.176C168.109 366.25 168.606 366.293 169.104 366.304C169.342 366.308 169.579 366.279 169.808 366.216C170.015 366.115 170.203 365.977 170.36 365.808C170.714 365.474 170.954 365.037 171.048 364.56C171.085 364.325 171.069 364.084 171.001 363.856C170.933 363.627 170.816 363.417 170.656 363.24C170.302 362.88 169.857 362.623 169.368 362.496C168.872 362.328 168.352 362.208 167.832 362.08C165.736 361.608 163.552 361.28 161.328 360.928H161.28L155.2 358.4L154.08 357.944L155.288 358.04C160.032 358.44 164.984 358.84 170.112 359.088C171.392 359.152 172.688 359.208 173.992 359.232C174.64 359.232 175.296 359.232 175.944 359.232C176.272 359.232 176.6 359.232 176.92 359.184C177.076 359.168 177.231 359.144 177.384 359.112C177.529 359.084 177.667 359.03 177.792 358.952C178.367 358.665 178.905 358.307 179.392 357.888C179.637 357.693 179.84 357.451 179.989 357.176C180.139 356.901 180.232 356.599 180.264 356.288C180.262 355.658 180.032 355.05 179.616 354.576C179.415 354.344 179.171 354.153 178.896 354.016C178.621 353.879 178.322 353.797 178.016 353.776V353.368C178.82 353.389 179.624 353.327 180.416 353.184C180.797 353.123 181.167 353.004 181.512 352.832C181.671 352.769 181.811 352.667 181.92 352.536C182.029 352.404 182.104 352.248 182.136 352.08C182.087 351.297 181.809 350.546 181.336 349.92C180.92 349.245 180.353 348.676 179.68 348.256L170.4 344.392L167.2 343.76L159.2 342.16L157.48 341.816L159.232 341.744L169.984 341.32H170.048L179.448 344C180.225 344.107 181.015 343.946 181.688 343.544C181.963 343.294 182.154 342.966 182.235 342.604C182.317 342.242 182.285 341.863 182.144 341.52C181.842 340.809 181.335 340.205 180.688 339.784C180.052 339.312 179.381 338.889 178.68 338.52C175.892 337.1 172.985 335.928 169.992 335.016H170.04L155.424 334L153.824 333.888L155.424 333.64C157.145 333.372 158.851 333.017 160.536 332.576C162.156 332.168 163.732 331.6 165.24 330.88C165.958 330.54 166.615 330.083 167.184 329.528C167.443 329.253 167.639 328.926 167.76 328.568L167.928 328.016L168.032 327.448C168.163 326.722 168.135 325.976 167.95 325.262C167.765 324.548 167.427 323.883 166.96 323.312H167.128C164.344 324.384 161.68 325.344 159.128 326.136C157.884 326.533 156.618 326.859 155.336 327.112C154.096 327.328 152.936 327.6 151.768 327.912C147.882 329.012 144.067 330.348 140.344 331.912C137.264 333.152 134.92 334.232 133.344 334.984L131.552 335.864L130.888 336.112Z" fill="#FF9A6C"/>
<path d="M155.776 350.272C156.931 350.443 158.096 350.534 159.264 350.544C161.408 350.672 164.376 350.92 167.616 351.416C170.856 351.912 173.768 352.544 175.856 353.056C176.971 353.405 178.11 353.672 179.264 353.856C178.215 353.338 177.112 352.935 175.976 352.656C173.267 351.853 170.506 351.238 167.712 350.816C164.92 350.393 162.103 350.161 159.28 350.12C158.11 350.041 156.935 350.092 155.776 350.272Z" fill="#FF9A6C"/>
<path d="M82.9921 290.584C82.5601 292.592 82.1921 294.264 81.9361 295.544C81.7847 296.145 81.683 296.758 81.6321 297.376C81.8678 296.799 82.0499 296.202 82.1761 295.592C82.4961 294.328 82.9121 292.672 83.4161 290.688C84.4481 286.536 85.8161 280.792 87.2961 274.432C89.6961 264.032 91.6881 255.176 92.2001 252.424V252.208L92.0241 252.328C91.7129 252.514 91.4232 252.734 91.1601 252.984C91.497 252.851 91.8189 252.682 92.1201 252.48L91.9841 252.384C91.1841 255.072 89.0801 263.864 86.6481 274.296" fill="#263238"/>
<path d="M168.96 292.944L215.36 313.624C215.36 313.624 233.368 258.048 206.84 249.096L193.536 252.208L168.96 292.944Z" fill="#455A64"/>
<path d="M124.688 357.696C124.688 357.816 110.456 358.432 92.888 359.08C75.32 359.728 61.072 360.16 61.072 360.048C61.072 359.936 75.304 359.312 92.872 358.664C110.44 358.016 124.688 357.6 124.688 357.696Z" fill="#FF9A6C"/>
<path d="M67.728 326.12C67.728 326.192 66.816 326.28 65.384 326.632C63.5251 327.106 61.7554 327.879 60.144 328.92C58.5213 329.961 57.1276 331.322 56.048 332.92C55.248 334.144 54.936 335.024 54.864 335C54.8848 334.782 54.9388 334.569 55.024 334.368C55.2337 333.808 55.5019 333.272 55.824 332.768C56.8612 331.092 58.2677 329.674 59.936 328.624C61.5847 327.551 63.4186 326.794 65.344 326.392C65.9255 326.279 66.5132 326.202 67.104 326.16C67.308 326.11 67.5193 326.096 67.728 326.12Z" fill="#FF9A6C"/>
<path d="M176.96 286.344C176.936 286.496 176.89 286.645 176.824 286.784L176.36 288C175.952 289.048 175.328 290.56 174.536 292.424C172.936 296.144 170.632 301.224 167.896 306.752C165.16 312.28 162.544 317.224 160.616 320.776C159.656 322.552 158.864 323.976 158.304 324.968L157.656 326.096C157.588 326.23 157.504 326.356 157.408 326.472C157.45 326.327 157.509 326.187 157.584 326.056L158.16 324.888C158.712 323.832 159.448 322.392 160.36 320.64C162.216 317.048 164.784 312.096 167.56 306.568C170.336 301.04 172.648 295.992 174.304 292.304L176.248 287.936L176.792 286.752C176.835 286.611 176.891 286.474 176.96 286.344Z" fill="#263238"/>
<path d="M298.4 344.384C298.4 344.384 278.576 321.568 271.096 298.784C263.616 276 267.2 278.56 267.2 278.56C267.2 278.56 277.296 300.72 284.968 311.424C292.64 322.128 306.28 337.824 306.28 337.824L298.4 344.384Z" fill="#455A64"/>
<path d="M302.4 282.112C302.268 281.877 302.058 281.695 301.806 281.599C301.554 281.503 301.276 281.498 301.021 281.585C300.766 281.673 300.549 281.847 300.41 282.078C300.27 282.309 300.215 282.581 300.256 282.848C301.464 290.848 304.072 309.672 303.968 321.864C303.84 337.712 303.968 343.832 303.968 343.832H312.216C312.216 343.832 310.752 311.08 308.888 301.096C307.56 294.096 304.8 286.32 302.4 282.112Z" fill="#455A64"/>
<path d="M306.872 341.168C310.331 333.335 312.616 325.035 313.656 316.536C314.336 310.704 313.128 302.824 311.32 292.304C310.623 288.458 310.275 284.557 310.28 280.648C310.285 280.213 310.434 279.791 310.704 279.449C310.974 279.108 311.35 278.865 311.773 278.76C312.195 278.655 312.641 278.693 313.04 278.868C313.438 279.043 313.768 279.346 313.976 279.728C314.968 281.504 317.856 287.568 318.584 291.376C320.584 301.776 322.848 306.952 321.112 316.808C319.376 326.664 312.992 341.84 312.992 341.84L306.872 341.168Z" fill="#455A64"/>
<path d="M314.296 341.84C314.296 341.84 336.064 295.064 337.568 288.128C339.072 281.192 344.208 265.2 344.808 266.104C345.408 267.008 346.32 275.456 342.408 285.112C338.496 294.768 321.736 343.264 321.736 343.264H314.304" fill="#455A64"/>
<path d="M304.488 339.744C304.27 339.624 304.064 339.485 303.872 339.328C303.488 339.032 302.904 338.624 302.192 338.04C300.744 336.896 298.712 335.168 296.344 332.872C290.214 326.839 284.904 320.026 280.552 312.608C276.211 305.195 272.602 297.376 269.776 289.264C268.68 286.16 267.88 283.616 267.376 281.848C267.112 280.968 266.928 280.248 266.8 279.808C266.726 279.573 266.67 279.332 266.632 279.088C266.737 279.312 266.823 279.545 266.888 279.784C267.056 280.28 267.272 280.952 267.552 281.792C268.12 283.544 268.968 286.064 270.096 289.152C273.012 297.198 276.651 304.963 280.968 312.352C285.307 319.732 290.553 326.54 296.584 332.616C298.92 334.928 300.912 336.696 302.32 337.872C303.016 338.48 303.584 338.912 303.92 339.224C304.124 339.381 304.314 339.555 304.488 339.744Z" fill="#263238"/>
<path d="M306.864 317.304C306.761 316.854 306.697 316.397 306.672 315.936C306.568 314.968 306.432 313.704 306.272 312.184C305.928 308.984 305.384 304.656 304.616 299.864C303.848 295.072 303.016 290.76 302.328 287.648C302 286.152 301.736 284.912 301.528 283.96C301.408 283.512 301.327 283.054 301.288 282.592C301.465 283.022 301.604 283.466 301.704 283.92C301.952 284.776 302.272 286.024 302.648 287.576C303.392 290.672 304.304 294.984 305.048 299.792C305.792 304.6 306.304 308.976 306.568 312.152C306.696 313.752 306.784 315.032 306.816 315.92C306.872 316.379 306.888 316.842 306.864 317.304Z" fill="#263238"/>
<path d="M312 279.36C312.097 279.552 312.182 279.75 312.256 279.952C312.416 280.392 312.632 280.968 312.904 281.688C313.176 282.408 313.528 283.368 313.84 284.472C314.152 285.576 314.584 286.808 314.896 288.216C315.072 288.92 315.248 289.656 315.44 290.416C315.632 291.176 315.752 292.016 315.912 292.816C316.272 294.48 316.488 296.28 316.712 298.168C317.7 306.404 317.403 314.743 315.832 322.888C315.432 324.76 315.08 326.536 314.608 328.168C314.384 328.968 314.192 329.768 313.96 330.568L313.264 332.72C312.848 334.104 312.344 335.312 311.936 336.384C311.528 337.456 311.136 338.36 310.808 339.088C310.48 339.816 310.232 340.352 310.008 340.776C309.931 340.978 309.832 341.172 309.712 341.352C309.761 341.139 309.833 340.933 309.928 340.736L310.616 339.024C310.936 338.28 311.304 337.368 311.672 336.288C312.04 335.208 312.536 334 312.928 332.624C313.136 331.936 313.36 331.216 313.592 330.464C313.824 329.712 313.992 328.92 314.208 328.104C314.664 326.504 315.008 324.704 315.384 322.84C316.902 314.732 317.199 306.443 316.264 298.248C316.016 296.368 315.808 294.576 315.464 292.92C315.304 292.12 315.184 291.28 315.016 290.52C314.848 289.76 314.672 289.024 314.504 288.32C314.216 286.912 313.816 285.672 313.52 284.576C313.224 283.48 312.92 282.536 312.664 281.768C312.408 281 312.24 280.456 312.096 280.008C312.042 279.796 312.01 279.579 312 279.36Z" fill="#263238"/>
<path d="M344.56 267.048C344.569 267.117 344.569 267.187 344.56 267.256C344.56 267.424 344.504 267.624 344.464 267.864C344.368 268.4 344.248 269.184 344.032 270.192C343.616 272.208 342.912 275.096 341.824 278.608C340.736 282.12 339.256 286.248 337.488 290.768C335.72 295.288 333.696 300.232 331.76 305.48C329.824 310.728 328.288 315.84 326.872 320.488C325.456 325.136 324.128 329.288 322.872 332.744C321.874 335.472 320.725 338.143 319.432 340.744C318.984 341.672 318.584 342.344 318.328 342.84C318.208 343.056 318.104 343.224 318.024 343.376C317.944 343.528 317.912 343.552 317.904 343.544C317.924 343.478 317.951 343.413 317.984 343.352C318.056 343.2 318.136 343.016 318.248 342.792C318.48 342.304 318.848 341.6 319.272 340.664C320.144 338.816 321.328 336.088 322.56 332.664C323.792 329.24 325.104 325.048 326.488 320.392C327.872 315.736 329.392 310.608 331.36 305.352C333.328 300.096 335.36 295.16 337.128 290.648C338.896 286.136 340.424 282.04 341.544 278.544C342.664 275.048 343.416 272.184 343.888 270.184C344.128 269.184 344.28 268.408 344.4 267.88C344.464 267.64 344.504 267.44 344.544 267.28C344.534 267.202 344.54 267.124 344.56 267.048Z" fill="#263238"/>
<path d="M277.456 256.72C277.157 256.431 276.77 256.25 276.357 256.205C275.943 256.16 275.527 256.254 275.172 256.472C274.818 256.691 274.547 257.021 274.402 257.41C274.256 257.8 274.244 258.227 274.368 258.624C275.111 261.03 276.026 263.38 277.104 265.656C280.096 272.016 288.88 294.832 293 307.36C297.12 319.888 302.912 343.264 302.912 343.264L311.712 341.84C311.712 341.84 303.672 303.44 295.816 289.592C289.496 278.472 283.2 262.4 277.456 256.72Z" fill="#455A64"/>
<path d="M295.4 315.2C295.589 315.535 295.742 315.889 295.856 316.256C296.112 316.944 296.472 317.952 296.864 319.208C297.664 321.712 298.664 325.208 299.664 329.096C300.664 332.984 301.488 336.528 302.064 339.096L302.728 342.136C302.822 342.509 302.884 342.889 302.912 343.272C302.753 342.923 302.632 342.559 302.552 342.184L301.752 339.168L299.2 329.208C298.2 325.32 297.264 321.816 296.536 319.288L295.664 316.304C295.536 315.947 295.448 315.576 295.4 315.2Z" fill="#263238"/>
<path d="M307.32 342.552C307.294 342.474 307.278 342.394 307.272 342.312C307.272 342.128 307.216 341.904 307.176 341.624C307.08 341.016 307 340.112 306.816 338.96C306.488 336.656 305.912 333.36 304.968 329.272C303.847 324.525 302.474 319.841 300.856 315.24C299.056 310.032 296.8 304.408 294.232 298.592C289.064 286.96 283.904 276.648 280.512 268.992C278.8 265.192 277.472 262.088 276.592 259.92C276.152 258.84 275.832 257.992 275.608 257.424L275.36 256.768C275.329 256.694 275.307 256.616 275.296 256.536C275.343 256.603 275.38 256.675 275.408 256.752C275.48 256.92 275.576 257.128 275.696 257.384L276.76 259.848C277.688 261.992 279.056 265.072 280.808 268.856C284.28 276.44 289.488 286.728 294.664 298.368C297.224 304.2 299.464 309.84 301.264 315.064C302.861 319.687 304.196 324.395 305.264 329.168C305.996 332.382 306.565 335.632 306.968 338.904C307.128 340.064 307.176 340.968 307.24 341.584C307.24 341.864 307.28 342.096 307.296 342.28C307.317 342.369 307.325 342.461 307.32 342.552Z" fill="#263238"/>
<path d="M311.696 341.84C311.559 341.355 311.46 340.86 311.4 340.36L310.712 336.32C310.104 332.92 309.184 328.232 307.856 323.128C306.528 318.024 305.056 313.48 303.92 310.216L302.544 306.352C302.352 305.887 302.195 305.408 302.072 304.92C302.321 305.359 302.535 305.816 302.712 306.288C303.088 307.184 303.616 308.48 304.224 310.104C305.812 314.33 307.174 318.637 308.304 323.008C309.437 327.381 310.351 331.808 311.04 336.272C311.288 337.984 311.48 339.368 311.576 340.336C311.655 340.833 311.695 341.336 311.696 341.84Z" fill="#263238"/>
<path d="M329.72 340.576H295.432V382.352H329.72V340.576Z" fill="#FFC42E"/>
<g opacity="0.3">
<path opacity="0.3" d="M329.72 340.576H295.432V382.352H329.72V340.576Z" fill="black"/>
</g>
<path d="M318.784 340.576H288.36V382.352H318.784V340.576Z" fill="#FFC42E"/>
</svg>
