<svg width="200" height="200" viewBox="0 0 200 200" fill="none" xmlns="http://www.w3.org/2000/svg">
<path d="M144.58 190.68H55.33C30.59 190.68 10.35 170.44 10.35 145.7V54.22C10.35 29.48 30.59 9.23999 55.33 9.23999H144.58C169.32 9.23999 189.56 29.48 189.56 54.22V145.71C189.56 170.45 169.32 190.68 144.58 190.68Z" fill="#FDC61D"/>
<path d="M162.94 107.19C162.58 101.03 161.59 96.04 159.82 91.47C156.38 82.59 150.25 76.89 141.6 74.5C135.76 72.89 129.42 72.7301 122.75 74.0101C119.09 74.7101 115.77 76.04 112.86 77.97C111.29 75.65 108.63 74.28 105.3 74.27C100.29 74.26 95.29 74.26 90.28 74.27C84.76 74.27 81.1899 77.8601 81.1899 83.4001C81.1899 105.18 81.1899 126.96 81.1899 148.75C81.1899 154.29 84.76 157.87 90.27 157.88C94.06 157.89 97.84 157.88 101.63 157.88H104.94C110.87 157.88 114.42 154.34 114.42 148.42V140.2C114.43 131.97 114.43 123.73 114.4 115.5C114.39 113.11 114.77 110.84 115.56 108.56C117.2 103.81 120.15 103.21 122.23 103.17C125.6 103.11 127.35 104.32 128.5 107.49C129.15 109.3 129.46 111.39 129.47 114.09C129.49 122.28 129.49 130.47 129.49 138.66V148.94C129.49 154.17 133.1 157.85 138.26 157.87C140.98 157.88 143.69 157.89 146.36 157.89C149.1 157.89 151.81 157.88 154.47 157.87C159.61 157.84 163.2 154.21 163.22 149.04L163.23 146.81C163.24 143.14 163.26 139.34 163.22 135.59C163.19 132.53 163.21 129.39 163.23 126.36C163.28 120.1 163.32 113.63 162.94 107.19ZM153.23 135.68C153.27 139.37 153.25 143.13 153.24 146.78V147.88C148.79 147.9 144.19 147.9 139.5 147.88V138.67C139.5 130.47 139.51 122.27 139.48 114.07C139.47 110.19 138.97 107.03 137.92 104.11C135.33 96.91 129.73 93.0301 122.05 93.1801C114.55 93.3301 108.74 97.74 106.13 105.3C104.98 108.61 104.41 112.06 104.42 115.55C104.45 123.77 104.44 131.99 104.44 140.21V147.9H101.65C98.17 147.9 94.69 147.9 91.21 147.9C91.21 126.7 91.21 105.5 91.21 84.3C95.62 84.3 100.03 84.3 104.44 84.3C104.44 85.06 104.44 85.8401 104.44 86.6701V88.41C104.44 90.56 105.81 92.4701 107.85 93.1501C109.89 93.8301 112.14 93.1401 113.43 91.4201C114.79 89.6201 115.8 88.39 116.92 87.44C119.07 85.62 121.6 84.45 124.65 83.86C129.87 82.85 134.55 82.9601 138.95 84.1701C144.46 85.6901 148.24 89.27 150.5 95.11C151.88 98.67 152.66 102.7 152.96 107.79C153.31 113.91 153.27 120.22 153.24 126.32C153.22 129.37 153.2 132.54 153.23 135.68Z" fill="#141648"/>
<path d="M67.3099 74.28C63.1699 74.28 59.02 74.28 54.88 74.28H53.1C47.07 74.28 43.47 77.88 43.47 83.91V148.43C43.47 154.16 47.1899 157.87 52.9299 157.87C55.4799 157.87 58.0199 157.88 60.5699 157.88C62.8399 157.88 65.11 157.88 67.37 157.87C73.02 157.86 76.6799 154.19 76.6799 148.53C76.6899 126.91 76.6899 105.28 76.6799 83.66C76.6899 77.97 73.0099 74.28 67.3099 74.28ZM66.6899 147.88C62.2799 147.89 57.88 147.89 53.47 147.88V84.28H54.88C58.81 84.28 62.7499 84.28 66.6899 84.28C66.6999 105.48 66.6999 126.68 66.6899 147.88Z" fill="#141648"/>
<path d="M60.72 29.35C60.67 29.35 60.62 29.35 60.57 29.35C55.34 29.35 50.4001 31.39 46.6401 35.11C42.8201 38.89 40.71 43.93 40.69 49.29C40.68 54.64 42.73 59.66 46.48 63.43C50.23 67.2 55.24 69.29 60.59 69.3C60.61 69.3 60.6201 69.3 60.6401 69.3C65.9801 69.3 71.02 67.21 74.82 63.4C78.6 59.62 80.6701 54.63 80.6501 49.35C80.6201 38.41 71.68 29.43 60.72 29.35ZM67.75 56.34C65.84 58.25 63.3101 59.31 60.6401 59.31C60.6301 59.31 60.62 59.31 60.61 59.31C57.94 59.3 55.44 58.27 53.57 56.39C51.7 54.51 50.68 52 50.69 49.32C50.7 46.64 51.76 44.11 53.67 42.22C55.54 40.37 57.98 39.36 60.56 39.36C60.58 39.36 60.61 39.36 60.63 39.36C66.13 39.4 70.6201 43.9 70.6401 49.4C70.6701 51.99 69.64 54.45 67.75 56.34Z" fill="#141648"/>
<path d="M186.12 166.13C181.87 162.61 175.56 163.2 172.04 167.45C165.46 175.38 155.84 179.93 145.65 179.93H54.27C35.37 179.93 19.99 164.55 19.99 145.65V54.28C19.99 35.38 35.37 20 54.27 20H145.65C162.18 20 176.36 31.81 179.37 48.09C180.37 53.52 185.59 57.11 191.02 56.11C196.45 55.11 200.04 49.89 199.04 44.46C194.29 18.7 171.84 0 145.66 0H54.28C24.35 0 0 24.35 0 54.28V145.66C0 175.59 24.35 199.94 54.28 199.94H145.66C161.83 199.94 177.06 192.75 187.45 180.22C190.96 175.96 190.37 169.65 186.12 166.13Z" fill="#141648"/>
<path d="M189.92 62.25C184.4 62.25 179.92 66.73 179.92 72.25V79.57C179.92 85.09 184.4 89.57 189.92 89.57C195.44 89.57 199.92 85.09 199.92 79.57V72.25C199.92 66.73 195.45 62.25 189.92 62.25Z" fill="#141648"/>
<path d="M189.92 98.61C184.4 98.61 179.92 103.09 179.92 108.61V115.45C179.92 120.97 184.4 125.45 189.92 125.45C195.44 125.45 199.92 120.97 199.92 115.45V108.61C199.92 103.09 195.45 98.61 189.92 98.61Z" fill="#141648"/>
<path d="M189.92 134.67C184.4 134.67 179.92 139.15 179.92 144.67V145.65C179.92 146.62 179.88 147.61 179.79 148.58C179.32 154.08 183.4 158.92 188.9 159.39C189.19 159.41 189.48 159.43 189.76 159.43C194.9 159.43 199.27 155.49 199.71 150.28C199.84 148.75 199.91 147.19 199.91 145.65V144.67C199.92 139.15 195.45 134.67 189.92 134.67Z" fill="#141648"/>
</svg>
