<svg width="200" height="200" viewBox="0 0 200 200" fill="none" xmlns="http://www.w3.org/2000/svg">
<path d="M144.6 190.69H55.35C30.61 190.69 10.37 170.45 10.37 145.71V54.22C10.37 29.48 30.61 9.23999 55.35 9.23999H144.6C169.34 9.23999 189.58 29.48 189.58 54.22V145.71C189.58 170.45 169.34 190.69 144.6 190.69Z" fill="#FDC61D"/>
<path d="M145.66 0H54.28C24.35 0 0 24.35 0 54.28V145.66C0 175.59 24.35 199.94 54.28 199.94H145.66C161.83 199.94 177.06 192.75 187.45 180.22C190.97 175.97 190.38 169.66 186.13 166.14C184.26 164.59 182 163.84 179.75 163.84C176.88 163.84 174.02 165.07 172.05 167.46C165.47 175.39 155.85 179.94 145.66 179.94H54.28C35.38 179.94 20 164.56 20 145.66V54.28C20 35.38 35.38 20 54.28 20H145.66C162.19 20 176.37 31.81 179.38 48.09C180.27 52.91 184.47 56.28 189.2 56.28C189.8 56.28 190.41 56.23 191.03 56.11C196.46 55.11 200.05 49.89 199.05 44.46C194.3 18.7 171.84 0 145.66 0Z" fill="#141648"/>
<path d="M189.94 62.25C184.42 62.25 179.94 66.73 179.94 72.25V79.57C179.94 85.09 184.42 89.57 189.94 89.57C195.46 89.57 199.94 85.09 199.94 79.57V72.25C199.94 66.73 195.47 62.25 189.94 62.25Z" fill="#141648"/>
<path d="M189.94 98.62C184.42 98.62 179.94 103.1 179.94 108.62V115.46C179.94 120.98 184.42 125.46 189.94 125.46C195.46 125.46 199.94 120.98 199.94 115.46V108.62C199.94 103.09 195.47 98.62 189.94 98.62Z" fill="#141648"/>
<path d="M189.94 134.67C184.42 134.67 179.94 139.15 179.94 144.67V145.65C179.94 146.62 179.9 147.61 179.81 148.58C179.34 154.08 183.42 158.92 188.92 159.39C189.21 159.41 189.5 159.43 189.78 159.43C194.92 159.43 199.29 155.49 199.73 150.28C199.86 148.75 199.93 147.19 199.93 145.65V144.67C199.94 139.15 195.47 134.67 189.94 134.67Z" fill="#141648"/>
<path d="M128.92 49.72C128.37 49.72 128.17 49.91 127.98 50.39C121.11 67.55 114.24 84.71 107.36 101.87C106.04 105.17 104.71 108.47 103.38 111.79C103.1 111.6 103.06 111.33 102.96 111.1C93.73 90.87 84.4999 70.63 75.2899 50.39C75.0599 49.89 74.79 49.74 74.25 49.74C66.3 49.75 58.35 49.75 50.4 49.75C46.71 49.75 43.02 49.75 39.33 49.75C39.25 49.75 39.17 49.75 39.09 49.75C38.93 49.75 38.78 49.75 38.62 49.75C38.49 49.75 38.2999 49.75 38.3199 49.9C38.4099 50.7 38.02 51.54 38.66 52.3C42.4 56.77 46.06 61.31 49.87 65.73C51.19 67.26 51.74 68.83 51.73 70.84C51.68 89.02 51.7 107.21 51.7 125.39C51.7 125.7 51.7 126.02 51.74 126.33C51.99 128.22 51.4999 129.91 50.2999 131.37C46.0499 136.54 41.8 141.71 37.51 146.85C36.94 147.54 36.6899 148.21 36.6899 149.1C36.6899 149.84 36.92 149.97 37.6 149.97H37.61C45.33 149.96 53.05 149.95 60.77 149.95C64.95 149.95 69.1299 149.95 73.3099 149.95C73.3699 149.95 73.42 149.95 73.48 149.95C73.54 149.95 73.6 149.95 73.66 149.95C73.81 149.95 73.96 149.95 74.11 149.95C74.24 149.95 74.42 149.93 74.4 149.77C74.3 149.02 74.7 148.21 74.13 147.51C69.69 142.13 65.2499 136.74 60.7999 131.36C60.1899 130.63 59.77 129.81 59.48 128.9C59.12 127.77 59.27 126.63 59.27 125.48C59.28 110.04 59.27 94.61 59.27 79.17C59.27 78.86 59.27 78.55 59.27 78.23C59.33 78.21 59.3799 78.2 59.4399 78.18C59.5499 78.4 59.66 78.62 59.76 78.85C67.11 94.88 74.4499 110.91 81.7999 126.94C85.1999 134.35 88.6 141.76 91.97 149.18C92.22 149.74 92.5099 149.98 93.0399 149.98C93.0999 149.98 93.17 149.98 93.24 149.97C93.59 149.94 93.9399 149.92 94.2899 149.92C94.6199 149.92 94.95 149.94 95.27 149.97C95.35 149.98 95.43 149.98 95.5 149.98C96.07 149.98 96.3199 149.67 96.5499 149.09C105.74 125.68 114.96 102.28 124.18 78.88C124.28 78.63 124.3 78.33 124.63 78.09C124.63 78.27 124.63 78.39 124.63 78.5C124.63 97.49 124.62 116.49 124.64 135.48C124.64 136.63 124.29 137.53 123.45 138.33C120.37 141.27 117.33 144.27 114.24 147.21C113.61 147.81 113.31 148.41 113.34 149.3C113.36 150.06 113.55 150.23 114.29 150.23C114.29 150.23 114.29 150.23 114.3 150.23C125.07 150.21 135.84 150.21 146.6 150.21C151.69 150.21 156.78 150.21 161.87 150.21C161.94 150.21 162.02 150.21 162.09 150.21C162.18 150.21 162.27 150.21 162.35 150.21C162.45 150.21 162.54 150.21 162.64 150.21C162.77 150.21 162.89 150.21 162.97 150.06C163.18 149.67 162.92 147.96 162.58 147.63C159.36 144.48 156.15 141.34 152.93 138.19C152.36 137.63 152.04 136.97 151.99 136.18C151.96 135.69 152.01 135.19 152.01 134.69C152.01 111.67 152.01 88.64 152.01 65.62C152.01 65.1 151.99 64.57 151.98 64.05C151.96 63.14 152.26 62.36 152.92 61.73C156.02 58.76 159.1 55.77 162.23 52.85C162.98 52.15 163.37 51.48 163.28 50.43C163.23 49.83 163.09 49.72 162.53 49.72C162.53 49.72 162.53 49.72 162.52 49.72C157.09 49.73 151.65 49.73 146.22 49.73C140.45 49.74 134.69 49.73 128.92 49.72Z" fill="#141648"/>
</svg>
