<svg width="203" height="161" viewBox="0 0 203 161" fill="none" xmlns="http://www.w3.org/2000/svg">
<path d="M166.379 20.7661C167.719 20.4761 182.419 41.2161 189.339 71.8261C196.519 103.576 190.439 132.086 188.449 130.906C176.629 139.006 163.999 145.416 150.569 150.406C146.759 151.826 144.619 151.076 142.829 147.616C141.149 144.356 139.219 141.226 137.259 138.126C135.959 136.066 136.499 135.146 138.679 134.256C142.989 132.506 147.229 130.566 151.069 127.876C149.389 124.936 147.439 124.726 144.449 126.016C115.699 138.476 86.8386 138.346 58.0586 126.116C55.1586 124.886 53.1386 124.726 51.1786 127.846C54.9686 130.506 59.1285 132.486 63.3985 134.146C65.8285 135.086 66.3386 136.096 64.9186 138.296C62.6086 141.876 60.3485 145.486 58.2685 149.196C56.9785 151.486 55.5286 151.566 53.1986 150.776C38.5886 145.886 25.1486 138.806 12.5686 129.966C10.3986 128.436 9.57854 126.576 9.40854 124.076C7.02854 87.3861 15.7585 53.596 35.7685 22.716C36.8885 20.996 38.3385 20.0161 40.1185 19.2361C50.2285 14.7961 60.7485 11.6861 71.4985 9.20607C74.9985 8.39607 76.4485 10.0661 77.2785 12.8261C78.6485 17.3661 80.9185 19.0061 86.1285 18.1361C97.3485 16.2561 108.709 16.736 119.949 18.586C122.149 18.946 122.649 17.7261 123.409 16.1761C127.719 7.36607 125.159 8.26606 135.719 10.4161C137.869 10.8561 140.038 11.316 142.118 12.026C151.018 15.066 156.418 16.576 160.108 18.116L166.379 20.7661Z" fill="#FDC61D"/>
<path d="M165.959 39.8361C166.779 41.4561 167.699 43.2361 168.719 45.2061C169.199 46.1161 169.659 47.0361 170.109 47.9561C171.679 51.1361 174.869 52.9761 178.189 52.9761C179.529 52.9761 180.879 52.6761 182.159 52.0461C186.619 49.8461 188.449 44.4561 186.249 39.9961C185.739 38.9561 185.209 37.9261 184.679 36.8961C183.679 34.9861 182.799 33.2461 181.999 31.6761C179.739 27.2461 174.319 25.4861 169.899 27.7461C165.459 29.9861 163.699 35.4061 165.959 39.8361Z" fill="#141648"/>
<path d="M183.358 123.486C172.948 130.626 161.878 136.416 149.578 141.166C149.298 140.656 149.008 140.146 148.718 139.646C151.218 138.416 153.778 136.976 156.238 135.246C160.038 132.576 161.188 127.446 158.878 123.416C155.018 116.666 148.278 114.556 140.858 117.766C114.388 129.236 88.4485 129.266 61.5685 117.836C51.4485 113.536 45.9284 119.266 43.5484 123.056C40.9984 127.116 42.0784 132.456 45.9984 135.216C48.2784 136.816 50.7185 138.266 53.4485 139.616C53.1585 140.086 52.8785 140.566 52.5885 141.046C40.7785 136.746 29.5384 130.836 18.3484 123.046C16.2084 88.6362 24.5884 56.5662 43.2484 27.7262C43.3284 27.6762 43.4784 27.5962 43.7284 27.4862C51.4284 24.0962 59.8385 21.3262 69.9685 18.8362C73.2485 25.5062 79.3984 28.4062 87.5984 27.0262C96.9884 25.4562 107.088 25.6062 118.468 27.4862C122.458 28.1462 127.928 27.4362 131.388 20.3262L131.468 20.1562C131.688 19.7062 131.888 19.2862 132.078 18.8862C132.638 19.0062 133.238 19.1362 133.888 19.2662C135.888 19.6762 137.668 20.0562 139.178 20.5762C142.908 21.8462 146.088 22.8762 148.638 23.7062C152.208 24.8562 154.788 25.6962 156.628 26.4562C161.218 28.3662 166.488 26.1962 168.398 21.6062C170.308 17.0162 168.138 11.7462 163.548 9.83616C161.028 8.78616 158.158 7.85618 154.178 6.57618C151.558 5.72618 148.588 4.76618 145.008 3.54618C142.488 2.68618 140.018 2.15617 137.498 1.63617C136.188 1.36617 135.088 1.11616 134.158 0.906164C130.508 0.0861637 127.358 -0.623835 123.798 0.876165C119.628 2.63616 118.048 6.18618 116.778 9.04618C105.568 7.56618 95.2884 7.59617 85.4984 9.13617C82.8884 2.06617 76.8385 -1.24382 69.4485 0.456182C56.5885 3.41618 46.1185 6.77618 36.4685 11.0162C34.1485 12.0362 30.7684 13.8462 28.1884 17.8362C7.24845 50.1462 -2.11159 86.0862 0.398411 124.666C0.748411 130.076 3.08838 134.346 7.36838 137.336C21.2884 147.106 35.3385 154.296 50.3185 159.316C52.2085 159.946 53.9084 160.216 55.4284 160.216C61.5884 160.216 64.8385 155.836 66.0885 153.606C68.2585 149.746 70.6285 146.006 72.4585 143.166C72.9685 142.376 73.3785 141.606 73.6885 140.856C92.0185 145.446 110.368 145.456 128.558 140.906C128.838 141.556 129.198 142.226 129.628 142.906C131.388 145.706 133.248 148.686 134.818 151.726C138.698 159.256 145.578 161.836 153.688 158.826C168.048 153.486 181.448 146.586 193.528 138.316C197.628 135.506 198.668 129.906 195.858 125.806C193.058 121.726 187.458 120.676 183.358 123.486Z" fill="#141648"/>
<path d="M178.758 70.5061C179.418 72.8361 180.018 75.2161 180.558 77.5761C181.508 81.7561 185.218 84.5861 189.328 84.5861C189.988 84.5861 190.658 84.5161 191.328 84.3661C196.178 83.2661 199.218 78.4461 198.118 73.5961C197.508 70.9161 196.828 68.2261 196.088 65.6061C194.738 60.8261 189.758 58.0461 184.978 59.3961C180.188 60.7561 177.408 65.7261 178.758 70.5061Z" fill="#141648"/>
<path d="M202.818 101.616C202.708 96.6461 198.598 92.6961 193.628 92.8161C188.658 92.9261 184.718 97.0461 184.828 102.006C184.878 104.336 184.908 106.716 184.908 109.086C184.908 114.056 188.938 118.086 193.908 118.086C198.878 118.086 202.908 114.056 202.908 109.086C202.898 106.586 202.878 104.076 202.818 101.616Z" fill="#141648"/>
<path d="M87.0084 84.9161C86.4984 76.8961 80.0984 69.5761 72.7484 68.5461C65.2484 67.4961 58.2984 71.9261 55.3184 79.8261C53.1984 85.4361 53.3284 91.0761 56.0684 96.4661C59.1484 102.526 63.8084 106.486 70.9984 106.256C78.1484 106.026 82.5784 101.876 85.4084 95.6761C86.5784 93.1161 87.2584 90.4161 87.0384 87.5561C87.0084 86.6761 87.0584 85.7961 87.0084 84.9161Z" fill="#141648"/>
<path d="M115.328 90.0261C115.938 97.4461 121.808 104.556 128.498 106.006C135.278 107.486 142.258 104.146 145.778 97.4361C149.028 91.2361 149.348 84.7661 146.338 78.3761C143.498 72.3561 138.858 68.5561 131.938 68.4361C124.958 68.3061 120.408 72.2061 117.298 78.0361C115.758 80.9161 114.998 84.0661 115.328 87.6861C115.318 88.2661 115.258 89.1561 115.328 90.0261Z" fill="#141648"/>
</svg>
