<svg width="218" height="158" viewBox="0 0 218 158" fill="none" xmlns="http://www.w3.org/2000/svg">
<path d="M192.515 17.9063C187.765 14.6563 182.565 13.5163 175.875 12.7563C132.365 8.99633 87.6451 9.17633 41.8951 12.7563C25.615 12.7563 12.2951 26.0763 12.2951 42.3563C8.87507 66.8563 9.59507 91.1363 12.2951 115.316C12.2951 131.596 25.615 144.916 41.8951 144.916C88.215 147.856 133.015 148.096 175.875 144.916C182.675 144.916 188.965 142.586 193.985 138.686C193.985 138.686 208.375 123.956 207.775 78.1563C207.175 32.3363 192.515 17.9063 192.515 17.9063Z" fill="#FDC61D"/>
<path d="M187.845 130.776C184.375 133.466 180.245 134.896 175.875 134.896C175.625 134.896 175.385 134.906 175.135 134.926C134.585 137.936 89.965 137.926 42.525 134.916C42.315 134.906 42.105 134.896 41.895 134.896C31.095 134.896 22.295 126.106 22.295 115.296C22.295 114.926 22.275 114.556 22.235 114.186C19.245 87.3763 19.235 64.9863 22.205 43.7263C22.265 43.2663 22.305 42.8063 22.305 42.3463C22.305 31.5463 31.095 22.7463 41.905 22.7463C42.165 22.7463 42.425 22.7363 42.685 22.7163C88.765 19.1163 133.245 19.1063 174.885 22.6963C181.055 23.4163 184.205 24.3263 186.885 26.1563C191.445 29.2763 197.665 28.1063 200.785 23.5463C203.905 18.9863 202.735 12.7663 198.175 9.64627C191.745 5.24627 185.075 3.73627 177.035 2.80627C176.945 2.79627 176.845 2.78627 176.755 2.77627C134.095 -0.913729 88.595 -0.923707 41.495 2.73629C20.105 2.95629 2.715 20.2363 2.325 41.5963C-0.775 64.2263 -0.775 87.8663 2.325 115.886C2.645 137.336 20.095 154.706 41.575 154.886C65.635 156.406 88.985 157.166 111.485 157.166C133.985 157.166 155.645 156.406 176.285 154.886C184.985 154.806 193.225 151.926 200.135 146.556C204.495 143.166 205.285 136.886 201.895 132.526C198.495 128.176 192.205 127.386 187.845 130.776Z" fill="#141648"/>
<path d="M207.105 100.936C201.615 100.336 196.675 104.286 196.065 109.776L196.015 110.246C195.875 111.516 195.725 112.776 195.555 114.046C195.515 114.326 195.505 114.416 195.495 114.646C194.635 120.046 198.275 125.146 203.675 126.076C204.245 126.176 204.815 126.226 205.385 126.226C210.165 126.226 214.395 122.786 215.225 117.916C215.335 117.286 215.395 116.706 215.425 116.306C215.585 115.036 215.735 113.766 215.885 112.496L215.945 111.976C216.555 106.486 212.595 101.546 207.105 100.936Z" fill="#141648"/>
<path d="M217.785 74.6862C217.715 69.1662 213.185 64.7363 207.655 64.8163C202.135 64.8863 197.715 69.4263 197.785 74.9463C197.805 76.5963 197.785 78.4862 197.775 80.2162L197.765 81.3662C197.715 86.8862 202.155 91.4063 207.685 91.4463C207.715 91.4463 207.745 91.4463 207.775 91.4463C213.255 91.4463 217.725 87.0262 217.775 81.5262L217.785 80.3962C217.785 78.5362 217.805 76.4762 217.785 74.6862Z" fill="#141648"/>
<path d="M195.195 41.2463C195.325 41.6163 195.435 41.9463 195.555 42.2663C195.825 43.0063 195.855 43.0963 195.965 43.8563C195.995 44.0763 196.035 44.2963 196.085 44.5163C196.135 44.7963 196.175 45.1563 196.225 45.5363C196.295 46.0463 196.365 46.5963 196.445 47.1063C197.285 52.5463 202.365 56.2863 207.805 55.4763C207.815 55.4763 207.835 55.4763 207.845 55.4663C213.305 54.6263 217.045 49.5263 216.205 44.0663C216.145 43.6763 216.095 43.2663 216.035 42.8863C215.925 42.0863 215.825 41.3263 215.685 40.5963C215.315 38.2663 214.855 36.8863 214.345 35.4663C214.275 35.2663 214.195 35.0563 214.115 34.8263C212.345 29.5963 206.665 26.7963 201.435 28.5663C196.215 30.3363 193.415 36.0163 195.195 41.2463Z" fill="#141648"/>
<path d="M105.325 43.8563C99.705 40.3563 92.895 40.1963 87.115 43.4063C81.325 46.6163 77.875 52.4863 77.875 59.1063V98.0963C77.875 104.706 81.485 110.766 87.305 113.906C89.975 115.346 92.915 116.066 95.845 116.066C99.285 116.066 102.715 115.076 105.695 113.116L136.195 93.1063C141.345 89.7263 144.375 84.0263 144.305 77.8663C144.235 71.7063 141.065 66.0863 135.835 62.8263L105.325 43.8563ZM129.065 82.2363L98.565 102.246C96.335 103.716 94.265 102.886 93.485 102.466C92.705 102.046 90.875 100.766 90.875 98.0963V59.1063C90.875 56.4663 92.665 55.1963 93.425 54.7663C93.875 54.5163 94.765 54.1263 95.865 54.1263C96.645 54.1263 97.535 54.3163 98.455 54.8963L128.955 73.8763C131.035 75.1763 131.285 77.2163 131.295 78.0363C131.315 78.8463 131.115 80.8863 129.065 82.2363Z" fill="#141648"/>
</svg>
