<svg width="200" height="200" viewBox="0 0 200 200" fill="none" xmlns="http://www.w3.org/2000/svg">
<path d="M144.22 190.57H54.9698C30.2298 190.57 9.98975 170.33 9.98975 145.59V54.11C9.98975 29.37 30.2298 9.13 54.9698 9.13H144.22C168.96 9.13 189.2 29.37 189.2 54.11V145.6C189.19 170.33 168.95 190.57 144.22 190.57Z" fill="#FDC61D"/>
<path d="M144.22 190.57H54.9698C30.2298 190.57 9.98975 170.33 9.98975 145.59V54.11C9.98975 29.37 30.2298 9.13 54.9698 9.13H144.22C168.96 9.13 189.2 29.37 189.2 54.11V145.6C189.19 170.33 168.95 190.57 144.22 190.57Z" fill="#FDC61D"/>
<path d="M186.12 166.13C181.87 162.61 175.56 163.2 172.04 167.45C165.46 175.38 155.84 179.93 145.65 179.93H54.27C35.37 179.93 19.99 164.55 19.99 145.65V54.28C19.99 35.38 35.37 20 54.27 20H145.65C162.18 20 176.36 31.81 179.37 48.09C180.37 53.52 185.59 57.11 191.02 56.11C196.45 55.11 200.04 49.89 199.04 44.46C194.29 18.7 171.84 0 145.66 0H54.28C24.35 0 0 24.35 0 54.28V145.66C0 175.59 24.35 199.94 54.28 199.94H145.66C161.83 199.94 177.06 192.75 187.45 180.22C190.96 175.96 190.37 169.66 186.12 166.13Z" fill="#141648"/>
<path d="M189.92 62.25C184.4 62.25 179.92 66.73 179.92 72.25V79.57C179.92 85.09 184.4 89.57 189.92 89.57C195.44 89.57 199.92 85.09 199.92 79.57V72.25C199.92 66.73 195.45 62.25 189.92 62.25Z" fill="#141648"/>
<path d="M189.92 98.61C184.4 98.61 179.92 103.09 179.92 108.61V115.45C179.92 120.97 184.4 125.45 189.92 125.45C195.44 125.45 199.92 120.97 199.92 115.45V108.61C199.92 103.09 195.45 98.61 189.92 98.61Z" fill="#141648"/>
<path d="M189.92 134.67C184.4 134.67 179.92 139.15 179.92 144.67V145.65C179.92 146.62 179.88 147.61 179.79 148.58C179.32 154.08 183.4 158.92 188.9 159.39C189.19 159.41 189.48 159.43 189.76 159.43C194.9 159.43 199.27 155.49 199.71 150.28C199.84 148.75 199.91 147.19 199.91 145.65V144.67C199.92 139.15 195.45 134.67 189.92 134.67Z" fill="#141648"/>
<path d="M98.3099 52.59C71.5899 52.59 49.8599 74.33 49.8599 101.04C49.8599 127.75 71.5999 149.49 98.3099 149.49C125.02 149.49 146.76 127.75 146.76 101.04C146.76 74.33 125.03 52.59 98.3099 52.59ZM98.3099 134.5C79.8599 134.5 64.8599 119.49 64.8599 101.05C64.8599 82.61 79.8699 67.6 98.3099 67.6C116.75 67.6 131.76 82.61 131.76 101.05C131.76 119.49 116.76 134.5 98.3099 134.5Z" fill="#141648"/>
<path d="M164.665 52.519C167.182 46.442 164.296 39.475 158.219 36.958C152.142 34.44 145.175 37.326 142.658 43.403C140.14 49.48 143.026 56.448 149.103 58.965C155.181 61.482 162.148 58.596 164.665 52.519Z" fill="#141648"/>
</svg>
