<svg width="642" height="458" viewBox="0 0 642 458" fill="none" xmlns="http://www.w3.org/2000/svg">
<g clip-path="url(#clip0_3781_1290)">
<path d="M186.057 445.725C185.805 445.725 185.554 445.734 185.302 445.751L185.664 444.999C185.789 445.235 185.915 445.48 186.057 445.725Z" fill="#FFB8B8"/>
<path d="M642 0.405029H0.274048V458H642V0.405029Z" fill="#E6E6E6"/>
<path d="M623.65 57.7988H18.624V430.929H623.65V57.7988Z" fill="white"/>
<path d="M641.726 0H0V30.3544H641.726V0Z" fill="#D13C74"/>
<path d="M20.2596 21.1447C23.0503 21.1447 25.3126 18.6259 25.3126 15.5188C25.3126 12.4116 23.0503 9.89282 20.2596 9.89282C17.469 9.89282 15.2067 12.4116 15.2067 15.5188C15.2067 18.6259 17.469 21.1447 20.2596 21.1447Z" fill="white"/>
<path d="M39.4393 21.1447C42.23 21.1447 44.4923 18.6259 44.4923 15.5188C44.4923 12.4116 42.23 9.89282 39.4393 9.89282C36.6486 9.89282 34.3864 12.4116 34.3864 15.5188C34.3864 18.6259 36.6486 21.1447 39.4393 21.1447Z" fill="white"/>
<path d="M58.6191 21.1447C61.4098 21.1447 63.6721 18.6259 63.6721 15.5188C63.6721 12.4116 61.4098 9.89282 58.6191 9.89282C55.8285 9.89282 53.5662 12.4116 53.5662 15.5188C53.5662 18.6259 55.8285 21.1447 58.6191 21.1447Z" fill="white"/>
<path d="M211.4 88.4886H93.0657V231.429H211.4V88.4886Z" fill="#E6E6E6"/>
<path d="M380.303 88.4886H261.969V231.429H380.303V88.4886Z" fill="#E6E6E6"/>
<path d="M549.206 88.4886H430.871V231.429H549.206V88.4886Z" fill="#E6E6E6"/>
<path d="M211.4 257.302H93.0657V400.242H211.4V257.302Z" fill="#E6E6E6"/>
<path d="M380.303 257.302H261.969V400.242H380.303V257.302Z" fill="#E6E6E6"/>
<path d="M549.206 257.302H430.871V400.242H549.206V257.302Z" fill="#E6E6E6"/>
<path d="M139.031 174.92C150.078 174.92 159.034 164.949 159.034 152.649C159.034 140.349 150.078 130.377 139.031 130.377C127.983 130.377 119.027 140.349 119.027 152.649C119.027 164.949 127.983 174.92 139.031 174.92Z" fill="#FFB9B9"/>
<path d="M131.217 169.7C131.217 169.7 133.717 182.924 133.717 184.316C133.717 185.708 145.594 191.972 145.594 191.972L156.221 189.884L159.971 177.356C159.971 177.356 153.72 166.916 153.72 162.74L131.217 169.7Z" fill="#FFB9B9"/>
<path d="M121.684 134.705C121.684 134.705 128.035 119.385 140.207 122.92C152.38 126.456 159.26 131.759 159.789 137.062C160.319 142.366 159.525 150.321 159.525 150.321C159.525 150.321 158.202 139.419 149.734 141.776C141.266 144.133 128.035 142.366 128.035 142.366L125.918 163.579C125.918 163.579 123.536 159.749 120.89 162.106C118.244 164.463 113.216 139.419 121.684 134.705Z" fill="#2F2E41"/>
<path d="M202.476 226.076L197.479 201.016C194.973 192.663 188.728 185.709 188.728 185.709L157.901 173.639H157.893C157.833 176.673 156.914 179.608 155.268 182.027C153.622 184.445 151.332 186.224 148.725 187.109C139.345 190.581 132.887 178.878 132.887 178.878L106.829 201.016C106.829 201.016 98.7063 208.678 99.3347 223.294L98.4706 231.429H204.879L202.476 226.076Z" fill="#D13C74"/>
<path d="M307.482 186.019C322.476 186.019 334.632 171.652 334.632 153.929C334.632 136.207 322.476 121.84 307.482 121.84C292.487 121.84 280.331 136.207 280.331 153.929C280.331 171.652 292.487 186.019 307.482 186.019Z" fill="#2F2E41"/>
<path d="M331.571 202.489C339.459 202.489 345.854 195.37 345.854 186.587C345.854 177.804 339.459 170.684 331.571 170.684C323.683 170.684 317.288 177.804 317.288 186.587C317.288 195.37 323.683 202.489 331.571 202.489Z" fill="#2F2E41"/>
<path d="M321.624 165.289L329.276 187.438L309.892 196.526L308.19 192.231L302.24 177.216L321.624 165.289Z" fill="#9F616A"/>
<path d="M306.321 179.771C315.759 179.771 323.409 171.253 323.409 160.745C323.409 150.237 315.759 141.719 306.321 141.719C296.883 141.719 289.232 150.237 289.232 160.745C289.232 171.253 296.883 179.771 306.321 179.771Z" fill="#9F616A"/>
<path d="M292.353 158.658C303.094 150.678 306.305 148.771 318.616 151.853L319.354 131.855L287.54 139.286L292.353 158.658Z" fill="#2F2E41"/>
<path d="M361.409 203.903L360.938 203.964C360.926 203.945 360.913 203.927 360.899 203.911C359.029 201.83 350.104 198.042 343.45 195.418H343.443C339.216 193.748 335.909 192.549 335.909 192.549L327.864 183.339C325.837 185.875 321.556 187.835 317.487 189.217C314.371 190.267 311.202 191.108 307.997 191.736H307.989L306.323 197.657C306.323 197.657 287.445 213.568 285.921 215.265H285.914V215.282C285.792 215.475 285.741 215.713 285.772 215.947V215.991C284.82 221.069 284.33 226.241 284.311 231.429H366.516V226.058C366.516 218.676 361.409 203.903 361.409 203.903Z" fill="#575A89"/>
<path d="M512.573 231.429H471.927L469.688 206.842L469.554 205.346L469.279 202.381L468.156 189.986L466.75 203.299L463.78 231.429H456.396L456.67 222.673L456.945 213.795L457.063 210.218L458.579 161.551C458.463 153.838 460.655 146.302 464.809 140.13C467.116 136.786 470.092 134.089 473.5 132.253C476.909 130.417 480.655 129.493 484.441 129.555C488.304 129.541 492.117 130.523 495.582 132.425C499.046 134.326 502.068 137.095 504.411 140.515C508.705 146.749 511.003 154.403 510.939 162.259L511.639 191.718L512.573 231.429Z" fill="#2F2E41"/>
<path d="M484.441 178.966C494.316 178.966 502.32 170.054 502.32 159.06C502.32 148.066 494.316 139.154 484.441 139.154C474.567 139.154 466.563 148.066 466.563 159.06C466.563 170.054 474.567 178.966 484.441 178.966Z" fill="#FBBEBE"/>
<path d="M475.502 173.279C475.502 173.279 480.61 192.474 475.502 198.161C470.394 203.848 469.117 205.981 469.117 205.981L483.803 228.02L509.344 193.185C509.344 193.185 491.465 187.497 495.935 171.857L475.502 173.279Z" fill="#FBBEBE"/>
<path d="M530.657 231.429H515.574L515.323 228.551L515.095 225.892L522.04 224.921L530.414 223.758L530.508 226.74L530.657 231.429Z" fill="#FBBEBE"/>
<path d="M531.692 226.598C531.692 226.598 529.138 208.825 527.222 201.716C525.307 194.606 523.391 194.606 523.391 194.606H523.391L523.391 194.605C521.136 192.094 515.716 191.648 511.638 191.718C508.779 191.753 506.579 192.033 506.579 192.033L483.805 218.781L472.335 201.803V201.795C471.302 201.884 470.279 202.08 469.279 202.381C468.419 202.625 467.574 202.931 466.75 203.299C463.198 204.989 459.924 207.327 457.063 210.218H457.055C455.406 211.871 454.431 213.087 454.431 213.087C451.905 218.934 450.002 225.089 448.76 231.429H521.741L521.906 227.773V227.766L531.692 226.598Z" fill="#D13C74"/>
<path d="M469.436 155.861C480.983 148.929 485.727 149.223 500.085 155.861L503.916 145.468C503.914 143.512 503.215 141.636 501.972 140.252C500.73 138.868 499.045 138.09 497.287 138.088H471.596C469.838 138.09 468.153 138.868 466.91 140.252C465.668 141.636 464.969 143.512 464.967 145.468L469.436 155.861Z" fill="#2F2E41"/>
<path d="M150.668 291.899C149.717 291.812 148.764 292.049 147.936 292.578C147.151 293.324 146.521 294.25 146.089 295.294C144.09 299.202 141.384 302.605 138.142 305.288C135.78 307.214 132.778 309.616 133.182 313.167C133.395 314.34 133.784 315.464 134.333 316.493C136.512 321.389 142.456 325.173 141.871 330.76C144.036 326.726 141.141 324.731 143.305 320.697C144.336 318.775 146.126 316.607 147.682 317.813C148.203 318.217 148.546 318.942 149.088 319.296C150.383 320.142 151.76 318.525 152.906 317.38C156.857 313.431 162.476 314.465 167.393 315.696C169.715 316.277 172.264 317.039 173.637 319.509C175.441 322.757 171.923 326.265 171.034 329.937C170.961 330.249 170.958 330.577 171.024 330.892C171.09 331.207 171.223 331.499 171.413 331.744C171.602 331.988 171.842 332.178 172.112 332.297C172.382 332.416 172.674 332.461 172.962 332.427C174.438 332.265 176.185 332.132 176.273 331.411C178.129 331.485 180.404 331.251 181.199 329.098C181.442 328.247 181.57 327.36 181.58 326.467C181.872 322.852 183.25 319.554 184.163 316.113C185.076 312.672 185.473 308.64 183.932 305.59C183.382 304.575 182.702 303.655 181.914 302.858C173.171 293.438 161.677 291.885 150.668 291.899Z" fill="#2F2E41"/>
<path d="M143.773 337.816C143.773 337.816 145.674 355.458 138.702 356.869C131.731 358.28 145.04 382.273 145.04 382.273L176.73 386.507L169.124 358.28C169.124 358.28 164.054 356.163 167.223 342.05C170.392 327.937 143.773 337.816 143.773 337.816Z" fill="#9F616A"/>
<path d="M158.033 349.46C168.534 349.46 177.046 339.982 177.046 328.29C177.046 316.598 168.534 307.12 158.033 307.12C147.532 307.12 139.019 316.598 139.019 328.29C139.019 339.982 147.532 349.46 158.033 349.46Z" fill="#9F616A"/>
<path d="M125.307 400.242C128.669 385.521 133.312 365.692 133.312 365.692C133.312 365.692 135.119 366.103 137.962 366.566C142.117 367.255 146.303 367.679 150.501 367.835C155.874 368.001 161.53 367.607 165.906 365.919C167.556 365.33 169.097 364.414 170.455 363.217C171.027 362.704 171.539 362.113 171.979 361.458C179.583 350.166 182.749 393.209 182.749 393.209L183.338 400.242L125.307 400.242Z" fill="#D13C74"/>
<path d="M151.594 297.438C150.828 297.375 150.06 297.541 149.371 297.918C148.747 298.425 148.233 299.081 147.866 299.837C146.176 302.668 143.972 305.075 141.397 306.902C139.475 308.263 137.031 309.96 137.36 312.47C137.538 313.312 137.856 314.109 138.297 314.821C140.076 318.316 140.785 322.362 140.315 326.346L145.6 317.792C146.439 316.434 147.897 314.901 149.164 315.754C149.588 316.04 149.866 316.552 150.308 316.802C151.362 317.4 152.483 316.257 153.416 315.448C156.632 312.656 161.207 313.388 165.209 314.257C167.099 314.668 169.175 315.207 170.292 316.953C172.148 319.854 170.21 324.046 171.293 327.398C171.596 327.162 171.854 326.86 172.051 326.511C172.247 326.161 172.379 325.772 172.438 325.365C173.949 325.417 175.8 325.251 176.448 323.73C176.645 323.134 176.749 322.505 176.758 321.87C176.996 319.315 178.117 316.984 178.861 314.552C179.604 312.121 179.927 309.271 178.673 307.114C178.214 306.384 177.66 305.733 177.03 305.184C169.913 298.526 160.556 297.428 151.594 297.438Z" fill="#2F2E41"/>
<path d="M149.793 366.392C145.457 360.872 142.88 352.825 142.762 352.467V352.458C142.762 352.458 135.849 348.05 133.948 352.283C132.047 356.516 114.3 367.1 112.399 367.1C112.384 367.108 112.368 367.114 112.352 367.118C111.598 367.397 102.155 371.22 99.7275 385.451C99.0682 390.348 98.7165 395.29 98.6748 400.242H150.359C150.893 394.005 151.294 388.171 151.451 383.133C151.679 376.109 151.459 370.651 150.5 367.835C150.347 367.309 150.107 366.82 149.793 366.392Z" fill="#2F2E41"/>
<path d="M194.235 370.363C194.203 370.197 194.18 370.057 194.156 369.925C194.072 369.55 193.928 369.195 193.732 368.876C193.728 368.868 193.725 368.859 193.724 368.85C190.063 362.534 166.519 353.84 166.519 353.84L165.639 357.225C165.639 357.225 165.749 360.566 165.906 365.919C166.063 370.931 166.252 377.701 166.432 385.136C166.558 389.991 166.668 395.134 166.77 400.242H201.988C200.015 390.098 197.424 380.115 194.235 370.363Z" fill="#2F2E41"/>
<path d="M523.744 400.242L526.439 385.582L528.945 384.401L528.961 384.41C529.189 384.506 531.915 385.792 531.915 390.664C531.915 391.644 531.781 395.169 531.561 400.242H523.744Z" fill="#575A89"/>
<path d="M495.442 349.038C507.527 349.038 517.325 338.129 517.325 324.673C517.325 311.217 507.527 300.308 495.442 300.308C483.356 300.308 473.558 311.217 473.558 324.673C473.558 338.129 483.356 349.038 495.442 349.038Z" fill="#FFB8B8"/>
<path d="M509.119 338.886L507.295 380.508L479.029 362.235L482.676 338.886H509.119Z" fill="#FFB8B8"/>
<path d="M517.326 382.538L515.472 400.242H500.632L484.527 365.788L479.987 356.088L477.811 354.505L480.332 353.866L482.32 355.467L504.56 373.407L508.127 361.485L508.221 361.179L509.116 358.178L517.326 382.538Z" fill="#D13C74"/>
<path d="M482.22 300.816C482.22 300.816 484.956 285.588 500.456 288.633L498.633 289.649C498.633 289.649 513.222 287.618 511.398 296.755C511.398 296.755 523.251 304.876 520.516 314.013C518.908 319.309 517.688 324.741 516.869 330.256L514.133 327.211C514.133 327.211 511.398 306.907 494.986 308.937C482.676 310.46 477.661 316.932 476.379 321.595C475.789 323.788 475.035 325.923 474.126 327.976L473.102 328.226C473.102 328.226 467.632 305.892 482.22 300.816Z" fill="#2F2E41"/>
<path d="M528.961 384.41L528.945 384.401L517.326 372.383V364.266L508.355 356.394L508.221 361.179L507.294 393.708L492.376 370.861L482.32 355.467L480.513 352.712L480.953 350.131L475.383 357.155L455.225 373.993L453.496 375.436C451.514 377.645 449.686 380.019 448.029 382.538C447.487 383.439 445.02 390.612 441.807 400.242H531.561C531.781 395.169 531.915 391.644 531.915 390.664C531.915 385.792 529.189 384.506 528.961 384.41Z" fill="#2F2E41"/>
<path d="M319.335 297.91C304.506 297.91 292.485 312.763 292.485 331.086V354.365H298.915L302.638 345.74L301.708 354.365H343.04L346.424 346.524L345.578 354.365H350.232V336.087C350.232 315.002 336.399 297.91 319.335 297.91Z" fill="#2F2E41"/>
<path d="M297.666 400.242H280.202L280.037 384.384C280.029 384.218 280.029 384.06 280.029 383.894L283.525 379.512L283.588 379.433L296.935 388.845L297.666 400.242Z" fill="#D0CDE1"/>
<path d="M316.959 351.112C327.516 351.112 336.074 341.584 336.074 329.831C336.074 318.077 327.516 308.549 316.959 308.549C306.403 308.549 297.845 318.077 297.845 329.831C297.845 341.584 306.403 351.112 316.959 351.112Z" fill="#FBBEBE"/>
<path d="M306 342.6C306 342.6 311.607 374.948 309.059 378.353C306.51 381.758 336.074 372.11 336.074 372.11C336.074 372.11 326.389 349.977 331.486 337.492L306 342.6Z" fill="#FBBEBE"/>
<path d="M357.858 364.476H357.85C357.4 363.416 356.622 362.571 355.659 362.097C351.911 360.339 348.682 358.992 346.027 357.968C341.331 356.174 336.207 356.351 331.619 358.467C331.172 358.668 330.732 358.887 330.3 359.132C330.3 359.132 311.61 363.094 309.387 362.596C309.222 362.561 309.049 362.534 308.884 362.517C308.548 362.463 308.21 362.431 307.871 362.421C303.522 362.196 299.209 363.387 295.458 365.849C289.323 369.812 280.226 376.835 280.037 383.675L279.864 383.894L280.037 400.242H362.069C362.234 384.576 362.328 372.803 362.328 372.007C362.328 369.532 357.858 364.476 357.858 364.476Z" fill="#D13C74"/>
<path d="M326.968 307.049C325.676 305.117 324.001 303.543 322.074 302.448C320.148 301.353 318.02 300.767 315.857 300.736H315.33C305.166 300.736 296.927 310.976 296.927 323.607V323.607H300.333L300.883 318.946L301.689 323.607H321.887L323.579 319.664L323.156 323.607H327.13C328.984 333.86 326.32 344.113 319.137 354.365H325.906L329.291 346.479L328.445 354.365H341.348L343.886 336.226C343.886 322.641 336.797 311.122 326.968 307.049Z" fill="#2F2E41"/>
<path d="M330.678 308.959C336.232 308.959 340.734 303.946 340.734 297.762C340.734 291.578 336.232 286.565 330.678 286.565C325.124 286.565 320.621 291.578 320.621 297.762C320.621 303.946 325.124 308.959 330.678 308.959Z" fill="#2F2E41"/>
</g>
<defs>
<clipPath id="clip0_3781_1290">
<rect width="642" height="458" fill="white"/>
</clipPath>
</defs>
</svg>
