<svg width="1440" height="1024" viewBox="0 0 1440 1024" fill="none" xmlns="http://www.w3.org/2000/svg">
<g clip-path="url(#clip0)">
<rect width="1440" height="1024" fill="#141648"/>
<path fill-rule="evenodd" clip-rule="evenodd" d="M1201.8 -258.331C1252.29 -255.163 1299.95 -236.194 1344.24 -211.764C1387.2 -188.073 1422.12 -154.237 1455.59 -118.369C1490.97 -80.4507 1530.33 -43.9051 1546.77 5.28253C1563.7 55.9272 1567.81 113.183 1549.77 163.44C1532.09 212.685 1486.11 244.501 1448.01 280.362C1413.77 312.588 1376.43 338.971 1336.65 364.031C1293.07 391.484 1253.14 431.178 1201.8 435.447C1150.07 439.749 1100.07 414.365 1055.71 387.394C1013.3 361.611 983.533 321.547 951.761 283.421C919.452 244.652 878.444 209.585 866.635 160.519C854.804 111.358 874.629 61.2056 886.451 12.0421C898.172 -36.6978 907.896 -86.4412 936.003 -127.949C965.055 -170.853 1003.96 -207.381 1050.48 -230.2C1097.13 -253.081 1149.95 -261.586 1201.8 -258.331Z" fill="#D13C74"/>
<path fill-rule="evenodd" clip-rule="evenodd" d="M2 772.407L62 765.207C122 758.008 242 743.608 362 736.408C482 729.208 602 729.208 722 779.607C842 830.006 962 930.804 1082 945.204C1202 959.603 1322 887.605 1382 851.606L1442 815.606V1118H1382C1322 1118 1202 1118 1082 1118C962 1118 842 1118 722 1118C602 1118 482 1118 362 1118C242 1118 122 1118 62 1118H2V772.407Z" fill="#D13C74"/>
</g>
<defs>
<clipPath id="clip0">
<rect width="1440" height="1024" fill="white"/>
</clipPath>
</defs>
</svg>
