<svg width="2560" height="1080" viewBox="0 0 2560 1080" fill="none" xmlns="http://www.w3.org/2000/svg">
<g clip-path="url(#clip0)">
<rect width="2560" height="1080" fill="#141648"/>
<path fill-rule="evenodd" clip-rule="evenodd" d="M1820.81 -230.266C1889.33 -226.787 1954.01 -205.96 2014.13 -179.137C2072.43 -153.125 2119.82 -115.975 2165.24 -76.5928C2213.26 -34.9602 2266.68 5.16536 2288.99 59.1714C2311.96 114.777 2317.54 177.641 2293.05 232.822C2269.06 286.891 2206.66 321.823 2154.95 361.197C2108.48 396.58 2057.81 425.548 2003.82 453.063C1944.67 483.205 1890.48 526.787 1820.81 531.474C1750.59 536.198 1682.74 508.327 1622.53 478.714C1564.98 450.406 1524.58 406.416 1481.46 364.556C1437.61 321.989 1381.96 283.487 1365.93 229.615C1349.88 175.637 1376.78 120.573 1392.83 66.593C1408.73 13.0787 1421.93 -41.5375 1460.08 -87.1119C1499.51 -134.219 1552.31 -174.324 1615.45 -199.379C1678.75 -224.501 1750.44 -233.839 1820.81 -230.266Z" fill="#D13C74"/>
<path fill-rule="evenodd" clip-rule="evenodd" d="M0 824.447L106.667 818.519C213.333 812.591 426.667 800.734 640 794.806C853.333 788.878 1066.67 788.878 1280 830.375C1493.33 871.873 1706.67 954.867 1920 966.724C2133.33 978.58 2346.67 919.298 2453.33 889.657L2560 860.016V1109H2453.33C2346.67 1109 2133.33 1109 1920 1109C1706.67 1109 1493.33 1109 1280 1109C1066.67 1109 853.333 1109 640 1109C426.667 1109 213.333 1109 106.667 1109H0V824.447Z" fill="#D13C74"/>
</g>
<defs>
<clipPath id="clip0">
<rect width="2560" height="1080" fill="white"/>
</clipPath>
</defs>
</svg>
