<svg width="2560" height="1080" viewBox="0 0 2560 1080" fill="none" xmlns="http://www.w3.org/2000/svg">
<g clip-path="url(#clip0)">
<rect width="2560" height="1080" fill="#141648"/>
<path d="M657.073 197.594C487.519 267.003 276.058 329.073 65.0975 320.63C-145.863 312.188 -354.923 234.642 -451.794 124.173C-549.335 14.3205 -533.958 -126.429 -478.644 -240.518C-423.33 -354.607 -328.08 -442.034 -210.873 -495.728C-93.6655 -549.422 44.8281 -568.766 182.798 -611.88C320.768 -654.993 456.509 -721.657 612.966 -733.241C768.388 -745.221 943.856 -701.506 942.553 -620.826C942.285 -539.75 765.918 -422.324 760.385 -316.207C754.487 -211.102 919.424 -117.306 937.368 -32.7373C956.347 52.228 827.663 128.581 657.073 197.594Z" fill="#48DBDB"/>
<path d="M642.604 92.8653L642.601 92.8667C473.098 162.255 261.787 224.269 51.017 215.834C-159.784 207.397 -368.697 129.902 -465.485 19.5278L-465.487 19.5265C-562.933 -90.2197 -547.584 -230.856 -492.301 -344.882C-437.023 -458.897 -341.856 -546.225 -224.813 -599.844C-166.286 -626.656 -102.428 -644.899 -35.9186 -661.833C-19.4728 -666.02 -2.86321 -670.128 13.8674 -674.266C64.7763 -686.856 116.806 -699.723 168.752 -715.955C203.266 -726.741 237.636 -738.997 272.209 -751.491C276.384 -752.999 280.561 -754.511 284.742 -756.025C315.193 -767.046 345.833 -778.136 376.919 -788.465C447.626 -811.957 520.589 -831.492 598.704 -837.275L598.707 -837.275C676.315 -843.258 758.935 -835.333 821.977 -815.845C885.035 -796.352 928.384 -765.332 927.736 -725.176L927.736 -725.173C927.669 -704.986 916.639 -682.509 899.995 -658.462C885.095 -636.936 865.723 -614.185 845.745 -590.723C843.406 -587.976 841.059 -585.22 838.71 -582.455C793.907 -529.716 748.341 -473.738 745.568 -420.566C742.613 -367.901 782.453 -318.101 825.185 -270.951C830.906 -264.639 836.678 -258.375 842.408 -252.157C858.091 -235.138 873.452 -218.467 886.553 -202.12C904.439 -179.802 918.082 -158.121 922.556 -137.035L922.556 -137.032C932.014 -94.6947 904.698 -54.4892 853.666 -16.2213C802.619 22.0576 727.877 58.3677 642.604 92.8653Z" stroke="#141648"/>
<path fill-rule="evenodd" clip-rule="evenodd" d="M2358.18 -242.242C2458.36 -231.053 2479.22 -123.934 2564.92 -83.6306C2655.41 -41.0699 2817.16 -79.2523 2860.22 -6.1296C2902.37 65.4419 2779.24 131.977 2733.3 202.287C2697.47 257.12 2694.28 332.943 2621.02 359.939C2547.88 386.894 2464.45 346.234 2385.75 330.371C2331.8 319.497 2289.64 292.455 2235.46 282.228C2135.69 263.394 1993.05 310.927 1938.22 245.894C1888.01 186.355 2015.75 122.789 2044.47 55.7296C2071.76 -8.00069 2046.12 -82.7864 2101.51 -135.39C2163.58 -194.346 2258.93 -253.329 2358.18 -242.242Z" fill="#48DBDB"/>
<path fill-rule="evenodd" clip-rule="evenodd" d="M2387.52 -265.065C2486.65 -249.419 2499.08 -141.556 2581.47 -97.4942C2668.47 -50.9648 2832.93 -81.8538 2870.18 -6.93521C2906.65 66.3941 2778.53 127.312 2727.16 195.445C2687.09 248.582 2677.96 324.129 2602.72 347.805C2527.6 371.445 2447.5 327.129 2370.18 307.778C2317.17 294.512 2277.21 265.633 2223.93 253.004C2125.8 229.745 1979.69 270.823 1930.05 203.453C1884.59 141.775 2017.09 84.0275 2051.01 18.369C2083.25 -44.0302 2063.52 -119.83 2122.92 -169.868C2189.51 -225.947 2289.31 -280.566 2387.52 -265.065Z" stroke="#141648"/>
</g>
<defs>
<clipPath id="clip0">
<rect width="2560" height="1080" fill="white"/>
</clipPath>
</defs>
</svg>
