<svg width="2560" height="1080" viewBox="0 0 2560 1080" fill="none" xmlns="http://www.w3.org/2000/svg">
<g clip-path="url(#clip0)">
<rect width="2560" height="1080" fill="#F9F9F9"/>
<path d="M689.309 1277.97C520.447 1335.75 309.849 1387.42 99.749 1380.39C-110.351 1373.37 -318.558 1308.81 -415.033 1216.85C-512.177 1125.4 -496.862 1008.23 -441.774 913.254C-386.685 818.279 -291.824 745.498 -175.095 700.799C-58.3661 656.1 79.5624 639.996 216.97 604.106C354.377 568.215 489.564 512.719 645.382 503.076C800.17 493.102 974.922 529.494 973.624 596.658C973.358 664.152 797.71 761.905 792.199 850.245C786.326 937.742 950.59 1015.83 968.46 1086.23C987.362 1156.96 859.203 1220.52 689.309 1277.97Z" fill="#48DBDB"/>
<path d="M600.554 1240.81L600.551 1240.82C431.749 1298.58 221.307 1350.2 11.3993 1343.18C-198.544 1336.16 -406.609 1271.64 -503.004 1179.76L-503.005 1179.76C-600.053 1088.4 -584.765 971.325 -529.712 876.41C-474.664 781.503 -379.897 708.816 -263.352 664.188C-205.072 641.871 -141.481 626.685 -75.2427 612.588C-58.8644 609.102 -42.3226 605.683 -25.6599 602.238C25.041 591.757 76.8608 581.045 128.596 567.532C162.972 558.553 197.203 548.349 231.634 537.949C235.79 536.693 239.949 535.435 244.111 534.176C274.439 525 304.955 515.768 335.916 507.169C406.33 487.614 478.991 471.353 556.784 466.538L556.787 466.538C634.076 461.558 716.361 468.155 779.148 484.379C841.956 500.609 885.124 526.434 884.478 559.856L884.479 559.859C884.412 576.658 873.431 595.363 856.857 615.379C842.021 633.297 822.729 652.234 802.833 671.766C800.503 674.052 798.166 676.347 795.826 678.649C751.206 722.553 705.816 769.162 703.054 813.436C700.111 857.283 739.792 898.741 782.348 937.99C788.045 943.245 793.794 948.46 799.501 953.636C815.119 967.804 830.418 981.682 843.465 995.29C861.279 1013.87 874.865 1031.92 879.32 1049.47L879.321 1049.47C888.737 1084.71 861.542 1118.17 810.734 1150.01C759.905 1181.87 685.478 1212.1 600.554 1240.81Z" stroke="#141648"/>
<path fill-rule="evenodd" clip-rule="evenodd" d="M1636.06 -282.743C1766.71 -317.809 1888.39 -189.541 2027.87 -179.778C2175.15 -169.469 2335.37 -298.855 2453.12 -225.549C2568.38 -153.798 2480.2 -6.82717 2488.3 106.856C2494.62 195.516 2559.15 295.191 2495.33 366.346C2431.61 437.389 2294.55 426.045 2185.53 444.443C2110.81 457.055 2035.69 442.916 1961.27 456.478C1824.21 481.454 1695.43 613.487 1570.79 556.47C1456.69 504.271 1553.1 358.86 1527.2 257.9C1502.58 161.951 1404.29 77.8767 1423.51 -17.5682C1445.05 -124.539 1506.61 -248 1636.06 -282.743Z" fill="#48DBDB"/>
<path fill-rule="evenodd" clip-rule="evenodd" d="M1739.26 -238.386C1876.29 -252.738 1962.73 -108.365 2096.93 -77.4253C2238.66 -44.7526 2428.83 -147.025 2525.49 -57.1284C2620.09 30.8615 2496.02 161.408 2474.85 274.081C2458.35 361.953 2496.07 469.539 2415.29 529.506C2334.65 589.378 2203.2 557.257 2091.64 558.586C2015.16 559.498 1945.15 534.13 1868.74 536.02C1728 539.5 1567.95 649.183 1460.39 574.198C1361.91 505.55 1493.65 377.793 1494.11 274.864C1494.55 177.045 1419.74 79.5759 1463.02 -11.0331C1511.52 -112.584 1603.48 -224.166 1739.26 -238.386Z" stroke="#141648"/>
<path fill-rule="evenodd" clip-rule="evenodd" d="M-178.373 -349.422C-149.273 -419.338 -121.581 -525.662 -39.155 -517.627C53.6614 -508.578 89.9435 -343.616 182.604 -314.23C280.541 -283.172 357.849 -400.283 454.365 -361.118C544.465 -324.556 628.09 -220.691 638.228 -129.343C648.853 -33.6156 558.62 21.9339 504.314 88.9244C468.832 132.696 422.854 162.811 375.809 194.375C335.919 221.139 289.686 234.71 248.901 260.29C185.639 299.969 152.34 401.041 69.4401 386.532C-7.98546 372.981 -50.5533 270.123 -96.1417 199.902C-133.576 142.241 -153.561 80.2124 -170.468 16.9972C-185.958 -40.9219 -189.445 -96.4759 -190.677 -153.578C-192.136 -221.225 -202.611 -291.187 -178.373 -349.422Z" fill="#D13C74"/>
</g>
<defs>
<clipPath id="clip0">
<rect width="2560" height="1080" fill="white"/>
</clipPath>
</defs>
</svg>
