<svg width="2560" height="1080" viewBox="0 0 2560 1080" fill="none" xmlns="http://www.w3.org/2000/svg">
<g clip-path="url(#clip0)">
<rect width="2560" height="1080" fill="#F9F9F9"/>
<path d="M661.962 1275.12C492.407 1344.53 280.947 1406.6 69.9861 1398.16C-140.974 1389.72 -350.035 1312.17 -446.905 1201.7C-544.447 1091.85 -529.069 951.101 -473.755 837.013C-418.441 722.924 -323.191 635.497 -205.984 581.803C-88.7769 528.109 49.7168 508.765 187.687 465.651C325.657 422.537 461.398 355.874 617.855 344.29C773.277 332.309 948.744 376.025 947.442 456.704C947.174 537.781 770.807 655.206 765.274 761.324C759.376 866.428 924.313 960.225 942.257 1044.79C961.236 1129.76 832.552 1206.11 661.962 1275.12Z" fill="#48DBDB"/>
<path d="M647.493 1170.4L647.489 1170.4C477.987 1239.79 266.675 1301.8 55.9057 1293.36C-154.895 1284.93 -363.809 1207.43 -460.597 1097.06L-460.598 1097.06C-558.045 987.311 -542.696 846.675 -487.412 732.649C-432.134 618.634 -336.967 531.305 -219.924 477.687C-161.397 450.875 -97.5396 432.632 -31.0299 415.698C-14.5835 411.51 2.02687 407.402 18.7583 403.265C69.6664 390.675 121.696 377.807 173.641 361.575C208.155 350.79 242.525 338.534 277.098 326.04C281.272 324.532 285.45 323.02 289.631 321.506C320.081 310.485 350.722 299.395 381.808 289.066C452.515 265.574 525.478 246.039 603.593 240.256L603.596 240.255C681.204 234.273 763.824 242.198 826.866 261.686C889.924 281.179 933.273 312.199 932.624 352.355L932.624 352.358C932.558 372.545 921.527 395.022 904.883 419.068C889.984 440.595 870.611 463.346 850.633 486.808C848.295 489.554 845.948 492.311 843.599 495.076C798.795 547.815 753.23 603.793 750.457 656.965C747.502 709.63 787.342 759.43 830.074 806.58C835.795 812.892 841.568 819.157 847.297 825.375C862.98 842.394 878.341 859.064 891.442 875.411C909.328 897.729 922.97 919.41 927.445 940.496L927.445 940.499C936.902 982.836 909.587 1023.04 858.554 1061.31C807.508 1099.59 732.766 1135.9 647.493 1170.4Z" stroke="#141648"/>
<path fill-rule="evenodd" clip-rule="evenodd" d="M2355.18 847.758C2455.36 858.947 2476.22 966.066 2561.92 1006.37C2652.41 1048.93 2814.16 1010.75 2857.22 1083.87C2899.37 1155.44 2776.24 1221.98 2730.3 1292.29C2694.47 1347.12 2691.28 1422.94 2618.02 1449.94C2544.88 1476.89 2461.45 1436.23 2382.75 1420.37C2328.8 1409.5 2286.64 1382.45 2232.46 1372.23C2132.69 1353.39 1990.05 1400.93 1935.22 1335.89C1885.01 1276.35 2012.75 1212.79 2041.47 1145.73C2068.76 1082 2043.12 1007.21 2098.51 954.61C2160.58 895.654 2255.93 836.671 2355.18 847.758Z" fill="#48DBDB"/>
<path fill-rule="evenodd" clip-rule="evenodd" d="M2384.52 824.935C2483.65 840.581 2496.08 948.444 2578.47 992.506C2665.47 1039.04 2829.93 1008.15 2867.18 1083.06C2903.65 1156.39 2775.53 1217.31 2724.16 1285.45C2684.09 1338.58 2674.96 1414.13 2599.72 1437.81C2524.6 1461.45 2444.5 1417.13 2367.18 1397.78C2314.17 1384.51 2274.21 1355.63 2220.93 1343C2122.8 1319.74 1976.69 1360.82 1927.05 1293.45C1881.59 1231.78 2014.09 1174.03 2048.01 1108.37C2080.25 1045.97 2060.52 970.17 2119.92 920.132C2186.51 864.053 2286.31 809.434 2384.52 824.935Z" stroke="#141648"/>
<path fill-rule="evenodd" clip-rule="evenodd" d="M1395.6 -130.037C1447.4 -254.831 1649.1 -232.966 1749.4 -325.686C1855.32 -423.598 1836.49 -650.772 1983.21 -673.221C2126.81 -695.194 2209.41 -505.147 2323.09 -413.465C2411.75 -341.964 2548.88 -303.196 2575.09 -195.876C2601.25 -88.7243 2501.01 0.895834 2447.43 95.7057C2410.7 160.698 2348.21 203.015 2312.59 268.598C2246.98 389.379 2288.84 596.04 2153.17 637.454C2028.95 675.369 1953.21 480.698 1840.05 412.834C1732.51 348.339 1588.22 347.434 1509.76 251.596C1421.82 144.185 1344.27 -6.39055 1395.6 -130.037Z" fill="#D13C74"/>
<path fill-rule="evenodd" clip-rule="evenodd" d="M1505.22 -166.777C1580.95 -278.428 1774.99 -217.186 1892.05 -287.917C2015.67 -362.609 2042.23 -588.23 2191 -581.144C2336.61 -574.208 2380.14 -372.242 2473.76 -260.21C2546.77 -172.837 2673.96 -107.853 2678.44 2.157C2682.91 111.994 2566.52 179.71 2495 261.721C2445.97 317.94 2376.11 346.917 2328.06 403.932C2239.56 508.934 2239.71 719.072 2098.04 732.694C1968.34 745.165 1932.48 540.038 1834.64 451.373C1741.66 367.11 1599.92 337.693 1541.77 228.565C1476.59 106.259 1430.2 -56.1533 1505.22 -166.777Z" stroke="#141648"/>
</g>
<defs>
<clipPath id="clip0">
<rect width="2560" height="1080" fill="white"/>
</clipPath>
</defs>
</svg>
