<svg width="2560" height="1080" viewBox="0 0 2560 1080" fill="none" xmlns="http://www.w3.org/2000/svg">
<g clip-path="url(#clip0)">
<rect width="2560" height="1080" fill="#141648"/>
<path fill-rule="evenodd" clip-rule="evenodd" d="M1395.6 940.963C1447.4 816.169 1649.1 838.034 1749.4 745.314C1855.32 647.402 1836.49 420.228 1983.21 397.779C2126.81 375.806 2209.41 565.853 2323.09 657.535C2411.75 729.036 2548.88 767.804 2575.09 875.124C2601.25 982.276 2501.01 1071.9 2447.43 1166.71C2410.7 1231.7 2348.21 1274.02 2312.59 1339.6C2246.98 1460.38 2288.84 1667.04 2153.17 1708.45C2028.95 1746.37 1953.21 1551.7 1840.05 1483.83C1732.51 1419.34 1588.22 1418.43 1509.76 1322.6C1421.82 1215.18 1344.27 1064.61 1395.6 940.963Z" fill="#D13C74"/>
<path fill-rule="evenodd" clip-rule="evenodd" d="M1505.22 904.223C1580.95 792.572 1774.99 853.814 1892.05 783.083C2015.67 708.391 2042.23 482.77 2191 489.856C2336.61 496.792 2380.14 698.758 2473.76 810.79C2546.77 898.163 2673.96 963.147 2678.44 1073.16C2682.91 1182.99 2566.52 1250.71 2495 1332.72C2445.97 1388.94 2376.11 1417.92 2328.06 1474.93C2239.56 1579.93 2239.71 1790.07 2098.04 1803.69C1968.34 1816.16 1932.48 1611.04 1834.64 1522.37C1741.66 1438.11 1599.92 1408.69 1541.77 1299.57C1476.59 1177.26 1430.2 1014.85 1505.22 904.223Z" stroke="#141648"/>
<path d="M689.309 203.876C520.447 261.658 309.849 313.33 99.749 306.301C-110.351 299.273 -318.558 234.718 -415.033 142.756C-512.177 51.3065 -496.862 -65.8639 -441.774 -160.84C-386.685 -255.815 -291.824 -328.596 -175.095 -373.295C-58.3661 -417.993 79.5624 -434.097 216.97 -469.988C354.377 -505.879 489.564 -561.375 645.382 -571.018C800.17 -580.991 974.922 -544.6 973.624 -477.436C973.358 -409.942 797.71 -312.188 792.199 -223.849C786.326 -136.352 950.59 -58.2687 968.46 12.1322C987.362 82.8635 859.203 146.425 689.309 203.876Z" fill="#48DBDB"/>
<path d="M600.554 166.721L600.551 166.722C431.749 224.483 221.307 276.107 11.3993 269.085C-198.544 262.062 -406.609 197.548 -503.004 105.663L-503.005 105.662C-600.053 14.302 -584.765 -102.769 -529.712 -197.684C-474.664 -292.591 -379.897 -365.278 -263.352 -409.906C-205.072 -432.223 -141.481 -447.408 -75.2427 -461.506C-58.8644 -464.991 -42.3226 -468.411 -25.6599 -471.855C25.041 -482.336 76.8608 -493.049 128.596 -506.562C162.972 -515.541 197.203 -525.744 231.634 -536.145C235.79 -537.4 239.949 -538.658 244.111 -539.918C274.439 -549.093 304.955 -558.326 335.916 -566.924C406.33 -586.48 478.991 -602.741 556.784 -607.555L556.787 -607.556C634.076 -612.536 716.361 -605.939 779.148 -589.715C841.956 -573.485 885.124 -547.66 884.478 -514.238L884.479 -514.235C884.412 -497.436 873.431 -478.73 856.857 -458.715C842.021 -440.797 822.729 -421.859 802.833 -402.328C800.503 -400.042 798.166 -397.747 795.826 -395.445C751.206 -351.541 705.816 -304.931 703.054 -260.658C700.111 -216.811 739.792 -175.352 782.348 -136.103C788.045 -130.849 793.794 -125.634 799.501 -120.458C815.119 -106.29 830.418 -92.4116 843.465 -78.8033C861.279 -60.2238 874.865 -42.1756 879.32 -24.6236L879.321 -24.6215C888.737 10.6151 861.542 44.0725 810.734 75.9196C759.905 107.779 685.478 138.003 600.554 166.721Z" stroke="#141648"/>
</g>
<defs>
<clipPath id="clip0">
<rect width="2560" height="1080" fill="white"/>
</clipPath>
</defs>
</svg>
