<svg width="2560" height="1080" viewBox="0 0 2560 1080" fill="none" xmlns="http://www.w3.org/2000/svg">
<g clip-path="url(#clip0)">
<rect width="2560" height="1080" fill="#141648"/>
<path fill-rule="evenodd" clip-rule="evenodd" d="M-101.373 642.296C-72.273 572.38 -44.5805 466.056 37.845 474.091C130.661 483.14 166.944 648.102 259.604 677.488C357.541 708.546 434.849 591.435 531.365 630.6C621.465 667.162 705.09 771.027 715.228 862.375C725.853 958.102 635.62 1013.65 581.314 1080.64C545.832 1124.41 499.854 1154.53 452.809 1186.09C412.919 1212.86 366.686 1226.43 325.901 1252.01C262.639 1291.69 229.34 1392.76 146.44 1378.25C69.0145 1364.7 26.4467 1261.84 -19.1417 1191.62C-56.5763 1133.96 -76.5614 1071.93 -93.4677 1008.72C-108.958 950.796 -112.445 895.242 -113.677 838.14C-115.136 770.493 -125.611 700.531 -101.373 642.296Z" fill="#D13C74"/>
<path fill-rule="evenodd" clip-rule="evenodd" d="M1633.06 806.257C1763.71 771.191 1885.39 899.459 2024.87 909.222C2172.15 919.531 2332.37 790.145 2450.12 863.451C2565.38 935.202 2477.2 1082.17 2485.3 1195.86C2491.62 1284.52 2556.15 1384.19 2492.33 1455.35C2428.61 1526.39 2291.55 1515.04 2182.53 1533.44C2107.81 1546.05 2032.69 1531.92 1958.27 1545.48C1821.21 1570.45 1692.43 1702.49 1567.79 1645.47C1453.69 1593.27 1550.1 1447.86 1524.2 1346.9C1499.58 1250.95 1401.29 1166.88 1420.51 1071.43C1442.05 964.461 1503.61 841 1633.06 806.257Z" fill="#48DBDB"/>
<path fill-rule="evenodd" clip-rule="evenodd" d="M1736.26 850.614C1873.29 836.262 1959.73 980.635 2093.93 1011.57C2235.66 1044.25 2425.83 941.975 2522.49 1031.87C2617.09 1119.86 2493.02 1250.41 2471.85 1363.08C2455.35 1450.95 2493.07 1558.54 2412.29 1618.51C2331.65 1678.38 2200.2 1646.26 2088.64 1647.59C2012.16 1648.5 1942.15 1623.13 1865.74 1625.02C1725 1628.5 1564.95 1738.18 1457.39 1663.2C1358.91 1594.55 1490.65 1466.79 1491.11 1363.86C1491.55 1266.04 1416.74 1168.58 1460.02 1077.97C1508.52 976.416 1600.48 864.834 1736.26 850.614Z" stroke="#141648"/>
<path fill-rule="evenodd" clip-rule="evenodd" d="M2560 239.553L2453.33 245.481C2346.67 251.409 2133.33 263.266 1920 269.194C1706.67 275.122 1493.33 275.122 1280 233.625C1066.67 192.127 853.333 109.133 640 97.2765C426.667 85.4201 213.333 144.702 106.667 174.343L-1.90735e-05 203.984V-45H106.667C213.333 -45 426.667 -45 640 -45C853.333 -45 1066.67 -45 1280 -45C1493.33 -45 1706.67 -45 1920 -45C2133.33 -45 2346.67 -45 2453.33 -45H2560V239.553Z" fill="#D13C74"/>
</g>
<defs>
<clipPath id="clip0">
<rect width="2560" height="1080" fill="white"/>
</clipPath>
</defs>
</svg>
