<svg width="1440" height="1024" viewBox="0 0 1440 1024" fill="none" xmlns="http://www.w3.org/2000/svg">
<g clip-path="url(#clip0)">
<rect width="1440" height="1024" fill="#141648"/>
<path fill-rule="evenodd" clip-rule="evenodd" d="M0 687.407L60 680.207C120 673.008 240 658.608 360 651.408C480 644.208 600 644.208 720 694.607C840 745.006 960 845.804 1080 860.204C1200 874.603 1320 802.605 1380 766.606L1440 730.606V1033H1380C1320 1033 1200 1033 1080 1033C960 1033 840 1033 720 1033C600 1033 480 1033 360 1033C240 1033 120 1033 60 1033H0V687.407Z" fill="#FFC42E"/>
<path fill-rule="evenodd" clip-rule="evenodd" d="M1190.8 -211.331C1241.29 -208.163 1288.95 -189.194 1333.24 -164.764C1376.2 -141.073 1411.12 -107.237 1444.59 -71.3689C1479.97 -33.4507 1519.33 3.09489 1535.77 52.2825C1552.7 102.927 1556.81 160.183 1538.77 210.44C1521.09 259.685 1475.11 291.501 1437.01 327.362C1402.77 359.588 1365.43 385.971 1325.65 411.031C1282.07 438.484 1242.14 478.178 1190.8 482.447C1139.07 486.749 1089.07 461.365 1044.71 434.394C1002.3 408.611 972.533 368.547 940.761 330.421C908.452 291.652 867.444 256.585 855.635 207.519C843.804 158.358 863.629 108.206 875.451 59.0421C887.172 10.3022 896.896 -39.4412 925.003 -80.9495C954.055 -123.853 992.964 -160.381 1039.48 -183.2C1086.13 -206.081 1138.95 -214.586 1190.8 -211.331Z" fill="#D13C74"/>
</g>
<defs>
<clipPath id="clip0">
<rect width="1440" height="1024" fill="white"/>
</clipPath>
</defs>
</svg>
