<svg width="1440" height="1024" viewBox="0 0 1440 1024" fill="none" xmlns="http://www.w3.org/2000/svg">
<g clip-path="url(#clip0)">
<rect width="1440" height="1024" fill="#F9F9F9"/>
<path fill-rule="evenodd" clip-rule="evenodd" d="M923.673 -112.744C1024.74 -147.81 1118.87 -19.5414 1226.76 -9.77849C1340.69 0.5311 1464.63 -128.856 1555.72 -55.5495C1644.88 16.2014 1576.66 163.173 1582.93 276.856C1587.82 365.516 1637.74 465.191 1588.37 536.345C1539.08 607.388 1433.05 596.044 1348.73 614.443C1290.92 627.054 1232.81 612.916 1175.24 626.478C1069.22 651.454 969.596 783.487 873.184 726.47C784.919 674.27 859.498 528.86 839.46 427.9C820.417 331.951 744.388 247.876 759.255 152.432C775.917 45.461 823.54 -78.0005 923.673 -112.744Z" fill="#48DBDB"/>
<path fill-rule="evenodd" clip-rule="evenodd" d="M1003.5 -68.3862C1109.51 -82.7386 1176.37 61.6343 1280.19 92.5744C1389.82 125.247 1536.93 22.9744 1611.7 112.871C1684.88 200.861 1588.9 331.408 1572.53 444.081C1559.76 531.953 1588.94 639.539 1526.46 699.506C1464.07 759.378 1362.39 727.257 1276.09 728.586C1216.93 729.498 1162.78 704.129 1103.66 706.019C994.795 709.5 870.991 819.183 787.783 744.198C711.606 675.549 813.511 547.793 813.868 444.864C814.208 347.045 756.339 249.576 789.817 158.967C827.337 57.4161 898.472 -54.1658 1003.5 -68.3862Z" stroke="#141648"/>
<path d="M295.03 1211.7C210.02 1266.49 104 1315.48 -1.76945 1308.82C-107.539 1302.15 -212.356 1240.95 -260.924 1153.75C-309.828 1067.05 -302.118 955.951 -274.386 865.9C-246.653 775.849 -198.897 706.842 -140.133 664.461C-81.3686 622.08 -11.9319 606.811 57.2423 572.781C126.417 538.752 194.473 486.133 272.916 476.99C350.84 467.534 438.815 502.039 438.161 565.72C438.027 629.714 349.602 722.399 346.828 806.158C343.871 889.118 426.565 963.153 435.562 1029.9C445.078 1096.97 380.559 1157.23 295.03 1211.7Z" fill="#48DBDB"/>
<path d="M250.184 1176.34L250.182 1176.34C165.2 1231.11 59.3035 1280.02 -46.2884 1273.37C-151.893 1266.72 -256.551 1205.6 -305.034 1118.56L-305.035 1118.55C-353.851 1032 -346.173 921.054 -318.459 831.061C-290.75 741.087 -243.048 672.182 -184.394 629.881C-155.066 608.73 -123.066 594.337 -89.7247 580.972C-81.4827 577.669 -73.1571 574.427 -64.7699 571.162C-39.2442 561.224 -13.1475 551.063 12.9043 538.247C30.214 529.732 47.4503 520.055 64.7839 510.194C66.8765 509.004 68.9705 507.81 71.0662 506.616C86.3341 497.917 101.694 489.164 117.277 481.013C152.723 462.473 189.278 447.069 228.4 442.509L228.403 442.508C267.272 437.792 308.641 444.042 340.195 459.398C371.749 474.755 393.405 499.168 393.081 530.764L393.081 530.768C393.048 546.67 387.527 564.39 379.184 583.367C371.716 600.354 362.005 618.307 351.988 636.827C350.816 638.994 349.639 641.169 348.462 643.352C326.003 684.972 303.139 729.182 301.748 771.191C300.264 812.816 320.267 852.169 341.693 889.386C344.563 894.371 347.458 899.318 350.332 904.226C358.193 917.658 365.89 930.808 372.455 943.705C381.418 961.311 388.247 978.4 390.486 995.013L390.486 995.016C395.219 1028.37 381.551 1060.07 355.974 1090.26C330.392 1120.46 292.932 1149.12 250.184 1176.34Z" stroke="#141648"/>
<path fill-rule="evenodd" clip-rule="evenodd" d="M-157.917 -332.891C-134.19 -388.715 -111.265 -473.463 -45.8488 -467.792C27.814 -461.407 55.2065 -330.607 128.569 -308.056C206.108 -284.222 268.546 -377.975 344.887 -347.684C416.152 -319.407 481.689 -237.58 488.95 -165.064C496.559 -89.0701 424.388 -44.1346 380.661 9.58227C352.09 44.6808 315.299 69.0164 277.649 94.5127C245.724 116.131 208.875 127.319 176.25 148.006C125.643 180.093 98.3103 260.715 32.5733 249.903C-28.8225 239.806 -61.7485 158.422 -97.3577 103.006C-126.598 57.501 -141.937 8.37342 -154.82 -41.7241C-166.623 -87.6245 -168.911 -131.749 -169.394 -177.124C-169.965 -230.878 -177.68 -286.394 -157.917 -332.891Z" fill="#D13C74"/>
</g>
<defs>
<clipPath id="clip0">
<rect width="1440" height="1024" fill="white"/>
</clipPath>
</defs>
</svg>
