<svg width="706" height="748" viewBox="0 0 706 748" fill="none" xmlns="http://www.w3.org/2000/svg">
<path d="M295.03 935.705C210.02 990.491 104 1039.48 -1.76944 1032.82C-107.539 1026.15 -212.356 964.947 -260.924 877.754C-309.828 791.046 -302.118 679.951 -274.386 589.9C-246.653 499.849 -198.897 430.842 -140.133 388.461C-81.3686 346.08 -11.9319 330.811 57.2423 296.781C126.417 262.752 194.473 210.133 272.916 200.99C350.84 191.534 438.815 226.039 438.161 289.72C438.027 353.714 349.602 446.399 346.828 530.158C343.871 613.118 426.565 687.153 435.562 753.903C445.078 820.967 380.559 881.233 295.03 935.705Z" fill="#48DBDB"/>
<path d="M250.184 900.341L250.182 900.342C165.2 955.11 59.3035 1004.02 -46.2884 997.371C-151.893 990.717 -256.551 929.596 -305.034 842.555L-305.035 842.553C-353.851 756.002 -346.173 645.054 -318.459 555.061C-290.75 465.088 -243.048 396.182 -184.394 353.881C-155.066 332.73 -123.066 318.337 -89.7248 304.972C-81.483 301.669 -73.1577 298.427 -64.7707 295.162C-39.2447 285.224 -13.1477 275.063 12.9043 262.247C30.214 253.732 47.4503 244.055 64.7839 234.194C66.8764 233.004 68.9704 231.811 71.066 230.616C86.334 221.917 101.694 213.164 117.277 205.013C152.723 186.473 189.278 171.069 228.4 166.509L228.403 166.508C267.272 161.792 308.641 168.042 340.195 183.398C371.749 198.755 393.405 223.168 393.081 254.764L393.081 254.768C393.048 270.67 387.527 288.39 379.184 307.367C371.716 324.354 362.005 342.307 351.989 360.826C350.816 362.994 349.639 365.169 348.462 367.352C326.003 408.972 303.139 453.183 301.748 495.192C300.265 536.817 320.268 576.169 341.693 613.386C344.563 618.371 347.458 623.318 350.332 628.227C358.193 641.658 365.89 654.808 372.455 667.705C381.418 685.311 388.247 702.4 390.486 719.013L390.486 719.016C395.219 752.37 381.551 784.069 355.974 814.265C330.392 844.464 292.932 873.115 250.184 900.341Z" stroke="#141648"/>
</svg>
