<svg width="931" height="941" viewBox="0 0 931 941" fill="none" xmlns="http://www.w3.org/2000/svg">
<path fill-rule="evenodd" clip-rule="evenodd" d="M414.673 -114.744C515.736 -149.81 609.87 -21.5413 717.758 -11.7784C831.688 -1.4688 955.628 -130.855 1046.72 -57.5494C1135.88 14.2015 1067.66 161.173 1073.93 274.856C1078.82 363.516 1128.74 463.191 1079.37 534.345C1030.08 605.388 924.054 594.044 839.725 612.443C781.917 625.055 723.81 610.916 666.243 624.478C560.222 649.454 460.597 781.487 364.184 724.47C275.919 672.271 350.498 526.86 330.461 425.9C311.418 329.951 235.388 245.877 250.255 150.432C266.917 43.4611 314.54 -80.0004 414.673 -114.744Z" fill="#48DBDB"/>
<path fill-rule="evenodd" clip-rule="evenodd" d="M494.503 -70.3862C600.51 -84.7386 667.371 59.6342 771.188 90.5744C880.818 123.247 1027.93 20.9743 1102.7 110.871C1175.88 198.861 1079.9 329.408 1063.53 442.081C1050.76 529.953 1079.94 637.539 1017.46 697.506C955.074 757.378 853.394 725.257 767.092 726.586C707.931 727.498 653.776 702.129 594.662 704.019C485.795 707.5 361.991 817.183 278.783 742.198C202.606 673.549 304.511 545.793 304.868 442.864C305.208 345.044 247.339 247.576 280.817 156.967C318.337 55.4161 389.472 -56.1658 494.503 -70.3862Z" stroke="#141648"/>
</svg>
