<svg width="417" height="73" viewBox="0 0 417 73" fill="none" xmlns="http://www.w3.org/2000/svg">
<path d="M102 43.48C102 42.7867 102.187 42.2133 102.56 41.76C102.933 41.3067 103.493 41.08 104.24 41.08H106.56C106.827 41.08 107.027 41.16 107.16 41.32C107.293 41.48 107.36 41.68 107.36 41.92V55.76C107.36 57.8933 106.68 59.5733 105.32 60.8C103.987 62.0267 102.107 62.64 99.68 62.64C98.5067 62.64 97.4533 62.48 96.52 62.16C95.5867 61.84 94.7733 61.3867 94.08 60.8C93.4133 60.1867 92.8933 59.4667 92.52 58.64C92.1733 57.7867 92 56.8267 92 55.76V21.04C92 18.9067 92.6667 17.2267 94 16C95.36 14.7733 97.2533 14.16 99.68 14.16C100.827 14.16 101.867 14.32 102.8 14.64C103.76 14.96 104.573 15.4267 105.24 16.04C105.933 16.6267 106.453 17.3467 106.8 18.2C107.173 19.0267 107.36 19.9733 107.36 21.04V35.4C107.36 35.64 107.293 35.84 107.16 36C107.027 36.16 106.827 36.24 106.56 36.24H104.32C103.547 36.24 102.96 36.0267 102.56 35.6C102.187 35.1467 102 34.5733 102 33.88V21.04C102 20.32 101.813 19.7467 101.44 19.32C101.067 18.8667 100.48 18.64 99.68 18.64C98.9067 18.64 98.32 18.8667 97.92 19.32C97.5467 19.7467 97.36 20.32 97.36 21.04V55.76C97.36 56.48 97.5467 57.0667 97.92 57.52C98.2933 57.9467 98.88 58.16 99.68 58.16C100.453 58.16 101.027 57.9467 101.4 57.52C101.8 57.0667 102 56.48 102 55.76V43.48ZM124.969 21.04C124.969 18.9067 125.635 17.2267 126.969 16C128.329 14.7733 130.222 14.16 132.649 14.16C133.795 14.16 134.835 14.32 135.769 14.64C136.729 14.96 137.542 15.4267 138.209 16.04C138.902 16.6267 139.422 17.3467 139.769 18.2C140.142 19.0267 140.329 19.9733 140.329 21.04V55.76C140.329 57.8933 139.649 59.5733 138.289 60.8C136.955 62.0267 135.075 62.64 132.649 62.64C131.475 62.64 130.422 62.48 129.489 62.16C128.555 61.84 127.742 61.3867 127.049 60.8C126.382 60.1867 125.862 59.4667 125.489 58.64C125.142 57.7867 124.969 56.8267 124.969 55.76V21.04ZM134.969 21.04C134.969 20.32 134.782 19.7467 134.409 19.32C134.035 18.8667 133.449 18.64 132.649 18.64C131.875 18.64 131.289 18.8667 130.889 19.32C130.515 19.7467 130.329 20.32 130.329 21.04V55.76C130.329 56.48 130.515 57.0667 130.889 57.52C131.262 57.9467 131.849 58.16 132.649 58.16C133.422 58.16 133.995 57.9467 134.369 57.52C134.769 57.0667 134.969 56.48 134.969 55.76V21.04ZM168.119 14.8C169.266 14.8 170.306 14.96 171.239 15.28C172.173 15.6 172.973 16.0667 173.639 16.68C174.306 17.2667 174.813 17.9867 175.159 18.84C175.533 19.6933 175.719 20.64 175.719 21.68V55.12C175.719 57.2533 175.039 58.9333 173.679 60.16C172.346 61.3867 170.466 62 168.039 62H161.159C160.893 62 160.693 61.92 160.559 61.76C160.426 61.6 160.359 61.4 160.359 61.16V15.64C160.359 15.4 160.426 15.2 160.559 15.04C160.693 14.88 160.893 14.8 161.159 14.8H168.119ZM168.039 57.52C168.839 57.52 169.426 57.2933 169.799 56.84C170.173 56.3867 170.359 55.8133 170.359 55.12V21.68C170.359 20.9867 170.173 20.4133 169.799 19.96C169.453 19.5067 168.866 19.28 168.039 19.28H165.719V57.52H168.039ZM207.23 14.8C207.47 14.8 207.67 14.8667 207.83 15C207.99 15.1333 208.07 15.3333 208.07 15.6V16.96C208.07 17.6533 207.883 18.2133 207.51 18.64C207.137 19.0667 206.643 19.28 206.03 19.28H201.11V36.44H206.43C206.67 36.44 206.87 36.5067 207.03 36.64C207.19 36.7733 207.27 36.9733 207.27 37.24V38.6C207.27 39.2933 207.083 39.8533 206.71 40.28C206.337 40.7067 205.843 40.92 205.23 40.92H201.11V57.52H206.03C206.643 57.52 207.137 57.7333 207.51 58.16C207.883 58.5867 208.07 59.1467 208.07 59.84V61.2C208.07 61.4667 207.99 61.6667 207.83 61.8C207.67 61.9333 207.47 62 207.23 62H196.55C196.283 62 196.083 61.92 195.95 61.76C195.817 61.6 195.75 61.4 195.75 61.16V15.64C195.75 15.4 195.817 15.2 195.95 15.04C196.083 14.88 196.283 14.8 196.55 14.8H207.23ZM234.682 14.8C235.829 14.8 236.869 14.9733 237.802 15.32C238.735 15.64 239.535 16.0933 240.202 16.68C240.869 17.2667 241.375 17.9867 241.722 18.84C242.095 19.6933 242.282 20.64 242.282 21.68V36.24C242.282 37.4133 242.042 38.3733 241.562 39.12C241.109 39.8667 240.469 40.4667 239.642 40.92C240.469 41.3733 241.109 41.9733 241.562 42.72C242.042 43.44 242.282 44.3733 242.282 45.52V61.16C242.282 61.4 242.215 61.6 242.082 61.76C241.949 61.92 241.749 62 241.482 62H239.242C238.469 62 237.882 61.7867 237.482 61.36C237.109 60.9067 236.922 60.3333 236.922 59.64V45.52C236.922 44.8 236.735 44.2267 236.362 43.8C236.015 43.3467 235.429 43.12 234.602 43.12H232.282V59.64C232.282 60.3333 232.082 60.9067 231.682 61.36C231.309 61.7867 230.735 62 229.962 62H227.722C227.455 62 227.255 61.92 227.122 61.76C226.989 61.6 226.922 61.4 226.922 61.16V15.64C226.922 15.4 226.989 15.2 227.122 15.04C227.255 14.88 227.455 14.8 227.722 14.8H234.682ZM232.282 19.28V38.64H234.602C235.402 38.64 235.989 38.4133 236.362 37.96C236.735 37.5067 236.922 36.9333 236.922 36.24V21.68C236.922 20.9867 236.722 20.4133 236.322 19.96C235.949 19.5067 235.375 19.28 234.602 19.28H232.282ZM274.633 31.32C273.859 31.32 273.273 31.1067 272.872 30.68C272.499 30.2267 272.312 29.6533 272.312 28.96V21.04C272.312 20.32 272.113 19.7467 271.713 19.32C271.339 18.8667 270.766 18.64 269.993 18.64C269.193 18.64 268.606 18.8667 268.233 19.32C267.859 19.7467 267.673 20.32 267.673 21.04C267.673 23.2 267.806 25.0667 268.073 26.64C268.366 28.2133 268.753 29.6 269.233 30.8C269.713 32 270.246 33.08 270.833 34.04C271.446 35 272.059 35.96 272.673 36.92C273.286 37.88 273.886 38.9067 274.473 40C275.086 41.0667 275.633 42.3333 276.113 43.8C276.593 45.24 276.966 46.9333 277.233 48.88C277.526 50.8 277.673 53.0933 277.673 55.76C277.673 56.8267 277.486 57.7867 277.113 58.64C276.766 59.4667 276.246 60.1867 275.553 60.8C274.886 61.3867 274.073 61.84 273.113 62.16C272.179 62.48 271.139 62.64 269.993 62.64C267.566 62.64 265.673 62.0267 264.313 60.8C262.979 59.5733 262.312 57.8933 262.312 55.76V45.92C262.312 45.68 262.379 45.48 262.513 45.32C262.646 45.16 262.846 45.08 263.113 45.08H265.353C266.126 45.08 266.699 45.3067 267.073 45.76C267.473 46.1867 267.673 46.7467 267.673 47.44V55.76C267.673 56.48 267.859 57.0667 268.233 57.52C268.633 57.9467 269.219 58.16 269.993 58.16C270.793 58.16 271.379 57.9467 271.753 57.52C272.126 57.0667 272.312 56.48 272.312 55.76C272.312 53.2 272.166 51.0133 271.873 49.2C271.606 47.3867 271.233 45.8267 270.753 44.52C270.273 43.1867 269.726 42.04 269.113 41.08C268.526 40.0933 267.926 39.16 267.313 38.28C266.699 37.3733 266.086 36.44 265.473 35.48C264.886 34.52 264.353 33.3867 263.873 32.08C263.393 30.7733 263.006 29.24 262.713 27.48C262.446 25.72 262.312 23.5733 262.312 21.04C262.312 19.9733 262.486 19.0267 262.833 18.2C263.206 17.3467 263.726 16.6267 264.393 16.04C265.086 15.4267 265.899 14.96 266.833 14.64C267.766 14.32 268.819 14.16 269.993 14.16C272.419 14.16 274.299 14.7733 275.633 16C276.993 17.2267 277.673 18.9067 277.673 21.04V30.48C277.673 30.72 277.606 30.92 277.473 31.08C277.339 31.24 277.139 31.32 276.873 31.32H274.633ZM327.8 62C327.533 62 327.333 61.92 327.2 61.76C327.067 61.6 327 61.4 327 61.16V15.64C327 15.4 327.067 15.2 327.2 15.04C327.333 14.88 327.533 14.8 327.8 14.8H330.04C330.733 14.8 331.293 14.9867 331.72 15.36C332.147 15.7333 332.36 16.2267 332.36 16.84V57.52H337.28C337.893 57.52 338.387 57.7333 338.76 58.16C339.133 58.5867 339.32 59.1467 339.32 59.84V61.2C339.32 61.4667 339.24 61.6667 339.08 61.8C338.92 61.9333 338.72 62 338.48 62H327.8ZM366.852 14.8C367.092 14.8 367.279 14.88 367.412 15.04C367.545 15.2 367.625 15.3867 367.652 15.6L372.052 61C372.079 61.24 371.999 61.4667 371.812 61.68C371.652 61.8933 371.385 62 371.012 62H369.052C368.385 62 367.825 61.8133 367.372 61.44C366.945 61.04 366.705 60.56 366.652 60L366.252 53.56H362.932L362.532 60C362.479 60.56 362.225 61.04 361.772 61.44C361.345 61.8133 360.799 62 360.132 62H358.172C357.799 62 357.519 61.8933 357.332 61.68C357.172 61.4667 357.105 61.24 357.132 61L361.532 15.6C361.559 15.3867 361.639 15.2 361.772 15.04C361.905 14.88 362.092 14.8 362.332 14.8H366.852ZM363.212 49.08H365.972L364.572 26.32L363.212 49.08ZM398.664 14.8C399.811 14.8 400.851 14.96 401.784 15.28C402.744 15.6 403.558 16.0667 404.224 16.68C404.918 17.2667 405.438 17.9867 405.784 18.84C406.158 19.6667 406.344 20.6133 406.344 21.68V33.24C406.344 34.4133 406.104 35.3733 405.624 36.12C405.171 36.8667 404.531 37.4667 403.704 37.92C404.531 38.3733 405.171 38.9733 405.624 39.72C406.104 40.44 406.344 41.3733 406.344 42.52V55.12C406.344 57.2533 405.651 58.9333 404.264 60.16C402.878 61.3867 401.011 62 398.664 62H391.784C391.518 62 391.318 61.92 391.184 61.76C391.051 61.6 390.984 61.4 390.984 61.16V15.64C390.984 15.4 391.051 15.2 391.184 15.04C391.318 14.88 391.518 14.8 391.784 14.8H398.664ZM396.344 40.12V57.52H398.664C399.491 57.52 400.078 57.2933 400.424 56.84C400.798 56.3867 400.984 55.8133 400.984 55.12V42.52C400.984 41.8267 400.798 41.2533 400.424 40.8C400.051 40.3467 399.464 40.12 398.664 40.12H396.344ZM398.664 35.64C399.464 35.64 400.051 35.4133 400.424 34.96C400.798 34.5067 400.984 33.9333 400.984 33.24V21.68C400.984 20.96 400.798 20.3867 400.424 19.96C400.051 19.5067 399.464 19.28 398.664 19.28H396.344V35.64H398.664Z" fill="white"/>
<path d="M27.3821 70.9976C39.5082 71.184 45.4936 60.3584 46.9705 54.9223C50.9351 44.6714 58.6299 43.9725 61.1951 43.5065C63.2472 43.1337 63.1384 41.1768 62.8275 40.2448C59.4694 33.7215 53.4997 35.1194 51.4009 36.9832L46.9702 41.1768C46.4261 41.7204 44.8714 42.6212 43.0059 41.8757C41.1403 41.1302 40.9849 38.614 41.1403 37.4491L43.4723 11.3559C43.55 9.88037 42.9592 6.88275 39.9743 6.69637C36.9894 6.50999 35.7768 8.79315 35.5436 9.95803L33.4449 31.6248L35.5436 6.46339C35.6214 5.1432 34.984 2.40961 31.8125 2.03685C28.6411 1.66409 27.3818 4.21129 27.1486 5.53148L24.8167 33.0226C24.7389 33.7215 24.1637 35.1194 22.4847 35.1194C20.8057 35.1194 20.075 33.7215 19.9196 33.0226L15.0225 11.1229C14.5561 9.56975 12.8304 6.69638 9.659 7.62829C6.48755 8.56019 6.31654 11.5889 6.62746 12.9867L12.4573 36.5173L9.19261 24.1695C8.80408 23.0047 7.32745 20.9079 4.52911 21.8398C1.73077 22.7717 1.80851 25.3344 2.19716 26.4993L4.52911 34.1875C6.16148 38.614 6.86095 45.6033 6.62775 49.7969C6.4412 53.1517 7.17187 56.1649 7.56053 57.2521C9.11516 61.7563 15.256 70.8112 27.3821 70.9976Z" stroke="#FFC42E" stroke-width="3"/>
</svg>