<svg width="330" height="304" viewBox="0 0 330 304" fill="none" xmlns="http://www.w3.org/2000/svg">
<g clip-path="url(#clip0)">
<path d="M330 152C330 68.0527 256.127 0 165 0C73.873 0 0 68.0527 0 152C0 235.947 73.873 304 165 304C256.127 304 330 235.947 330 152Z" fill="#FFD7B3"/>
<path d="M43.106 273.997C43.106 273.997 44.7224 267.391 56.0377 269.593C67.353 271.795 68.9695 273.997 68.9695 273.997H43.106Z" fill="#3F3D56"/>
<path d="M30.1742 269.144C30.1742 269.144 31.7009 262.538 42.3875 264.74C53.074 266.942 54.6009 269.144 54.6009 269.144H30.1742Z" fill="#3F3D56"/>
<path d="M80.9434 273.997C80.9434 273.997 72.5617 267.048 68.9695 273.997H80.9434Z" fill="#3F3D56"/>
<path d="M31.719 258.288C34.1927 262.796 39.4428 264.731 39.4428 264.731C39.4428 264.731 40.6822 259.358 38.2085 254.85C35.7348 250.342 30.4847 248.406 30.4847 248.406C30.4847 248.406 29.2453 253.78 31.719 258.288Z" fill="#3F3D56"/>
<path d="M32.9749 256.836C37.8686 259.424 39.7533 264.563 39.7533 264.563C39.7533 264.563 33.7038 265.508 28.8102 262.92C23.9166 260.333 22.0319 255.193 22.0319 255.193C22.0319 255.193 28.0814 254.249 32.9749 256.836Z" fill="#6C63FF"/>
<path d="M322.337 251.054C314.597 249.918 307.155 248.951 300.011 248.154L302.762 242.996C301.807 242.697 297.67 245.682 297.67 245.682L301.171 230.76C296.397 231.357 294.168 246.577 294.168 246.577L288.758 241.504L291.421 247.248C269.561 245.094 250.698 244.422 234.841 244.576L237.195 240.161C236.24 239.863 232.103 242.847 232.103 242.847L235.604 227.925C230.83 228.522 228.601 243.742 228.601 243.742L223.191 238.669L226.012 244.753C215.15 245.048 204.312 245.867 193.539 247.205C195.889 240.342 204.093 233.745 204.093 233.745C197.784 235.585 194.503 238.583 192.804 241.362C192.46 227.263 194.774 213.217 199.637 199.872C199.637 199.872 186.906 226.732 188.816 244.637L189.058 247.818C177.982 249.438 172.424 251.054 172.424 251.054H322.337Z" fill="#3F3D56"/>
<path d="M247.62 256.79C247.62 256.79 306.47 248.848 342.932 256.79H247.62Z" fill="#3F3D56"/>
<path d="M178.171 261.643C178.171 261.643 236.726 254.694 273.004 261.643H178.171Z" fill="#3F3D56"/>
<path d="M261.509 267.82C261.509 267.82 296.11 258.885 317.547 267.82H261.509Z" fill="#3F3D56"/>
<path d="M103.933 185.302C103.933 221.61 80.5598 234.287 51.7271 234.287C22.8945 234.287 -0.478943 221.61 -0.478943 185.302C-0.478943 148.994 51.7271 102.804 51.7271 102.804C51.7271 102.804 103.933 148.994 103.933 185.302Z" fill="#F2F2F2"/>
<path d="M49.6121 229.054L50.1562 198.59L72.8012 160.902L50.2414 193.811L50.4857 180.113L66.0929 152.846L50.5508 176.488L50.991 151.852L67.7027 130.144L51.06 147.978L51.3344 102.804L49.6073 162.606L49.7491 160.139L32.7578 136.479L49.477 164.875L47.8937 192.389L47.8465 191.659L28.2584 166.76L47.7872 194.239L47.5891 197.68L47.5538 197.731L47.57 198.014L43.5532 267.82H48.92L49.5637 231.764L69.0447 204.352L49.6121 229.054Z" fill="#3F3D56"/>
<path d="M30.1742 269.144C30.1742 269.144 31.7009 262.538 42.3875 264.74C53.074 266.942 54.6009 269.144 54.6009 269.144H30.1742Z" fill="#3F3D56"/>
<path d="M67.0537 265.614C67.0537 265.614 58.3367 259.657 54.6009 265.614H67.0537Z" fill="#3F3D56"/>
<path d="M31.719 258.288C34.1927 262.796 39.4428 264.731 39.4428 264.731C39.4428 264.731 40.6822 259.358 38.2085 254.85C35.7348 250.342 30.4847 248.406 30.4847 248.406C30.4847 248.406 29.2453 253.78 31.719 258.288Z" fill="#3F3D56"/>
<path d="M32.9749 256.836C37.8686 259.424 39.7533 264.563 39.7533 264.563C39.7533 264.563 33.7038 265.508 28.8102 262.92C23.9166 260.333 22.0319 255.193 22.0319 255.193C22.0319 255.193 28.0814 254.249 32.9749 256.836Z" fill="#D13C74"/>
<path d="M103.933 185.302C103.933 221.61 80.5598 234.287 51.7271 234.287C22.8945 234.287 -0.478943 221.61 -0.478943 185.302C-0.478943 148.994 51.7271 102.804 51.7271 102.804C51.7271 102.804 103.933 148.994 103.933 185.302Z" fill="#A8BD00"/>
<path d="M49.6121 229.054L50.1562 198.59L72.8012 160.902L50.2414 193.811L50.4857 180.113L66.0929 152.846L50.5508 176.488L50.991 151.852L67.7027 130.144L51.06 147.978L51.3344 102.804L49.6073 162.606L49.7491 160.139L32.7578 136.479L49.477 164.875L47.8937 192.389L47.8465 191.659L28.2584 166.76L47.7872 194.239L47.5891 197.68L47.5538 197.731L47.57 198.014L43.5532 267.82H48.92L49.5637 231.764L69.0447 204.352L49.6121 229.054Z" fill="#3F3D56"/>
<path d="M328.084 147.98C328.084 192.329 299.457 207.814 264.144 207.814C228.83 207.814 200.203 192.329 200.203 147.98C200.203 103.63 264.144 47.2104 264.144 47.2104C264.144 47.2104 328.084 103.63 328.084 147.98Z" fill="#A8BD00"/>
<path d="M261.841 201.14L262.496 163.997L289.768 118.046L262.599 158.17L262.894 141.469L281.689 108.224L262.972 137.05L263.501 107.012L283.628 80.5446L263.585 102.289L263.916 47.2104L261.836 120.124L262.007 117.116L241.544 88.2685L261.679 122.89L259.771 156.437L259.715 155.547L236.125 125.189L259.643 158.692L259.405 162.888L259.362 162.951L259.382 163.295L254.544 248.406H261.007L261.783 204.445L285.244 171.023L261.841 201.14Z" fill="#3F3D56"/>
<path d="M198.527 75.5372L152.547 73.9064V55.7322L194.935 54.7999L198.527 75.5372Z" fill="#13131C"/>
<path d="M241.154 122.527C227.105 113.997 184.925 105.231 134.347 135.764C144.564 145.617 191.343 158.045 241.154 122.527Z" fill="#6B1535" stroke="black" stroke-width="3"/>
<path d="M207.866 132.675C182.578 167.443 163.483 150.986 157.097 138.411C145.219 122.35 145.602 91.5684 147.279 78.1845L210.022 79.9494C213.47 91.4211 210.022 119.88 207.866 132.675Z" fill="#E1C7B6" stroke="black"/>
<path d="M240.348 122.7C182.609 156.386 146.831 145.514 135.936 135.682C135.832 135.588 135.706 135.515 135.565 135.483C130.846 134.406 132.292 149.264 133.628 156.942C136.637 169.759 133.126 171.584 130.881 170.883C130.796 170.857 130.707 170.837 130.619 170.829C122.965 170.165 119.81 170.52 119.092 170.808C119.043 170.828 118.997 170.848 118.947 170.866C109.113 174.276 94.3263 199.405 87.8964 212.047C87.7412 212.352 87.415 212.534 87.0529 212.577C78.4499 213.609 72.6192 233.09 70.6947 243.163C70.6617 243.335 70.6952 243.504 70.7215 243.677C70.9941 245.467 67.4962 250.6 65.3055 253.481C65.0651 253.798 64.6268 253.92 64.2178 253.835C60.0686 252.971 56.613 255.949 55.2197 257.791C55.1258 257.915 55.0741 258.061 55.0626 258.211L54.5046 265.752C54.4486 266.508 53.3508 268.171 52.9853 268.849C52.5093 269.734 52.0552 270.905 51.7688 271.755C51.7405 271.838 51.7271 271.919 51.7276 272.006C51.7698 282.63 57.1173 308.752 59.8325 320.694C59.8574 320.804 59.8991 320.898 59.9699 320.989C64.8826 327.295 94.8072 334.375 109.348 337.162C109.412 337.174 109.474 337.18 109.539 337.18H253.637C253.921 337.18 254.192 337.064 254.283 336.816C254.988 334.907 254.797 327.697 254.582 323.806C254.571 323.608 254.631 323.417 254.754 323.253C262.471 312.996 267.236 294.297 268.679 286.083C268.689 286.025 268.706 285.971 268.724 285.915C269.112 284.725 267.751 282.893 266.655 281.735C266.329 281.391 266.279 280.86 266.489 280.447C267.536 278.385 269.427 272.84 270.632 269.117C270.839 268.473 271.929 267.56 272.493 267.136C273.472 266.399 274.708 265.164 275.504 264.305C275.593 264.208 275.654 264.109 275.687 263.986C276.887 259.514 278.755 235.014 278.991 233.273C279.148 232.114 277.596 231.272 276.372 230.845C275.951 230.698 275.654 230.321 275.674 229.907C277.116 200.032 274.222 185.394 272.554 181.713C272.534 181.668 272.514 181.634 272.486 181.594C269.353 177.205 250.387 163.828 240.74 157.309C240.41 157.086 240.278 156.698 240.395 156.338C245.166 141.574 243.476 128.747 241.755 123.157C241.585 122.606 240.872 122.393 240.348 122.7Z" fill="#A5A5A5"/>
<path d="M135.936 135.682L135.433 136.154L135.936 135.682ZM240.348 122.7L239.963 122.14V122.141L240.348 122.7ZM241.755 123.157L241.064 123.338L241.755 123.157ZM240.395 156.338L241.083 156.526L240.395 156.338ZM240.74 157.309L241.164 156.775L240.74 157.309ZM272.486 181.594L273.086 181.23L272.486 181.594ZM272.554 181.713L271.891 181.968L272.554 181.713ZM275.674 229.907L274.956 229.877L275.674 229.907ZM276.372 230.845L276.627 230.226L276.372 230.845ZM278.991 233.273L279.704 233.355L278.991 233.273ZM275.687 263.986L274.99 263.827V263.828L275.687 263.986ZM275.504 264.305L276.05 264.735L275.504 264.305ZM272.493 267.136L272.039 266.623L272.493 267.136ZM270.632 269.117L271.32 269.306L270.632 269.117ZM266.489 280.447L267.14 280.727L266.489 280.447ZM266.655 281.735L266.114 282.17L266.655 281.735ZM268.724 285.915L268.036 285.725L268.724 285.915ZM268.679 286.083L269.388 286.188L268.679 286.083ZM254.754 323.253L255.344 323.631L254.754 323.253ZM254.582 323.806L255.299 323.773L254.582 323.806ZM254.283 336.816L254.964 337.029L254.283 336.816ZM109.348 337.162L109.494 336.514L109.348 337.162ZM59.97 320.989L60.5538 320.603L59.97 320.989ZM59.8325 320.694L60.5356 320.558L59.8325 320.694ZM51.7276 272.006L51.0092 272.009L51.7276 272.006ZM51.7688 271.755L52.4547 271.952L51.7688 271.755ZM52.9853 268.849L52.3416 268.556L52.9853 268.849ZM54.5046 265.752L53.7881 265.707L54.5046 265.752ZM55.0626 258.211L54.3461 258.166L55.0626 258.211ZM55.2197 257.791L54.6306 257.412H54.6301L55.2197 257.791ZM64.2178 253.835L64.0593 254.481L64.2178 253.835ZM65.3055 253.481L65.8941 253.861L65.3055 253.481ZM70.7215 243.677L70.0103 243.768L70.7215 243.677ZM70.6947 243.163L69.9873 243.049L70.6947 243.163ZM87.0529 212.577L86.96 211.921L87.0529 212.577ZM87.8964 212.047L88.5468 212.328L87.8964 212.047ZM118.947 170.866L119.2 171.485L118.947 170.866ZM119.092 170.808L119.379 171.415L119.092 170.808ZM130.619 170.829L130.686 170.17L130.619 170.829ZM130.881 170.883L131.112 170.256L130.881 170.883ZM133.628 156.942L132.919 157.047L132.922 157.065L132.926 157.082L133.628 156.942ZM135.565 135.483L135.392 136.125L135.565 135.483ZM135.433 136.154C146.664 146.29 182.847 157.031 240.732 123.259L239.963 122.141C182.372 155.741 146.998 144.738 136.438 135.209L135.433 136.154ZM241.064 123.338C242.751 128.818 244.435 141.517 239.706 156.149L241.083 156.526C245.897 141.631 244.201 128.675 242.446 122.976L241.064 123.338ZM240.314 157.843C245.133 161.098 252.277 166.066 258.605 170.766C261.769 173.116 264.724 175.394 267.079 177.356C269.455 179.335 271.16 180.941 271.886 181.957L273.086 181.23C272.245 180.052 270.405 178.341 268.042 176.374C265.659 174.389 262.681 172.093 259.506 169.735C253.156 165.019 245.994 160.039 241.164 156.775L240.314 157.843ZM271.891 181.968C272.68 183.708 273.814 188.202 274.565 196.046C275.313 203.865 275.676 214.964 274.956 229.877L276.392 229.936C277.114 214.976 276.751 203.818 275.996 195.929C275.243 188.065 274.096 183.398 273.217 181.458L271.891 181.968ZM276.118 231.464C276.69 231.664 277.3 231.949 277.734 232.289C278.177 232.636 278.313 232.935 278.279 233.191L279.704 233.355C279.827 232.452 279.265 231.751 278.665 231.281C278.056 230.803 277.278 230.454 276.627 230.226L276.118 231.464ZM278.279 233.191C278.158 234.077 277.629 240.675 276.985 247.549C276.662 250.998 276.309 254.528 275.962 257.474C275.614 260.439 275.276 262.761 274.99 263.827L276.385 264.145C276.699 262.975 277.045 260.558 277.391 257.617C277.739 254.657 278.093 251.115 278.417 247.662C279.066 240.732 279.588 234.21 279.704 233.355L278.279 233.191ZM274.958 263.875C274.167 264.728 272.966 265.926 272.039 266.623L272.948 267.648C273.979 266.873 275.248 265.6 276.05 264.735L274.958 263.875ZM269.943 268.928C268.733 272.669 266.857 278.16 265.839 280.166L267.14 280.727C268.214 278.611 270.122 273.01 271.32 269.306L269.943 268.928ZM266.114 282.17C266.641 282.727 267.217 283.431 267.61 284.121C268.025 284.848 268.143 285.397 268.036 285.725L269.412 286.105C269.693 285.244 269.325 284.281 268.882 283.505C268.418 282.692 267.766 281.901 267.197 281.3L266.114 282.17ZM267.97 285.977C267.253 290.056 265.708 296.754 263.383 303.707C261.053 310.67 257.958 317.832 254.163 322.877L255.344 323.631C259.266 318.417 262.412 311.101 264.755 304.097C267.102 297.082 268.662 290.324 269.388 286.188L267.97 285.977ZM253.864 323.84C253.971 325.777 254.072 328.539 254.059 331.051C254.053 332.308 254.017 333.493 253.941 334.478C253.863 335.484 253.747 336.215 253.603 336.603L254.964 337.029C255.173 336.463 255.296 335.576 255.374 334.572C255.454 333.547 255.489 332.328 255.496 331.057C255.51 328.514 255.407 325.726 255.299 323.773L253.864 323.84ZM253.637 336.518H109.539V337.842H253.637V336.518ZM109.494 336.514C102.24 335.124 91.149 332.662 81.2662 329.765C76.3234 328.316 71.7 326.762 68.0159 325.185C66.1734 324.396 64.5789 323.607 63.302 322.829C62.017 322.045 61.0945 321.297 60.5538 320.603L59.3861 321.375C60.0739 322.258 61.1606 323.111 62.5094 323.933C63.8658 324.759 65.5287 325.58 67.41 326.385C71.1727 327.996 75.8602 329.569 80.8304 331.026C90.773 333.942 101.914 336.413 109.201 337.81L109.494 336.514ZM60.5356 320.558C59.1797 314.595 57.1661 305.088 55.4865 295.747C53.8039 286.39 52.4666 277.254 52.446 272.004L51.0092 272.009C51.0303 277.382 52.3886 286.619 54.0687 295.964C55.7523 305.326 57.7701 314.851 59.1294 320.829L60.5356 320.558ZM52.4547 271.952C52.7363 271.116 53.1774 269.983 53.6291 269.143L52.3416 268.556C51.8411 269.485 51.3741 270.695 51.0829 271.558L52.4547 271.952ZM55.2216 265.797L55.7796 258.256L54.3461 258.166L53.7881 265.707L55.2216 265.797ZM55.8093 258.169C56.4597 257.309 57.6015 256.175 59.0571 255.364C60.5054 254.558 62.2163 254.097 64.0593 254.481L64.3763 253.19C62.0697 252.709 59.9786 253.305 58.3137 254.232C56.6551 255.155 55.3729 256.43 54.6306 257.412L55.8093 258.169ZM65.8941 253.861C66.9981 252.409 68.436 250.384 69.5668 248.489C70.1315 247.542 70.6286 246.613 70.9692 245.796C71.2953 245.012 71.5291 244.215 71.4328 243.585L70.0103 243.768C70.0505 244.033 69.949 244.55 69.6276 245.322C69.3201 246.06 68.857 246.931 68.3076 247.851C67.2103 249.69 65.8036 251.673 64.7174 253.101L65.8941 253.861ZM71.4021 243.278C72.3591 238.271 74.2864 230.931 77.0346 224.73C78.4097 221.627 79.9764 218.842 81.7068 216.78C83.4483 214.704 85.2741 213.458 87.1459 213.234L86.96 211.921C84.5303 212.212 82.4013 213.788 80.5698 215.97C78.7273 218.166 77.1031 221.074 75.7046 224.229C72.9056 230.545 70.9548 237.983 69.9873 243.049L71.4021 243.278ZM88.5468 212.328C91.7529 206.025 97.0425 196.609 102.751 188.35C105.606 184.22 108.555 180.394 111.392 177.396C114.249 174.377 116.919 172.276 119.2 171.485L118.694 170.246C116.058 171.16 113.192 173.479 110.309 176.527C107.407 179.594 104.414 183.48 101.539 187.639C95.7886 195.958 90.4698 205.428 87.246 211.766L88.5468 212.328ZM119.379 171.415C119.463 171.381 119.713 171.314 120.215 171.252C120.699 171.193 121.372 171.143 122.272 171.123C124.071 171.082 126.743 171.157 130.551 171.488L130.686 170.17C126.84 169.836 124.108 169.757 122.237 169.8C121.301 169.821 120.574 169.872 120.025 169.94C119.494 170.005 119.08 170.091 118.805 170.201L119.379 171.415ZM130.65 171.51C131.352 171.729 132.196 171.763 132.999 171.396C133.805 171.028 134.463 170.308 134.899 169.209C135.755 167.052 135.84 163.232 134.331 156.802L132.926 157.082C134.425 163.469 134.258 166.971 133.55 168.754C133.204 169.627 132.751 170.032 132.361 170.21C131.969 170.389 131.532 170.387 131.112 170.256L130.65 171.51ZM134.338 156.838C133.673 153.016 132.984 147.424 133.044 142.938C133.075 140.682 133.295 138.774 133.764 137.517C133.998 136.886 134.269 136.494 134.536 136.287C134.763 136.11 135.018 136.04 135.392 136.125L135.738 134.841C134.932 134.657 134.2 134.815 133.609 135.275C133.057 135.705 132.676 136.357 132.404 137.087C131.858 138.553 131.638 140.637 131.608 142.921C131.545 147.514 132.248 153.19 132.919 157.047L134.338 156.838ZM130.551 171.488C130.57 171.489 130.602 171.495 130.65 171.51L131.112 170.256C130.99 170.218 130.845 170.184 130.686 170.17L130.551 171.488ZM119.2 171.485C119.272 171.46 119.368 171.419 119.379 171.415L118.805 170.201C118.717 170.236 118.723 170.236 118.694 170.246L119.2 171.485ZM87.1459 213.234C87.6981 213.168 88.2671 212.879 88.5468 212.328L87.246 211.766C87.2158 211.825 87.132 211.9 86.96 211.921L87.1459 213.234ZM71.4328 243.585C71.3997 243.366 71.394 243.322 71.4021 243.278L69.9873 243.049C69.9298 243.348 69.9906 243.641 70.0103 243.768L71.4328 243.585ZM64.0593 254.481C64.7044 254.615 65.4593 254.433 65.8941 253.861L64.7174 253.101C64.6704 253.163 64.5492 253.226 64.3763 253.19L64.0593 254.481ZM55.7796 258.256C55.7824 258.215 55.7959 258.186 55.8093 258.169L54.6301 257.412C54.4557 257.643 54.3652 257.906 54.3461 258.166L55.7796 258.256ZM53.6291 269.143C53.7129 268.988 53.8417 268.771 54.0003 268.501C54.1554 268.238 54.3331 267.936 54.5022 267.629C54.6703 267.323 54.8356 267.002 54.9634 266.702C55.086 266.415 55.1996 266.091 55.2216 265.797L53.7881 265.707C53.7819 265.79 53.7368 265.958 53.6267 266.217C53.5218 266.462 53.379 266.741 53.22 267.031C53.062 267.319 52.8929 267.606 52.7377 267.869C52.5864 268.126 52.4408 268.372 52.3416 268.556L53.6291 269.143ZM52.446 272.004C52.4456 271.986 52.4475 271.973 52.4547 271.952L51.0829 271.558C51.0336 271.704 51.0082 271.851 51.0092 272.009L52.446 272.004ZM60.5538 320.603C60.549 320.597 60.5471 320.593 60.5457 320.591C60.5442 320.588 60.5404 320.578 60.5356 320.558L59.1294 320.829C59.172 321.016 59.2486 321.198 59.3861 321.375L60.5538 320.603ZM109.539 336.518C109.521 336.518 109.508 336.517 109.494 336.514L109.201 337.81C109.316 337.832 109.427 337.842 109.539 337.842V336.518ZM254.163 322.877C253.951 323.159 253.845 323.494 253.864 323.84L255.299 323.773C255.296 323.722 255.311 323.675 255.344 323.631L254.163 322.877ZM268.036 285.725C268.018 285.781 267.988 285.872 267.97 285.977L269.388 286.188C269.39 286.178 269.394 286.162 269.412 286.105L268.036 285.725ZM265.839 280.166C265.524 280.787 265.578 281.605 266.114 282.17L267.197 281.3C267.081 281.178 267.035 280.934 267.14 280.727L265.839 280.166ZM272.039 266.623C271.741 266.847 271.302 267.202 270.905 267.591C270.535 267.954 270.1 268.443 269.943 268.928L271.32 269.306C271.371 269.148 271.585 268.858 271.953 268.497C272.293 268.163 272.682 267.849 272.948 267.648L272.039 266.623ZM274.99 263.828C274.988 263.835 274.986 263.838 274.985 263.841C274.982 263.845 274.976 263.855 274.958 263.875L276.05 264.735C276.198 264.575 276.32 264.386 276.385 264.145L274.99 263.828ZM274.956 229.877C274.921 230.606 275.436 231.226 276.118 231.464L276.627 230.226C276.466 230.17 276.387 230.037 276.392 229.936L274.956 229.877ZM271.886 181.957C271.887 181.961 271.888 181.962 271.889 181.962C271.889 181.963 271.888 181.962 271.888 181.961C271.888 181.961 271.887 181.961 271.888 181.961C271.888 181.962 271.889 181.964 271.891 181.968L273.217 181.458C273.181 181.377 273.14 181.307 273.086 181.23L271.886 181.957ZM239.706 156.149C239.507 156.765 239.729 157.447 240.314 157.843L241.164 156.775C241.091 156.725 241.049 156.631 241.083 156.526L239.706 156.149ZM240.732 123.259C240.803 123.217 240.884 123.212 240.951 123.233C241.014 123.253 241.049 123.289 241.064 123.338L242.446 122.976C242.131 121.952 240.846 121.625 239.963 122.14L240.732 123.259ZM253.603 336.603C253.61 336.584 253.622 336.564 253.639 336.546C253.655 336.529 253.669 336.52 253.677 336.516C253.685 336.512 253.685 336.513 253.677 336.515C253.669 336.517 253.656 336.518 253.637 336.518V337.842C254.098 337.842 254.737 337.644 254.964 337.029L253.603 336.603ZM136.438 135.209C136.262 135.05 136.027 134.907 135.738 134.841L135.392 136.125C135.388 136.125 135.39 136.125 135.398 136.128C135.406 136.133 135.418 136.141 135.433 136.154L136.438 135.209Z" fill="black"/>
<path d="M213.374 268.571C222.634 271.512 243.692 279.424 253.846 287.543C250.174 279.307 236.939 263.982 213.374 268.571Z" fill="#090A0C" fill-opacity="0.3"/>
<path d="M270.131 270.335C271.28 267.512 260.552 260.923 255.044 257.981C271.328 260.452 274.122 264.6 273.483 266.364L271.089 268.571L270.131 270.335Z" fill="#090A0C" fill-opacity="0.3"/>
<path d="M231.096 251.363C242.016 249.245 255.921 241.068 261.509 237.244C255.187 223.478 223.912 245.921 209.064 258.864C214.428 255.157 225.987 252.319 231.096 251.363Z" fill="#090A0C" fill-opacity="0.3"/>
<path d="M74.4775 262.173C68.9216 263.585 65.2974 257.319 64.18 254.01C64.5632 254.363 65.2974 253.863 65.6169 253.569C66.5748 252.392 68.4906 249.907 68.4906 249.378C68.4906 248.848 78.7081 256.216 83.8171 259.967L74.4775 262.173Z" fill="#090A0C" fill-opacity="0.3"/>
<path d="M168.832 129.807C168.832 130.322 169.263 131.307 170.987 131.131" stroke="black"/>
<path d="M173.861 130.69C173.621 130.322 173.478 129.631 174.819 129.807" stroke="black"/>
<path d="M185.116 121.865C188.788 124.439 196.036 130.16 195.653 132.454" stroke="black"/>
<path d="M165.718 113.703C163.244 116.865 158.534 124.468 159.492 129.587" stroke="black"/>
<path d="M167.634 137.087C170.029 138.117 176.878 139.867 185.116 138.631" stroke="black"/>
<path d="M171.945 141.499C172.983 141.941 175.777 142.691 178.65 142.161" stroke="black"/>
<path d="M178.89 114.144C175.218 111.717 170.652 105.893 181.763 102.01L197.09 98.2599" stroke="black"/>
<path d="M168.113 115.467C168.991 112.085 168.975 104.481 161.887 101.128C160.769 100.393 157.528 98.7894 153.505 98.2599" stroke="black"/>
<path d="M200.203 97.8187C165.774 102.004 150.624 97.8324 150.631 98.9165C150.632 98.9297 150.632 98.9315 150.631 98.9218C150.631 98.92 150.631 98.9182 150.631 98.9165C150.602 98.2573 149.264 69.1995 152.787 72.228C156.379 75.3166 198.287 73.3311 198.287 73.3311C198.667 78.1845 201.927 87.9354 200.203 97.8187Z" fill="#342F35"/>
<path d="M200.203 96.2745C169.79 100.025 151.972 96.6274 151.589 96.2745C151.206 95.9215 150.871 71.3456 152.308 74.2135C153.745 77.0814 199.485 75.0959 199.485 75.0959C201.161 79.6551 201.927 86.3911 200.203 96.2745Z" fill="#B2B2BE"/>
<path d="M181.045 107.526C183.679 109.144 190.097 111.188 194.695 106.423" stroke="black" stroke-width="2"/>
<path d="M161.887 105.981C160.29 104.143 155.852 100.731 150.871 101.79" stroke="black"/>
<path d="M181.045 107.967C182.482 105.687 187.367 101.084 195.414 103.555" stroke="black"/>
<path d="M162.126 106.202C159.811 106.79 154.367 107.79 151.11 107.084" stroke="black" stroke-width="2"/>
<path d="M134.826 167.531C134.985 170.105 137.221 175.915 142.729 179.665M245.464 191.357C236.923 200.917 232.845 209.422 224.63 220.919L245.464 191.357ZM224.63 220.919C217.028 231.557 208.633 237.465 204.993 248.054C203.715 251.29 201.544 258.07 203.077 259.305C204.514 262.467 204.61 267.379 193.498 261.732C186.074 259.379 176.572 260.515 167.634 255.555L224.63 220.919ZM224.63 220.919C222.395 217.757 219.457 206.27 225.588 185.621L224.63 220.919ZM167.634 255.555C163.305 253.152 161.752 250.676 157.576 248.054C149.699 243.107 135.198 239.601 130.138 237.586C129.35 237.272 126.995 236.907 126.239 237.281C120.291 240.222 111.937 247.194 111.597 256.437C111.213 259.516 110.794 263.813 110.54 268.35L167.634 255.555ZM167.634 255.555C157.656 249.598 147.518 251.804 186.792 308.28L167.634 255.555ZM119.02 310.228C116.549 304.184 113.795 295.352 112.315 290.19C110.176 286.597 110.055 277.033 110.54 268.35L119.02 310.228ZM119.02 310.228C120.28 313.311 121.467 315.668 122.373 316.443L119.02 310.228ZM119.02 310.228C119.499 317.962 121.08 334.136 123.57 336.96L119.02 310.228ZM110.54 268.35C107.683 265.899 102.942 262.385 98.4253 260.208L110.54 268.35ZM65.1379 263.497C64.5632 265.438 80.5444 261.364 88.6067 259.084C90.8214 257.452 94.5405 258.336 98.4253 260.208L65.1379 263.497ZM98.4253 260.208C92.3583 255.863 79.2192 246.951 75.196 246.068L98.4253 260.208ZM240.435 157.163C236.125 163.56 224.007 171.502 219.601 173.267L240.435 157.163Z" stroke="black" stroke-width="3" stroke-linejoin="round"/>
<path d="M156.139 60.7563C153.799 75.4776 150.406 104.449 152.405 119.9C153.035 122.599 153.669 125.102 154.224 127.16C153.383 125.383 152.793 122.895 152.405 119.9C151.361 115.424 150.328 110.408 149.685 105.981C149.682 113.318 149.838 127.809 150.466 131.366C150.524 131.595 150.579 131.811 150.631 132.013C150.573 131.879 150.518 131.66 150.466 131.366C149.719 128.395 148.601 123.358 148.439 120.482C148.341 125.833 148.478 136.083 149.685 143.926C148.463 141.242 146.167 134.533 145.383 126.629C145.452 129.658 145.274 132.961 144.405 134.219C144.022 133.372 143.27 130.123 143.211 123.77C143.155 126.245 142.493 130.309 140.094 131.572C140.493 127.16 140.909 116.571 139.376 109.511C138.259 110.32 136.263 115.6 137.221 130.248C134.826 114.364 132.048 78.008 140.094 59.6533C152.867 40.3131 188.277 12.6193 227.743 56.5647C230.441 78.4183 232.886 121.033 221.253 117.739C221.373 118.701 220.522 123.868 216.488 139.735C215.689 139.293 214.237 138.102 214.811 136.867C215.53 135.322 212.656 136.867 211.938 139.735C210.421 139.293 207.388 138.102 207.388 136.867C207.388 135.489 204.527 137.448 204.081 139.14C204.066 139.341 204.05 139.539 204.035 139.735C204.009 139.544 204.028 139.344 204.081 139.14C205.275 123.836 206.871 95.4026 204.035 99.5836C204.753 106.937 204.897 124.689 199.724 136.867C199.405 113.923 197.808 68.0806 193.977 68.257C194.216 84.4352 194.264 117.409 192.54 119.88C192.699 97.01 192.061 52.682 188.229 58.3296C184.478 60.0208 176.447 64.1978 174.34 67.3746C172.903 70.3895 169.119 74.6106 165.479 67.3746C163.004 64.2861 157.672 58.6385 156.139 60.7563Z" fill="#4A4A54"/>
<path d="M150.152 94.0684C148.664 95.1167 148.819 100.012 149.685 105.981L150.152 94.0684ZM149.685 105.981C150.715 113.077 152.749 121.688 154.224 127.16C149.051 116.218 153.346 78.3314 156.139 60.7563C157.672 58.6385 163.004 64.2861 165.479 67.3746C169.119 74.6106 172.903 70.3895 174.34 67.3746C176.447 64.1978 184.478 60.0208 188.229 58.3296C192.061 52.682 192.699 97.01 192.54 119.88C194.264 117.409 194.216 84.4352 193.977 68.257C197.808 68.0806 199.405 113.923 199.724 136.867C204.897 124.689 204.753 106.937 204.035 99.5836C206.909 95.3479 205.232 124.586 204.035 139.735C203.795 137.97 207.387 135.322 207.387 136.867C207.387 138.102 210.421 139.293 211.938 139.735C212.656 136.867 215.53 135.322 214.811 136.867C214.237 138.102 215.689 139.293 216.488 139.735C221.469 120.144 221.597 116.865 221.038 117.674C232.916 121.556 230.457 78.552 227.743 56.5647C188.277 12.6193 152.867 40.3131 140.094 59.6533C132.048 78.008 134.826 114.364 137.221 130.248C136.263 115.6 138.259 110.32 139.376 109.511C140.909 116.571 140.493 127.16 140.094 131.572C142.776 130.16 143.288 125.248 143.208 122.968C143.208 129.851 144.006 133.337 144.405 134.219C145.746 132.278 145.443 125.469 145.123 122.306C145.315 132.013 148.245 140.764 149.685 143.926C148.354 135.278 148.324 123.704 148.476 118.997C148.093 121.292 149.753 128.63 150.631 132.013C149.865 130.248 149.682 113.923 149.685 105.981Z" stroke="black"/>
<path d="M162.605 188.71C157.433 182.709 158.135 157.163 159.013 145.25L155.181 144.588C152.308 163.119 155.58 180.695 157.576 187.166C150.105 204.285 151.27 232.832 152.787 244.965L157.576 247.613C153.553 208.256 159.253 191.946 162.605 188.71Z" fill="#764852" stroke="#764852"/>
<path d="M145.842 182.974C151.509 192.681 172.089 205.3 209.064 178.121C193.657 183.268 159.444 191.445 145.842 182.974Z" fill="#090A0C" fill-opacity="0.3"/>
<path d="M171.931 91.5269C171.311 91.5269 170.728 91.4211 170.184 91.2093C169.648 90.9904 169.177 90.6904 168.77 90.3092C168.372 89.9209 168.058 89.4691 167.828 88.9538C167.606 88.4384 167.494 87.8807 167.494 87.2807C167.494 86.6877 167.606 86.137 167.828 85.6287C168.058 85.1134 168.372 84.6651 168.77 84.2839C169.177 83.8956 169.648 83.5921 170.184 83.3732C170.721 83.1544 171.303 83.045 171.931 83.045C172.522 83.045 173.027 83.1156 173.449 83.2567C173.878 83.3979 174.307 83.6309 174.736 83.9556C174.828 84.0262 174.889 84.0933 174.92 84.1568C174.951 84.2204 174.966 84.298 174.966 84.3898C174.966 84.5239 174.912 84.6369 174.805 84.7286C174.706 84.8134 174.583 84.8628 174.437 84.8769C174.292 84.884 174.15 84.8381 174.012 84.7392C173.729 84.5133 173.433 84.3404 173.127 84.2204C172.828 84.1003 172.43 84.0403 171.931 84.0403C171.479 84.0403 171.054 84.1251 170.656 84.2945C170.257 84.4639 169.905 84.6969 169.598 84.9934C169.299 85.2899 169.065 85.6358 168.897 86.0311C168.728 86.4194 168.644 86.8359 168.644 87.2807C168.644 87.7325 168.728 88.156 168.897 88.5514C169.065 88.9396 169.299 89.282 169.598 89.5785C169.905 89.875 170.257 90.108 170.656 90.2774C171.054 90.4398 171.479 90.521 171.931 90.521C172.322 90.521 172.69 90.461 173.035 90.341C173.387 90.2139 173.725 90.0409 174.047 89.8221C174.184 89.7303 174.319 89.6915 174.449 89.7056C174.587 89.7127 174.702 89.7621 174.794 89.8538C174.886 89.9386 174.932 90.0586 174.932 90.2139C174.932 90.3621 174.87 90.4927 174.748 90.6057C173.92 91.2199 172.981 91.5269 171.931 91.5269Z" fill="#828282"/>
<path d="M171.692 91.0857C171.071 91.0857 170.489 90.9798 169.945 90.768C169.408 90.5492 168.937 90.2492 168.531 89.868C168.132 89.4797 167.818 89.0279 167.588 88.5125C167.366 87.9972 167.255 87.4395 167.255 86.8394C167.255 86.2464 167.366 85.6958 167.588 85.1875C167.818 84.6722 168.132 84.2239 168.531 83.8427C168.937 83.4544 169.408 83.1508 169.945 82.932C170.481 82.7131 171.064 82.6037 171.692 82.6037C172.282 82.6037 172.788 82.6743 173.209 82.8155C173.638 82.9567 174.068 83.1897 174.497 83.5144C174.589 83.585 174.65 83.6521 174.681 83.7156C174.711 83.7791 174.727 83.8568 174.727 83.9486C174.727 84.0827 174.673 84.1956 174.566 84.2874C174.466 84.3721 174.343 84.4215 174.198 84.4357C174.052 84.4427 173.91 84.3968 173.773 84.298C173.489 84.0721 173.194 83.8991 172.887 83.7791C172.589 83.6591 172.19 83.5991 171.692 83.5991C171.24 83.5991 170.815 83.6838 170.416 83.8532C170.018 84.0227 169.665 84.2556 169.359 84.5521C169.06 84.8486 168.826 85.1946 168.657 85.5899C168.489 85.9782 168.404 86.3947 168.404 86.8394C168.404 87.2912 168.489 87.7148 168.657 88.1101C168.826 88.4984 169.06 88.8408 169.359 89.1373C169.665 89.4338 170.018 89.6668 170.416 89.8362C170.815 89.9986 171.24 90.0797 171.692 90.0797C172.083 90.0797 172.451 90.0197 172.795 89.8997C173.148 89.7727 173.485 89.5997 173.807 89.3809C173.945 89.2891 174.079 89.2503 174.209 89.2644C174.347 89.2714 174.462 89.3208 174.554 89.4126C174.646 89.4973 174.692 89.6173 174.692 89.7727C174.692 89.9209 174.631 90.0515 174.508 90.1645C173.681 90.7786 172.742 91.0857 171.692 91.0857Z" fill="#636363"/>
<path d="M167.475 92.1341C166.318 92.1341 165.74 91.6011 165.74 90.5351V88.0466C165.74 87.4042 165.391 87.083 164.693 87.083C164.594 87.083 164.51 87.0547 164.441 86.9983C164.372 86.9347 164.337 86.8571 164.337 86.7653C164.337 86.6665 164.372 86.5888 164.441 86.5323C164.51 86.4688 164.594 86.437 164.693 86.437C165.391 86.437 165.74 86.1158 165.74 85.4734V82.9849C165.74 81.9119 166.318 81.3754 167.475 81.3754C167.583 81.3754 167.667 81.4071 167.728 81.4707C167.797 81.5271 167.832 81.6048 167.832 81.7036C167.832 81.7954 167.797 81.8731 167.728 81.9366C167.667 81.9931 167.583 82.0213 167.475 82.0213C166.786 82.0213 166.441 82.3425 166.441 82.9849V85.4734C166.441 85.7487 166.395 85.9923 166.303 86.2041C166.219 86.4159 166.092 86.6029 165.923 86.7653C166.268 87.083 166.441 87.5101 166.441 88.0466V90.5351C166.441 91.1704 166.786 91.4881 167.475 91.4881C167.583 91.4881 167.667 91.5199 167.728 91.5834C167.797 91.647 167.832 91.7246 167.832 91.8164C167.832 91.9082 167.797 91.9823 167.728 92.0388C167.667 92.1023 167.583 92.1341 167.475 92.1341Z" fill="#636363"/>
<path d="M175.441 92.1341C175.342 92.1341 175.257 92.1023 175.188 92.0388C175.119 91.9823 175.085 91.9082 175.085 91.8164C175.085 91.7246 175.119 91.647 175.188 91.5834C175.257 91.5199 175.342 91.4881 175.441 91.4881C176.131 91.4881 176.476 91.1704 176.476 90.5351V88.0466C176.476 87.5101 176.648 87.083 176.993 86.7653C176.824 86.6029 176.694 86.4159 176.602 86.2041C176.518 85.9923 176.476 85.7487 176.476 85.4734V82.9849C176.476 82.3425 176.131 82.0213 175.441 82.0213C175.342 82.0213 175.257 81.9931 175.188 81.9366C175.119 81.8731 175.085 81.7954 175.085 81.7036C175.085 81.6048 175.119 81.5271 175.188 81.4707C175.257 81.4071 175.342 81.3754 175.441 81.3754C176.598 81.3754 177.177 81.9119 177.177 82.9849V85.4734C177.177 86.1158 177.526 86.437 178.223 86.437C178.323 86.437 178.407 86.4688 178.476 86.5323C178.545 86.5888 178.579 86.6665 178.579 86.7653C178.579 86.8571 178.545 86.9347 178.476 86.9983C178.407 87.0547 178.323 87.083 178.223 87.083C177.526 87.083 177.177 87.4042 177.177 88.0466V90.5351C177.177 91.6011 176.598 92.1341 175.441 92.1341Z" fill="#636363"/>
<path d="M94.1152 157.515C79.986 163.251 88.1277 185.312 96.031 185.532C103.934 185.753 102.097 191.342 102.975 194.798C103.933 203.799 99.3832 211.932 98.1858 213.771C94.7373 231.772 100.9 244.95 104.412 249.289L124.768 237.155C124.959 236.272 127.722 236.346 129.078 236.493L143.926 241.346C151.589 243.994 159.253 248.48 162.127 250.391C161.744 250.568 166.118 253.701 168.353 255.245L202.598 252.598L205.232 245.317C205.424 243.376 210.9 236.272 213.614 232.963C232.198 196.077 221.836 208.917 214.332 219.948C225.636 194.357 219.042 199.431 214.332 205.167C218.164 198.284 211.299 204.064 207.388 207.814C223.864 184.341 208.186 199.652 198.287 210.241C206.334 191.357 194.935 206.491 188.23 216.418C177.884 205.475 155.82 201.563 146.081 200.975C146.081 198.681 137.7 191.047 137.7 191.047C137.7 191.047 129.16 179.797 127.881 177.59C117.344 159.412 108.244 151.779 94.1152 157.515Z" fill="white"/>
<path d="M214.332 205.167C212.896 207.005 211.459 208.917 211.459 210.682M214.332 205.167C218.164 198.284 211.299 204.064 207.388 207.814C223.864 184.341 208.186 199.652 198.287 210.241C206.334 191.357 194.935 206.491 188.23 216.418C177.884 205.475 155.82 201.563 146.081 200.975C146.081 198.681 137.7 191.047 137.7 191.047C137.7 191.047 129.16 179.797 127.881 177.59C117.344 159.412 108.244 151.779 94.1152 157.515C79.986 163.251 88.1277 185.312 96.031 185.532C103.934 185.753 102.097 191.342 102.975 194.798C103.933 203.799 99.3832 211.932 98.1858 213.771C94.7373 231.772 100.9 244.95 104.412 249.289L124.768 237.155C124.959 236.272 127.722 236.346 129.078 236.493L143.926 241.346C151.589 243.994 159.253 248.48 162.127 250.391C161.744 250.568 166.118 253.701 168.353 255.245L202.598 252.598L205.232 245.317C205.424 243.376 210.9 236.272 213.614 232.963C232.198 196.077 221.836 208.917 214.332 219.948C225.636 194.357 219.042 199.431 214.332 205.167Z" stroke="black" stroke-width="2"/>
<path d="M149.419 232.743C148.373 234.816 144.23 235.643 135.784 223.722C135.243 222.959 134.684 222.143 134.107 221.271M188.229 216.418C194.791 221.368 192.061 224.36 202.119 229.875C201.1 231.321 194.706 231.048 182.003 226.125C188.675 229.032 190.864 233.405 195.07 234.508C194.773 235.33 192.773 235.709 188.229 235.349V216.418ZM163.084 228.772C171.705 232.743 183.161 234.948 188.229 235.349L163.084 228.772ZM188.229 235.349C182.433 238.065 164.893 242.505 149.419 232.743L188.229 235.349ZM144.165 228.772C145.875 230.301 147.633 231.617 149.419 232.743L144.165 228.772Z" stroke="black" stroke-width="2"/>
<path d="M105.849 227.448C109.681 225.507 120.218 232.302 125.965 236.714C125.965 236.714 114.921 243.545 112.315 250.392C111.186 253.359 110.878 258.334 110.878 258.334L109.92 266.938L97.7069 259.216C96.9884 256.348 98.1058 256.569 96.5095 253.701C93.8273 252.113 94.2742 249.363 94.8331 248.186C95.9826 246.774 94.6736 245.686 93.8752 245.318C91.1931 243.2 92.7578 241.053 93.8752 240.244C96.9405 239.008 95.1526 237.817 93.8752 237.376C90.2352 235.258 92.9973 231.787 94.8331 230.316C99.4311 228.199 99.4632 230.611 98.1858 232.081C97.2279 233.14 99.5427 233.846 101.538 234.067C105.61 233.846 102.57 231.64 101.778 231.419C98.3453 230.463 95.8868 228.684 105.849 227.448Z" fill="#E1C7B6" stroke="black"/>
<path d="M192.3 240.685C185.787 239.626 173.142 249.804 167.634 255.025L168.832 255.687L172.424 257.231L175.777 258.113L180.087 258.996L184.398 259.658L189.187 260.319L193.258 261.202L195.893 262.305L198.527 263.408L201.401 263.849L202.598 263.629L203.077 262.967L203.316 262.084L203.077 260.54L202.119 258.334V256.128L202.598 253.701L204.274 248.627C204.434 248.333 204.849 247.436 205.232 246.2C205.615 244.965 200.602 246.127 198.048 246.862C191.343 247.921 194.456 245.98 196.851 244.877C198.383 244.7 201.8 242.891 203.316 242.009C205.615 236.185 201.56 237.817 199.245 239.361C198.287 240.95 194.216 240.906 192.3 240.685Z" fill="#E1C7B6" stroke="black"/>
<path d="M95.5549 178.368C101.784 172.546 92.2544 170.234 86.7115 169.806C85.5078 171.369 71.1904 176.305 64.1824 178.578C73.6106 184.987 84.1562 180.777 87.4093 178.369C84.8493 181.518 83.1361 184.834 83.4412 185.6C83.3808 186.55 91.4919 181.175 95.5549 178.368Z" fill="#EDA101" stroke="black" stroke-width="2"/>
<path d="M93.7717 166.109C94.073 165.174 95.1392 164.641 96.1536 164.919C97.168 165.196 97.7461 166.179 97.4453 167.113C97.1441 168.047 96.087 168.382 95.0726 168.104C94.0582 167.827 93.471 167.043 93.7717 166.109Z" fill="black"/>
<path d="M85.1728 173.862C85.3926 173.998 85.7498 173.861 85.9705 173.558C86.1913 173.254 86.192 172.898 85.9722 172.762C85.7524 172.627 85.3953 172.763 85.1745 173.067C84.9538 173.37 84.953 173.727 85.1728 173.862Z" fill="black"/>
</g>
<defs>
<clipPath id="clip0">
<rect width="330" height="304" fill="white"/>
</clipPath>
</defs>
</svg>
