<svg width="1440" height="1024" viewBox="0 0 1440 1024" fill="none" xmlns="http://www.w3.org/2000/svg">
<g clip-path="url(#clip0)">
<rect width="1440" height="1024" fill="#F9F9F9"/>
<path d="M372.353 1209.01C276.979 1274.82 158.032 1333.67 39.367 1325.66C-79.2982 1317.66 -196.895 1244.13 -251.384 1139.39C-306.251 1035.24 -297.602 901.785 -266.487 793.612C-235.373 685.439 -181.795 602.545 -115.866 551.636C-49.9371 500.726 27.9655 482.384 105.574 441.506C183.182 400.628 259.536 337.421 347.543 326.438C434.968 315.079 533.669 356.527 532.936 433.024C532.785 509.896 433.579 621.233 430.466 721.848C427.149 821.503 519.926 910.436 530.019 990.619C540.695 1071.18 468.31 1143.57 372.353 1209.01Z" fill="#48DBDB"/>
<path d="M364.072 1109.59L364.07 1109.59C268.72 1175.39 149.892 1234.16 31.4007 1226.16C-87.1003 1218.17 -204.536 1144.74 -258.941 1040.16L-258.942 1040.16C-313.722 936.168 -305.105 802.867 -274.007 694.75C-242.915 586.654 -189.387 503.861 -123.561 453.031C-90.6474 427.616 -54.7367 410.323 -17.3287 394.268C-8.08016 390.299 1.26143 386.405 10.6717 382.482C39.3089 370.544 68.5824 358.341 97.8068 342.948C117.224 332.721 136.56 321.098 156.007 309.253C158.355 307.822 160.705 306.388 163.056 304.954C180.185 294.504 197.419 283.989 214.903 274.197C254.675 251.924 295.698 233.413 339.605 227.934L339.608 227.934C383.229 222.266 429.656 229.776 465.068 248.228C500.478 266.679 524.8 296.022 524.436 334.018L524.436 334.022C524.398 353.143 518.199 374.443 508.837 397.244C500.456 417.652 489.56 439.222 478.322 461.467C477.007 464.071 475.687 466.685 474.365 469.307C449.166 519.306 423.527 572.394 421.967 622.831C420.303 672.807 442.734 720.062 466.773 764.772C469.993 770.759 473.241 776.701 476.464 782.597C485.285 798.732 493.921 814.531 501.288 830.024C511.344 851.176 519.01 871.713 521.523 891.681L521.524 891.684C526.838 931.783 511.489 969.889 482.782 1006.17C454.072 1042.46 412.034 1076.89 364.072 1109.59Z" stroke="#141648"/>
<path fill-rule="evenodd" clip-rule="evenodd" d="M1305.21 530.758C1380.86 541.947 1396.61 649.066 1461.33 689.369C1529.66 731.93 1651.8 693.748 1684.32 766.87C1716.15 838.442 1623.17 904.977 1588.48 975.287C1561.42 1030.12 1559.01 1105.94 1503.69 1132.94C1448.46 1159.89 1385.46 1119.23 1326.03 1103.37C1285.29 1092.5 1253.45 1065.45 1212.54 1055.23C1137.2 1036.39 1029.49 1083.93 988.082 1018.89C950.169 959.355 1046.63 895.789 1068.32 828.73C1088.93 764.999 1069.57 690.214 1111.39 637.61C1158.26 578.654 1230.26 519.671 1305.21 530.758Z" fill="#48DBDB"/>
<path fill-rule="evenodd" clip-rule="evenodd" d="M1327.37 507.935C1402.22 523.581 1411.61 631.444 1473.82 675.506C1539.52 722.035 1663.71 691.146 1691.84 766.065C1719.38 839.394 1622.63 900.312 1583.84 968.445C1553.58 1021.58 1546.69 1097.13 1489.87 1120.81C1433.14 1144.45 1372.66 1100.13 1314.27 1080.78C1274.24 1067.51 1244.07 1038.63 1203.83 1026C1129.73 1002.74 1019.4 1043.82 981.913 976.453C947.59 914.775 1047.64 857.027 1073.26 791.369C1097.6 728.97 1082.7 653.17 1127.56 603.132C1177.84 547.053 1253.2 492.434 1327.37 507.935Z" stroke="#141648"/>
</g>
<defs>
<clipPath id="clip0">
<rect width="1440" height="1024" fill="white"/>
</clipPath>
</defs>
</svg>
