<svg width="480" height="263" viewBox="0 0 480 263" fill="none" xmlns="http://www.w3.org/2000/svg">
<mask id="mask0" mask-type="alpha" maskUnits="userSpaceOnUse" x="52" y="3" width="391" height="55">
<rect x="52.6667" y="3.21143" width="389.862" height="54.5935" fill="#C4C4C4"/>
</mask>
<g mask="url(#mask0)">
<path d="M138.582 26.1103V90.6016H125.494V40.7156H124.072L111.458 87.7564H98.37L85.7563 40.7156H84.3337V90.6016H71.2457V26.1103H93.5332L104.914 73.0561L116.295 26.1103H138.582ZM185.471 78.9362H162.899L160.338 90.6016H147.25L161.761 26.1103H186.609L201.12 90.6016H188.032L185.471 78.9362ZM176.461 36.922H171.909L165.365 67.5554H183.005L176.461 36.922ZM261.397 26.1103V90.6016H239.868L223.745 37.4911H222.797V90.6016H209.709V26.1103H231.806L247.36 79.2207H248.309V26.1103H261.397ZM299.462 91.7396C291.179 91.7396 285.014 89.8745 280.968 86.1441C276.921 82.4137 274.898 76.6284 274.898 68.7883V26.1103H287.986V69.0728C287.986 76.5968 291.811 80.3588 299.462 80.3588C307.112 80.3588 310.937 76.5968 310.937 69.0728V26.1103H324.025V68.7883C324.025 76.6284 322.002 82.4137 317.955 86.1441C313.909 89.8745 307.744 91.7396 299.462 91.7396ZM369.872 78.9362H347.3L344.74 90.6016H331.652L346.162 26.1103H371.01L385.521 90.6016H372.433L369.872 78.9362ZM360.862 36.922H356.31L349.766 67.5554H367.406L360.862 36.922ZM430.813 79.0311V90.6016H394.11V26.1103H407.198V79.0311H430.813Z" fill="#E22471"/>
</g>
<rect opacity="0.2" x="35.9675" y="57.8047" width="438.033" height="199.748" rx="16.0569" fill="#00FEFE"/>
<g filter="url(#filter0_d)">
<rect x="35.9675" y="57.8047" width="438.033" height="199.748" rx="16.0569" stroke="#48DBDB" stroke-width="1.28455"/>
</g>
<path d="M93.8715 125.984H96.5289C96.5289 124.516 95.3391 123.326 93.8715 123.326V125.984ZM63.2067 125.984H60.5494C60.5494 127.451 61.7391 128.641 63.2067 128.641V125.984ZM63.2067 105.428V102.771C61.7391 102.771 60.5494 103.96 60.5494 105.428H63.2067ZM147.451 105.428H150.108C150.108 103.96 148.918 102.771 147.451 102.771V105.428ZM147.451 125.984V128.641C148.918 128.641 150.108 127.451 150.108 125.984H147.451ZM117.123 125.984V123.326C115.655 123.326 114.466 124.516 114.466 125.984H117.123ZM117.123 220V222.657C118.591 222.657 119.78 221.468 119.78 220H117.123ZM93.8715 220H91.2142C91.2142 221.468 92.4039 222.657 93.8715 222.657V220ZM93.8715 123.326H63.2067V128.641H93.8715V123.326ZM65.864 125.984V105.428H60.5494V125.984H65.864ZM63.2067 108.085H147.451V102.771H63.2067V108.085ZM144.793 105.428V125.984H150.108V105.428H144.793ZM147.451 123.326H117.123V128.641H147.451V123.326ZM114.466 125.984V220H119.78V125.984H114.466ZM117.123 217.343H93.8715V222.657H117.123V217.343ZM96.5289 220V125.984H91.2142V220H96.5289ZM185.422 125.647V122.989C183.955 122.989 182.765 124.179 182.765 125.647H185.422ZM185.422 152.436H182.765C182.765 153.904 183.955 155.094 185.422 155.094V152.436ZM226.197 152.436H228.854C228.854 150.969 227.664 149.779 226.197 149.779V152.436ZM226.197 172.318V174.975C227.664 174.975 228.854 173.785 228.854 172.318H226.197ZM185.422 172.318V169.661C183.955 169.661 182.765 170.85 182.765 172.318H185.422ZM185.422 199.781H182.765C182.765 201.249 183.955 202.439 185.422 202.439V199.781ZM236.306 199.781H238.963C238.963 198.314 237.773 197.124 236.306 197.124V199.781ZM236.306 220V222.657C237.773 222.657 238.963 221.468 238.963 220H236.306ZM162.171 220H159.514C159.514 221.468 160.703 222.657 162.171 222.657V220ZM162.171 105.428V102.771C160.703 102.771 159.514 103.96 159.514 105.428H162.171ZM236.306 105.428H238.963C238.963 103.96 237.773 102.771 236.306 102.771V105.428ZM236.306 125.647V128.304C237.773 128.304 238.963 127.114 238.963 125.647H236.306ZM182.765 125.647V152.436H188.08V125.647H182.765ZM185.422 155.094H226.197V149.779H185.422V155.094ZM223.539 152.436V172.318H228.854V152.436H223.539ZM226.197 169.661H185.422V174.975H226.197V169.661ZM182.765 172.318V199.781H188.08V172.318H182.765ZM185.422 202.439H236.306V197.124H185.422V202.439ZM233.648 199.781V220H238.963V199.781H233.648ZM236.306 217.343H162.171V222.657H236.306V217.343ZM164.828 220V105.428H159.514V220H164.828ZM162.171 108.085H236.306V102.771H162.171V108.085ZM233.648 105.428V125.647H238.963V105.428H233.648ZM236.306 122.989H185.422V128.304H236.306V122.989ZM267.11 215.619L265.654 217.842L265.654 217.842L267.11 215.619ZM253.631 196.749L251.072 197.465C251.076 197.479 251.08 197.492 251.084 197.506L253.631 196.749ZM253.968 127.5L251.434 126.7C251.431 126.71 251.428 126.72 251.425 126.73L253.968 127.5ZM267.279 109.135L268.646 111.413C268.656 111.407 268.666 111.401 268.676 111.395L267.279 109.135ZM327.429 107.955L330.085 108.052C330.13 106.789 329.28 105.668 328.052 105.372L327.429 107.955ZM326.755 126.489L326.357 129.116C327.106 129.23 327.867 129.018 328.451 128.535C329.034 128.052 329.383 127.343 329.411 126.586L326.755 126.489ZM283.622 127.332L285.03 129.585L285.03 129.585L283.622 127.332ZM276.04 138.452L273.483 137.729C273.479 137.742 273.476 137.754 273.472 137.767L276.04 138.452ZM274.018 166.252H271.361C271.361 166.273 271.361 166.293 271.362 166.314L274.018 166.252ZM276.04 187.987L273.452 188.589C273.457 188.613 273.463 188.637 273.469 188.661L276.04 187.987ZM283.117 198.265L284.505 195.999L284.505 195.999L283.117 198.265ZM326.755 199.107L329.411 199.037C329.391 198.278 329.047 197.564 328.466 197.075C327.885 196.585 327.123 196.368 326.372 196.478L326.755 199.107ZM327.26 218.147L327.809 220.747C329.064 220.482 329.951 219.358 329.917 218.076L327.26 218.147ZM295.079 219.365C283.199 219.365 274.47 217.264 268.566 213.397L265.654 217.842C272.78 222.511 282.697 224.679 295.079 224.679V219.365ZM268.566 213.397C262.637 209.512 258.492 203.774 256.178 195.991L251.084 197.506C253.712 206.347 258.553 213.19 265.654 217.842L268.566 213.397ZM256.19 196.032C253.923 187.937 252.75 177.031 252.75 163.22H247.436C247.436 177.265 248.621 188.712 251.072 197.465L256.19 196.032ZM252.75 163.22C252.75 148.047 254.039 136.441 256.512 128.27L251.425 126.73C248.731 135.632 247.436 147.84 247.436 163.22H252.75ZM256.502 128.3C259.052 120.226 263.15 114.711 268.646 111.413L265.911 106.856C259.051 110.972 254.276 117.7 251.434 126.7L256.502 128.3ZM268.676 111.395C274.267 107.939 282.357 106.064 293.226 106.064V100.749C281.854 100.749 272.646 102.693 265.881 106.875L268.676 111.395ZM293.226 106.064C303.191 106.064 314.378 107.543 326.806 110.539L328.052 105.372C315.319 102.302 303.704 100.749 293.226 100.749V106.064ZM324.773 107.859L324.099 126.393L329.411 126.586L330.085 108.052L324.773 107.859ZM327.153 123.862C315.971 122.167 306.781 121.304 299.628 121.304V126.619C306.404 126.619 315.299 127.441 326.357 129.116L327.153 123.862ZM299.628 121.304C292.351 121.304 286.427 122.445 282.214 125.078L285.03 129.585C288.006 127.725 292.752 126.619 299.628 126.619V121.304ZM282.214 125.078C277.922 127.76 275.073 132.102 273.483 137.729L278.597 139.174C279.928 134.467 282.133 131.396 285.03 129.585L282.214 125.078ZM273.472 137.767C272.036 143.154 271.361 150.614 271.361 160.018H276.676C276.676 150.776 277.348 143.858 278.608 139.136L273.472 137.767ZM271.361 160.018V166.252H276.676V160.018H271.361ZM271.362 166.314C271.587 176.019 272.265 183.486 273.452 188.589L278.628 187.385C277.569 182.829 276.898 175.805 276.675 166.191L271.362 166.314ZM273.469 188.661C274.843 193.904 277.55 197.97 281.728 200.531L284.505 195.999C281.718 194.291 279.708 191.505 278.611 187.314L273.469 188.661ZM281.728 200.531C285.838 203.05 291.768 204.124 299.123 204.124V198.809C292.1 198.809 287.36 197.749 284.505 195.999L281.728 200.531ZM299.123 204.124C306.931 204.124 316.277 203.321 327.138 201.737L326.372 196.478C315.666 198.039 306.591 198.809 299.123 198.809V204.124ZM324.099 199.178L324.604 218.217L329.917 218.076L329.411 199.037L324.099 199.178ZM326.712 215.547C314.589 218.105 304.053 219.365 295.079 219.365V224.679C304.526 224.679 315.445 223.356 327.809 220.747L326.712 215.547ZM435.256 105.428H437.913C437.913 103.96 436.724 102.771 435.256 102.771V105.428ZM435.256 220V222.657C436.724 222.657 437.913 221.468 437.913 220H435.256ZM412.005 220H409.347C409.347 221.468 410.537 222.657 412.005 222.657V220ZM412.005 172.486H414.662C414.662 171.019 413.472 169.829 412.005 169.829V172.486ZM369.377 172.486V169.829C367.91 169.829 366.72 171.019 366.72 172.486H369.377ZM369.377 220V222.657C370.845 222.657 372.035 221.468 372.035 220H369.377ZM346.126 220H343.468C343.468 221.468 344.658 222.657 346.126 222.657V220ZM346.126 105.428V102.771C344.658 102.771 343.468 103.96 343.468 105.428H346.126ZM369.377 105.428H372.035C372.035 103.96 370.845 102.771 369.377 102.771V105.428ZM369.377 152.268H366.72C366.72 153.735 367.91 154.925 369.377 154.925V152.268ZM412.005 152.268V154.925C413.472 154.925 414.662 153.735 414.662 152.268H412.005ZM412.005 105.428V102.771C410.537 102.771 409.347 103.96 409.347 105.428H412.005ZM432.599 105.428V220H437.913V105.428H432.599ZM435.256 217.343H412.005V222.657H435.256V217.343ZM414.662 220V172.486H409.347V220H414.662ZM412.005 169.829H369.377V175.144H412.005V169.829ZM366.72 172.486V220H372.035V172.486H366.72ZM369.377 217.343H346.126V222.657H369.377V217.343ZM348.783 220V105.428H343.468V220H348.783ZM346.126 108.085H369.377V102.771H346.126V108.085ZM366.72 105.428V152.268H372.035V105.428H366.72ZM369.377 154.925H412.005V149.61H369.377V154.925ZM414.662 152.268V105.428H409.347V152.268H414.662ZM412.005 108.085H435.256V102.771H412.005V108.085Z" fill="#48DBDB"/>
<circle cx="7.06504" cy="75.7887" r="7.06504" fill="#FFC42E"/>
<circle cx="26.3334" cy="75.7887" r="7.06504" fill="#FFC42E"/>
<circle cx="45.6017" cy="75.7887" r="7.06504" fill="#FFC42E"/>
<mask id="mask1" mask-type="alpha" maskUnits="userSpaceOnUse" x="35" y="57" width="439" height="201">
<rect x="35.9675" y="57.8047" width="438.033" height="199.748" rx="16.0569" fill="white"/>
</mask>
<g mask="url(#mask1)">
<g filter="url(#filter1_d)">
<path d="M138.582 26.1103H140.188C140.188 25.2235 139.469 24.5046 138.582 24.5046V26.1103ZM138.582 90.6016V92.2073C139.469 92.2073 140.188 91.4884 140.188 90.6016H138.582ZM125.494 90.6016H123.889C123.889 91.4884 124.607 92.2073 125.494 92.2073V90.6016ZM125.494 40.7156H127.1C127.1 39.8288 126.381 39.1099 125.494 39.1099V40.7156ZM124.072 40.7156V39.1099C123.345 39.1099 122.709 39.5979 122.521 40.2998L124.072 40.7156ZM111.458 87.7564V89.362C112.185 89.362 112.821 88.8741 113.009 88.1722L111.458 87.7564ZM98.37 87.7564L96.8191 88.1722C97.0073 88.8741 97.6434 89.362 98.37 89.362V87.7564ZM85.7563 40.7156L87.3072 40.2998C87.119 39.5979 86.4829 39.1099 85.7563 39.1099V40.7156ZM84.3337 40.7156V39.1099C83.4469 39.1099 82.728 39.8288 82.728 40.7156H84.3337ZM84.3337 90.6016V92.2073C85.2205 92.2073 85.9393 91.4884 85.9393 90.6016H84.3337ZM71.2457 90.6016H69.64C69.64 91.4884 70.3589 92.2073 71.2457 92.2073V90.6016ZM71.2457 26.1103V24.5046C70.3589 24.5046 69.64 25.2235 69.64 26.1103H71.2457ZM93.5332 26.1103L95.0936 25.7319C94.919 25.0117 94.2742 24.5046 93.5332 24.5046V26.1103ZM104.914 73.0561L103.353 73.4344C103.528 74.1546 104.173 74.6618 104.914 74.6618C105.655 74.6618 106.3 74.1546 106.474 73.4344L104.914 73.0561ZM116.295 26.1103V24.5046C115.554 24.5046 114.909 25.0117 114.734 25.7319L116.295 26.1103ZM136.977 26.1103V90.6016H140.188V26.1103H136.977ZM138.582 88.9959H125.494V92.2073H138.582V88.9959ZM127.1 90.6016V40.7156H123.889V90.6016H127.1ZM125.494 39.1099H124.072V42.3213H125.494V39.1099ZM122.521 40.2998L109.907 87.3405L113.009 88.1722L125.623 41.1315L122.521 40.2998ZM111.458 86.1507H98.37V89.362H111.458V86.1507ZM99.9209 87.3405L87.3072 40.2998L84.2054 41.1315L96.8191 88.1722L99.9209 87.3405ZM85.7563 39.1099H84.3337V42.3213H85.7563V39.1099ZM82.728 40.7156V90.6016H85.9393V40.7156H82.728ZM84.3337 88.9959H71.2457V92.2073H84.3337V88.9959ZM72.8514 90.6016V26.1103H69.64V90.6016H72.8514ZM71.2457 27.7159H93.5332V24.5046H71.2457V27.7159ZM91.9727 26.4886L103.353 73.4344L106.474 72.6778L95.0936 25.7319L91.9727 26.4886ZM106.474 73.4344L117.855 26.4886L114.734 25.7319L103.353 72.6778L106.474 73.4344ZM116.295 27.7159H138.582V24.5046H116.295V27.7159ZM185.471 78.9362L187.039 78.592C186.878 77.8553 186.225 77.3305 185.471 77.3305V78.9362ZM162.899 78.9362V77.3305C162.145 77.3305 161.492 77.8553 161.331 78.592L162.899 78.9362ZM160.338 90.6016V92.2073C161.093 92.2073 161.745 91.6824 161.907 90.9458L160.338 90.6016ZM147.25 90.6016L145.684 90.2491C145.577 90.725 145.692 91.2237 145.997 91.6046C146.301 91.9855 146.763 92.2073 147.25 92.2073V90.6016ZM161.761 26.1103V24.5046C161.01 24.5046 160.359 25.0251 160.194 25.7578L161.761 26.1103ZM186.609 26.1103L188.176 25.7578C188.011 25.0251 187.36 24.5046 186.609 24.5046V26.1103ZM201.12 90.6016V92.2073C201.607 92.2073 202.069 91.9855 202.374 91.6046C202.678 91.2237 202.793 90.725 202.686 90.2491L201.12 90.6016ZM188.032 90.6016L186.463 90.9458C186.625 91.6824 187.278 92.2073 188.032 92.2073V90.6016ZM176.461 36.922L178.032 36.5866C177.873 35.8458 177.219 35.3163 176.461 35.3163V36.922ZM171.909 36.922V35.3163C171.151 35.3163 170.497 35.8458 170.339 36.5866L171.909 36.922ZM165.365 67.5554L163.795 67.22C163.693 67.694 163.812 68.1884 164.117 68.5653C164.421 68.9421 164.88 69.1611 165.365 69.1611V67.5554ZM183.005 67.5554V69.1611C183.49 69.1611 183.949 68.9421 184.254 68.5653C184.558 68.1884 184.677 67.694 184.575 67.22L183.005 67.5554ZM185.471 77.3305H162.899V80.5419H185.471V77.3305ZM161.331 78.592L158.77 90.2573L161.907 90.9458L164.467 79.2805L161.331 78.592ZM160.338 88.9959H147.25V92.2073H160.338V88.9959ZM148.817 90.954L163.328 26.4627L160.194 25.7578L145.684 90.2491L148.817 90.954ZM161.761 27.7159H186.609V24.5046H161.761V27.7159ZM185.043 26.4627L199.553 90.954L202.686 90.2491L188.176 25.7578L185.043 26.4627ZM201.12 88.9959H188.032V92.2073H201.12V88.9959ZM189.6 90.2573L187.039 78.592L183.903 79.2805L186.463 90.9458L189.6 90.2573ZM176.461 35.3163H171.909V38.5277H176.461V35.3163ZM170.339 36.5866L163.795 67.22L166.935 67.8908L173.479 37.2575L170.339 36.5866ZM165.365 69.1611H183.005V65.9497H165.365V69.1611ZM184.575 67.22L178.032 36.5866L174.891 37.2575L181.435 67.8908L184.575 67.22ZM261.397 26.1103H263.002C263.002 25.2235 262.283 24.5046 261.397 24.5046V26.1103ZM261.397 90.6016V92.2073C262.283 92.2073 263.002 91.4884 263.002 90.6016H261.397ZM239.868 90.6016L238.331 91.068C238.537 91.7446 239.161 92.2073 239.868 92.2073V90.6016ZM223.745 37.4911L225.281 37.0246C225.076 36.348 224.452 35.8854 223.745 35.8854V37.4911ZM222.797 37.4911V35.8854C221.91 35.8854 221.191 36.6043 221.191 37.4911H222.797ZM222.797 90.6016V92.2073C223.683 92.2073 224.402 91.4884 224.402 90.6016H222.797ZM209.709 90.6016H208.103C208.103 91.4884 208.822 92.2073 209.709 92.2073V90.6016ZM209.709 26.1103V24.5046C208.822 24.5046 208.103 25.2235 208.103 26.1103H209.709ZM231.806 26.1103L233.347 25.659C233.147 24.9747 232.519 24.5046 231.806 24.5046V26.1103ZM247.36 79.2207L245.819 79.672C246.02 80.3563 246.647 80.8264 247.36 80.8264V79.2207ZM248.309 79.2207V80.8264C249.195 80.8264 249.914 80.1075 249.914 79.2207H248.309ZM248.309 26.1103V24.5046C247.422 24.5046 246.703 25.2235 246.703 26.1103H248.309ZM259.791 26.1103V90.6016H263.002V26.1103H259.791ZM261.397 88.9959H239.868V92.2073H261.397V88.9959ZM241.404 90.1351L225.281 37.0246L222.209 37.9575L238.331 91.068L241.404 90.1351ZM223.745 35.8854H222.797V39.0968H223.745V35.8854ZM221.191 37.4911V90.6016H224.402V37.4911H221.191ZM222.797 88.9959H209.709V92.2073H222.797V88.9959ZM211.314 90.6016V26.1103H208.103V90.6016H211.314ZM209.709 27.7159H231.806V24.5046H209.709V27.7159ZM230.265 26.5615L245.819 79.672L248.901 78.7695L233.347 25.659L230.265 26.5615ZM247.36 80.8264H248.309V77.6151H247.36V80.8264ZM249.914 79.2207V26.1103H246.703V79.2207H249.914ZM248.309 27.7159H261.397V24.5046H248.309V27.7159ZM280.968 86.1441L279.879 87.3246L279.879 87.3246L280.968 86.1441ZM274.898 26.1103V24.5046C274.011 24.5046 273.292 25.2235 273.292 26.1103H274.898ZM287.986 26.1103H289.592C289.592 25.2235 288.873 24.5046 287.986 24.5046V26.1103ZM310.937 26.1103V24.5046C310.05 24.5046 309.331 25.2235 309.331 26.1103H310.937ZM324.025 26.1103H325.631C325.631 25.2235 324.912 24.5046 324.025 24.5046V26.1103ZM317.955 86.1441L316.867 84.9635L316.867 84.9635L317.955 86.1441ZM299.462 90.134C291.384 90.134 285.687 88.3105 282.056 84.9635L279.879 87.3246C284.342 91.4384 290.974 93.3453 299.462 93.3453V90.134ZM282.056 84.9635C278.459 81.6477 276.504 76.3744 276.504 68.7883H273.292C273.292 76.8825 275.383 83.1797 279.879 87.3246L282.056 84.9635ZM276.504 68.7883V26.1103H273.292V68.7883H276.504ZM274.898 27.7159H287.986V24.5046H274.898V27.7159ZM286.38 26.1103V69.0728H289.592V26.1103H286.38ZM286.38 69.0728C286.38 73.0892 287.403 76.3948 289.729 78.6821C292.05 80.9646 295.395 81.9645 299.462 81.9645V78.7531C295.877 78.7531 293.485 77.8721 291.981 76.3925C290.481 74.9178 289.592 72.5805 289.592 69.0728H286.38ZM299.462 81.9645C303.528 81.9645 306.873 80.9646 309.194 78.6821C311.52 76.3948 312.543 73.0892 312.543 69.0728H309.331C309.331 72.5805 308.442 74.9178 306.942 76.3925C305.438 77.8721 303.046 78.7531 299.462 78.7531V81.9645ZM312.543 69.0728V26.1103H309.331V69.0728H312.543ZM310.937 27.7159H324.025V24.5046H310.937V27.7159ZM322.419 26.1103V68.7883H325.631V26.1103H322.419ZM322.419 68.7883C322.419 76.3744 320.464 81.6477 316.867 84.9635L319.044 87.3246C323.54 83.1797 325.631 76.8825 325.631 68.7883H322.419ZM316.867 84.9635C313.236 88.3105 307.54 90.134 299.462 90.134V93.3453C307.949 93.3453 314.581 91.4384 319.044 87.3246L316.867 84.9635ZM369.872 78.9362L371.441 78.592C371.279 77.8553 370.626 77.3305 369.872 77.3305V78.9362ZM347.3 78.9362V77.3305C346.546 77.3305 345.894 77.8553 345.732 78.592L347.3 78.9362ZM344.74 90.6016V92.2073C345.494 92.2073 346.146 91.6824 346.308 90.9458L344.74 90.6016ZM331.652 90.6016L330.085 90.2491C329.978 90.725 330.093 91.2237 330.398 91.6046C330.703 91.9855 331.164 92.2073 331.652 92.2073V90.6016ZM346.162 26.1103V24.5046C345.411 24.5046 344.76 25.0251 344.596 25.7578L346.162 26.1103ZM371.01 26.1103L372.577 25.7578C372.412 25.0251 371.761 24.5046 371.01 24.5046V26.1103ZM385.521 90.6016V92.2073C386.009 92.2073 386.47 91.9855 386.775 91.6046C387.079 91.2237 387.194 90.725 387.087 90.2491L385.521 90.6016ZM372.433 90.6016L370.865 90.9458C371.026 91.6824 371.679 92.2073 372.433 92.2073V90.6016ZM360.862 36.922L362.433 36.5866C362.274 35.8458 361.62 35.3163 360.862 35.3163V36.922ZM356.31 36.922V35.3163C355.553 35.3163 354.898 35.8458 354.74 36.5866L356.31 36.922ZM349.766 67.5554L348.196 67.22C348.095 67.694 348.213 68.1884 348.518 68.5653C348.823 68.9421 349.281 69.1611 349.766 69.1611V67.5554ZM367.406 67.5554V69.1611C367.891 69.1611 368.35 68.9421 368.655 68.5653C368.96 68.1884 369.078 67.694 368.977 67.22L367.406 67.5554ZM369.872 77.3305H347.3V80.5419H369.872V77.3305ZM345.732 78.592L343.171 90.2573L346.308 90.9458L348.869 79.2805L345.732 78.592ZM344.74 88.9959H331.652V92.2073H344.74V88.9959ZM333.218 90.954L347.729 26.4627L344.596 25.7578L330.085 90.2491L333.218 90.954ZM346.162 27.7159H371.01V24.5046H346.162V27.7159ZM369.444 26.4627L383.954 90.954L387.087 90.2491L372.577 25.7578L369.444 26.4627ZM385.521 88.9959H372.433V92.2073H385.521V88.9959ZM374.001 90.2573L371.441 78.592L368.304 79.2805L370.865 90.9458L374.001 90.2573ZM360.862 35.3163H356.31V38.5277H360.862V35.3163ZM354.74 36.5866L348.196 67.22L351.336 67.8908L357.88 37.2575L354.74 36.5866ZM349.766 69.1611H367.406V65.9497H349.766V69.1611ZM368.977 67.22L362.433 36.5866L359.292 37.2575L365.836 67.8908L368.977 67.22ZM430.813 79.0311H432.419C432.419 78.1443 431.7 77.4254 430.813 77.4254V79.0311ZM430.813 90.6016V92.2073C431.7 92.2073 432.419 91.4884 432.419 90.6016H430.813ZM394.11 90.6016H392.504C392.504 91.4884 393.223 92.2073 394.11 92.2073V90.6016ZM394.11 26.1103V24.5046C393.223 24.5046 392.504 25.2235 392.504 26.1103H394.11ZM407.198 26.1103H408.803C408.803 25.2235 408.085 24.5046 407.198 24.5046V26.1103ZM407.198 79.0311H405.592C405.592 79.9179 406.311 80.6368 407.198 80.6368V79.0311ZM429.207 79.0311V90.6016H432.419V79.0311H429.207ZM430.813 88.9959H394.11V92.2073H430.813V88.9959ZM395.715 90.6016V26.1103H392.504V90.6016H395.715ZM394.11 27.7159H407.198V24.5046H394.11V27.7159ZM405.592 26.1103V79.0311H408.803V26.1103H405.592ZM407.198 80.6368H430.813V77.4254H407.198V80.6368Z" fill="#00FEFE"/>
</g>
</g>
<path d="M93.8715 125.984H96.5289C96.5289 124.516 95.3391 123.326 93.8715 123.326V125.984ZM63.2067 125.984H60.5494C60.5494 127.451 61.7391 128.641 63.2067 128.641V125.984ZM63.2067 105.428V102.771C61.7391 102.771 60.5494 103.96 60.5494 105.428H63.2067ZM147.451 105.428H150.108C150.108 103.96 148.918 102.771 147.451 102.771V105.428ZM147.451 125.984V128.641C148.918 128.641 150.108 127.451 150.108 125.984H147.451ZM117.123 125.984V123.326C115.655 123.326 114.466 124.516 114.466 125.984H117.123ZM117.123 220V222.657C118.591 222.657 119.78 221.468 119.78 220H117.123ZM93.8715 220H91.2142C91.2142 221.468 92.4039 222.657 93.8715 222.657V220ZM93.8715 123.326H63.2067V128.641H93.8715V123.326ZM65.864 125.984V105.428H60.5494V125.984H65.864ZM63.2067 108.085H147.451V102.771H63.2067V108.085ZM144.793 105.428V125.984H150.108V105.428H144.793ZM147.451 123.326H117.123V128.641H147.451V123.326ZM114.466 125.984V220H119.78V125.984H114.466ZM117.123 217.343H93.8715V222.657H117.123V217.343ZM96.5289 220V125.984H91.2142V220H96.5289ZM185.422 125.647V122.989C183.955 122.989 182.765 124.179 182.765 125.647H185.422ZM185.422 152.436H182.765C182.765 153.904 183.955 155.094 185.422 155.094V152.436ZM226.197 152.436H228.854C228.854 150.969 227.664 149.779 226.197 149.779V152.436ZM226.197 172.318V174.975C227.664 174.975 228.854 173.785 228.854 172.318H226.197ZM185.422 172.318V169.661C183.955 169.661 182.765 170.85 182.765 172.318H185.422ZM185.422 199.781H182.765C182.765 201.249 183.955 202.439 185.422 202.439V199.781ZM236.306 199.781H238.963C238.963 198.314 237.773 197.124 236.306 197.124V199.781ZM236.306 220V222.657C237.773 222.657 238.963 221.468 238.963 220H236.306ZM162.171 220H159.514C159.514 221.468 160.703 222.657 162.171 222.657V220ZM162.171 105.428V102.771C160.703 102.771 159.514 103.96 159.514 105.428H162.171ZM236.306 105.428H238.963C238.963 103.96 237.773 102.771 236.306 102.771V105.428ZM236.306 125.647V128.304C237.773 128.304 238.963 127.114 238.963 125.647H236.306ZM182.765 125.647V152.436H188.08V125.647H182.765ZM185.422 155.094H226.197V149.779H185.422V155.094ZM223.539 152.436V172.318H228.854V152.436H223.539ZM226.197 169.661H185.422V174.975H226.197V169.661ZM182.765 172.318V199.781H188.08V172.318H182.765ZM185.422 202.439H236.306V197.124H185.422V202.439ZM233.648 199.781V220H238.963V199.781H233.648ZM236.306 217.343H162.171V222.657H236.306V217.343ZM164.828 220V105.428H159.514V220H164.828ZM162.171 108.085H236.306V102.771H162.171V108.085ZM233.648 105.428V125.647H238.963V105.428H233.648ZM236.306 122.989H185.422V128.304H236.306V122.989ZM267.11 215.619L265.654 217.842L265.654 217.842L267.11 215.619ZM253.631 196.749L251.072 197.465C251.076 197.479 251.08 197.492 251.084 197.506L253.631 196.749ZM253.968 127.5L251.434 126.7C251.431 126.71 251.428 126.72 251.425 126.73L253.968 127.5ZM267.279 109.135L268.646 111.413C268.656 111.407 268.666 111.401 268.676 111.395L267.279 109.135ZM327.429 107.955L330.085 108.052C330.13 106.789 329.28 105.668 328.052 105.372L327.429 107.955ZM326.755 126.489L326.357 129.116C327.106 129.23 327.867 129.018 328.451 128.535C329.034 128.052 329.383 127.343 329.411 126.586L326.755 126.489ZM283.622 127.332L285.03 129.585L285.03 129.585L283.622 127.332ZM276.04 138.452L273.483 137.729C273.479 137.742 273.476 137.754 273.472 137.767L276.04 138.452ZM274.018 166.252H271.361C271.361 166.273 271.361 166.293 271.362 166.314L274.018 166.252ZM276.04 187.987L273.452 188.589C273.457 188.613 273.463 188.637 273.469 188.661L276.04 187.987ZM283.117 198.265L284.505 195.999L284.505 195.999L283.117 198.265ZM326.755 199.107L329.411 199.037C329.391 198.278 329.047 197.564 328.466 197.075C327.885 196.585 327.123 196.368 326.372 196.478L326.755 199.107ZM327.26 218.147L327.809 220.747C329.064 220.482 329.951 219.358 329.917 218.076L327.26 218.147ZM295.079 219.365C283.199 219.365 274.47 217.264 268.566 213.397L265.654 217.842C272.78 222.511 282.697 224.679 295.079 224.679V219.365ZM268.566 213.397C262.637 209.512 258.492 203.774 256.178 195.991L251.084 197.506C253.712 206.347 258.553 213.19 265.654 217.842L268.566 213.397ZM256.19 196.032C253.923 187.937 252.75 177.031 252.75 163.22H247.436C247.436 177.265 248.621 188.712 251.072 197.465L256.19 196.032ZM252.75 163.22C252.75 148.047 254.039 136.441 256.512 128.27L251.425 126.73C248.731 135.632 247.436 147.84 247.436 163.22H252.75ZM256.502 128.3C259.052 120.226 263.15 114.711 268.646 111.413L265.911 106.856C259.051 110.972 254.276 117.7 251.434 126.7L256.502 128.3ZM268.676 111.395C274.267 107.939 282.357 106.064 293.226 106.064V100.749C281.854 100.749 272.646 102.693 265.881 106.875L268.676 111.395ZM293.226 106.064C303.191 106.064 314.378 107.543 326.806 110.539L328.052 105.372C315.319 102.302 303.704 100.749 293.226 100.749V106.064ZM324.773 107.859L324.099 126.393L329.411 126.586L330.085 108.052L324.773 107.859ZM327.153 123.862C315.971 122.167 306.781 121.304 299.628 121.304V126.619C306.404 126.619 315.299 127.441 326.357 129.116L327.153 123.862ZM299.628 121.304C292.351 121.304 286.427 122.445 282.214 125.078L285.03 129.585C288.006 127.725 292.752 126.619 299.628 126.619V121.304ZM282.214 125.078C277.922 127.76 275.073 132.102 273.483 137.729L278.597 139.174C279.928 134.467 282.133 131.396 285.03 129.585L282.214 125.078ZM273.472 137.767C272.036 143.154 271.361 150.614 271.361 160.018H276.676C276.676 150.776 277.348 143.858 278.608 139.136L273.472 137.767ZM271.361 160.018V166.252H276.676V160.018H271.361ZM271.362 166.314C271.587 176.019 272.265 183.486 273.452 188.589L278.628 187.385C277.569 182.829 276.898 175.805 276.675 166.191L271.362 166.314ZM273.469 188.661C274.843 193.904 277.55 197.97 281.728 200.531L284.505 195.999C281.718 194.291 279.708 191.505 278.611 187.314L273.469 188.661ZM281.728 200.531C285.838 203.05 291.768 204.124 299.123 204.124V198.809C292.1 198.809 287.36 197.749 284.505 195.999L281.728 200.531ZM299.123 204.124C306.931 204.124 316.277 203.321 327.138 201.737L326.372 196.478C315.666 198.039 306.591 198.809 299.123 198.809V204.124ZM324.099 199.178L324.604 218.217L329.917 218.076L329.411 199.037L324.099 199.178ZM326.712 215.547C314.589 218.105 304.053 219.365 295.079 219.365V224.679C304.526 224.679 315.445 223.356 327.809 220.747L326.712 215.547ZM435.256 105.428H437.913C437.913 103.96 436.724 102.771 435.256 102.771V105.428ZM435.256 220V222.657C436.724 222.657 437.913 221.468 437.913 220H435.256ZM412.005 220H409.347C409.347 221.468 410.537 222.657 412.005 222.657V220ZM412.005 172.486H414.662C414.662 171.019 413.472 169.829 412.005 169.829V172.486ZM369.377 172.486V169.829C367.91 169.829 366.72 171.019 366.72 172.486H369.377ZM369.377 220V222.657C370.845 222.657 372.035 221.468 372.035 220H369.377ZM346.126 220H343.468C343.468 221.468 344.658 222.657 346.126 222.657V220ZM346.126 105.428V102.771C344.658 102.771 343.468 103.96 343.468 105.428H346.126ZM369.377 105.428H372.035C372.035 103.96 370.845 102.771 369.377 102.771V105.428ZM369.377 152.268H366.72C366.72 153.735 367.91 154.925 369.377 154.925V152.268ZM412.005 152.268V154.925C413.472 154.925 414.662 153.735 414.662 152.268H412.005ZM412.005 105.428V102.771C410.537 102.771 409.347 103.96 409.347 105.428H412.005ZM432.599 105.428V220H437.913V105.428H432.599ZM435.256 217.343H412.005V222.657H435.256V217.343ZM414.662 220V172.486H409.347V220H414.662ZM412.005 169.829H369.377V175.144H412.005V169.829ZM366.72 172.486V220H372.035V172.486H366.72ZM369.377 217.343H346.126V222.657H369.377V217.343ZM348.783 220V105.428H343.468V220H348.783ZM346.126 108.085H369.377V102.771H346.126V108.085ZM366.72 105.428V152.268H372.035V105.428H366.72ZM369.377 154.925H412.005V149.61H369.377V154.925ZM414.662 152.268V105.428H409.347V152.268H414.662ZM412.005 108.085H435.256V102.771H412.005V108.085Z" fill="#48DBDB"/>
<circle cx="7.06504" cy="75.7887" r="7.06504" fill="#FFC42E"/>
<circle cx="26.3334" cy="75.7887" r="7.06504" fill="#FFC42E"/>
<circle cx="45.6017" cy="75.7887" r="7.06504" fill="#FFC42E"/>
<mask id="mask2" mask-type="alpha" maskUnits="userSpaceOnUse" x="35" y="57" width="439" height="201">
<rect x="35.9675" y="57.8047" width="438.033" height="199.748" rx="16.0569" fill="white"/>
</mask>
<g mask="url(#mask2)">
</g>
<defs>
<filter id="filter0_d" x="30.8293" y="52.6667" width="448.309" height="210.024" filterUnits="userSpaceOnUse" color-interpolation-filters="sRGB">
<feFlood flood-opacity="0" result="BackgroundImageFix"/>
<feColorMatrix in="SourceAlpha" type="matrix" values="0 0 0 0 0 0 0 0 0 0 0 0 0 0 0 0 0 0 127 0"/>
<feMorphology radius="1.92683" operator="dilate" in="SourceAlpha" result="effect1_dropShadow"/>
<feOffset/>
<feGaussianBlur stdDeviation="1.28455"/>
<feColorMatrix type="matrix" values="0 0 0 0 0.282535 0 0 0 0 0.858333 0 0 0 0 0.858333 0 0 0 1 0"/>
<feBlend mode="normal" in2="BackgroundImageFix" result="effect1_dropShadow"/>
<feBlend mode="normal" in="SourceGraphic" in2="effect1_dropShadow" result="shape"/>
</filter>
<filter id="filter1_d" x="67.071" y="24.5044" width="367.917" height="73.979" filterUnits="userSpaceOnUse" color-interpolation-filters="sRGB">
<feFlood flood-opacity="0" result="BackgroundImageFix"/>
<feColorMatrix in="SourceAlpha" type="matrix" values="0 0 0 0 0 0 0 0 0 0 0 0 0 0 0 0 0 0 127 0"/>
<feOffset dy="2.56911"/>
<feGaussianBlur stdDeviation="1.28455"/>
<feColorMatrix type="matrix" values="0 0 0 0 0 0 0 0 0 0 0 0 0 0 0 0 0 0 0.25 0"/>
<feBlend mode="normal" in2="BackgroundImageFix" result="effect1_dropShadow"/>
<feBlend mode="normal" in="SourceGraphic" in2="effect1_dropShadow" result="shape"/>
</filter>
</defs>
</svg>
