<svg width="1440" height="1024" viewBox="0 0 1440 1024" fill="none" xmlns="http://www.w3.org/2000/svg">
<g clip-path="url(#clip0)">
<rect width="1440" height="1024" fill="#141648"/>
<path d="M369.354 193.007C273.979 258.818 155.032 317.67 36.3672 309.665C-82.2981 301.659 -199.895 228.134 -254.384 123.394C-309.251 19.2374 -300.601 -114.214 -269.487 -222.387C-238.373 -330.56 -184.795 -413.454 -118.866 -464.364C-52.937 -515.274 24.9656 -533.615 102.574 -574.493C180.182 -615.371 256.536 -678.578 344.543 -689.561C431.968 -700.921 530.669 -659.472 529.936 -582.976C529.785 -506.103 430.579 -394.767 427.466 -294.152C424.149 -194.497 516.926 -105.564 527.019 -25.3803C537.695 55.1794 465.311 127.573 369.354 193.007Z" fill="#48DBDB"/>
<path d="M361.072 93.5939L361.07 93.5955C265.72 159.389 146.892 218.159 28.4008 210.165C-90.1002 202.171 -207.536 128.74 -261.941 24.1627L-261.942 24.1605C-316.722 -79.8317 -308.105 -213.132 -277.007 -321.249C-245.915 -429.345 -192.387 -512.138 -126.56 -562.969C-93.6473 -588.384 -57.7365 -605.677 -20.3286 -621.731C-11.08 -625.701 -1.73845 -629.595 7.67181 -633.518C36.309 -645.455 65.5825 -657.658 94.8069 -673.051C114.224 -683.279 133.56 -694.901 153.007 -706.747C155.355 -708.177 157.705 -709.611 160.057 -711.046C177.185 -721.496 194.419 -732.01 211.903 -741.802C251.675 -764.076 292.698 -782.586 336.605 -788.066L336.608 -788.066C380.229 -793.734 426.656 -786.224 462.068 -767.772C497.478 -749.32 521.8 -719.977 521.436 -681.981L521.436 -681.977C521.398 -662.857 515.199 -641.557 505.837 -618.756C497.456 -598.347 486.56 -576.778 475.322 -554.532C474.007 -551.928 472.687 -549.315 471.365 -546.693C446.166 -496.693 420.527 -443.606 418.967 -393.169C417.303 -343.192 439.734 -295.937 463.773 -251.228C466.993 -245.24 470.241 -239.299 473.464 -233.403C482.285 -217.267 490.922 -201.469 498.288 -185.975C508.345 -164.823 516.01 -144.287 518.523 -124.318L518.524 -124.315C523.838 -84.2166 508.489 -46.1109 479.782 -9.82515C451.072 26.4641 409.035 60.8875 361.072 93.5939Z" stroke="#141648"/>
<path fill-rule="evenodd" clip-rule="evenodd" d="M1329.21 -377.242C1404.86 -366.053 1420.61 -258.934 1485.33 -218.631C1553.66 -176.07 1675.8 -214.252 1708.32 -141.13C1740.15 -69.5581 1647.17 -3.02287 1612.48 67.2868C1585.42 122.12 1583.01 197.943 1527.69 224.939C1472.46 251.894 1409.46 211.234 1350.03 195.371C1309.29 184.497 1277.45 157.455 1236.54 147.228C1161.2 128.394 1053.49 175.927 1012.08 110.894C974.169 51.3548 1070.63 -12.2114 1092.32 -79.2704C1112.93 -143.001 1093.57 -217.786 1135.39 -270.39C1182.26 -329.346 1254.26 -388.329 1329.21 -377.242Z" fill="#48DBDB"/>
<path fill-rule="evenodd" clip-rule="evenodd" d="M1351.37 -400.065C1426.22 -384.419 1435.61 -276.556 1497.82 -232.494C1563.52 -185.965 1687.71 -216.854 1715.84 -141.935C1743.38 -68.6059 1646.63 -7.68844 1607.84 60.4454C1577.58 113.582 1570.69 189.129 1513.87 212.805C1457.14 236.445 1396.66 192.129 1338.27 172.777C1298.24 159.512 1268.07 130.633 1227.83 118.004C1153.73 94.7449 1043.4 135.823 1005.91 68.4526C971.59 6.77506 1071.64 -50.9726 1097.26 -116.631C1121.6 -179.03 1106.7 -254.83 1151.56 -304.868C1201.84 -360.947 1277.2 -415.566 1351.37 -400.065Z" stroke="#141648"/>
</g>
<defs>
<clipPath id="clip0">
<rect width="1440" height="1024" fill="white"/>
</clipPath>
</defs>
</svg>
