<svg width="490" height="345" viewBox="0 0 490 345" fill="none" xmlns="http://www.w3.org/2000/svg">
<g clip-path="url(#clip0)">
<path d="M250.253 344.269C264.991 344.269 276.938 332.333 276.938 317.608C276.938 302.884 264.991 290.948 250.253 290.948C235.516 290.948 223.568 302.884 223.568 317.608C223.568 332.333 235.516 344.269 250.253 344.269Z" fill="#D13C74"/>
<path d="M409.67 342.771C424.598 338.291 440.47 333.621 452.309 322.972C462.889 313.456 470.031 298.926 465.648 284.655C461.274 270.414 448.173 260.918 434.647 256.195C426.975 253.516 418.949 252.03 410.925 250.863C402.204 249.593 393.443 248.554 384.687 247.553C349.232 243.502 313.644 241.027 277.922 240.128C260.296 239.685 242.673 239.695 225.044 239.951C209.301 240.179 192.72 240.174 178.115 233.488C166.757 228.29 156.449 218.832 153.284 206.403C149.631 192.055 156.369 177.445 166.035 167.054C171.13 161.577 177.084 156.967 183.227 152.728C189.891 148.13 196.787 143.857 203.833 139.869C217.709 132.017 232.217 125.335 247.205 119.891C254.599 117.205 262.103 114.888 269.671 112.75C276.062 110.945 282.473 109.137 288.65 106.678C300.59 101.923 311.947 93.8692 314.984 80.6655C317.861 68.1516 313.009 54.5667 304.504 45.2704C294.664 34.5152 279.827 29.8004 265.602 29.0376C249.633 28.1812 234.031 32.1743 219.022 37.242C203.013 42.6471 187.349 48.8621 171.002 53.2402C154.791 57.5774 138.267 60.6462 121.579 62.4187C113.41 63.2878 104.994 64.2691 96.776 63.6038C89.8887 63.0462 83.0366 61.0225 77.9608 56.139C73.6086 51.9517 71.0159 46.197 71.9072 40.1239C72.0691 39.0209 73.7463 39.4899 73.5854 40.5862C72.5004 47.9788 77.5301 54.7908 83.728 58.2803C90.8913 62.3131 99.6079 62.3186 107.583 61.8574C124.875 60.814 142.051 58.3334 158.931 54.4414C175.517 50.6564 191.512 45.2456 207.488 39.4656C222.661 33.9761 238.173 28.6184 254.383 27.4294C268.449 26.3977 283.245 28.4449 295.498 35.7887C306.267 42.2429 314.186 53.0063 316.709 65.3576C319.175 77.4271 315.76 89.5753 306.615 97.9978C297.147 106.718 284.165 110.447 272.066 113.88C256.721 118.235 241.705 123.326 227.171 129.936C212.438 136.618 198.308 144.554 184.939 153.657C172.034 162.468 159.298 173.555 155.216 189.273C153.315 196.595 153.666 204.361 156.847 211.277C159.676 217.426 164.334 222.598 169.761 226.588C182.71 236.107 199.029 238.062 214.67 238.256C232.236 238.475 249.803 237.882 267.375 238.17C303.187 238.758 338.925 240.935 374.589 244.704C383.526 245.649 392.451 246.693 401.366 247.838C409.384 248.867 417.428 249.89 425.311 251.718C439.328 254.968 452.967 261.218 461.679 273.091C465.546 278.238 467.941 284.337 468.61 290.737C469.22 297.416 467.583 304.108 464.561 310.049C457.871 323.2 445.34 331.565 432.032 337.06C424.904 340.004 417.511 342.233 410.132 344.448C409.057 344.77 408.598 343.092 409.67 342.771L409.67 342.771Z" fill="#F2F2F2"/>
<path d="M73.0309 54.1903C80.7201 54.1903 86.9534 47.9627 86.9534 40.2805C86.9534 32.5983 80.7201 26.3706 73.0309 26.3706C65.3417 26.3706 59.1084 32.5983 59.1084 40.2805C59.1084 47.9627 65.3417 54.1903 73.0309 54.1903Z" fill="#F2F2F2"/>
<path d="M169.618 80.5614C177.307 80.5614 183.541 74.3337 183.541 66.6516C183.541 58.9694 177.307 52.7417 169.618 52.7417C161.929 52.7417 155.696 58.9694 155.696 66.6516C155.696 74.3337 161.929 80.5614 169.618 80.5614Z" fill="#F2F2F2"/>
<path d="M251.413 27.8197C259.102 27.8197 265.336 21.5921 265.336 13.9099C265.336 6.22765 259.102 0 251.413 0C243.724 0 237.491 6.22765 237.491 13.9099C237.491 21.5921 243.724 27.8197 251.413 27.8197Z" fill="#F2F2F2"/>
<path d="M302.463 86.9364C310.152 86.9364 316.385 80.7088 316.385 73.0266C316.385 65.3444 310.152 59.1167 302.463 59.1167C294.773 59.1167 288.54 65.3444 288.54 73.0266C288.54 80.7088 294.773 86.9364 302.463 86.9364Z" fill="#F2F2F2"/>
<path d="M233.43 155.327C241.119 155.327 247.352 149.099 247.352 141.417C247.352 133.734 241.119 127.507 233.43 127.507C225.741 127.507 219.507 133.734 219.507 141.417C219.507 149.099 225.741 155.327 233.43 155.327Z" fill="#F2F2F2"/>
<path d="M145.834 188.363C153.523 188.363 159.757 182.135 159.757 174.453C159.757 166.771 153.523 160.543 145.834 160.543C138.145 160.543 131.912 166.771 131.912 174.453C131.912 182.135 138.145 188.363 145.834 188.363Z" fill="#F2F2F2"/>
<path d="M238.651 239.945C246.34 239.945 252.574 233.717 252.574 226.035C252.574 218.353 246.34 212.125 238.651 212.125C230.962 212.125 224.729 218.353 224.729 226.035C224.729 233.717 230.962 239.945 238.651 239.945Z" fill="#F2F2F2"/>
<path d="M338.429 268.924C346.118 268.924 352.351 262.696 352.351 255.014C352.351 247.332 346.118 241.104 338.429 241.104C330.74 241.104 324.506 247.332 324.506 255.014C324.506 262.696 330.74 268.924 338.429 268.924Z" fill="#F2F2F2"/>
<path d="M455.03 262.548C462.719 262.548 468.952 256.321 468.952 248.638C468.952 240.956 462.719 234.729 455.03 234.729C447.341 234.729 441.107 240.956 441.107 248.638C441.107 256.321 447.341 262.548 455.03 262.548Z" fill="#F2F2F2"/>
<path d="M247.395 39.4131C205.69 39.7075 171.543 73.5676 170.95 115.231C170.945 115.616 170.942 118.321 170.942 121.858C170.943 127.045 173.005 132.02 176.676 135.687C180.347 139.355 185.326 141.416 190.517 141.417H190.517C193.091 141.416 195.639 140.909 198.017 139.924C200.394 138.939 202.554 137.496 204.372 135.677C206.191 133.858 207.633 131.698 208.617 129.322C209.6 126.946 210.105 124.4 210.102 121.828C210.1 119.422 210.099 117.756 210.099 117.654C210.098 111.215 211.774 104.886 214.964 99.291C218.153 93.6956 222.745 89.026 228.288 85.7415C233.832 82.4571 240.136 80.6709 246.58 80.5588C253.024 80.4467 259.386 82.0124 265.04 85.102C270.695 88.1916 275.447 92.6987 278.829 98.1798C282.212 103.661 284.108 109.927 284.331 116.362C284.554 122.798 283.096 129.18 280.102 134.882C277.107 140.584 272.678 145.408 267.251 148.881L267.258 148.89C267.258 148.89 239.397 166.81 230.902 191.393L230.91 191.395C229.416 196.431 228.659 201.656 228.663 206.909C228.663 209.068 228.79 227.96 229.035 243.293C229.121 248.584 231.285 253.629 235.061 257.34C238.837 261.05 243.921 263.129 249.217 263.128H249.217C251.878 263.128 254.513 262.602 256.97 261.581C259.427 260.559 261.658 259.063 263.534 257.177C265.41 255.291 266.894 253.053 267.901 250.592C268.908 248.131 269.418 245.495 269.401 242.837C269.316 228.794 269.27 212.443 269.27 211.256C269.27 196.161 283.845 181.121 295.818 171.313C309.604 160.019 319.525 144.627 323.51 127.265C324.392 123.691 324.878 120.031 324.96 116.35C324.96 106.199 322.95 96.1493 319.045 86.7785C315.14 77.4076 309.417 68.9014 302.207 61.7499C294.998 54.5983 286.442 48.9429 277.035 45.1093C267.628 41.2757 257.554 39.3398 247.395 39.4131Z" fill="#D13C74"/>
<path d="M489.309 345H0.690677C0.507833 344.999 0.332663 344.926 0.203559 344.797C0.074456 344.668 0.00195312 344.492 0.00195312 344.31C0.00195312 344.127 0.074456 343.952 0.203559 343.822C0.332663 343.693 0.507833 343.62 0.690677 343.62H489.309C489.492 343.62 489.668 343.692 489.798 343.822C489.927 343.951 490 344.127 490 344.31C490 344.493 489.927 344.668 489.798 344.798C489.668 344.927 489.492 345 489.309 345Z" fill="#3F3D56"/>
<path d="M364.566 158.222C374.178 158.222 381.969 150.437 381.969 140.835C381.969 131.232 374.178 123.447 364.566 123.447C354.955 123.447 347.163 131.232 347.163 140.835C347.163 150.437 354.955 158.222 364.566 158.222Z" fill="#2F2E41"/>
<path d="M332.407 337.389H325.295L321.912 309.982H332.409L332.407 337.389Z" fill="#A0616A"/>
<path d="M320.215 335.358H333.931V343.987H311.579C311.579 342.853 311.802 341.731 312.236 340.685C312.67 339.638 313.307 338.687 314.108 337.886C314.91 337.084 315.862 336.449 316.91 336.015C317.958 335.582 319.081 335.358 320.215 335.358Z" fill="#2F2E41"/>
<path d="M387.517 337.389H380.405L377.021 309.982H387.518L387.517 337.389Z" fill="#A0616A"/>
<path d="M375.325 335.358H389.041V343.987H366.689C366.689 342.853 366.912 341.731 367.346 340.685C367.78 339.638 368.416 338.687 369.218 337.886C370.02 337.084 370.972 336.449 372.02 336.015C373.068 335.582 374.191 335.358 375.325 335.358Z" fill="#2F2E41"/>
<path d="M361.921 158.324C369.79 158.324 376.169 151.951 376.169 144.089C376.169 136.227 369.79 129.854 361.921 129.854C354.052 129.854 347.673 136.227 347.673 144.089C347.673 151.951 354.052 158.324 361.921 158.324Z" fill="#A0616A"/>
<path d="M370.414 204.247L376.789 189.612C378.337 186.179 378.781 182.351 378.059 178.655C377.337 174.959 375.484 171.579 372.757 168.979C372.197 168.426 371.602 167.909 370.976 167.432C367.831 164.973 363.954 163.633 359.96 163.624C357.275 163.634 354.623 164.224 352.187 165.351C351.978 165.444 351.775 165.542 351.566 165.641C351.166 165.832 350.771 166.041 350.388 166.255C347.891 167.688 345.766 169.687 344.184 172.091C342.602 174.495 341.607 177.237 341.281 180.096L338.467 203.65C337.76 205.498 312.513 272.266 321.343 323.24C321.437 323.784 321.702 324.284 322.101 324.667C322.5 325.049 323.011 325.295 323.559 325.367L332.51 326.584C333.163 326.673 333.827 326.512 334.366 326.132C334.905 325.752 335.28 325.183 335.416 324.538L350.435 253.012C350.529 252.568 350.769 252.168 351.117 251.875C351.465 251.583 351.901 251.416 352.355 251.401C352.809 251.386 353.256 251.523 353.623 251.791C353.99 252.059 354.256 252.442 354.38 252.879L375.6 328.096C375.751 328.643 376.077 329.125 376.529 329.468C376.981 329.812 377.533 329.997 378.1 329.997C378.269 329.996 378.438 329.981 378.605 329.951L389.54 327.847C390.175 327.729 390.744 327.377 391.133 326.861C391.523 326.345 391.706 325.703 391.646 325.059C390.039 307.156 381.499 217.478 370.414 204.247Z" fill="#2F2E41"/>
<path d="M306.55 155.935C306.451 156.782 306.539 157.639 306.808 158.448C307.077 159.256 307.52 159.996 308.106 160.615C308.692 161.234 309.406 161.718 310.199 162.031C310.992 162.344 311.845 162.48 312.696 162.428L320.66 181.55L326.684 172.628L318.198 155.838C318.017 154.415 317.319 153.107 316.238 152.164C315.157 151.22 313.766 150.705 312.331 150.717C310.895 150.73 309.513 151.267 308.448 152.229C307.383 153.191 306.707 154.509 306.55 155.935L306.55 155.935Z" fill="#A0616A"/>
<path d="M361.131 223.5C361.978 223.399 362.793 223.114 363.517 222.664C364.241 222.215 364.858 221.612 365.324 220.898C365.791 220.185 366.094 219.378 366.214 218.534C366.335 217.691 366.268 216.831 366.02 216.016L382.776 203.823L372.688 200.048L358.322 212.206C356.979 212.714 355.87 213.696 355.203 214.966C354.536 216.237 354.36 217.708 354.706 219.1C355.052 220.492 355.897 221.709 357.082 222.52C358.266 223.331 359.707 223.68 361.131 223.5Z" fill="#A0616A"/>
<path d="M333.815 194.298C333.172 194.298 332.532 194.234 331.901 194.11C330.377 193.82 328.948 193.16 327.739 192.188C326.531 191.216 325.58 189.962 324.971 188.536L313.813 174.944C313.577 174.656 313.405 174.322 313.309 173.963C313.213 173.604 313.195 173.228 313.256 172.862C313.317 172.495 313.456 172.146 313.663 171.837C313.87 171.528 314.141 171.267 314.457 171.072L322.396 166.162C322.689 165.981 323.015 165.859 323.355 165.805C323.695 165.75 324.043 165.763 324.379 165.843C324.714 165.924 325.03 166.07 325.308 166.272C325.587 166.475 325.822 166.731 326.001 167.026L333.865 179.97L348.926 168.85C350.125 168.222 351.51 168.046 352.828 168.354C354.147 168.662 355.31 169.433 356.106 170.528C356.902 171.622 357.278 172.966 357.164 174.314C357.05 175.662 356.455 176.924 355.486 177.869L340.455 191.568C338.689 193.318 336.302 194.299 333.815 194.298Z" fill="#2F2E41"/>
<path d="M374.51 214.741C374.489 214.741 374.469 214.741 374.448 214.741C374.082 214.732 373.722 214.646 373.391 214.489C373.06 214.332 372.766 214.108 372.528 213.83L365.47 205.604C365.229 205.324 365.051 204.996 364.947 204.642C364.843 204.288 364.815 203.916 364.866 203.55C364.916 203.185 365.044 202.834 365.24 202.522C365.436 202.209 365.696 201.941 366.004 201.737L379.219 192.934L367.247 178.554C366.551 177.394 366.295 176.022 366.527 174.689C366.759 173.357 367.464 172.152 368.512 171.295C369.559 170.439 370.881 169.987 372.234 170.024C373.588 170.06 374.883 170.581 375.883 171.493L390.434 185.7C391.579 186.745 392.454 188.052 392.982 189.51C393.51 190.967 393.677 192.53 393.467 194.066C393.257 195.601 392.678 197.063 391.778 198.325C390.879 199.588 389.686 200.613 388.302 201.314L376.409 213.922C376.165 214.181 375.871 214.386 375.544 214.527C375.217 214.668 374.865 214.741 374.51 214.741Z" fill="#2F2E41"/>
<path d="M358.298 184.43C358.185 184.43 358.072 184.422 357.96 184.408C357.468 184.348 357.004 184.149 356.623 183.834C356.241 183.519 355.958 183.101 355.807 182.63L350.504 166.384C350.371 165.974 350.391 165.529 350.561 165.132C350.731 164.735 351.039 164.413 351.428 164.226L351.6 164.144C351.756 164.07 351.911 163.997 352.069 163.927C354.542 162.781 357.234 162.183 359.96 162.175C363.499 162.181 366.959 163.22 369.915 165.164C370.312 165.427 370.589 165.836 370.686 166.301C370.784 166.767 370.695 167.252 370.438 167.652L360.489 183.224C360.256 183.594 359.933 183.899 359.55 184.109C359.166 184.32 358.736 184.43 358.298 184.43Z" fill="#E6E6E6"/>
<path d="M378.287 133.072C381.432 133.072 383.982 130.525 383.982 127.383C383.982 124.241 381.432 121.693 378.287 121.693C375.142 121.693 372.592 124.241 372.592 127.383C372.592 130.525 375.142 133.072 378.287 133.072Z" fill="#2F2E41"/>
<path d="M358.765 121.129C354.765 121.129 350.928 122.717 348.1 125.543C345.271 128.369 343.682 132.202 343.682 136.198V142.574H351.531L355.284 136.198L356.41 142.574H380.229L373.848 136.198C373.848 132.202 372.259 128.369 369.43 125.543C366.601 122.717 362.765 121.129 358.765 121.129Z" fill="#2F2E41"/>
<path d="M381.214 123.486C381.844 121.518 383.147 119.836 384.896 118.734C386.645 117.632 388.726 117.181 390.774 117.461C394.404 118.067 397.273 120.981 398.983 124.237C400.692 127.492 401.482 131.135 402.631 134.627C403.78 138.119 405.411 141.631 408.312 143.891C411.214 146.152 415.666 146.765 418.516 144.439C418.19 146.863 417.11 149.123 415.429 150.9C413.747 152.676 411.549 153.88 409.145 154.34C406.742 154.8 404.254 154.494 402.034 153.464C399.814 152.434 397.975 150.733 396.775 148.602C395.272 145.929 394.883 142.796 394.438 139.762C393.992 136.729 393.412 133.59 391.617 131.103C389.822 128.617 386.461 126.992 383.609 128.125L381.214 123.486Z" fill="#2F2E41"/>
<path d="M196.044 132.166C190.853 132.165 185.874 130.105 182.203 126.437C178.532 122.769 176.469 117.794 176.469 112.608C176.469 109.07 176.471 106.365 176.477 105.981C176.642 93.8635 179.696 81.9605 185.386 71.2588C176.037 84.0459 170.897 99.4199 170.676 115.254C170.67 115.638 170.668 118.343 170.668 121.881C170.668 127.068 172.731 132.042 176.402 135.71C180.073 139.378 185.051 141.439 190.243 141.439C194.509 141.438 198.658 140.045 202.06 137.472C205.461 134.9 207.93 131.289 209.089 127.187C205.505 130.398 200.859 132.172 196.044 132.166Z" fill="#3F3D56"/>
<path d="M248.721 80.6245C254.723 80.9109 260.566 82.6483 265.748 85.6876C270.929 88.7269 275.295 92.9773 278.471 98.0738C281.646 103.17 283.536 108.961 283.978 114.948C284.421 120.935 283.402 126.939 281.01 132.446C284.47 128.386 287.013 123.628 288.466 118.497C289.919 113.366 290.248 107.982 289.429 102.712C288.611 97.4429 286.665 92.4116 283.724 87.9616C280.782 83.5116 276.916 79.7476 272.386 76.926C267.857 74.1045 262.773 72.2918 257.479 71.6116C252.185 70.9314 246.807 71.3996 241.71 72.9844C236.614 74.5691 231.92 77.2331 227.947 80.7948C223.975 84.3564 220.818 88.732 218.691 93.6231C222.366 89.3037 226.985 85.8854 232.192 83.6316C237.399 81.3779 243.054 80.3491 248.721 80.6245Z" fill="#3F3D56"/>
<path d="M254.744 253.877C249.448 253.878 244.363 251.799 240.588 248.089C236.812 244.378 234.648 239.333 234.562 234.043C234.316 218.709 234.189 199.817 234.189 197.658C234.186 192.406 234.943 187.18 236.436 182.144L236.429 182.142C237.311 179.615 238.376 177.154 239.616 174.781C235.81 179.849 232.781 185.456 230.628 191.416L230.635 191.417C229.142 196.453 228.385 201.679 228.388 206.931C228.388 209.091 228.515 227.982 228.761 243.316C228.847 248.607 231.011 253.651 234.787 257.362C238.562 261.073 243.647 263.152 248.943 263.15C253.31 263.15 257.558 261.734 261.052 259.117C264.545 256.499 267.095 252.821 268.319 248.633C264.608 252.013 259.766 253.884 254.744 253.877Z" fill="#3F3D56"/>
<path d="M73.407 337.653L80.5185 337.653L83.9023 310.246L73.4053 310.246L73.407 337.653Z" fill="#FFB8B8"/>
<path d="M94.2349 344.25L71.883 344.251L71.8826 335.623L85.5985 335.622C87.8889 335.622 90.0856 336.531 91.7052 338.149C93.3248 339.767 94.2348 341.962 94.2349 344.25L94.2349 344.25Z" fill="#2F2E41"/>
<path d="M47.8826 337.653L54.9941 337.653L58.3778 310.246L47.8809 310.246L47.8826 337.653Z" fill="#FFB8B8"/>
<path d="M68.7104 344.25L46.3586 344.251L46.3582 335.623L60.0741 335.622C62.3645 335.622 64.5611 336.531 66.1808 338.149C67.8004 339.767 68.7103 341.962 68.7104 344.25L68.7104 344.25Z" fill="#2F2E41"/>
<path d="M54.0971 329.224L47.1503 328.859C46.7921 328.84 46.4412 328.75 46.1179 328.595C45.7947 328.44 45.5054 328.222 45.267 327.954C45.0286 327.686 44.8458 327.374 44.7291 327.035C44.6124 326.696 44.5641 326.338 44.5871 325.98L52.89 234.137L91.1252 244.445L94.809 243.441L83.2891 324.747C83.191 325.358 82.887 325.918 82.4273 326.334C81.9677 326.749 81.3799 326.996 80.761 327.033L73.2724 327.381C72.898 327.402 72.5233 327.345 72.1721 327.214C71.8208 327.083 71.5007 326.88 71.2318 326.619C70.9629 326.357 70.7512 326.043 70.6101 325.696C70.4689 325.349 70.4013 324.977 70.4117 324.602L71.7685 275.804C71.7749 275.578 71.6964 275.358 71.5486 275.187C71.4007 275.017 71.1943 274.908 70.9699 274.881C70.7454 274.855 70.5193 274.914 70.3361 275.046C70.1529 275.178 70.0258 275.374 69.98 275.595L56.8946 327.069C56.7711 327.679 56.4394 328.228 55.956 328.622C55.4727 329.016 54.8676 329.23 54.244 329.228C54.1953 329.228 54.1464 329.227 54.0971 329.224Z" fill="#2F2E41"/>
<path d="M74.684 158.99C82.5529 158.99 88.932 152.616 88.932 144.755C88.932 136.893 82.5529 130.52 74.684 130.52C66.8151 130.52 60.436 136.893 60.436 144.755C60.436 152.616 66.8151 158.99 74.684 158.99Z" fill="#FFB8B8"/>
<path d="M50.962 186.576L52.5286 220.347L53.0949 232.633C53.1175 233.168 53.2992 233.684 53.6169 234.115C53.9346 234.546 54.3738 234.873 54.8783 235.053L91.6198 248.35C91.9166 248.461 92.2311 248.516 92.5478 248.513C92.9096 248.515 93.2682 248.443 93.602 248.304C93.9357 248.164 94.2379 247.958 94.4904 247.699C94.7429 247.44 94.9406 247.133 95.0717 246.796C95.2027 246.459 95.2645 246.099 95.2532 245.738L93.7469 185.017C93.6479 180.035 91.8124 175.244 88.5568 171.469C85.3011 167.695 80.8293 165.173 75.9123 164.339C75.5569 164.285 75.1954 164.231 74.8338 164.183C71.7848 163.805 68.69 164.099 65.767 165.044C62.844 165.99 60.1638 167.563 57.915 169.655C55.5865 171.795 53.7568 174.419 52.5554 177.343C51.3539 180.267 50.8099 183.419 50.962 186.576L50.962 186.576Z" fill="#CCCCCC"/>
<path d="M109.171 241.612C108.302 241.342 107.508 240.874 106.853 240.243C106.197 239.613 105.698 238.838 105.396 237.981C105.093 237.123 104.995 236.207 105.11 235.306C105.225 234.404 105.549 233.541 106.057 232.787L93.5972 216.234L104.349 215.569L114.532 231.39C115.623 232.232 116.381 233.431 116.675 234.776C116.969 236.121 116.78 237.527 116.14 238.746C115.5 239.965 114.452 240.921 113.177 241.445C111.903 241.969 110.485 242.028 109.171 241.612H109.171Z" fill="#FFB8B8"/>
<path d="M100.411 229.792C100.081 229.658 99.7806 229.46 99.5276 229.209C99.2745 228.959 99.0738 228.66 98.9368 228.332L80.1657 183.65C79.7974 182.775 79.6052 181.836 79.6002 180.887C79.5952 179.938 79.7774 178.997 80.1365 178.119C80.4956 177.24 81.0244 176.441 81.6928 175.766C82.3613 175.092 83.1561 174.556 84.0321 174.188C84.908 173.821 85.8478 173.63 86.7977 173.626C87.7476 173.621 88.6891 173.804 89.5683 174.164C90.4475 174.523 91.2471 175.052 91.9216 175.72C92.596 176.389 93.1321 177.183 93.499 178.059L112.27 222.741C112.548 223.404 112.551 224.149 112.279 224.814C112.007 225.479 111.482 226.009 110.82 226.287L102.486 229.782C102.158 229.92 101.806 229.993 101.45 229.994C101.093 229.996 100.74 229.927 100.411 229.792L100.411 229.792Z" fill="#CCCCCC"/>
<path d="M70.1032 228.215L88.1324 193.725C88.4801 193.062 89.0769 192.563 89.792 192.339C90.507 192.115 91.2819 192.183 91.9466 192.529L118.116 206.184C118.78 206.531 119.279 207.128 119.503 207.842C119.728 208.557 119.659 209.331 119.313 209.995L101.284 244.485C100.936 245.148 100.339 245.646 99.6242 245.871C98.9092 246.095 98.1343 246.027 97.4696 245.681L71.3002 232.026C70.6363 231.678 70.1375 231.082 69.9131 230.368C69.6886 229.653 69.757 228.879 70.1032 228.215Z" fill="#3F3D56"/>
<path d="M82.1941 212.457C81.8736 211.607 81.3585 210.842 80.6899 210.226C80.0213 209.609 79.2176 209.158 78.3432 208.906C77.4687 208.655 76.5476 208.612 75.6533 208.78C74.7591 208.947 73.9164 209.321 73.1926 209.872L55.918 198.423L55.8887 209.186L72.2974 218.408C73.2032 219.446 74.4457 220.131 75.807 220.345C77.1683 220.559 78.5615 220.287 79.7422 219.577C80.9229 218.867 81.8158 217.765 82.2641 216.463C82.7124 215.161 82.6877 213.743 82.1941 212.457Z" fill="#FFB8B8"/>
<path d="M60.3533 214.878L46.2355 203.705C44.7082 203.193 43.3281 202.318 42.2138 201.155C41.0995 199.993 40.2842 198.578 39.8379 197.031C39.3916 195.484 39.3276 193.853 39.6514 192.276C39.9752 190.699 40.6772 189.224 41.697 187.978L54.5157 171.194C55.4065 170.106 56.6593 169.376 58.045 169.135C59.4308 168.894 60.857 169.16 62.0629 169.883C63.2688 170.606 64.1739 171.739 64.6127 173.074C65.0515 174.41 64.9947 175.858 64.4527 177.155L54.3102 193.731L69.2154 200.794C69.562 200.958 69.8698 201.194 70.1184 201.486C70.367 201.778 70.5508 202.119 70.6576 202.487C70.7644 202.855 70.7918 203.242 70.7381 203.621C70.6843 204.001 70.5505 204.364 70.3455 204.688L64.3288 214.201C64.1255 214.523 63.8568 214.797 63.5404 215.008C63.2239 215.219 62.8667 215.361 62.4918 215.425C62.4769 215.428 62.4619 215.43 62.447 215.432C62.0786 215.488 61.7028 215.467 61.3427 215.372C60.9826 215.277 60.6458 215.109 60.3533 214.878Z" fill="#CCCCCC"/>
<path d="M63.9175 154.287C63.8563 154.108 63.8369 153.918 63.8608 153.73C63.8846 153.543 63.9511 153.364 64.055 153.206C64.159 153.048 64.2976 152.916 64.4605 152.82C64.6233 152.725 64.8059 152.667 64.9944 152.653C65.3802 152.674 65.7579 152.773 66.1045 152.943C66.4511 153.114 66.7594 153.353 67.0109 153.647C67.5265 154.241 68.1268 154.756 68.7925 155.175C69.4817 155.522 70.4165 155.473 70.8094 154.811C71.1784 154.19 70.9255 153.357 70.7022 152.636C70.1338 150.799 69.8157 148.894 69.7567 146.973C69.6923 144.828 69.9952 142.59 71.1835 140.918C72.7173 138.759 75.4597 137.939 78.0551 137.999C80.6505 138.058 83.2038 138.859 85.7747 139.365C86.6622 139.539 87.7054 139.629 88.299 138.941C88.9302 138.211 88.6984 137.028 88.4299 136.041C87.7332 133.481 86.9941 130.834 85.3755 128.766C83.6253 126.618 81.1253 125.211 78.379 124.831C75.7423 124.505 73.0658 124.808 70.5694 125.717C66.5022 126.997 62.9234 129.488 60.3115 132.856C57.619 136.438 56.4556 140.939 57.0756 145.375C57.6813 149.239 59.7306 152.73 62.8104 155.144L63.9175 154.287Z" fill="#2F2E41"/>
<path d="M244.374 337.766C240.583 336.116 237.228 333.609 234.573 330.442C231.918 327.275 230.036 323.535 229.076 319.517C228.116 315.5 228.103 311.314 229.04 307.29C229.976 303.266 231.835 299.515 234.471 296.333C231.415 298.562 228.868 301.415 227 304.703C225.132 307.991 223.986 311.638 223.636 315.402C223.287 319.166 223.743 322.962 224.974 326.537C226.205 330.112 228.183 333.384 230.777 336.137C233.371 338.889 236.521 341.059 240.018 342.503C243.515 343.946 247.28 344.63 251.062 344.508C254.844 344.387 258.557 343.464 261.954 341.799C265.352 340.134 268.356 337.767 270.768 334.854C267.006 337.6 262.59 339.314 257.959 339.825C253.328 340.336 248.644 339.626 244.374 337.766Z" fill="#3F3D56"/>
</g>
<defs>
<clipPath id="clip0">
<rect width="490" height="345" fill="white"/>
</clipPath>
</defs>
</svg>
