<svg width="1677" height="629" viewBox="0 0 1677 629" fill="none" xmlns="http://www.w3.org/2000/svg">
<rect width="1677" height="629" fill="white"/>
<path d="M383.34 193.314C381.7 195.294 379.96 197.284 378.14 199.274L358.1 218.904C356.31 220.524 354.48 222.154 352.61 223.804L331.33 242.144C329.94 243.324 328.51 244.544 327.06 245.784L307.47 262.664C305.23 264.624 302.35 265.704 299.37 265.704C296.39 265.704 293.51 264.624 291.27 262.664C282.81 255.264 267.41 242.144 267.41 242.144L235.19 213.904C227.66 206.874 220.99 200.074 215.39 193.324C201.21 176.214 194.61 159.994 194.61 142.274C194.61 125.054 200.51 109.174 211.23 97.554C222.07 85.794 236.96 79.314 253.14 79.314C265.23 79.314 276.31 83.134 286.06 90.674C290.98 94.484 295.44 99.134 299.37 104.574C303.3 99.144 307.76 94.484 312.68 90.674C322.43 83.134 333.5 79.314 345.6 79.314C361.78 79.314 376.66 85.794 387.51 97.554C398.23 109.174 404.13 125.064 404.13 142.274C404.13 152.104 402.1 161.464 397.87 170.774L383.34 193.314Z" fill="#FDC61D"/>
<path d="M325.09 234.824L320.81 238.474C316.77 241.924 316.3 247.984 319.75 252.024C321.65 254.244 324.35 255.394 327.06 255.394C329.27 255.394 331.49 254.634 333.3 253.094L337.57 249.454C341.61 246.014 342.09 239.944 338.65 235.904C335.19 231.864 329.13 231.384 325.09 234.824Z" fill="#1E1D42"/>
<path d="M351.66 211.774C349.9 213.364 348.09 214.974 346.25 216.604C342.27 220.114 341.89 226.194 345.4 230.174C347.3 232.324 349.95 233.424 352.61 233.424C354.87 233.424 357.14 232.634 358.97 231.024C360.87 229.344 362.73 227.684 364.55 226.044C368.49 222.484 368.8 216.414 365.24 212.474C361.67 208.524 355.6 208.204 351.66 211.774Z" fill="#1E1D42"/>
<path d="M389.47 185.914C385.38 182.524 379.32 183.094 375.94 187.184C374.44 188.994 372.8 190.874 371.04 192.794C367.46 196.714 367.73 202.794 371.65 206.374C373.49 208.054 375.82 208.894 378.13 208.894C380.74 208.894 383.33 207.844 385.23 205.764C387.19 203.614 389.04 201.494 390.74 199.454C394.13 195.364 393.56 189.304 389.47 185.914Z" fill="#1E1D42"/>
<path d="M394.56 91.044C381.88 77.284 364.48 69.704 345.59 69.704C331.32 69.704 318.26 74.204 306.79 83.074C304.2 85.074 301.72 87.284 299.36 89.694C297 87.294 294.52 85.084 291.93 83.074C280.46 74.204 267.41 69.704 253.14 69.704C234.25 69.704 216.85 77.284 204.17 91.044C191.81 104.444 185 122.644 185 142.274C185 162.354 192.31 180.524 207.99 199.444C213.4 205.974 220.15 212.994 228.62 220.914C228.7 220.984 228.77 221.054 228.85 221.114L261.17 249.444C261.32 249.574 276.62 262.604 284.93 269.884C288.92 273.374 294.05 275.304 299.36 275.304C304.67 275.304 309.79 273.384 313.79 269.884C317.78 266.394 318.19 260.314 314.69 256.324C311.19 252.334 305.12 251.924 301.13 255.424C300.15 256.284 298.57 256.274 297.59 255.424C289.18 248.064 273.79 234.954 273.74 234.904L241.64 206.764C233.82 199.454 227.66 193.044 222.79 187.174C210.12 171.904 204.22 157.634 204.22 142.274C204.22 127.474 209.22 113.914 218.29 104.064C227.29 94.294 239.67 88.924 253.13 88.924C263.05 88.924 272.14 92.074 280.17 98.274C284.35 101.514 288.19 105.524 291.57 110.204C293.38 112.704 296.27 114.184 299.36 114.184C302.44 114.184 305.34 112.704 307.15 110.204C310.54 105.524 314.37 101.504 318.55 98.274C326.58 92.064 335.67 88.924 345.59 88.924C359.05 88.924 371.43 94.304 380.43 104.064C389.51 113.914 394.5 127.474 394.5 142.274C394.5 150.774 392.73 158.804 389.1 166.804C386.91 171.634 389.04 177.334 393.88 179.524C398.72 181.724 404.41 179.574 406.6 174.744C411.39 164.194 413.72 153.574 413.72 142.264C413.73 122.644 406.92 104.444 394.56 91.044Z" fill="#1E1D42"/>
<path d="M648.44 135.774L664.25 98.414C670.05 84.714 656.16 70.954 642.51 76.884L485.76 145.034C471.81 151.094 472.83 171.214 487.32 175.834L532.1 190.124C540.94 192.944 547.9 199.824 550.82 208.634L566.4 255.604C571.18 270.024 591.28 270.834 597.21 256.844" fill="#FDC61D"/>
<path d="M667.36 73.544C659.77 66.024 648.53 63.914 638.73 68.174L481.97 136.314C471.95 140.674 465.83 150.534 466.38 161.444C466.93 172.354 474.01 181.554 484.42 184.874L529.2 199.164C535.13 201.054 539.83 205.704 541.79 211.614L557.37 258.584C560.81 268.944 570.08 275.924 580.98 276.364C581.34 276.374 581.7 276.384 582.06 276.384C592.53 276.384 601.83 270.254 605.94 260.534C607.98 255.704 605.73 250.124 600.89 248.084C596.06 246.044 590.48 248.294 588.44 253.134C586.69 257.254 582.87 257.424 581.74 257.384C580.61 257.334 576.81 256.864 575.4 252.614L559.82 205.644C555.96 193.994 546.67 184.814 534.97 181.074L490.19 166.784C485.92 165.424 485.4 161.624 485.35 160.494C485.29 159.364 485.43 155.534 489.53 153.744L646.3 85.604C650.21 83.904 652.98 86.044 653.99 87.044C655 88.044 657.17 90.794 655.5 94.714L639.69 132.074C637.65 136.904 639.9 142.484 644.74 144.524C649.58 146.564 655.15 144.314 657.19 139.474L673 102.124C677.17 92.284 674.95 81.064 667.36 73.544Z" fill="#1E1D42"/>
<path d="M614.96 217.194C610.1 215.064 604.43 217.274 602.3 222.134L600.04 227.284C597.91 232.144 600.13 237.814 604.99 239.944C607.67 241.114 610.6 240.964 613.04 239.784C615.03 238.824 616.69 237.174 617.65 234.994L619.9 229.854C622.03 224.994 619.82 219.324 614.96 217.194Z" fill="#1E1D42"/>
<path d="M628.44 183.324C623.58 181.194 617.91 183.414 615.78 188.274C614.83 190.454 613.85 192.664 612.83 194.894C610.65 199.734 612.8 205.424 617.63 207.604C620.25 208.784 623.11 208.694 625.54 207.604C627.6 206.674 629.34 205.024 630.35 202.804C631.39 200.494 632.41 198.214 633.39 195.974C635.52 191.114 633.31 185.454 628.44 183.324Z" fill="#1E1D42"/>
<path d="M642.68 150.064C637.77 148.024 632.15 150.354 630.12 155.254C629.22 157.424 628.2 159.714 627.09 162.064C624.82 166.864 626.87 172.594 631.67 174.864C633.93 175.934 636.39 176.044 638.6 175.364C641.09 174.594 643.26 172.824 644.46 170.284C645.7 167.654 646.85 165.084 647.87 162.634C649.9 157.714 647.58 152.094 642.68 150.064Z" fill="#1E1D42"/>
<path d="M653.09 406.714V373.744C653.09 364.954 645.96 357.824 637.17 357.824H504.29C495.5 357.824 488.37 364.954 488.37 373.744V538.734C488.37 550.824 501.32 558.504 511.93 552.704L563.13 524.734C567.78 522.194 573.39 522.134 578.1 524.574L629.84 551.414C640.44 556.914 653.1 549.224 653.1 537.284V406.714H653.09Z" fill="#FDC61D"/>
<path d="M663.09 373.744C663.09 359.454 651.46 347.824 637.17 347.824H504.29C490 347.824 478.37 359.454 478.37 373.744V538.734C478.37 547.984 483.12 556.314 491.07 561.034C495.18 563.474 499.73 564.694 504.29 564.694C508.55 564.694 512.81 563.624 516.73 561.484L567.93 533.514C569.66 532.564 571.75 532.544 573.5 533.454L625.24 560.294C633.34 564.494 642.84 564.174 650.64 559.434C658.44 554.694 663.1 546.414 663.1 537.284C663.1 531.764 658.62 527.284 653.1 527.284C647.58 527.284 643.1 531.764 643.1 537.284C643.1 540.294 641.11 541.824 640.25 542.344C639.39 542.864 637.11 543.924 634.45 542.544L582.7 515.704C575.03 511.724 565.92 511.824 558.33 515.964L507.13 543.934C504.46 545.394 502.14 544.344 501.27 543.834C500.4 543.324 498.37 541.784 498.37 538.744V373.744C498.37 370.474 501.03 367.824 504.29 367.824H637.16C640.43 367.824 643.08 370.484 643.08 373.744V406.714C643.08 412.234 647.56 416.714 653.08 416.714C658.6 416.714 663.08 412.234 663.08 406.714V373.744H663.09Z" fill="#1E1D42"/>
<path d="M653.18 496.164C647.87 496.124 643.54 500.394 643.49 505.704L643.45 511.334C643.41 516.644 647.69 520.974 652.99 521.014C655.92 521.034 658.55 519.744 660.32 517.694C661.77 516.024 662.65 513.854 662.67 511.474L662.71 505.864C662.76 500.544 658.49 496.204 653.18 496.164Z" fill="#1E1D42"/>
<path d="M653.2 459.714C647.9 459.674 643.56 463.944 643.52 469.254C643.5 471.634 643.47 474.044 643.42 476.504C643.32 481.814 647.54 486.194 652.85 486.294C655.72 486.344 658.32 485.134 660.12 483.174C661.65 481.504 662.6 479.304 662.64 476.864C662.69 474.334 662.72 471.844 662.74 469.394C662.78 464.084 658.51 459.754 653.2 459.714Z" fill="#1E1D42"/>
<path d="M662.74 433.034C662.68 427.724 658.33 423.474 653.02 423.534C647.71 423.594 643.46 427.944 643.52 433.254C643.55 435.594 643.51 438.104 643.42 440.704C643.23 446.004 647.37 450.464 652.67 450.654C655.16 450.744 657.47 449.874 659.24 448.384C661.23 446.694 662.52 444.214 662.63 441.404C662.74 438.504 662.78 435.684 662.74 433.034Z" fill="#1E1D42"/>
<path d="M384.78 487.164C390.28 475.394 393.03 462.194 392.94 448.444C392.6 396.544 350.02 354.674 297.85 355.494C246.98 356.294 205.75 398.234 205.77 449.104C205.78 463.524 209.04 477.184 214.88 489.384C218.43 496.804 218.87 505.334 216.4 513.174L211.28 529.394C208.17 539.254 217.57 548.464 227.36 545.154L248.81 537.894C254.11 536.104 259.75 535.684 265.2 536.684C265.2 536.684 281.21 542.504 294.48 542.524C359.24 542.644 376.13 505.694 384.78 487.164Z" fill="#FDC61D"/>
<path d="M371.79 375.004C351.88 355.534 325.6 345.074 297.71 345.494C241.48 346.374 195.75 392.854 195.78 449.104C195.79 464.704 199.18 479.704 205.86 493.684C208.27 498.724 208.62 504.574 206.86 510.154L201.74 526.374C199.16 534.544 201.36 543.344 207.48 549.344C211.79 553.574 217.46 555.824 223.27 555.824C225.71 555.824 228.17 555.424 230.57 554.614L252.02 547.354C255.69 546.114 259.63 545.814 263.4 546.514C268.83 547.504 274.04 543.914 275.04 538.484C276.04 533.054 272.44 527.844 267.01 526.844C259.89 525.534 252.49 526.084 245.6 528.414L224.15 535.674C222.89 536.104 222 535.574 221.48 535.064C220.95 534.554 220.41 533.674 220.81 532.404L225.93 516.184C229.23 505.744 228.51 494.694 223.9 485.064C218.51 473.794 215.78 461.694 215.77 449.094C215.75 403.704 252.64 366.194 298.01 365.484C320.45 365.154 341.73 373.584 357.8 389.294C373.87 405.014 382.8 426.034 382.94 448.494C383.02 460.494 380.57 472.124 375.65 483.054C373.39 488.094 375.63 494.014 380.67 496.274C385.71 498.534 391.63 496.294 393.89 491.254C399.99 477.694 403.03 463.264 402.93 448.364C402.77 420.534 391.7 394.474 371.79 375.004Z" fill="#1E1D42"/>
<path d="M375.74 503.884C371.62 500.204 365.3 500.554 361.62 504.674C360.14 506.334 358.58 507.944 356.97 509.484C352.98 513.294 352.83 519.634 356.65 523.624C358.61 525.684 361.25 526.714 363.88 526.714C366.36 526.714 368.85 525.794 370.79 523.944C372.77 522.054 374.71 520.054 376.54 518.004C380.21 513.884 379.85 507.564 375.74 503.884Z" fill="#1E1D42"/>
<path d="M335.49 524.404C333.58 525.324 331.61 526.194 329.63 526.964C324.49 528.974 321.95 534.784 323.96 539.924C325.5 543.874 329.28 546.284 333.27 546.284C334.48 546.284 335.72 546.064 336.91 545.594C339.36 544.634 341.81 543.564 344.19 542.414C349.16 540.004 351.24 534.024 348.84 529.054C346.44 524.074 340.46 521.994 335.49 524.404Z" fill="#1E1D42"/>
<path d="M300.86 532.634C300.81 532.634 300.75 532.634 300.7 532.634C298.19 532.674 295.66 532.604 293.19 532.424C287.68 532.034 282.89 536.164 282.49 541.674C282.09 547.184 286.23 551.974 291.74 552.374C294.26 552.554 296.83 552.654 299.39 552.654C299.93 552.654 300.48 552.654 301.02 552.644C306.54 552.554 310.95 548.014 310.86 542.494C310.77 537.014 306.31 532.634 300.86 532.634Z" fill="#1E1D42"/>
<path d="M900.34 263.114H811.09C786.35 263.114 766.11 242.874 766.11 218.134V126.654C766.11 101.914 786.35 81.674 811.09 81.674H900.34C925.08 81.674 945.32 101.914 945.32 126.654V218.144C945.31 242.874 925.07 263.114 900.34 263.114Z" fill="#FDC61D"/>
<path d="M942.24 238.674C937.99 235.154 931.68 235.744 928.16 239.994C921.58 247.924 911.96 252.474 901.77 252.474H810.39C791.49 252.474 776.11 237.094 776.11 218.194V126.824C776.11 107.924 791.49 92.544 810.39 92.544H901.77C918.3 92.544 932.48 104.354 935.49 120.634C936.49 126.064 941.71 129.654 947.14 128.654C952.57 127.654 956.16 122.434 955.16 117.004C950.41 91.244 927.96 72.544 901.78 72.544H810.4C780.47 72.544 756.12 96.894 756.12 126.824V218.204C756.12 248.134 780.47 272.484 810.4 272.484H901.78C917.95 272.484 933.18 265.294 943.57 252.764C947.08 248.504 946.49 242.204 942.24 238.674Z" fill="#1E1D42"/>
<path d="M946.04 134.794C940.52 134.794 936.04 139.274 936.04 144.794V152.114C936.04 157.634 940.52 162.114 946.04 162.114C951.56 162.114 956.04 157.634 956.04 152.114V144.794C956.04 139.274 951.57 134.794 946.04 134.794Z" fill="#1E1D42"/>
<path d="M946.04 171.154C940.52 171.154 936.04 175.634 936.04 181.154V187.994C936.04 193.514 940.52 197.994 946.04 197.994C951.56 197.994 956.04 193.514 956.04 187.994V181.154C956.04 175.634 951.57 171.154 946.04 171.154Z" fill="#1E1D42"/>
<path d="M946.04 207.214C940.52 207.214 936.04 211.694 936.04 217.214V218.194C936.04 219.164 936 220.154 935.91 221.124C935.44 226.624 939.52 231.464 945.02 231.934C945.31 231.954 945.6 231.974 945.88 231.974C951.02 231.974 955.39 228.034 955.83 222.824C955.96 221.294 956.03 219.734 956.03 218.194V217.214C956.04 211.694 951.57 207.214 946.04 207.214Z" fill="#1E1D42"/>
<path d="M854.43 125.134C827.71 125.134 805.98 146.874 805.98 173.584C805.98 200.294 827.72 222.034 854.43 222.034C881.14 222.034 902.88 200.294 902.88 173.584C902.88 146.874 881.15 125.134 854.43 125.134ZM854.43 207.044C835.98 207.044 820.98 192.034 820.98 173.594C820.98 155.154 835.99 140.144 854.43 140.144C872.87 140.144 887.88 155.154 887.88 173.594C887.88 192.034 872.88 207.044 854.43 207.044Z" fill="#1E1D42"/>
<path d="M920.785 125.063C923.302 118.986 920.416 112.019 914.339 109.502C908.262 106.984 901.295 109.87 898.778 115.947C896.26 122.024 899.146 128.992 905.223 131.509C911.301 134.026 918.268 131.14 920.785 125.063Z" fill="#1E1D42"/>
<path d="M937.5 395.564C932.75 392.314 927.55 391.174 920.86 390.414C877.35 386.654 832.63 386.834 786.88 390.414C770.6 390.414 757.28 403.734 757.28 420.014C753.86 444.514 754.58 468.794 757.28 492.974C757.28 509.254 770.6 522.574 786.88 522.574C833.2 525.514 878 525.754 920.86 522.574C927.66 522.574 933.95 520.244 938.97 516.344C938.97 516.344 953.36 501.614 952.76 455.814C952.16 409.994 937.5 395.564 937.5 395.564Z" fill="#FDC61D"/>
<path d="M932.83 508.434C929.36 511.124 925.23 512.554 920.86 512.554C920.61 512.554 920.37 512.564 920.12 512.584C879.57 515.594 834.95 515.584 787.51 512.574C787.3 512.564 787.09 512.554 786.88 512.554C776.08 512.554 767.28 503.764 767.28 492.954C767.28 492.584 767.26 492.214 767.22 491.844C764.23 465.034 764.22 442.644 767.19 421.384C767.25 420.924 767.29 420.464 767.29 420.004C767.29 409.204 776.08 400.404 786.89 400.404C787.15 400.404 787.41 400.394 787.67 400.374C833.75 396.774 878.23 396.764 919.87 400.354C926.04 401.074 929.19 401.984 931.87 403.814C936.43 406.934 942.65 405.764 945.77 401.204C948.89 396.644 947.72 390.424 943.16 387.304C936.73 382.904 930.06 381.394 922.02 380.464C921.93 380.454 921.83 380.444 921.74 380.434C879.08 376.744 833.58 376.734 786.48 380.394C765.09 380.614 747.7 397.894 747.31 419.254C744.21 441.884 744.21 465.524 747.31 493.544C747.63 514.994 765.08 532.364 786.56 532.544C810.62 534.064 833.97 534.824 856.47 534.824C878.97 534.824 900.63 534.064 921.27 532.544C929.97 532.464 938.21 529.584 945.12 524.214C949.48 520.824 950.27 514.544 946.88 510.184C943.48 505.834 937.19 505.044 932.83 508.434Z" fill="#1E1D42"/>
<path d="M952.09 478.594C946.6 477.994 941.66 481.944 941.05 487.434L941 487.904C940.86 489.174 940.71 490.434 940.54 491.704C940.5 491.984 940.49 492.074 940.48 492.304C939.62 497.704 943.26 502.804 948.66 503.734C949.23 503.834 949.8 503.884 950.37 503.884C955.15 503.884 959.38 500.444 960.21 495.574C960.32 494.944 960.38 494.364 960.41 493.964C960.57 492.694 960.72 491.424 960.87 490.154L960.93 489.634C961.54 484.144 957.58 479.204 952.09 478.594Z" fill="#1E1D42"/>
<path d="M962.77 452.344C962.7 446.824 958.17 442.394 952.64 442.474C947.12 442.544 942.7 447.084 942.77 452.604C942.79 454.254 942.77 456.144 942.76 457.874L942.75 459.024C942.7 464.544 947.14 469.064 952.67 469.104C952.7 469.104 952.73 469.104 952.76 469.104C958.24 469.104 962.71 464.684 962.76 459.184L962.77 458.054C962.77 456.194 962.79 454.134 962.77 452.344Z" fill="#1E1D42"/>
<path d="M940.18 418.904C940.31 419.274 940.42 419.604 940.54 419.924C940.81 420.664 940.84 420.754 940.95 421.514C940.98 421.734 941.02 421.954 941.07 422.174C941.12 422.454 941.16 422.814 941.21 423.194C941.28 423.704 941.35 424.254 941.43 424.764C942.27 430.204 947.35 433.944 952.79 433.134C952.8 433.134 952.82 433.134 952.83 433.124C958.29 432.284 962.03 427.184 961.19 421.724C961.13 421.334 961.08 420.924 961.02 420.544C960.91 419.744 960.81 418.984 960.67 418.254C960.3 415.924 959.84 414.544 959.33 413.124C959.26 412.924 959.18 412.714 959.1 412.484C957.33 407.254 951.65 404.454 946.42 406.224C941.2 407.994 938.4 413.674 940.18 418.904Z" fill="#1E1D42"/>
<path d="M850.31 421.514C844.69 418.014 837.88 417.854 832.1 421.064C826.31 424.274 822.86 430.144 822.86 436.764V475.754C822.86 482.364 826.47 488.424 832.29 491.564C834.96 493.004 837.9 493.724 840.83 493.724C844.27 493.724 847.7 492.734 850.68 490.774L881.18 470.764C886.33 467.384 889.36 461.684 889.29 455.524C889.22 449.364 886.05 443.744 880.82 440.484L850.31 421.514ZM874.05 459.894L843.55 479.904C841.32 481.374 839.25 480.544 838.47 480.124C837.69 479.704 835.86 478.424 835.86 475.754V436.764C835.86 434.124 837.65 432.854 838.41 432.424C838.86 432.174 839.75 431.784 840.85 431.784C841.63 431.784 842.52 431.974 843.44 432.554L873.94 451.534C876.02 452.834 876.27 454.874 876.28 455.694C876.3 456.504 876.1 458.544 874.05 459.894Z" fill="#1E1D42"/>
<path d="M1189.72 395.704C1191.06 395.414 1205.76 416.154 1212.68 446.764C1219.86 478.514 1213.78 507.024 1211.79 505.844C1199.97 513.944 1187.34 520.354 1173.91 525.344C1170.1 526.764 1167.96 526.014 1166.17 522.554C1164.49 519.294 1162.56 516.164 1160.6 513.064C1159.3 511.004 1159.84 510.084 1162.02 509.194C1166.33 507.444 1170.57 505.504 1174.41 502.814C1172.73 499.874 1170.78 499.664 1167.79 500.954C1139.04 513.414 1110.18 513.284 1081.4 501.054C1078.5 499.824 1076.48 499.664 1074.52 502.784C1078.31 505.444 1082.47 507.424 1086.74 509.084C1089.17 510.024 1089.68 511.034 1088.26 513.234C1085.95 516.814 1083.69 520.424 1081.61 524.134C1080.32 526.424 1078.87 526.504 1076.54 525.714C1061.93 520.824 1048.49 513.744 1035.91 504.904C1033.74 503.374 1032.92 501.514 1032.75 499.014C1030.37 462.324 1039.1 428.534 1059.11 397.654C1060.23 395.934 1061.68 394.954 1063.46 394.174C1073.57 389.734 1084.09 386.624 1094.84 384.144C1098.34 383.334 1099.79 385.004 1100.62 387.764C1101.99 392.304 1104.26 393.944 1109.47 393.074C1120.69 391.194 1132.05 391.674 1143.29 393.524C1145.49 393.884 1145.99 392.664 1146.75 391.114C1151.06 382.304 1148.5 383.204 1159.06 385.354C1161.21 385.794 1163.38 386.254 1165.46 386.964C1174.36 390.004 1179.76 391.514 1183.45 393.054L1189.72 395.704Z" fill="#FDC61D"/>
<path d="M1189.3 414.774C1190.12 416.394 1191.04 418.174 1192.06 420.144C1192.54 421.054 1193 421.974 1193.45 422.894C1195.02 426.074 1198.21 427.914 1201.53 427.914C1202.87 427.914 1204.22 427.614 1205.5 426.984C1209.96 424.784 1211.79 419.394 1209.59 414.934C1209.08 413.894 1208.55 412.864 1208.02 411.834C1207.02 409.924 1206.14 408.184 1205.34 406.614C1203.08 402.184 1197.66 400.424 1193.24 402.684C1188.8 404.924 1187.04 410.344 1189.3 414.774Z" fill="#1E1D42"/>
<path d="M1206.7 498.424C1196.29 505.564 1185.22 511.354 1172.92 516.104C1172.64 515.594 1172.35 515.084 1172.06 514.584C1174.56 513.354 1177.12 511.914 1179.58 510.184C1183.38 507.514 1184.53 502.384 1182.22 498.354C1178.36 491.604 1171.62 489.494 1164.2 492.704C1137.73 504.174 1111.79 504.204 1084.91 492.774C1074.79 488.474 1069.27 494.204 1066.89 497.994C1064.34 502.054 1065.42 507.394 1069.34 510.154C1071.62 511.754 1074.06 513.204 1076.79 514.554C1076.5 515.024 1076.22 515.504 1075.93 515.984C1064.12 511.684 1052.88 505.774 1041.69 497.984C1039.55 463.574 1047.93 431.504 1066.59 402.664C1066.67 402.614 1066.82 402.534 1067.07 402.424C1074.77 399.034 1083.18 396.264 1093.31 393.774C1096.59 400.444 1102.74 403.344 1110.94 401.964C1120.33 400.394 1130.43 400.544 1141.81 402.424C1145.8 403.084 1151.27 402.374 1154.73 395.264L1154.81 395.094C1155.03 394.644 1155.23 394.224 1155.42 393.824C1155.98 393.944 1156.58 394.074 1157.23 394.204C1159.23 394.614 1161.01 394.994 1162.52 395.514C1166.25 396.784 1169.43 397.814 1171.98 398.644C1175.55 399.794 1178.13 400.634 1179.97 401.394C1184.56 403.304 1189.83 401.134 1191.74 396.544C1193.65 391.954 1191.48 386.684 1186.89 384.774C1184.37 383.724 1181.5 382.794 1177.52 381.514C1174.9 380.664 1171.93 379.704 1168.35 378.484C1165.83 377.624 1163.36 377.094 1160.84 376.574C1159.53 376.304 1158.43 376.054 1157.5 375.844C1153.85 375.024 1150.7 374.314 1147.14 375.814C1142.97 377.574 1141.39 381.124 1140.12 383.984C1128.91 382.504 1118.63 382.534 1108.84 384.074C1106.23 377.004 1100.18 373.694 1092.79 375.394C1079.93 378.354 1069.46 381.714 1059.81 385.954C1057.49 386.974 1054.11 388.784 1051.53 392.774C1030.59 425.084 1021.23 461.024 1023.74 499.604C1024.09 505.014 1026.43 509.284 1030.71 512.274C1044.63 522.044 1058.68 529.234 1073.66 534.254C1075.55 534.884 1077.25 535.154 1078.77 535.154C1084.93 535.154 1088.18 530.774 1089.43 528.544C1091.6 524.684 1093.97 520.944 1095.8 518.104C1096.31 517.314 1096.72 516.544 1097.03 515.794C1115.36 520.384 1133.71 520.394 1151.9 515.844C1152.18 516.494 1152.54 517.164 1152.97 517.844C1154.73 520.644 1156.59 523.624 1158.16 526.664C1162.04 534.194 1168.92 536.774 1177.03 533.764C1191.39 528.424 1204.79 521.524 1216.87 513.254C1220.97 510.444 1222.01 504.844 1219.2 500.744C1216.4 496.664 1210.8 495.614 1206.7 498.424Z" fill="#1E1D42"/>
<path d="M1202.1 445.444C1202.76 447.774 1203.36 450.154 1203.9 452.514C1204.85 456.694 1208.56 459.524 1212.67 459.524C1213.33 459.524 1214 459.454 1214.67 459.304C1219.52 458.204 1222.56 453.384 1221.46 448.534C1220.85 445.854 1220.17 443.164 1219.43 440.544C1218.08 435.764 1213.1 432.984 1208.32 434.334C1203.53 435.694 1200.75 440.664 1202.1 445.444Z" fill="#1E1D42"/>
<path d="M1226.16 476.554C1226.05 471.584 1221.94 467.634 1216.97 467.754C1212 467.864 1208.06 471.984 1208.17 476.944C1208.22 479.274 1208.25 481.654 1208.25 484.024C1208.25 488.994 1212.28 493.024 1217.25 493.024C1222.22 493.024 1226.25 488.994 1226.25 484.024C1226.24 481.524 1226.22 479.014 1226.16 476.554Z" fill="#1E1D42"/>
<path d="M1110.35 459.854C1109.84 451.834 1103.44 444.514 1096.09 443.484C1088.59 442.434 1081.64 446.864 1078.66 454.764C1076.54 460.374 1076.67 466.014 1079.41 471.404C1082.49 477.464 1087.15 481.424 1094.34 481.194C1101.49 480.964 1105.92 476.814 1108.75 470.614C1109.92 468.054 1110.6 465.354 1110.38 462.494C1110.35 461.614 1110.4 460.734 1110.35 459.854Z" fill="#1E1D42"/>
<path d="M1138.67 464.964C1139.28 472.384 1145.15 479.494 1151.84 480.944C1158.62 482.424 1165.6 479.084 1169.12 472.374C1172.37 466.174 1172.69 459.704 1169.68 453.314C1166.84 447.294 1162.2 443.494 1155.28 443.374C1148.3 443.244 1143.75 447.144 1140.64 452.974C1139.1 455.854 1138.34 459.004 1138.67 462.624C1138.66 463.204 1138.6 464.094 1138.67 464.964Z" fill="#1E1D42"/>
<path d="M1169.1 264.304H1079.85C1055.11 264.304 1034.87 244.064 1034.87 219.324V127.844C1034.87 103.104 1055.11 82.864 1079.85 82.864H1169.1C1193.84 82.864 1214.08 103.104 1214.08 127.844V219.334C1214.08 244.074 1193.84 264.304 1169.1 264.304Z" fill="#FDC61D"/>
<path d="M1187.46 180.814C1187.1 174.654 1186.11 169.664 1184.34 165.094C1180.9 156.214 1174.77 150.514 1166.12 148.124C1160.28 146.514 1153.94 146.354 1147.27 147.634C1143.61 148.334 1140.29 149.664 1137.38 151.594C1135.81 149.274 1133.15 147.904 1129.82 147.894C1124.81 147.884 1119.81 147.884 1114.8 147.894C1109.28 147.894 1105.71 151.484 1105.71 157.024C1105.71 178.804 1105.71 200.584 1105.71 222.374C1105.71 227.914 1109.28 231.494 1114.79 231.504C1118.58 231.514 1122.36 231.504 1126.15 231.504H1129.46C1135.39 231.504 1138.94 227.964 1138.94 222.044V213.824C1138.95 205.594 1138.95 197.354 1138.92 189.124C1138.91 186.734 1139.29 184.464 1140.08 182.184C1141.72 177.434 1144.67 176.834 1146.75 176.794C1150.12 176.734 1151.87 177.944 1153.02 181.114C1153.67 182.924 1153.98 185.014 1153.99 187.714C1154.01 195.904 1154.01 204.094 1154.01 212.284V222.564C1154.01 227.794 1157.62 231.474 1162.78 231.494C1165.5 231.504 1168.21 231.514 1170.88 231.514C1173.62 231.514 1176.33 231.504 1178.99 231.494C1184.13 231.464 1187.72 227.834 1187.74 222.664L1187.75 220.434C1187.76 216.764 1187.78 212.964 1187.74 209.214C1187.71 206.154 1187.73 203.014 1187.75 199.984C1187.8 193.724 1187.84 187.254 1187.46 180.814ZM1177.75 209.304C1177.79 212.994 1177.77 216.754 1177.76 220.404V221.504C1173.31 221.524 1168.71 221.524 1164.02 221.504V212.294C1164.02 204.094 1164.03 195.894 1164 187.694C1163.99 183.814 1163.49 180.654 1162.44 177.734C1159.85 170.534 1154.25 166.654 1146.57 166.804C1139.07 166.954 1133.26 171.364 1130.65 178.924C1129.5 182.234 1128.93 185.684 1128.94 189.174C1128.97 197.394 1128.96 205.614 1128.96 213.834V221.524H1126.17C1122.69 221.524 1119.21 221.524 1115.73 221.524C1115.73 200.324 1115.73 179.124 1115.73 157.924C1120.14 157.924 1124.55 157.924 1128.96 157.924C1128.96 158.684 1128.96 159.464 1128.96 160.294V162.034C1128.96 164.184 1130.33 166.094 1132.37 166.774C1134.41 167.454 1136.66 166.764 1137.95 165.044C1139.31 163.244 1140.32 162.014 1141.44 161.064C1143.59 159.244 1146.12 158.074 1149.17 157.484C1154.39 156.474 1159.07 156.584 1163.47 157.794C1168.98 159.314 1172.76 162.894 1175.02 168.734C1176.4 172.294 1177.18 176.324 1177.48 181.414C1177.83 187.534 1177.79 193.844 1177.76 199.944C1177.74 202.994 1177.72 206.164 1177.75 209.304Z" fill="#1E1D42"/>
<path d="M1091.83 147.904C1087.69 147.904 1083.54 147.904 1079.4 147.904H1077.62C1071.59 147.904 1067.99 151.504 1067.99 157.534V222.054C1067.99 227.784 1071.71 231.494 1077.45 231.494C1080 231.494 1082.54 231.504 1085.09 231.504C1087.36 231.504 1089.63 231.504 1091.89 231.494C1097.54 231.484 1101.2 227.814 1101.2 222.154C1101.21 200.534 1101.21 178.904 1101.2 157.284C1101.21 151.594 1097.53 147.904 1091.83 147.904ZM1091.21 221.504C1086.8 221.514 1082.4 221.514 1077.99 221.504V157.904H1079.4C1083.33 157.904 1087.27 157.904 1091.21 157.904C1091.22 179.104 1091.22 200.304 1091.21 221.504Z" fill="#1E1D42"/>
<path d="M1085.24 102.974C1085.19 102.974 1085.14 102.974 1085.09 102.974C1079.86 102.974 1074.92 105.014 1071.16 108.734C1067.34 112.514 1065.23 117.554 1065.21 122.914C1065.2 128.264 1067.25 133.284 1071 137.054C1074.75 140.824 1079.76 142.914 1085.11 142.924C1085.13 142.924 1085.14 142.924 1085.16 142.924C1090.5 142.924 1095.54 140.834 1099.34 137.024C1103.12 133.244 1105.19 128.254 1105.17 122.974C1105.14 112.034 1096.2 103.054 1085.24 102.974ZM1092.27 129.964C1090.36 131.874 1087.83 132.934 1085.16 132.934C1085.15 132.934 1085.14 132.934 1085.13 132.934C1082.46 132.924 1079.96 131.894 1078.09 130.014C1076.22 128.134 1075.2 125.624 1075.21 122.944C1075.22 120.264 1076.28 117.734 1078.19 115.844C1080.06 113.994 1082.5 112.984 1085.08 112.984C1085.1 112.984 1085.13 112.984 1085.15 112.984C1090.65 113.024 1095.14 117.524 1095.16 123.024C1095.19 125.614 1094.16 128.074 1092.27 129.964Z" fill="#1E1D42"/>
<path d="M1210.64 239.754C1206.39 236.234 1200.08 236.824 1196.56 241.074C1189.98 249.004 1180.36 253.554 1170.17 253.554H1078.79C1059.89 253.554 1044.51 238.174 1044.51 219.274V127.904C1044.51 109.004 1059.89 93.624 1078.79 93.624H1170.17C1186.7 93.624 1200.88 105.434 1203.89 121.714C1204.89 127.144 1210.11 130.734 1215.54 129.734C1220.97 128.734 1224.56 123.514 1223.56 118.084C1218.81 92.324 1196.36 73.624 1170.18 73.624H1078.8C1048.87 73.624 1024.52 97.974 1024.52 127.904V219.284C1024.52 249.214 1048.87 273.564 1078.8 273.564H1170.18C1186.35 273.564 1201.58 266.374 1211.97 253.844C1215.48 249.584 1214.89 243.274 1210.64 239.754Z" fill="#1E1D42"/>
<path d="M1214.44 135.874C1208.92 135.874 1204.44 140.354 1204.44 145.874V153.194C1204.44 158.714 1208.92 163.194 1214.44 163.194C1219.96 163.194 1224.44 158.714 1224.44 153.194V145.874C1224.44 140.354 1219.97 135.874 1214.44 135.874Z" fill="#1E1D42"/>
<path d="M1214.44 172.234C1208.92 172.234 1204.44 176.714 1204.44 182.234V189.074C1204.44 194.594 1208.92 199.074 1214.44 199.074C1219.96 199.074 1224.44 194.594 1224.44 189.074V182.234C1224.44 176.714 1219.97 172.234 1214.44 172.234Z" fill="#1E1D42"/>
<path d="M1214.44 208.294C1208.92 208.294 1204.44 212.774 1204.44 218.294V219.274C1204.44 220.244 1204.4 221.234 1204.31 222.204C1203.84 227.704 1207.92 232.544 1213.42 233.014C1213.71 233.034 1214 233.054 1214.28 233.054C1219.42 233.054 1223.79 229.114 1224.23 223.904C1224.36 222.374 1224.43 220.814 1224.43 219.274V218.294C1224.44 212.774 1219.97 208.294 1214.44 208.294Z" fill="#1E1D42"/>
<path d="M1437.14 264.304H1347.89C1323.15 264.304 1302.91 244.064 1302.91 219.324V127.844C1302.91 103.104 1323.15 82.864 1347.89 82.864H1437.14C1461.88 82.864 1482.12 103.104 1482.12 127.844V219.334C1482.12 244.074 1461.88 264.304 1437.14 264.304Z" fill="#FDC61D"/>
<path d="M1450.58 136.254C1443.27 136.254 1439.34 144.054 1437.23 152.824C1432.77 142.734 1425.38 136.254 1416.86 136.254C1407.69 136.254 1399.82 143.764 1395.51 155.204C1388.56 143.844 1376.04 136.254 1361.78 136.254C1339.99 136.254 1322.26 153.984 1322.26 175.774C1322.26 197.564 1339.99 215.294 1361.78 215.294C1376.04 215.294 1388.56 207.704 1395.51 196.344C1399.82 207.784 1407.69 215.294 1416.86 215.294C1425.38 215.294 1432.77 208.814 1437.23 198.724C1439.34 207.494 1443.27 215.294 1450.58 215.294C1465.6 215.294 1466.36 182.374 1466.36 175.774C1466.36 169.174 1465.6 136.254 1450.58 136.254ZM1361.77 203.294C1346.6 203.294 1334.25 190.944 1334.25 175.774C1334.25 160.604 1346.6 148.254 1361.77 148.254C1376.94 148.254 1389.29 160.604 1389.29 175.774C1389.29 190.944 1376.95 203.294 1361.77 203.294ZM1416.86 203.294C1410.78 203.294 1403.98 191.524 1403.98 175.774C1403.98 160.024 1410.78 148.254 1416.86 148.254C1422.94 148.254 1429.74 160.024 1429.74 175.774C1429.74 191.524 1422.94 203.294 1416.86 203.294ZM1450.58 201.154C1448.82 196.944 1446.8 188.144 1446.8 175.774C1446.8 163.404 1448.82 154.604 1450.58 150.394C1452.34 154.604 1454.36 163.404 1454.36 175.774C1454.36 188.144 1452.34 196.944 1450.58 201.154Z" fill="#1E1D42"/>
<path d="M1479.04 239.754C1474.79 236.234 1468.48 236.824 1464.96 241.074C1458.38 249.004 1448.76 253.554 1438.57 253.554H1347.19C1328.29 253.554 1312.91 238.174 1312.91 219.274V127.904C1312.91 109.004 1328.29 93.624 1347.19 93.624H1438.57C1455.1 93.624 1469.28 105.434 1472.29 121.714C1473.29 127.144 1478.51 130.734 1483.94 129.734C1489.37 128.734 1492.96 123.514 1491.96 118.084C1487.21 92.324 1464.76 73.624 1438.58 73.624H1347.2C1317.27 73.624 1292.92 97.974 1292.92 127.904V219.284C1292.92 249.214 1317.27 273.564 1347.2 273.564H1438.58C1454.75 273.564 1469.98 266.374 1480.37 253.844C1483.88 249.584 1483.29 243.274 1479.04 239.754Z" fill="#1E1D42"/>
<path d="M1482.84 135.874C1477.32 135.874 1472.84 140.354 1472.84 145.874V153.194C1472.84 158.714 1477.32 163.194 1482.84 163.194C1488.36 163.194 1492.84 158.714 1492.84 153.194V145.874C1492.84 140.354 1488.37 135.874 1482.84 135.874Z" fill="#1E1D42"/>
<path d="M1482.84 172.234C1477.32 172.234 1472.84 176.714 1472.84 182.234V189.074C1472.84 194.594 1477.32 199.074 1482.84 199.074C1488.36 199.074 1492.84 194.594 1492.84 189.074V182.234C1492.84 176.714 1488.37 172.234 1482.84 172.234Z" fill="#1E1D42"/>
<path d="M1482.84 208.294C1477.32 208.294 1472.84 212.774 1472.84 218.294V219.274C1472.84 220.244 1472.8 221.234 1472.71 222.204C1472.24 227.704 1476.32 232.544 1481.82 233.014C1482.11 233.034 1482.4 233.054 1482.68 233.054C1487.82 233.054 1492.19 229.114 1492.63 223.904C1492.76 222.374 1492.83 220.814 1492.83 219.274V218.294C1492.84 212.774 1488.37 208.294 1482.84 208.294Z" fill="#1E1D42"/>
<path d="M1437.5 545.784H1348.25C1323.51 545.784 1303.27 525.544 1303.27 500.804V409.314C1303.27 384.574 1323.51 364.334 1348.25 364.334H1437.5C1462.24 364.334 1482.48 384.574 1482.48 409.314V500.804C1482.48 525.544 1462.24 545.784 1437.5 545.784Z" fill="#FDC61D"/>
<path d="M1438.56 355.094H1347.18C1317.25 355.094 1292.9 379.444 1292.9 409.374V500.754C1292.9 530.684 1317.25 555.034 1347.18 555.034H1438.56C1454.73 555.034 1469.96 547.844 1480.35 535.314C1483.87 531.064 1483.28 524.754 1479.03 521.234C1477.16 519.684 1474.9 518.934 1472.65 518.934C1469.78 518.934 1466.92 520.164 1464.95 522.554C1458.37 530.484 1448.75 535.034 1438.56 535.034H1347.18C1328.28 535.034 1312.9 519.654 1312.9 500.754V409.374C1312.9 390.474 1328.28 375.094 1347.18 375.094H1438.56C1455.09 375.094 1469.27 386.904 1472.28 403.184C1473.17 408.004 1477.37 411.374 1482.1 411.374C1482.7 411.374 1483.31 411.324 1483.93 411.204C1489.36 410.204 1492.95 404.984 1491.95 399.554C1487.2 373.794 1464.74 355.094 1438.56 355.094Z" fill="#1E1D42"/>
<path d="M1482.84 417.344C1477.32 417.344 1472.84 421.824 1472.84 427.344V434.664C1472.84 440.184 1477.32 444.664 1482.84 444.664C1488.36 444.664 1492.84 440.184 1492.84 434.664V427.344C1492.84 421.824 1488.37 417.344 1482.84 417.344Z" fill="#1E1D42"/>
<path d="M1482.84 453.714C1477.32 453.714 1472.84 458.194 1472.84 463.714V470.554C1472.84 476.074 1477.32 480.554 1482.84 480.554C1488.36 480.554 1492.84 476.074 1492.84 470.554V463.714C1492.84 458.184 1488.37 453.714 1482.84 453.714Z" fill="#1E1D42"/>
<path d="M1482.84 489.764C1477.32 489.764 1472.84 494.244 1472.84 499.764V500.744C1472.84 501.714 1472.8 502.704 1472.71 503.674C1472.24 509.174 1476.32 514.014 1481.82 514.484C1482.11 514.504 1482.4 514.524 1482.68 514.524C1487.82 514.524 1492.19 510.584 1492.63 505.374C1492.76 503.844 1492.83 502.284 1492.83 500.744V499.764C1492.84 494.244 1488.37 489.764 1482.84 489.764Z" fill="#1E1D42"/>
<path d="M1421.82 404.814C1421.27 404.814 1421.07 405.004 1420.88 405.484C1414.01 422.644 1407.14 439.804 1400.26 456.964C1398.94 460.264 1397.61 463.564 1396.28 466.884C1396 466.694 1395.96 466.424 1395.86 466.194C1386.63 445.964 1377.4 425.724 1368.19 405.484C1367.96 404.984 1367.69 404.834 1367.15 404.834C1359.2 404.844 1351.25 404.844 1343.3 404.844C1339.61 404.844 1335.92 404.844 1332.23 404.844C1332.15 404.844 1332.07 404.844 1331.99 404.844C1331.83 404.844 1331.68 404.844 1331.52 404.844C1331.39 404.844 1331.2 404.844 1331.22 404.994C1331.31 405.794 1330.92 406.634 1331.56 407.394C1335.3 411.864 1338.96 416.404 1342.77 420.824C1344.09 422.354 1344.64 423.924 1344.63 425.934C1344.58 444.114 1344.6 462.304 1344.6 480.484C1344.6 480.794 1344.6 481.114 1344.64 481.424C1344.89 483.314 1344.4 485.004 1343.2 486.464C1338.95 491.634 1334.7 496.804 1330.41 501.944C1329.84 502.634 1329.59 503.304 1329.59 504.194C1329.59 504.934 1329.82 505.064 1330.5 505.064H1330.51C1338.23 505.054 1345.95 505.044 1353.67 505.044C1357.85 505.044 1362.03 505.044 1366.21 505.044C1366.27 505.044 1366.32 505.044 1366.38 505.044C1366.44 505.044 1366.5 505.044 1366.56 505.044C1366.71 505.044 1366.86 505.044 1367.01 505.044C1367.14 505.044 1367.32 505.024 1367.3 504.864C1367.2 504.114 1367.6 503.304 1367.03 502.604C1362.59 497.224 1358.15 491.834 1353.7 486.454C1353.09 485.724 1352.67 484.904 1352.38 483.994C1352.02 482.864 1352.17 481.724 1352.17 480.574C1352.18 465.134 1352.17 449.704 1352.17 434.264C1352.17 433.954 1352.17 433.644 1352.17 433.324C1352.23 433.304 1352.28 433.294 1352.34 433.274C1352.45 433.494 1352.56 433.714 1352.66 433.944C1360.01 449.974 1367.35 466.004 1374.7 482.034C1378.1 489.444 1381.5 496.854 1384.87 504.274C1385.12 504.834 1385.41 505.074 1385.94 505.074C1386 505.074 1386.07 505.074 1386.14 505.064C1386.49 505.034 1386.84 505.014 1387.19 505.014C1387.52 505.014 1387.85 505.034 1388.17 505.064C1388.25 505.074 1388.33 505.074 1388.4 505.074C1388.97 505.074 1389.22 504.764 1389.45 504.184C1398.64 480.774 1407.86 457.374 1417.08 433.974C1417.18 433.724 1417.2 433.424 1417.53 433.184C1417.53 433.364 1417.53 433.484 1417.53 433.594C1417.53 452.584 1417.52 471.584 1417.54 490.574C1417.54 491.724 1417.19 492.624 1416.35 493.424C1413.27 496.364 1410.23 499.364 1407.14 502.304C1406.51 502.904 1406.21 503.504 1406.24 504.394C1406.26 505.154 1406.45 505.324 1407.19 505.324C1407.19 505.324 1407.19 505.324 1407.2 505.324C1417.97 505.304 1428.74 505.304 1439.5 505.304C1444.59 505.304 1449.68 505.304 1454.77 505.304C1454.84 505.304 1454.92 505.304 1454.99 505.304C1455.08 505.304 1455.17 505.304 1455.25 505.304C1455.35 505.304 1455.44 505.304 1455.54 505.304C1455.67 505.304 1455.79 505.304 1455.87 505.154C1456.08 504.764 1455.82 503.054 1455.48 502.724C1452.26 499.574 1449.05 496.434 1445.83 493.284C1445.26 492.724 1444.94 492.064 1444.89 491.274C1444.86 490.784 1444.91 490.284 1444.91 489.784C1444.91 466.764 1444.91 443.734 1444.91 420.714C1444.91 420.194 1444.89 419.664 1444.88 419.144C1444.86 418.234 1445.16 417.454 1445.82 416.824C1448.92 413.854 1452 410.864 1455.13 407.944C1455.88 407.244 1456.27 406.574 1456.18 405.524C1456.13 404.924 1455.99 404.814 1455.43 404.814C1455.43 404.814 1455.43 404.814 1455.42 404.814C1449.99 404.824 1444.55 404.824 1439.12 404.824C1433.35 404.834 1427.59 404.824 1421.82 404.814Z" fill="#1E1D42"/>
</svg>
