<svg width="78" height="63" viewBox="0 0 78 63" fill="none" xmlns="http://www.w3.org/2000/svg">
<path d="M55.8727 59.8439H21.3459C11.7751 59.8439 3.94519 53.5322 3.94519 45.8172V17.2897C3.94519 9.57471 11.7751 3.263 21.3459 3.263H55.8727C65.4435 3.263 73.2735 9.57471 73.2735 17.2897V45.8203C73.2696 53.5322 65.4397 59.8439 55.8727 59.8439Z" fill="#FDC61D"/>
<path d="M72.0821 52.2225C70.438 51.1248 67.9969 51.3088 66.6352 52.6341C64.0897 55.107 60.3682 56.5259 56.4261 56.5259H21.0753C13.7638 56.5259 7.81391 51.7297 7.81391 45.8359V17.3428C7.81391 11.4489 13.7638 6.65276 21.0753 6.65276H56.4261C62.8208 6.65276 68.3064 10.3356 69.4709 15.4125C69.8577 17.1058 71.8771 18.2253 73.9777 17.9134C76.0783 17.6016 77.4671 15.9738 77.0803 14.2805C75.2427 6.24737 66.5579 0.415894 56.43 0.415894H21.0792C9.50062 0.415894 0.0806885 8.00928 0.0806885 17.3428V45.839C0.0806885 55.1725 9.50062 62.7659 21.0792 62.7659H56.43C62.6854 62.7659 68.5772 60.5237 72.5966 56.6163C73.9545 55.2879 73.7263 53.3233 72.0821 52.2225Z" fill="#1E1D42"/>
<path d="M73.5521 19.8282C71.4167 19.8282 69.6836 21.2252 69.6836 22.9466V25.2293C69.6836 26.9507 71.4167 28.3477 73.5521 28.3477C75.6876 28.3477 77.4207 26.9507 77.4207 25.2293V22.9466C77.4207 21.2252 75.6915 19.8282 73.5521 19.8282Z" fill="#1E1D42"/>
<path d="M73.5521 31.1669C71.4167 31.1669 69.6836 32.5639 69.6836 34.2853V36.4183C69.6836 38.1397 71.4167 39.5367 73.5521 39.5367C75.6876 39.5367 77.4207 38.1397 77.4207 36.4183V34.2853C77.4207 32.5639 75.6915 31.1669 73.5521 31.1669Z" fill="#1E1D42"/>
<path d="M73.5522 42.4119C71.4168 42.4119 69.6837 43.8089 69.6837 45.5303V45.8359C69.6837 46.1384 69.6682 46.4471 69.6334 46.7496C69.4516 48.4647 71.03 49.9741 73.1577 50.1206C73.2699 50.1269 73.382 50.1331 73.4904 50.1331C75.4788 50.1331 77.1693 48.9044 77.3396 47.2797C77.3899 46.8026 77.4169 46.3161 77.4169 45.8359V45.5303C77.4208 43.8089 75.6915 42.4119 73.5522 42.4119Z" fill="#1E1D42"/>
<line y1="-8" x2="39.9937" y2="-8" transform="matrix(0.822196 0.569204 -0.729133 0.684371 7.81787 12.5778)" stroke="#1E1D42" stroke-width="16"/>
<line y1="-8" x2="38.2648" y2="-8" transform="matrix(0.758245 -0.651969 0.797805 0.602916 40.7002 35.3424)" stroke="#1E1D42" stroke-width="16"/>
</svg>
