<svg width="1440" height="1024" viewBox="0 0 1440 1024" fill="none" xmlns="http://www.w3.org/2000/svg">
<g clip-path="url(#clip0)">
<rect width="1440" height="1024" fill="#141648"/>
<path fill-rule="evenodd" clip-rule="evenodd" d="M1440 172.593L1380 179.793C1320 186.992 1200 201.392 1080 208.592C960 215.792 840 215.792 720 165.393C600 114.994 480 14.1961 360 -0.203644C240 -14.6033 120 57.3951 60 93.3944L0 129.394V-173H60C120 -173 240 -173 360 -173C480 -173 600 -173 720 -173C840 -173 960 -173 1080 -173C1200 -173 1320 -173 1380 -173H1440V172.593Z" fill="#D13C74"/>
<path fill-rule="evenodd" clip-rule="evenodd" d="M-159.917 687.109C-136.19 631.285 -113.265 546.537 -47.8488 552.208C25.814 558.593 53.2065 689.393 126.569 711.944C204.108 735.778 266.546 642.025 342.887 672.316C414.152 700.593 479.689 782.42 486.95 854.936C494.559 930.93 422.388 975.865 378.661 1029.58C350.09 1064.68 313.299 1089.02 275.649 1114.51C243.724 1136.13 206.875 1147.32 174.25 1168.01C123.643 1200.09 96.3103 1280.72 30.5733 1269.9C-30.8225 1259.81 -63.7485 1178.42 -99.3577 1123.01C-128.598 1077.5 -143.937 1028.37 -156.82 978.276C-168.623 932.375 -170.911 888.251 -171.394 842.876C-171.965 789.122 -179.68 733.606 -159.917 687.109Z" fill="#D13C74"/>
<path fill-rule="evenodd" clip-rule="evenodd" d="M923.673 904.256C1024.74 869.19 1118.87 997.459 1226.76 1007.22C1340.69 1017.53 1464.63 888.144 1555.72 961.45C1644.88 1033.2 1576.66 1180.17 1582.93 1293.86C1587.82 1382.52 1637.74 1482.19 1588.37 1553.35C1539.08 1624.39 1433.05 1613.04 1348.73 1631.44C1290.92 1644.05 1232.81 1629.92 1175.24 1643.48C1069.22 1668.45 969.596 1800.49 873.184 1743.47C784.919 1691.27 859.498 1545.86 839.46 1444.9C820.417 1348.95 744.388 1264.88 759.255 1169.43C775.917 1062.46 823.54 939 923.673 904.256Z" fill="#48DBDB"/>
<path fill-rule="evenodd" clip-rule="evenodd" d="M1003.5 948.614C1109.51 934.261 1176.37 1078.63 1280.19 1109.57C1389.82 1142.25 1536.93 1039.97 1611.7 1129.87C1684.88 1217.86 1588.9 1348.41 1572.53 1461.08C1559.76 1548.95 1588.94 1656.54 1526.46 1716.51C1464.07 1776.38 1362.39 1744.26 1276.09 1745.59C1216.93 1746.5 1162.78 1721.13 1103.66 1723.02C994.795 1726.5 870.991 1836.18 787.783 1761.2C711.606 1692.55 813.511 1564.79 813.868 1461.86C814.208 1364.04 756.339 1266.58 789.817 1175.97C827.337 1074.42 898.472 962.834 1003.5 948.614Z" stroke="#141648"/>
</g>
<defs>
<clipPath id="clip0">
<rect width="1440" height="1024" fill="white"/>
</clipPath>
</defs>
</svg>
