<svg width="200" height="200" viewBox="0 0 200 200" fill="none" xmlns="http://www.w3.org/2000/svg">
<path d="M144.599 190.69H55.3491C30.6091 190.69 10.3691 170.45 10.3691 145.71V54.2202C10.3691 29.4802 30.6091 9.24023 55.3491 9.24023H144.599C169.339 9.24023 189.579 29.4802 189.579 54.2202V145.71C189.579 170.45 169.339 190.69 144.599 190.69Z" fill="#FDC61D"/>
<path d="M145.66 0H54.28C24.35 0 0 24.35 0 54.28V145.66C0 175.59 24.35 199.94 54.28 199.94H145.66C161.83 199.94 177.06 192.75 187.45 180.22C190.97 175.97 190.38 169.66 186.13 166.14C184.26 164.59 182 163.84 179.75 163.84C176.88 163.84 174.02 165.07 172.05 167.46C165.47 175.39 155.85 179.94 145.66 179.94H54.28C35.38 179.94 20 164.56 20 145.66V54.28C20 35.38 35.38 20 54.28 20H145.66C162.19 20 176.37 31.81 179.38 48.09C180.27 52.91 184.47 56.28 189.2 56.28C189.8 56.28 190.41 56.23 191.03 56.11C196.46 55.11 200.05 49.89 199.05 44.46C194.3 18.7 171.84 0 145.66 0Z" fill="#1E1D42"/>
<path d="M189.939 62.25C184.419 62.25 179.939 66.73 179.939 72.25V79.57C179.939 85.09 184.419 89.57 189.939 89.57C195.459 89.57 199.939 85.09 199.939 79.57V72.25C199.939 66.73 195.469 62.25 189.939 62.25Z" fill="#1E1D42"/>
<path d="M189.939 98.6201C184.419 98.6201 179.939 103.1 179.939 108.62V115.46C179.939 120.98 184.419 125.46 189.939 125.46C195.459 125.46 199.939 120.98 199.939 115.46V108.62C199.939 103.09 195.469 98.6201 189.939 98.6201Z" fill="#1E1D42"/>
<path d="M189.94 134.67C184.42 134.67 179.94 139.15 179.94 144.67V145.65C179.94 146.62 179.9 147.61 179.81 148.58C179.34 154.08 183.42 158.92 188.92 159.39C189.21 159.41 189.5 159.43 189.78 159.43C194.92 159.43 199.29 155.49 199.73 150.28C199.86 148.75 199.93 147.19 199.93 145.65V144.67C199.94 139.15 195.47 134.67 189.94 134.67Z" fill="#1E1D42"/>
<path d="M81.753 74.3009C69.3928 81.2515 69.9212 97.9642 69.9212 97.9642C69.9212 97.9642 67.3632 105.57 79.1882 117.401C85.9061 124.122 93.0559 122.661 102.007 125.852C113.847 130.073 114.676 133.458 114.676 133.458C114.676 133.458 115.536 139.581 112.157 141.06C98.6344 146.976 89.338 138.524 89.338 138.524L83.422 130.918L66.5194 141.06C66.5194 141.06 69.1868 147.712 71.5874 150.356C73.6338 152.611 75.0576 153.623 77.5105 155.426C80.0188 157.271 81.5307 158.175 84.2716 159.652C85.57 160.352 86.2812 160.791 87.6494 161.342C90.7669 162.598 92.7506 162.637 96.0883 163.033C101.009 163.615 108.778 163.033 108.778 163.033C108.778 163.033 112.465 162.913 114.676 162.187C117.21 161.356 120.629 159.659 120.629 159.659C120.629 159.659 125.818 156.989 128.216 154.581C129.895 152.895 131.262 151.574 132.461 149.518C134.469 146.072 135.326 142.456 135.822 140.214C136.317 137.972 135.822 130.921 135.822 130.921C135.822 130.921 134.568 125.43 132.654 122.471C130.208 118.689 127.592 117.562 123.985 114.866C113.326 106.903 108.797 110.642 92.7146 101.344C87.6687 95.4292 92.7146 89.512 98.6306 89.512C113.023 89.5132 115.558 99.6548 115.558 99.6548L125.7 93.7389L132.654 89.512C132.654 89.512 124.694 73.8459 111.332 70.9203C100.346 68.5147 92.7146 68.1368 81.753 74.3009Z" fill="#1E1D42"/>
<circle cx="112.178" cy="42.1863" r="16.9027" fill="#1E1D42"/>
<circle cx="80.0623" cy="55.7078" r="11.8319" fill="#1E1D42"/>
</svg>
